<svg viewBox="0 0 1048 1002.5846" xmlns="http://www.w3.org/2000/svg"><path d="M341 111.27c-3 2-9 2-13 1-2-3-7-5-8-9-3-2-7-1-9-2 0-3 6-1 6-4 6-1 11-3 17-4l-1-1h4c-1 0-1 0-1 1 3 1 5 2 7 4 1 5 1 10-2 14m-95 41c-2 1-3 1-4 2h-8c2-2 4-4 5-7s-2-5-3-9c-2 0-5-2-8 0 0-3 5-1 4-4h11-1c0 3 5 2 5 4 1 2 2 5 2 8 0 2-2 3-3 6zm798 155c4-7-3-12-5-17-8-8-16-14-24-21-6 1-8-5-13-6 0 1 1 2 0 2 5 3 10 8 15 12 2 5 7 6 8 10 2 3 3 8 1 11-2-1-5 0-5-3-6 0-11-2-17 0-3 3-5 9-4 13-1 6 6 8 4 14 0 2-2 3-2 3-3 3-9 2-13 1-1-3-6-1-9-2-1-1 1-1 0-2-10-2-21-6-31-10h1c-8 0-14-4-21-5-12-2-24-2-36-1-6 2-14 4-19 8-11 11-18 25-25 38-4 0-2 6-6 4 2-7 9-14 9-22 1-5-2-11-4-14-7-5-11-14-17-19-6-3-12-7-17-10h1c-1-1-3-2-4-1-1 3 4 1 4 4 1 0 2 1 3 1 6 7 12 12 18 19-2 2 2 3 1 4 2 8-1 15-6 19-5 5-12 9-16 14-18 22-8 49-1 73 7 19 18 40 17 60-3 12 1 26-9 36-4 1-4 5-8 5l1 1c-3 1-8 0-8 3l-23 1c-6-4-10-4-16-7v-1c-11-7-20-16-29-23-5-5-10-10-16-14l-4-2c-8-3-15-12-25-14l-11-2c-12-1-26-6-38-8h1c-4-2-8-1-11-3h1c-3-2-7-1-10-2 1-1 1-1 2-1-3-1-6-2-9-2-6-1-8-5-15-5v-1c-9-4-18-7-27-10l1-1c-2-1-5 0-7-2l1-1c-5 0-8-4-11-4v-1c-8-3-16-9-22-13h1l-4-2 1-1c-2-1-6 0-5-3h1c-5-2-7-5-11-7v-1c-6-6-14-10-19-16-2-8 1-17 6-22 4-3 7-7 11-9v-1c7-1 10-4 17-5l4-1c1-3-4-1-3-4-6-4-11-5-17-7v-1l-6-2c1-2-2-2-1-4 1-1 4-1 6 0 6 3 12 5 19 6 8-3 15-1 23-4 4 3 12 3 17 2 3-1-1-2-1-4-4-2-7-5-10-7-6-4-13-3-19-4 0 0 0-1 1-1-2-2-6-1-9-2 0-2-6-5-8-5 2-2-3-1-2-4 1-2 4-1 6-1 3 2 10 3 15 4 4-3 11 0 13-4 13-1 27 1 38-1 2-4-4-5-5-7-3 0-6 0-7-1v-1c-4-1-7-3-11-5h1c-10 0-18-5-28-4-2-2-6-5-10-8 1-2 0-2 1-2 5-1 10 0 14-1l1-2c6-1 14 0 19-2-2-2-5-4-7-4v-1c-6 0-10-4-17-4 0-3-6-1-6-6 2-3 10-1 15-1h-1c9 2 16 2 24-2 1-2 5-1 5-4 13-2 24 7 36 2-1 0-1 0-1-1l4-2c1-1 0-1 0-4-10 0-20-10-29-8-7-4-18-1-27-3 0-3-7-2-9-3v-1c-4-1-8-4-11-7 8-1 18 1 28 0 8-3 15-4 22-7 12-1 21 0 33-1-1-3 3-1 4-3-1-1 3-1 2-3-5-1-10-3-14-4v-1c-5-2-9-5-13-5-11 0-23 2-34 1-8-3-15-7-21-11 3-3 4-4 7-6 1-4-6-2-7-6 9-2 17-4 26-7 0-2 5-2 4-4 8-2 18 1 25-2 7-1 10-3 15-7 1-6-9-3-13-5-10-5-21-8-32-7-8 4-18 2-28 2-3-4-9-2-12-5 1-3 4-3 5-5 8-4 16-5 23-8 0-1-3-3-1-2-6-3-11-3-16-5-8-1-18 0-26-2l-6-2c0-2 3 0 4-2 0 0-1 1-1 0 6-1 12-1 18-2 11-3 20-11 30-12 6 3 12-1 18-1 1-2 5-4 5-7h-12c-1-3-7-1-10-3h1c-3-3-8 0-9-4l-13-1 1-1c-22-5-43-1-65-1 0-3 3-3 4-4 7-4 14-5 22-8l6-2-2-1 5-2c1-1 3-4 3-6 0-1-1 0-2-1-1 1-1 2-1 3-6-2-11-3-17-3-1-3-7-1-8-4-12-2-26 0-37-1 7-5 17-6 22-12-12 1-25-1-38-2l1-1c-3 0-6-2-9 1-1 13-6 24-7 37 2 0 3 1 4 2h-1c5 0 4 4 8 5 5 5 11 10 16 15 6 8 12 15 18 23 7 12 13 23 18 35 15 35 10 79 4 118-4 27-13 53-20 80-1 1-2 2-4 1 1-4-4-4-3-8-7-6 0-16 1-24 11-39 25-85 19-125-1-3 0-7-1-9-4-19-8-35-18-52-5-13-16-22-23-34-6-3-9-8-14-12-5-1-7-7-12-8h1c-5-3-10-5-15-9 1-1 4 0 5 0 7-1 6-9 9-14 2-16 7-35 7-50-6 11-9 28-21 35-4 6-9 5-12 9h1c-4 1-5 4-9 5-4 4-2 12-9 12-3-3 1-11 2-15 3-6 10-6 15-10l6-2c1-1 2-2 2-3l-13-2 1-1c-6-1-13-1-20 0 0 1-2 1-2 1-8 4-9 15-10 21-6 1-12 5-19 8-5 1-6 4-11 5l-7 2c1 0 1 0 1 1-9 4-18 8-26 12v1l-6 2-5 3h1c-6 2-11 4-15 8l-5 2c-5 4-13 8-18 11-8 5-16 5-24 8-5-1-5 5-10 5-2 2-5 5-6 9-10 11 1 24-4 35-1 4 7 2 8 4 11 2 21 0 32 2h-1l10 1c4 0 2 3 2 5-10 4-18 9-27 12 0 0 1 0 1 1-3 1-6 2-10 3-1 4 5 3 4 5 4 2 2 3 6 4 0 0 0 1-1 1 1 2 4 1 5 2h-1c1 2 4 1 5 4 7 3 15 1 23-1-1-2 2-1 3-2v-1c3-1 4-4 8-5 5-3 10-7 16-10 9-4 20-5 29-7 5 4 10 9 15 12 7 0 8 4 15 3 8-1 18-4 25-8v-1c5-1 6-6 11-7h-1c6-4 7-11 13-12 3 3-1 7-3 9-2 4-6 7-9 12-6 5-10 6-14 10-5 0-8 4-13 4 0 0 1 0 1 1-4 1-9 0-13 3-4 0-6 1-8 4-8 9-19 17-26 26-21 23-34 51-52 77-2 4-6 7-10 11-4 5-10 10-14 16-5 5-7 14-11 22-5-4-9-9-15-11l1-1c-3-1-6-3-8-5h1l-4-2v-1c-5 0-2-3-7-4-10-10-19-22-28-34-1-6-4-12-6-18-2 0-4-3-4-4-4-1-3-4-8-5-11 6-25 0-34 11-2 7-7 13-10 21-8 10-20 19-25 29-7 4-8 8-14 12l1 1c-6 4-11 9-16 13-10 5-11 19-13 27 0 7 2 10 3 17 4 13-5 23-11 31-6 4-13 7-19 7 1 0 1 1 1 1 5 0 10 0 14 2 2 2 3 5 3 8-2 6-2 18-4 25l2 2s-1 0-1 1c9 2 19 0 27-1 1-2 6-1 8-2 4-2 10-3 15-5-1-3 5-2 5-5 8-5 6-18 8-26l-28-1c2-2-2-4 0-6 6-2 14-4 21-6 1-6 2-12 6-15 3-6 9-8 14-12 5-2-1-7 0-11-2-2-2-5-4-8-4-3-6-7-11-8 0-4 3-6 5-9 13-12 26-23 37-36 1-1 2-1 4-1 5-1 3 3 7 4 4 8 11 13 14 18 5 9 12 16 14 25 6 11 5 22 9 33 1 2 3 4 3 6 5 3 14 7 21 10 6-1 7 4 14 3 0-10-4-21-1-33 2-4 3-8 6-13 1-1 2 0 4 1-5 15-1 29 1 42-1 6 3 9 3 14-7 5-14 2-21 2 0-1 1-1 2-1-8-1-14-3-23-5h1c-13-1-23-11-36-13l1-1c-5 0-10-2-14 0 0 0 1 0 1 1-8 2-10 14-13 20-10 13 2 24 3 36 1 6 3 12 3 17 2 22 3 45 6 67 2 5 7 8 8 13 4 1 7 5 11 5h-1c2 1 5 0 6 3h-1c4 1 6 4 10 5 3 3 6 4 8 7 2 4 1 8 3 11 2 7 3 14 1 23 3 2 3-3 5-4h-1c2-3 5-1 8-1 4 5 9 9 14 14 1 2 3 4 4 7 2 0 6 1 7-1 2-2 4-5 5-7 8-19 20-42 7-60-4-3-5-7-9-9-5 12-10 18-15 30-2 0-5-1-6-1 1-11 6-21 11-31-4 0-7 0-10-2-1-1-3-3-4-5-3-11 0-19 3-32-1-1-4 1-3-1l-17-2c2-1 3-1 4-1h-10c1 0 1 0 2 1-5-1-9 2-13 0-3-17-3-34-3-50 10-4 20 3 31 6h-1l6 2-1 1c5 1 6 4 10 5l-1 1c2 0 5 0 6 1l-1 2c2 0 4 0 5 1v1c4 0 5 4 8 4v1l4 2v1c5-1 4 5 9 4l-1 2c2 0 4 0 5 1v1c7 3 14 7 21 11 7 2 15 5 22 8 6 0 13 2 18 0 1-3 4-6 6-8 9-14 10-30 10-46 1 1 3-1 4 1 4 18-1 37-2 55 5 1 5 5 10 5l-1 1c2 1 5 1 5 3l5 2 4 2-1 2c1 0 4 0 5 1-1 0 0 1 0 1 2 0 3 2 5 2l-1 1c5 4 10 4 14 8 5 1 10 5 15 8h-1l7 2-1 1 6 2h-1c2 1 4 1 6 3h-1c2 1 4 1 6 1v2c6-2 6 5 12 4l-1 1c9 4 20 8 28 10 12 1 25 8 36 12 9-1 13 4 22 4 10 2 19 4 29 5h-1c6 2 13 1 19 3h-1c16 0 29 5 45 5h-1l5 2c1 14 2 27 4 40 1 5 3 11 4 15 5 4-3 5 0 9-3-1-3-4-5-6l-8-16c-3-8-7-17-8-25 0-6-10-3-15-5h3l-26-2c-6-2-14-2-21-3h2c-3-1-6-2-9-1 6 17 13 35 24 50 7 6 13 14 19 21 4 0 2 4 6 4 3 8 13 12 16 21 1 20 3 35-2 55-15 18-26 40-42 55-6 6-13 9-19 15-10 6-16 19-24 26-8 3-18 7-26 7 0 3 3 3 3 5 0 14-12 26-13 40 3 0 6 4 11 2 9 4 21 2 31 2 5-4 11 0 15-4 10-4 16-14 19-25-1 0-2 0-2-1-8 0-17-3-25-3 0-3 0-6 1-9 10-2 23 3 30-3l-1-1c4-3 7-8 12-8v-1c8-2 17-6 25-6v-1h7c1-7 1-16-3-21-1-2-5-4-4-7 12-15 22-32 37-44 5-3 12-5 16-7 8-5 16-9 21-15 1-2 7-8 4-12-2-11-4-23-6-34 2-1 4 0 5 1h-1c6 2 11 8 17 11h-1c5 1 7 6 12 7l-1 2c2 0 4 0 6 1h-1c8 3 16 9 25 11h-1c2 2 8 0 9 3 10 12 22 24 32 37 3 5-1 8-2 13-6 20-17 38-27 55-12 12-21 21-29 35-3 2-5 6-9 7v1c-9 5-19 9-29 11 3 2 4 6 4 8-3 12-8 21-14 29-3 3-2 4 0 6 5 1 9 2 14 3v1c13 2 30 2 43 0 13-4 21-14 25-28-2 0-4 0-4-1l-15-2c-4-2-10 0-14-2 2-3 3-7 6-9 9 0 19 0 26 1 5-6 9-12 15-18 5-3 11-6 16-6v-1l17-2c3-7 1-14-4-19-1-2-4-5-5-6-2-2-4-5-3-7 5-14 11-26 17-40 9-19 29-31 33-53-1-6 3-15-5-18-2-3-4-5-5-6-5 0-3-4-7-4-5-5-9-12-13-17-6-10-13-18-19-28-3-1-6-4-6-5l-1-4c10-20 25-39 34-59 9-21 23-51 11-76 2-1 3-1 4-3h7c3 5 5 8 8 13 5 0 3 3 7 4l-1 1 6 1c1 1-2 1 0 1 2 1 4 1 6 2 0 0 0 1-1 1l7 2h-1l5 3h-1c1 1 5 2 3 3 6 7 0 19-3 27 6-6 8-16 14-22 1-5 2-10 2-16 1 0 2 1 3 2 1 5 5 6 6 9 7 2 13 0 20 1 0 3 5 2 4 5h4c1-5-1-10-2-15-4-6-12-11-14-19l-8-8c2-2 5-1 8 0l-1 1c1 1 4 1 5 2v1c4 2 9 1 14 0 6 0 7 5 12 4 2-1 6-1 5-3l15-1c1-4-2-6-3-9-4-2-9-4-12-5-2-2-5-4-6-7h-6c-1-2-2-4 0-5 6-2 12-1 17 1 0 1 4 1 5 4 9 2 13-6 18-7h-1c1-2 5-1 7-2-2-2-1-6-5-5-1-3-6-2-9-3l1-1-6-2c-1-2-4-5-5-6-3-1-4-4-7-4 0-1 0-1-1-2 4-2 8-1 12-1 1-3 5-2 5-4 5-2 11-4 16-3 1 2 6 2 10 1l-1-1 5-1c-1-3 2-2 1-5-1 0-3 0-3-1v-1c-6-3-12-6-16-10-11-3-21 1-31-1-1-3-7-3-10-4-5-1-11 1-16 3h1c-3 0-6 3-9 1 3-4 6-8 11-9 2-3 8-5 12-6v-1c10-2 22 1 32-2l6-2v-1c4-1 5-3 8-5 6-1 11 1 17 1 4-3 9-3 11-7 3-1 7-1 10-1 5 2 5-3 10-3 0-2 2-2 3-4-7-3-12-8-19-11-3-4-10-1-15-3 0-3-4 0-5-3 6 1 10-3 15-3v-1c5-3 10-6 15-5 3 0 11 6 17 4-1-3 3-2 4-3-1-1 2-3 2-4-3-1-5-1-8-2 0 0-4-3-6-4v-2c-5 1-4-4-9-4h1c-6-2-10-2-16-2-5-5-12-9-19-11 1-5 7-2 11-2h-1c4 3 9 2 13 1 7-2 12-7 19-6 2 3 8 0 9 4 7 1 14 0 19-3 0-2 3-4 3-6-7 0-11-2-16-5-3-3-7-5-9-9-2-1-6 1-6-2l-27-1c-5-3-8-6-14-6 0-1 1-1 1-1-2-1-6 0-9-2l1-1c-4-1-9 0-14-1 2-5 9-5 12-8h19c4 4 12 1 16 4 10 2 19 1 30 1 2-2 6-3 9-5 1-2 2-4 4-6 3-6 1-15-3-20-1-5-8-8-7-14 8-1 15 6 23 2h-1l4-2c-2-2 1-2 1-3z"/></svg>