<svg viewBox="0 0 824 1002.5846" xmlns="http://www.w3.org/2000/svg"><path d="M166 991.27c56-145 119-287 179-431-115-1-230-2-345-2v-66h256c-16-31-30-64-24-99-5-84 72-163 157-154 46-5 93 7 124 42 55 54 60 143 25 210 95 3 191 1 286 1v66c-124 0-247 1-371 2 57 144 118 286 170 431-37 15-86 6-127 9-108-2-217 4-324-4l-5-2-1-3zm278-513c46-27 61-94 25-135-31-43-98-50-135-13-46 36-41 114 8 145 29 22 71 23 102 3zm-439-110c-3-126 70-247 180-308 67-40 144-60 222-56 79-4 157 16 224 57 102 58 175 167 180 286 10 19-8 90-20 38-31-96-102-176-192-220-93-51-206-58-308-31-125 38-240 136-270 268-18 45-16-24-16-34zm161 623c56-145 119-287 179-431-115-1-230-2-345-2v-66h256c-16-31-30-64-24-99-5-84 72-163 157-154 46-5 93 7 124 42 55 54 60 143 25 210 95 3 191 1 286 1v66c-124 0-247 1-371 2 57 144 118 286 170 431-37 15-86 6-127 9-108-2-217 4-324-4l-5-2-1-3zm278-513c46-27 61-94 25-135-31-43-98-50-135-13-46 36-41 114 8 145 29 22 71 23 102 3zm-439-110c-3-126 70-247 180-308 67-40 144-60 222-56 79-4 157 16 224 57 102 58 175 167 180 286 10 19-8 90-20 38-31-96-102-176-192-220-93-51-206-58-308-31-125 38-240 136-270 268-18 45-16-24-16-34zm161 623c56-145 119-287 179-431-115-1-230-2-345-2v-66h256c-16-31-30-64-24-99-5-84 72-163 157-154 46-5 93 7 124 42 55 54 60 143 25 210 95 3 191 1 286 1v66c-124 0-247 1-371 2 57 144 118 286 170 431-37 15-86 6-127 9-108-2-217 4-324-4l-5-2-1-3zm278-513c46-27 61-94 25-135-31-43-98-50-135-13-46 36-41 114 8 145 29 22 71 23 102 3zm-439-110c-3-126 70-247 180-308 67-40 144-60 222-56 79-4 157 16 224 57 102 58 175 167 180 286 10 19-8 90-20 38-31-96-102-176-192-220-93-51-206-58-308-31-125 38-240 136-270 268-18 45-16-24-16-34zm161 623c56-145 119-287 179-431-115-1-230-2-345-2v-66h256c-16-31-30-64-24-99-5-84 72-163 157-154 46-5 93 7 124 42 55 54 60 143 25 210 95 3 191 1 286 1v66c-124 0-247 1-371 2 57 144 118 286 170 431-37 15-86 6-127 9-108-2-217 4-324-4l-5-2-1-3zm278-513c46-27 61-94 25-135-31-43-98-50-135-13-46 36-41 114 8 145 29 22 71 23 102 3zm-439-110c-3-126 70-247 180-308 67-40 144-60 222-56 79-4 157 16 224 57 102 58 175 167 180 286 10 19-8 90-20 38-31-96-102-176-192-220-93-51-206-58-308-31-125 38-240 136-270 268-18 45-16-24-16-34zm161 623c56-145 119-287 179-431-115-1-230-2-345-2v-66h256c-16-31-30-64-24-99-5-84 72-163 157-154 46-5 93 7 124 42 55 54 60 143 25 210 95 3 191 1 286 1v66c-124 0-247 1-371 2 57 144 118 286 170 431-37 15-86 6-127 9-108-2-217 4-324-4l-5-2-1-3zm278-513c46-27 61-94 25-135-31-43-98-50-135-13-46 36-41 114 8 145 29 22 71 23 102 3zm-439-110c-3-126 70-247 180-308 67-40 144-60 222-56 79-4 157 16 224 57 102 58 175 167 180 286 10 19-8 90-20 38-31-96-102-176-192-220-93-51-206-58-308-31-125 38-240 136-270 268-18 45-16-24-16-34zm161 623c56-145 119-287 179-431-115-1-230-2-345-2v-66h256c-16-31-30-64-24-99-5-84 72-163 157-154 46-5 93 7 124 42 55 54 60 143 25 210 95 3 191 1 286 1v66c-124 0-247 1-371 2 57 144 118 286 170 431-37 15-86 6-127 9-108-2-217 4-324-4l-5-2-1-3zm278-513c46-27 61-94 25-135-31-43-98-50-135-13-46 36-41 114 8 145 29 22 71 23 102 3zm-439-110c-3-126 70-247 180-308 67-40 144-60 222-56 79-4 157 16 224 57 102 58 175 167 180 286 10 19-8 90-20 38-31-96-102-176-192-220-93-51-206-58-308-31-125 38-240 136-270 268-18 45-16-24-16-34zm161 623c56-145 119-287 179-431-115-1-230-2-345-2v-66h256c-16-31-30-64-24-99-5-84 72-163 157-154 46-5 93 7 124 42 55 54 60 143 25 210 95 3 191 1 286 1v66c-124 0-247 1-371 2 57 144 118 286 170 431-37 15-86 6-127 9-108-2-217 4-324-4l-5-2-1-3zm278-513c46-27 61-94 25-135-31-43-98-50-135-13-46 36-41 114 8 145 29 22 71 23 102 3zm-439-110c-3-126 70-247 180-308 67-40 144-60 222-56 79-4 157 16 224 57 102 58 175 167 180 286 10 19-8 90-20 38-31-96-102-176-192-220-93-51-206-58-308-31-125 38-240 136-270 268-18 45-16-24-16-34zm161 623c56-145 119-287 179-431-115-1-230-2-345-2v-66h256c-16-31-30-64-24-99-5-84 72-163 157-154 46-5 93 7 124 42 55 54 60 143 25 210 95 3 191 1 286 1v66c-124 0-247 1-371 2 57 144 118 286 170 431-37 15-86 6-127 9-108-2-217 4-324-4l-5-2-1-3zm278-513c46-27 61-94 25-135-31-43-98-50-135-13-46 36-41 114 8 145 29 22 71 23 102 3zm-439-110c-3-126 70-247 180-308 67-40 144-60 222-56 79-4 157 16 224 57 102 58 175 167 180 286 10 19-8 90-20 38-31-96-102-176-192-220-93-51-206-58-308-31-125 38-240 136-270 268-18 45-16-24-16-34zm161 623c56-145 119-287 179-431-115-1-230-2-345-2v-66h256c-16-31-30-64-24-99-5-84 72-163 157-154 46-5 93 7 124 42 55 54 60 143 25 210 95 3 191 1 286 1v66c-124 0-247 1-371 2 57 144 118 286 170 431-37 15-86 6-127 9-108-2-217 4-324-4l-5-2-1-3zm278-513c46-27 61-94 25-135-31-43-98-50-135-13-46 36-41 114 8 145 29 22 71 23 102 3zm-439-110c-3-126 70-247 180-308 67-40 144-60 222-56 79-4 157 16 224 57 102 58 175 167 180 286 10 19-8 90-20 38-31-96-102-176-192-220-93-51-206-58-308-31-125 38-240 136-270 268-18 45-16-24-16-34zm161 623c56-145 119-287 179-431-115-1-230-2-345-2v-66h256c-16-31-30-64-24-99-5-84 72-163 157-154 46-5 93 7 124 42 55 54 60 143 25 210 95 3 191 1 286 1v66c-124 0-247 1-371 2 57 144 118 286 170 431-37 15-86 6-127 9-108-2-217 4-324-4l-5-2-1-3zm278-513c46-27 61-94 25-135-31-43-98-50-135-13-46 36-41 114 8 145 29 22 71 23 102 3zm-439-110c-3-126 70-247 180-308 67-40 144-60 222-56 79-4 157 16 224 57 102 58 175 167 180 286 10 19-8 90-20 38-31-96-102-176-192-220-93-51-206-58-308-31-125 38-240 136-270 268-18 45-16-24-16-34zm161 623c56-145 119-287 179-431-115-1-230-2-345-2v-66h256c-16-31-30-64-24-99-5-84 72-163 157-154 46-5 93 7 124 42 55 54 60 143 25 210 95 3 191 1 286 1v66c-124 0-247 1-371 2 57 144 118 286 170 431-37 15-86 6-127 9-108-2-217 4-324-4l-5-2-1-3zm278-513c46-27 61-94 25-135-31-43-98-50-135-13-46 36-41 114 8 145 29 22 71 23 102 3zm-439-110c-3-126 70-247 180-308 67-40 144-60 222-56 79-4 157 16 224 57 102 58 175 167 180 286 10 19-8 90-20 38-31-96-102-176-192-220-93-51-206-58-308-31-125 38-240 136-270 268-18 45-16-24-16-34zm161 623c56-145 119-287 179-431-115-1-230-2-345-2v-66h256c-16-31-30-64-24-99-5-84 72-163 157-154 46-5 93 7 124 42 55 54 60 143 25 210 95 3 191 1 286 1v66c-124 0-247 1-371 2 57 144 118 286 170 431-37 15-86 6-127 9-108-2-217 4-324-4l-5-2-1-3zm278-513c46-27 61-94 25-135-31-43-98-50-135-13-46 36-41 114 8 145 29 22 71 23 102 3zm-439-110c-3-126 70-247 180-308 67-40 144-60 222-56 79-4 157 16 224 57 102 58 175 167 180 286 10 19-8 90-20 38-31-96-102-176-192-220-93-51-206-58-308-31-125 38-240 136-270 268-18 45-16-24-16-34zm161 623c56-145 119-287 179-431-115-1-230-2-345-2v-66h256c-16-31-30-64-24-99-5-84 72-163 157-154 46-5 93 7 124 42 55 54 60 143 25 210 95 3 191 1 286 1v66c-124 0-247 1-371 2 57 144 118 286 170 431-37 15-86 6-127 9-108-2-217 4-324-4l-5-2-1-3zm278-513c46-27 61-94 25-135-31-43-98-50-135-13-46 36-41 114 8 145 29 22 71 23 102 3zm-439-110c-3-126 70-247 180-308 67-40 144-60 222-56 79-4 157 16 224 57 102 58 175 167 180 286 10 19-8 90-20 38-31-96-102-176-192-220-93-51-206-58-308-31-125 38-240 136-270 268-18 45-16-24-16-34zm161 623c56-145 119-287 179-431-115-1-230-2-345-2v-66h256c-16-31-30-64-24-99-5-84 72-163 157-154 46-5 93 7 124 42 55 54 60 143 25 210 95 3 191 1 286 1v66c-124 0-247 1-371 2 57 144 118 286 170 431-37 15-86 6-127 9-108-2-217 4-324-4l-5-2-1-3zm278-513c46-27 61-94 25-135-31-43-98-50-135-13-46 36-41 114 8 145 29 22 71 23 102 3zm-439-110c-3-126 70-247 180-308 67-40 144-60 222-56 79-4 157 16 224 57 102 58 175 167 180 286 10 19-8 90-20 38-31-96-102-176-192-220-93-51-206-58-308-31-125 38-240 136-270 268-18 45-16-24-16-34zm161 623c56-145 119-287 179-431-115-1-230-2-345-2v-66h256c-16-31-30-64-24-99-5-84 72-163 157-154 46-5 93 7 124 42 55 54 60 143 25 210 95 3 191 1 286 1v66c-124 0-247 1-371 2 57 144 118 286 170 431-37 15-86 6-127 9-108-2-217 4-324-4l-5-2-1-3zm278-513c46-27 61-94 25-135-31-43-98-50-135-13-46 36-41 114 8 145 29 22 71 23 102 3zm-439-110c-3-126 70-247 180-308 67-40 144-60 222-56 79-4 157 16 224 57 102 58 175 167 180 286 10 19-8 90-20 38-31-96-102-176-192-220-93-51-206-58-308-31-125 38-240 136-270 268-18 45-16-24-16-34zm161 623c56-145 119-287 179-431-115-1-230-2-345-2v-66h256c-16-31-30-64-24-99-5-84 72-163 157-154 46-5 93 7 124 42 55 54 60 143 25 210 95 3 191 1 286 1v66c-124 0-247 1-371 2 57 144 118 286 170 431-37 15-86 6-127 9-108-2-217 4-324-4l-5-2-1-3zm278-513c46-27 61-94 25-135-31-43-98-50-135-13-46 36-41 114 8 145 29 22 71 23 102 3zm-439-110c-3-126 70-247 180-308 67-40 144-60 222-56 79-4 157 16 224 57 102 58 175 167 180 286 10 19-8 90-20 38-31-96-102-176-192-220-93-51-206-58-308-31-125 38-240 136-270 268-18 45-16-24-16-34zm161 623c56-145 119-287 179-431-115-1-230-2-345-2v-66h256c-16-31-30-64-24-99-5-84 72-163 157-154 46-5 93 7 124 42 55 54 60 143 25 210 95 3 191 1 286 1v66c-124 0-247 1-371 2 57 144 118 286 170 431-37 15-86 6-127 9-108-2-217 4-324-4l-5-2-1-3zm278-513c46-27 61-94 25-135-31-43-98-50-135-13-46 36-41 114 8 145 29 22 71 23 102 3zm-439-110c-3-126 70-247 180-308 67-40 144-60 222-56 79-4 157 16 224 57 102 58 175 167 180 286 10 19-8 90-20 38-31-96-102-176-192-220-93-51-206-58-308-31-125 38-240 136-270 268-18 45-16-24-16-34zm161 623c56-145 119-287 179-431-115-1-230-2-345-2v-66h256c-16-31-30-64-24-99-5-84 72-163 157-154 46-5 93 7 124 42 55 54 60 143 25 210 95 3 191 1 286 1v66c-124 0-247 1-371 2 57 144 118 286 170 431-37 15-86 6-127 9-108-2-217 4-324-4l-5-2-1-3zm278-513c46-27 61-94 25-135-31-43-98-50-135-13-46 36-41 114 8 145 29 22 71 23 102 3zm-439-110c-3-126 70-247 180-308 67-40 144-60 222-56 79-4 157 16 224 57 102 58 175 167 180 286 10 19-8 90-20 38-31-96-102-176-192-220-93-51-206-58-308-31-125 38-240 136-270 268-18 45-16-24-16-34zm161 623c56-145 119-287 179-431-115-1-230-2-345-2v-66h256c-16-31-30-64-24-99-5-84 72-163 157-154 46-5 93 7 124 42 55 54 60 143 25 210 95 3 191 1 286 1v66c-124 0-247 1-371 2 57 144 118 286 170 431-37 15-86 6-127 9-108-2-217 4-324-4l-5-2-1-3zm278-513c46-27 61-94 25-135-31-43-98-50-135-13-46 36-41 114 8 145 29 22 71 23 102 3zm-439-110c-3-126 70-247 180-308 67-40 144-60 222-56 79-4 157 16 224 57 102 58 175 167 180 286 10 19-8 90-20 38-31-96-102-176-192-220-93-51-206-58-308-31-125 38-240 136-270 268-18 45-16-24-16-34zm161 623c56-145 119-287 179-431-115-1-230-2-345-2v-66h256c-16-31-30-64-24-99-5-84 72-163 157-154 46-5 93 7 124 42 55 54 60 143 25 210 95 3 191 1 286 1v66c-124 0-247 1-371 2 57 144 118 286 170 431-37 15-86 6-127 9-108-2-217 4-324-4l-5-2-1-3zm278-513c46-27 61-94 25-135-31-43-98-50-135-13-46 36-41 114 8 145 29 22 71 23 102 3zm-439-110c-3-126 70-247 180-308 67-40 144-60 222-56 79-4 157 16 224 57 102 58 175 167 180 286 10 19-8 90-20 38-31-96-102-176-192-220-93-51-206-58-308-31-125 38-240 136-270 268-18 45-16-24-16-34zm161 623c56-145 119-287 179-431-115-1-230-2-345-2v-66h256c-16-31-30-64-24-99-5-84 72-163 157-154 46-5 93 7 124 42 55 54 60 143 25 210 95 3 191 1 286 1v66c-124 0-247 1-371 2 57 144 118 286 170 431-37 15-86 6-127 9-108-2-217 4-324-4l-5-2-1-3zm278-513c46-27 61-94 25-135-31-43-98-50-135-13-46 36-41 114 8 145 29 22 71 23 102 3zm-439-110c-3-126 70-247 180-308 67-40 144-60 222-56 79-4 157 16 224 57 102 58 175 167 180 286 10 19-8 90-20 38-31-96-102-176-192-220-93-51-206-58-308-31-125 38-240 136-270 268-18 45-16-24-16-34zm161 623c56-145 119-287 179-431-115-1-230-2-345-2v-66h256c-16-31-30-64-24-99-5-84 72-163 157-154 46-5 93 7 124 42 55 54 60 143 25 210 95 3 191 1 286 1v66c-124 0-247 1-371 2 57 144 118 286 170 431-37 15-86 6-127 9-108-2-217 4-324-4l-5-2-1-3zm278-513c46-27 61-94 25-135-31-43-98-50-135-13-46 36-41 114 8 145 29 22 71 23 102 3zm-439-110c-3-126 70-247 180-308 67-40 144-60 222-56 79-4 157 16 224 57 102 58 175 167 180 286 10 19-8 90-20 38-31-96-102-176-192-220-93-51-206-58-308-31-125 38-240 136-270 268-18 45-16-24-16-34zm161 623c56-145 119-287 179-431-115-1-230-2-345-2v-66h256c-16-31-30-64-24-99-5-84 72-163 157-154 46-5 93 7 124 42 55 54 60 143 25 210 95 3 191 1 286 1v66c-124 0-247 1-371 2 57 144 118 286 170 431-37 15-86 6-127 9-108-2-217 4-324-4l-5-2-1-3zm278-513c46-27 61-94 25-135-31-43-98-50-135-13-46 36-41 114 8 145 29 22 71 23 102 3zm-439-110c-3-126 70-247 180-308 67-40 144-60 222-56 79-4 157 16 224 57 102 58 175 167 180 286 10 19-8 90-20 38-31-96-102-176-192-220-93-51-206-58-308-31-125 38-240 136-270 268-18 45-16-24-16-34zm161 623c56-145 119-287 179-431-115-1-230-2-345-2v-66h256c-16-31-30-64-24-99-5-84 72-163 157-154 46-5 93 7 124 42 55 54 60 143 25 210 95 3 191 1 286 1v66c-124 0-247 1-371 2 57 144 118 286 170 431-37 15-86 6-127 9-108-2-217 4-324-4l-5-2-1-3zm278-513c46-27 61-94 25-135-31-43-98-50-135-13-46 36-41 114 8 145 29 22 71 23 102 3zm-439-110c-3-126 70-247 180-308 67-40 144-60 222-56 79-4 157 16 224 57 102 58 175 167 180 286 10 19-8 90-20 38-31-96-102-176-192-220-93-51-206-58-308-31-125 38-240 136-270 268-18 45-16-24-16-34zm161 623c56-145 119-287 179-431-115-1-230-2-345-2v-66h256c-16-31-30-64-24-99-5-84 72-163 157-154 46-5 93 7 124 42 55 54 60 143 25 210 95 3 191 1 286 1v66c-124 0-247 1-371 2 57 144 118 286 170 431-37 15-86 6-127 9-108-2-217 4-324-4l-5-2-1-3zm278-513c46-27 61-94 25-135-31-43-98-50-135-13-46 36-41 114 8 145 29 22 71 23 102 3zm-439-110c-3-126 70-247 180-308 67-40 144-60 222-56 79-4 157 16 224 57 102 58 175 167 180 286 10 19-8 90-20 38-31-96-102-176-192-220-93-51-206-58-308-31-125 38-240 136-270 268-18 45-16-24-16-34zm161 623c56-145 119-287 179-431-115-1-230-2-345-2v-66h256c-16-31-30-64-24-99-5-84 72-163 157-154 46-5 93 7 124 42 55 54 60 143 25 210 95 3 191 1 286 1v66c-124 0-247 1-371 2 57 144 118 286 170 431-37 15-86 6-127 9-108-2-217 4-324-4l-5-2-1-3zm278-513c46-27 61-94 25-135-31-43-98-50-135-13-46 36-41 114 8 145 29 22 71 23 102 3zm-439-110c-3-126 70-247 180-308 67-40 144-60 222-56 79-4 157 16 224 57 102 58 175 167 180 286 10 19-8 90-20 38-31-96-102-176-192-220-93-51-206-58-308-31-125 38-240 136-270 268-18 45-16-24-16-34zm161 623c56-145 119-287 179-431-115-1-230-2-345-2v-66h256c-16-31-30-64-24-99-5-84 72-163 157-154 46-5 93 7 124 42 55 54 60 143 25 210 95 3 191 1 286 1v66c-124 0-247 1-371 2 57 144 118 286 170 431-37 15-86 6-127 9-108-2-217 4-324-4l-5-2-1-3zm278-513c46-27 61-94 25-135-31-43-98-50-135-13-46 36-41 114 8 145 29 22 71 23 102 3zm-439-110c-3-126 70-247 180-308 67-40 144-60 222-56 79-4 157 16 224 57 102 58 175 167 180 286 10 19-8 90-20 38-31-96-102-176-192-220-93-51-206-58-308-31-125 38-240 136-270 268-18 45-16-24-16-34zm161 623c56-145 119-287 179-431-115-1-230-2-345-2v-66h256c-16-31-30-64-24-99-5-84 72-163 157-154 46-5 93 7 124 42 55 54 60 143 25 210 95 3 191 1 286 1v66c-124 0-247 1-371 2 57 144 118 286 170 431-37 15-86 6-127 9-108-2-217 4-324-4l-5-2-1-3zm278-513c46-27 61-94 25-135-31-43-98-50-135-13-46 36-41 114 8 145 29 22 71 23 102 3zm-439-110c-3-126 70-247 180-308 67-40 144-60 222-56 79-4 157 16 224 57 102 58 175 167 180 286 10 19-8 90-20 38-31-96-102-176-192-220-93-51-206-58-308-31-125 38-240 136-270 268-18 45-16-24-16-34zm161 623c56-145 119-287 179-431-115-1-230-2-345-2v-66h256c-16-31-30-64-24-99-5-84 72-163 157-154 46-5 93 7 124 42 55 54 60 143 25 210 95 3 191 1 286 1v66c-124 0-247 1-371 2 57 144 118 286 170 431-37 15-86 6-127 9-108-2-217 4-324-4l-5-2-1-3zm278-513c46-27 61-94 25-135-31-43-98-50-135-13-46 36-41 114 8 145 29 22 71 23 102 3zm-439-110c-3-126 70-247 180-308 67-40 144-60 222-56 79-4 157 16 224 57 102 58 175 167 180 286 10 19-8 90-20 38-31-96-102-176-192-220-93-51-206-58-308-31-125 38-240 136-270 268-18 45-16-24-16-34zm161 623c56-145 119-287 179-431-115-1-230-2-345-2v-66h256c-16-31-30-64-24-99-5-84 72-163 157-154 46-5 93 7 124 42 55 54 60 143 25 210 95 3 191 1 286 1v66c-124 0-247 1-371 2 57 144 118 286 170 431-37 15-86 6-127 9-108-2-217 4-324-4l-5-2-1-3zm278-513c46-27 61-94 25-135-31-43-98-50-135-13-46 36-41 114 8 145 29 22 71 23 102 3zm-439-110c-3-126 70-247 180-308 67-40 144-60 222-56 79-4 157 16 224 57 102 58 175 167 180 286 10 19-8 90-20 38-31-96-102-176-192-220-93-51-206-58-308-31-125 38-240 136-270 268-18 45-16-24-16-34zm161 623c56-145 119-287 179-431-115-1-230-2-345-2v-66h256c-16-31-30-64-24-99-5-84 72-163 157-154 46-5 93 7 124 42 55 54 60 143 25 210 95 3 191 1 286 1v66c-124 0-247 1-371 2 57 144 118 286 170 431-37 15-86 6-127 9-108-2-217 4-324-4l-5-2-1-3zm278-513c46-27 61-94 25-135-31-43-98-50-135-13-46 36-41 114 8 145 29 22 71 23 102 3zm-439-110c-3-126 70-247 180-308 67-40 144-60 222-56 79-4 157 16 224 57 102 58 175 167 180 286 10 19-8 90-20 38-31-96-102-176-192-220-93-51-206-58-308-31-125 38-240 136-270 268-18 45-16-24-16-34zm161 623c56-145 119-287 179-431-115-1-230-2-345-2v-66h256c-16-31-30-64-24-99-5-84 72-163 157-154 46-5 93 7 124 42 55 54 60 143 25 210 95 3 191 1 286 1v66c-124 0-247 1-371 2 57 144 118 286 170 431-37 15-86 6-127 9-108-2-217 4-324-4l-5-2-1-3zm278-513c46-27 61-94 25-135-31-43-98-50-135-13-46 36-41 114 8 145 29 22 71 23 102 3zm-439-110c-3-126 70-247 180-308 67-40 144-60 222-56 79-4 157 16 224 57 102 58 175 167 180 286 10 19-8 90-20 38-31-96-102-176-192-220-93-51-206-58-308-31-125 38-240 136-270 268-18 45-16-24-16-34zm161 623c56-145 119-287 179-431-115-1-230-2-345-2v-66h256c-16-31-30-64-24-99-5-84 72-163 157-154 46-5 93 7 124 42 55 54 60 143 25 210 95 3 191 1 286 1v66c-124 0-247 1-371 2 57 144 118 286 170 431-37 15-86 6-127 9-108-2-217 4-324-4l-5-2-1-3zm278-513c46-27 61-94 25-135-31-43-98-50-135-13-46 36-41 114 8 145 29 22 71 23 102 3zm-439-110c-3-126 70-247 180-308 67-40 144-60 222-56 79-4 157 16 224 57 102 58 175 167 180 286 10 19-8 90-20 38-31-96-102-176-192-220-93-51-206-58-308-31-125 38-240 136-270 268-18 45-16-24-16-34zm161 623c56-145 119-287 179-431-115-1-230-2-345-2v-66h256c-16-31-30-64-24-99-5-84 72-163 157-154 46-5 93 7 124 42 55 54 60 143 25 210 95 3 191 1 286 1v66c-124 0-247 1-371 2 57 144 118 286 170 431-37 15-86 6-127 9-108-2-217 4-324-4l-5-2-1-3zm278-513c46-27 61-94 25-135-31-43-98-50-135-13-46 36-41 114 8 145 29 22 71 23 102 3zm-439-110c-3-126 70-247 180-308 67-40 144-60 222-56 79-4 157 16 224 57 102 58 175 167 180 286 10 19-8 90-20 38-31-96-102-176-192-220-93-51-206-58-308-31-125 38-240 136-270 268-18 45-16-24-16-34zm161 623c56-145 119-287 179-431-115-1-230-2-345-2v-66h256c-16-31-30-64-24-99-5-84 72-163 157-154 46-5 93 7 124 42 55 54 60 143 25 210 95 3 191 1 286 1v66c-124 0-247 1-371 2 57 144 118 286 170 431-37 15-86 6-127 9-108-2-217 4-324-4l-5-2-1-3zm278-513c46-27 61-94 25-135-31-43-98-50-135-13-46 36-41 114 8 145 29 22 71 23 102 3zm-439-110c-3-126 70-247 180-308 67-40 144-60 222-56 79-4 157 16 224 57 102 58 175 167 180 286 10 19-8 90-20 38-31-96-102-176-192-220-93-51-206-58-308-31-125 38-240 136-270 268-18 45-16-24-16-34zm161 623c56-145 119-287 179-431-115-1-230-2-345-2v-66h256c-16-31-30-64-24-99-5-84 72-163 157-154 46-5 93 7 124 42 55 54 60 143 25 210 95 3 191 1 286 1v66c-124 0-247 1-371 2 57 144 118 286 170 431-37 15-86 6-127 9-108-2-217 4-324-4l-5-2-1-3zm278-513c46-27 61-94 25-135-31-43-98-50-135-13-46 36-41 114 8 145 29 22 71 23 102 3zm-439-110c-3-126 70-247 180-308 67-40 144-60 222-56 79-4 157 16 224 57 102 58 175 167 180 286 10 19-8 90-20 38-31-96-102-176-192-220-93-51-206-58-308-31-125 38-240 136-270 268-18 45-16-24-16-34zm161 623c56-145 119-287 179-431-115-1-230-2-345-2v-66h256c-16-31-30-64-24-99-5-84 72-163 157-154 46-5 93 7 124 42 55 54 60 143 25 210 95 3 191 1 286 1v66c-124 0-247 1-371 2 57 144 118 286 170 431-37 15-86 6-127 9-108-2-217 4-324-4l-5-2-1-3zm278-513c46-27 61-94 25-135-31-43-98-50-135-13-46 36-41 114 8 145 29 22 71 23 102 3zm-439-110c-3-126 70-247 180-308 67-40 144-60 222-56 79-4 157 16 224 57 102 58 175 167 180 286 10 19-8 90-20 38-31-96-102-176-192-220-93-51-206-58-308-31-125 38-240 136-270 268-18 45-16-24-16-34zm161 623c56-145 119-287 179-431-115-1-230-2-345-2v-66h256c-16-31-30-64-24-99-5-84 72-163 157-154 46-5 93 7 124 42 55 54 60 143 25 210 95 3 191 1 286 1v66c-124 0-247 1-371 2 57 144 118 286 170 431-37 15-86 6-127 9-108-2-217 4-324-4l-5-2-1-3zm278-513c46-27 61-94 25-135-31-43-98-50-135-13-46 36-41 114 8 145 29 22 71 23 102 3zm-439-110c-3-126 70-247 180-308 67-40 144-60 222-56 79-4 157 16 224 57 102 58 175 167 180 286 10 19-8 90-20 38-31-96-102-176-192-220-93-51-206-58-308-31-125 38-240 136-270 268-18 45-16-24-16-34zm161 623c56-145 119-287 179-431-115-1-230-2-345-2v-66h256c-16-31-30-64-24-99-5-84 72-163 157-154 46-5 93 7 124 42 55 54 60 143 25 210 95 3 191 1 286 1v66c-124 0-247 1-371 2 57 144 118 286 170 431-37 15-86 6-127 9-108-2-217 4-324-4l-5-2-1-3zm278-513c46-27 61-94 25-135-31-43-98-50-135-13-46 36-41 114 8 145 29 22 71 23 102 3zm-439-110c-3-126 70-247 180-308 67-40 144-60 222-56 79-4 157 16 224 57 102 58 175 167 180 286 10 19-8 90-20 38-31-96-102-176-192-220-93-51-206-58-308-31-125 38-240 136-270 268-18 45-16-24-16-34zm161 623c56-145 119-287 179-431-115-1-230-2-345-2v-66h256c-16-31-30-64-24-99-5-84 72-163 157-154 46-5 93 7 124 42 55 54 60 143 25 210 95 3 191 1 286 1v66c-124 0-247 1-371 2 57 144 118 286 170 431-37 15-86 6-127 9-108-2-217 4-324-4l-5-2-1-3zm278-513c46-27 61-94 25-135-31-43-98-50-135-13-46 36-41 114 8 145 29 22 71 23 102 3zm-439-110c-3-126 70-247 180-308 67-40 144-60 222-56 79-4 157 16 224 57 102 58 175 167 180 286 10 19-8 90-20 38-31-96-102-176-192-220-93-51-206-58-308-31-125 38-240 136-270 268-18 45-16-24-16-34zm161 623c56-145 119-287 179-431-115-1-230-2-345-2v-66h256c-16-31-30-64-24-99-5-84 72-163 157-154 46-5 93 7 124 42 55 54 60 143 25 210 95 3 191 1 286 1v66c-124 0-247 1-371 2 57 144 118 286 170 431-37 15-86 6-127 9-108-2-217 4-324-4l-5-2-1-3zm278-513c46-27 61-94 25-135-31-43-98-50-135-13-46 36-41 114 8 145 29 22 71 23 102 3zm-439-110c-3-126 70-247 180-308 67-40 144-60 222-56 79-4 157 16 224 57 102 58 175 167 180 286 10 19-8 90-20 38-31-96-102-176-192-220-93-51-206-58-308-31-125 38-240 136-270 268-18 45-16-24-16-34zm161 623c56-145 119-287 179-431-115-1-230-2-345-2v-66h256c-16-31-30-64-24-99-5-84 72-163 157-154 46-5 93 7 124 42 55 54 60 143 25 210 95 3 191 1 286 1v66c-124 0-247 1-371 2 57 144 118 286 170 431-37 15-86 6-127 9-108-2-217 4-324-4l-5-2-1-3zm278-513c46-27 61-94 25-135-31-43-98-50-135-13-46 36-41 114 8 145 29 22 71 23 102 3zm-439-110c-3-126 70-247 180-308 67-40 144-60 222-56 79-4 157 16 224 57 102 58 175 167 180 286 10 19-8 90-20 38-31-96-102-176-192-220-93-51-206-58-308-31-125 38-240 136-270 268-18 45-16-24-16-34zm161 623c56-145 119-287 179-431-115-1-230-2-345-2v-66h256c-16-31-30-64-24-99-5-84 72-163 157-154 46-5 93 7 124 42 55 54 60 143 25 210 95 3 191 1 286 1v66c-124 0-247 1-371 2 57 144 118 286 170 431-37 15-86 6-127 9-108-2-217 4-324-4l-5-2-1-3zm278-513c46-27 61-94 25-135-31-43-98-50-135-13-46 36-41 114 8 145 29 22 71 23 102 3zm-439-110c-3-126 70-247 180-308 67-40 144-60 222-56 79-4 157 16 224 57 102 58 175 167 180 286 10 19-8 90-20 38-31-96-102-176-192-220-93-51-206-58-308-31-125 38-240 136-270 268-18 45-16-24-16-34zm161 623c56-145 119-287 179-431-115-1-230-2-345-2v-66h256c-16-31-30-64-24-99-5-84 72-163 157-154 46-5 93 7 124 42 55 54 60 143 25 210 95 3 191 1 286 1v66c-124 0-247 1-371 2 57 144 118 286 170 431-37 15-86 6-127 9-108-2-217 4-324-4l-5-2-1-3zm278-513c46-27 61-94 25-135-31-43-98-50-135-13-46 36-41 114 8 145 29 22 71 23 102 3zm-439-110c-3-126 70-247 180-308 67-40 144-60 222-56 79-4 157 16 224 57 102 58 175 167 180 286 10 19-8 90-20 38-31-96-102-176-192-220-93-51-206-58-308-31-125 38-240 136-270 268-18 45-16-24-16-34zm161 623c56-145 119-287 179-431-115-1-230-2-345-2v-66h256c-16-31-30-64-24-99-5-84 72-163 157-154 46-5 93 7 124 42 55 54 60 143 25 210 95 3 191 1 286 1v66c-124 0-247 1-371 2 57 144 118 286 170 431-37 15-86 6-127 9-108-2-217 4-324-4l-5-2-1-3zm278-513c46-27 61-94 25-135-31-43-98-50-135-13-46 36-41 114 8 145 29 22 71 23 102 3zm-439-110c-3-126 70-247 180-308 67-40 144-60 222-56 79-4 157 16 224 57 102 58 175 167 180 286 10 19-8 90-20 38-31-96-102-176-192-220-93-51-206-58-308-31-125 38-240 136-270 268-18 45-16-24-16-34zm161 623c56-145 119-287 179-431-115-1-230-2-345-2v-66h256c-16-31-30-64-24-99-5-84 72-163 157-154 46-5 93 7 124 42 55 54 60 143 25 210 95 3 191 1 286 1v66c-124 0-247 1-371 2 57 144 118 286 170 431-37 15-86 6-127 9-108-2-217 4-324-4l-5-2-1-3zm278-513c46-27 61-94 25-135-31-43-98-50-135-13-46 36-41 114 8 145 29 22 71 23 102 3zm-439-110c-3-126 70-247 180-308 67-40 144-60 222-56 79-4 157 16 224 57 102 58 175 167 180 286 10 19-8 90-20 38-31-96-102-176-192-220-93-51-206-58-308-31-125 38-240 136-270 268-18 45-16-24-16-34zm161 623c56-145 119-287 179-431-115-1-230-2-345-2v-66h256c-16-31-30-64-24-99-5-84 72-163 157-154 46-5 93 7 124 42 55 54 60 143 25 210 95 3 191 1 286 1v66c-124 0-247 1-371 2 57 144 118 286 170 431-37 15-86 6-127 9-108-2-217 4-324-4l-5-2-1-3zm278-513c46-27 61-94 25-135-31-43-98-50-135-13-46 36-41 114 8 145 29 22 71 23 102 3zm-439-110c-3-126 70-247 180-308 67-40 144-60 222-56 79-4 157 16 224 57 102 58 175 167 180 286 10 19-8 90-20 38-31-96-102-176-192-220-93-51-206-58-308-31-125 38-240 136-270 268-18 45-16-24-16-34zm161 623c56-145 119-287 179-431-115-1-230-2-345-2v-66h256c-16-31-30-64-24-99-5-84 72-163 157-154 46-5 93 7 124 42 55 54 60 143 25 210 95 3 191 1 286 1v66c-124 0-247 1-371 2 57 144 118 286 170 431-37 15-86 6-127 9-108-2-217 4-324-4l-5-2-1-3zm278-513c46-27 61-94 25-135-31-43-98-50-135-13-46 36-41 114 8 145 29 22 71 23 102 3zm-439-110c-3-126 70-247 180-308 67-40 144-60 222-56 79-4 157 16 224 57 102 58 175 167 180 286 10 19-8 90-20 38-31-96-102-176-192-220-93-51-206-58-308-31-125 38-240 136-270 268-18 45-16-24-16-34zm161 623c56-145 119-287 179-431-115-1-230-2-345-2v-66h256c-16-31-30-64-24-99-5-84 72-163 157-154 46-5 93 7 124 42 55 54 60 143 25 210 95 3 191 1 286 1v66c-124 0-247 1-371 2 57 144 118 286 170 431-37 15-86 6-127 9-108-2-217 4-324-4l-5-2-1-3zm278-513c46-27 61-94 25-135-31-43-98-50-135-13-46 36-41 114 8 145 29 22 71 23 102 3zm-439-110c-3-126 70-247 180-308 67-40 144-60 222-56 79-4 157 16 224 57 102 58 175 167 180 286 10 19-8 90-20 38-31-96-102-176-192-220-93-51-206-58-308-31-125 38-240 136-270 268-18 45-16-24-16-34zm161 623c56-145 119-287 179-431-115-1-230-2-345-2v-66h256c-16-31-30-64-24-99-5-84 72-163 157-154 46-5 93 7 124 42 55 54 60 143 25 210 95 3 191 1 286 1v66c-124 0-247 1-371 2 57 144 118 286 170 431-37 15-86 6-127 9-108-2-217 4-324-4l-5-2-1-3zm278-513c46-27 61-94 25-135-31-43-98-50-135-13-46 36-41 114 8 145 29 22 71 23 102 3zm-439-110c-3-126 70-247 180-308 67-40 144-60 222-56 79-4 157 16 224 57 102 58 175 167 180 286 10 19-8 90-20 38-31-96-102-176-192-220-93-51-206-58-308-31-125 38-240 136-270 268-18 45-16-24-16-34zm161 623c56-145 119-287 179-431-115-1-230-2-345-2v-66h256c-16-31-30-64-24-99-5-84 72-163 157-154 46-5 93 7 124 42 55 54 60 143 25 210 95 3 191 1 286 1v66c-124 0-247 1-371 2 57 144 118 286 170 431-37 15-86 6-127 9-108-2-217 4-324-4l-5-2-1-3zm278-513c46-27 61-94 25-135-31-43-98-50-135-13-46 36-41 114 8 145 29 22 71 23 102 3zm-439-110c-3-126 70-247 180-308 67-40 144-60 222-56 79-4 157 16 224 57 102 58 175 167 180 286 10 19-8 90-20 38-31-96-102-176-192-220-93-51-206-58-308-31-125 38-240 136-270 268-18 45-16-24-16-34zm161 623c56-145 119-287 179-431-115-1-230-2-345-2v-66h256c-16-31-30-64-24-99-5-84 72-163 157-154 46-5 93 7 124 42 55 54 60 143 25 210 95 3 191 1 286 1v66c-124 0-247 1-371 2 57 144 118 286 170 431-37 15-86 6-127 9-108-2-217 4-324-4l-5-2-1-3zm278-513c46-27 61-94 25-135-31-43-98-50-135-13-46 36-41 114 8 145 29 22 71 23 102 3zm-439-110c-3-126 70-247 180-308 67-40 144-60 222-56 79-4 157 16 224 57 102 58 175 167 180 286 10 19-8 90-20 38-31-96-102-176-192-220-93-51-206-58-308-31-125 38-240 136-270 268-18 45-16-24-16-34zm161 623c56-145 119-287 179-431-115-1-230-2-345-2v-66h256c-16-31-30-64-24-99-5-84 72-163 157-154 46-5 93 7 124 42 55 54 60 143 25 210 95 3 191 1 286 1v66c-124 0-247 1-371 2 57 144 118 286 170 431-37 15-86 6-127 9-108-2-217 4-324-4l-5-2-1-3zm278-513c46-27 61-94 25-135-31-43-98-50-135-13-46 36-41 114 8 145 29 22 71 23 102 3zm-439-110c-3-126 70-247 180-308 67-40 144-60 222-56 79-4 157 16 224 57 102 58 175 167 180 286 10 19-8 90-20 38-31-96-102-176-192-220-93-51-206-58-308-31-125 38-240 136-270 268-18 45-16-24-16-34zm161 623c56-145 119-287 179-431-115-1-230-2-345-2v-66h256c-16-31-30-64-24-99-5-84 72-163 157-154 46-5 93 7 124 42 55 54 60 143 25 210 95 3 191 1 286 1v66c-124 0-247 1-371 2 57 144 118 286 170 431-37 15-86 6-127 9-108-2-217 4-324-4l-5-2-1-3zm278-513c46-27 61-94 25-135-31-43-98-50-135-13-46 36-41 114 8 145 29 22 71 23 102 3zm-439-110c-3-126 70-247 180-308 67-40 144-60 222-56 79-4 157 16 224 57 102 58 175 167 180 286 10 19-8 90-20 38-31-96-102-176-192-220-93-51-206-58-308-31-125 38-240 136-270 268-18 45-16-24-16-34zm161 623c56-145 119-287 179-431-115-1-230-2-345-2v-66h256c-16-31-30-64-24-99-5-84 72-163 157-154 46-5 93 7 124 42 55 54 60 143 25 210 95 3 191 1 286 1v66c-124 0-247 1-371 2 57 144 118 286 170 431-37 15-86 6-127 9-108-2-217 4-324-4l-5-2-1-3zm278-513c46-27 61-94 25-135-31-43-98-50-135-13-46 36-41 114 8 145 29 22 71 23 102 3zm-439-110c-3-126 70-247 180-308 67-40 144-60 222-56 79-4 157 16 224 57 102 58 175 167 180 286 10 19-8 90-20 38-31-96-102-176-192-220-93-51-206-58-308-31-125 38-240 136-270 268-18 45-16-24-16-34zm161 623c56-145 119-287 179-431-115-1-230-2-345-2v-66h256c-16-31-30-64-24-99-5-84 72-163 157-154 46-5 93 7 124 42 55 54 60 143 25 210 95 3 191 1 286 1v66c-124 0-247 1-371 2 57 144 118 286 170 431-37 15-86 6-127 9-108-2-217 4-324-4l-5-2-1-3zm278-513c46-27 61-94 25-135-31-43-98-50-135-13-46 36-41 114 8 145 29 22 71 23 102 3zm-439-110c-3-126 70-247 180-308 67-40 144-60 222-56 79-4 157 16 224 57 102 58 175 167 180 286 10 19-8 90-20 38-31-96-102-176-192-220-93-51-206-58-308-31-125 38-240 136-270 268-18 45-16-24-16-34zm161 623c56-145 119-287 179-431-115-1-230-2-345-2v-66h256c-16-31-30-64-24-99-5-84 72-163 157-154 46-5 93 7 124 42 55 54 60 143 25 210 95 3 191 1 286 1v66c-124 0-247 1-371 2 57 144 118 286 170 431-37 15-86 6-127 9-108-2-217 4-324-4l-5-2-1-3zm278-513c46-27 61-94 25-135-31-43-98-50-135-13-46 36-41 114 8 145 29 22 71 23 102 3zm-439-110c-3-126 70-247 180-308 67-40 144-60 222-56 79-4 157 16 224 57 102 58 175 167 180 286 10 19-8 90-20 38-31-96-102-176-192-220-93-51-206-58-308-31-125 38-240 136-270 268-18 45-16-24-16-34zm161 623c56-145 119-287 179-431-115-1-230-2-345-2v-66h256c-16-31-30-64-24-99-5-84 72-163 157-154 46-5 93 7 124 42 55 54 60 143 25 210 95 3 191 1 286 1v66c-124 0-247 1-371 2 57 144 118 286 170 431-37 15-86 6-127 9-108-2-217 4-324-4l-5-2-1-3zm278-513c46-27 61-94 25-135-31-43-98-50-135-13-46 36-41 114 8 145 29 22 71 23 102 3zm-439-110c-3-126 70-247 180-308 67-40 144-60 222-56 79-4 157 16 224 57 102 58 175 167 180 286 10 19-8 90-20 38-31-96-102-176-192-220-93-51-206-58-308-31-125 38-240 136-270 268-18 45-16-24-16-34zm161 623c56-145 119-287 179-431-115-1-230-2-345-2v-66h256c-16-31-30-64-24-99-5-84 72-163 157-154 46-5 93 7 124 42 55 54 60 143 25 210 95 3 191 1 286 1v66c-124 0-247 1-371 2 57 144 118 286 170 431-37 15-86 6-127 9-108-2-217 4-324-4l-5-2-1-3zm278-513c46-27 61-94 25-135-31-43-98-50-135-13-46 36-41 114 8 145 29 22 71 23 102 3zm-439-110c-3-126 70-247 180-308 67-40 144-60 222-56 79-4 157 16 224 57 102 58 175 167 180 286 10 19-8 90-20 38-31-96-102-176-192-220-93-51-206-58-308-31-125 38-240 136-270 268-18 45-16-24-16-34zm161 623c56-145 119-287 179-431-115-1-230-2-345-2v-66h256c-16-31-30-64-24-99-5-84 72-163 157-154 46-5 93 7 124 42 55 54 60 143 25 210 95 3 191 1 286 1v66c-124 0-247 1-371 2 57 144 118 286 170 431-37 15-86 6-127 9-108-2-217 4-324-4l-5-2-1-3zm278-513c46-27 61-94 25-135-31-43-98-50-135-13-46 36-41 114 8 145 29 22 71 23 102 3zm-439-110c-3-126 70-247 180-308 67-40 144-60 222-56 79-4 157 16 224 57 102 58 175 167 180 286 10 19-8 90-20 38-31-96-102-176-192-220-93-51-206-58-308-31-125 38-240 136-270 268-18 45-16-24-16-34zm161 623c56-145 119-287 179-431-115-1-230-2-345-2v-66h256c-16-31-30-64-24-99-5-84 72-163 157-154 46-5 93 7 124 42 55 54 60 143 25 210 95 3 191 1 286 1v66c-124 0-247 1-371 2 57 144 118 286 170 431-37 15-86 6-127 9-108-2-217 4-324-4l-5-2-1-3zm278-513c46-27 61-94 25-135-31-43-98-50-135-13-46 36-41 114 8 145 29 22 71 23 102 3zm-439-110c-3-126 70-247 180-308 67-40 144-60 222-56 79-4 157 16 224 57 102 58 175 167 180 286 10 19-8 90-20 38-31-96-102-176-192-220-93-51-206-58-308-31-125 38-240 136-270 268-18 45-16-24-16-34zm161 623c56-145 119-287 179-431-115-1-230-2-345-2v-66h256c-16-31-30-64-24-99-5-84 72-163 157-154 46-5 93 7 124 42 55 54 60 143 25 210 95 3 191 1 286 1v66c-124 0-247 1-371 2 57 144 118 286 170 431-37 15-86 6-127 9-108-2-217 4-324-4l-5-2-1-3zm278-513c46-27 61-94 25-135-31-43-98-50-135-13-46 36-41 114 8 145 29 22 71 23 102 3zm-439-110c-3-126 70-247 180-308 67-40 144-60 222-56 79-4 157 16 224 57 102 58 175 167 180 286 10 19-8 90-20 38-31-96-102-176-192-220-93-51-206-58-308-31-125 38-240 136-270 268-18 45-16-24-16-34zm161 623c56-145 119-287 179-431-115-1-230-2-345-2v-66h256c-16-31-30-64-24-99-5-84 72-163 157-154 46-5 93 7 124 42 55 54 60 143 25 210 95 3 191 1 286 1v66c-124 0-247 1-371 2 57 144 118 286 170 431-37 15-86 6-127 9-108-2-217 4-324-4l-5-2-1-3zm278-513c46-27 61-94 25-135-31-43-98-50-135-13-46 36-41 114 8 145 29 22 71 23 102 3zm-439-110c-3-126 70-247 180-308 67-40 144-60 222-56 79-4 157 16 224 57 102 58 175 167 180 286 10 19-8 90-20 38-31-96-102-176-192-220-93-51-206-58-308-31-125 38-240 136-270 268-18 45-16-24-16-34zm161 623c56-145 119-287 179-431-115-1-230-2-345-2v-66h256c-16-31-30-64-24-99-5-84 72-163 157-154 46-5 93 7 124 42 55 54 60 143 25 210 95 3 191 1 286 1v66c-124 0-247 1-371 2 57 144 118 286 170 431-37 15-86 6-127 9-108-2-217 4-324-4l-5-2-1-3zm278-513c46-27 61-94 25-135-31-43-98-50-135-13-46 36-41 114 8 145 29 22 71 23 102 3zm-439-110c-3-126 70-247 180-308 67-40 144-60 222-56 79-4 157 16 224 57 102 58 175 167 180 286 10 19-8 90-20 38-31-96-102-176-192-220-93-51-206-58-308-31-125 38-240 136-270 268-18 45-16-24-16-34zm161 623c56-145 119-287 179-431-115-1-230-2-345-2v-66h256c-16-31-30-64-24-99-5-84 72-163 157-154 46-5 93 7 124 42 55 54 60 143 25 210 95 3 191 1 286 1v66c-124 0-247 1-371 2 57 144 118 286 170 431-37 15-86 6-127 9-108-2-217 4-324-4l-5-2-1-3zm278-513c46-27 61-94 25-135-31-43-98-50-135-13-46 36-41 114 8 145 29 22 71 23 102 3zm-439-110c-3-126 70-247 180-308 67-40 144-60 222-56 79-4 157 16 224 57 102 58 175 167 180 286 10 19-8 90-20 38-31-96-102-176-192-220-93-51-206-58-308-31-125 38-240 136-270 268-18 45-16-24-16-34zm161 623c56-145 119-287 179-431-115-1-230-2-345-2v-66h256c-16-31-30-64-24-99-5-84 72-163 157-154 46-5 93 7 124 42 55 54 60 143 25 210 95 3 191 1 286 1v66c-124 0-247 1-371 2 57 144 118 286 170 431-37 15-86 6-127 9-108-2-217 4-324-4l-5-2-1-3zm278-513c46-27 61-94 25-135-31-43-98-50-135-13-46 36-41 114 8 145 29 22 71 23 102 3zm-439-110c-3-126 70-247 180-308 67-40 144-60 222-56 79-4 157 16 224 57 102 58 175 167 180 286 10 19-8 90-20 38-31-96-102-176-192-220-93-51-206-58-308-31-125 38-240 136-270 268-18 45-16-24-16-34zm161 623c56-145 119-287 179-431-115-1-230-2-345-2v-66h256c-16-31-30-64-24-99-5-84 72-163 157-154 46-5 93 7 124 42 55 54 60 143 25 210 95 3 191 1 286 1v66c-124 0-247 1-371 2 57 144 118 286 170 431-37 15-86 6-127 9-108-2-217 4-324-4l-5-2-1-3zm278-513c46-27 61-94 25-135-31-43-98-50-135-13-46 36-41 114 8 145 29 22 71 23 102 3zm-439-110c-3-126 70-247 180-308 67-40 144-60 222-56 79-4 157 16 224 57 102 58 175 167 180 286 10 19-8 90-20 38-31-96-102-176-192-220-93-51-206-58-308-31-125 38-240 136-270 268-18 45-16-24-16-34zm161 623c56-145 119-287 179-431-115-1-230-2-345-2v-66h256c-16-31-30-64-24-99-5-84 72-163 157-154 46-5 93 7 124 42 55 54 60 143 25 210 95 3 191 1 286 1v66c-124 0-247 1-371 2 57 144 118 286 170 431-37 15-86 6-127 9-108-2-217 4-324-4l-5-2-1-3zm278-513c46-27 61-94 25-135-31-43-98-50-135-13-46 36-41 114 8 145 29 22 71 23 102 3zm-439-110c-3-126 70-247 180-308 67-40 144-60 222-56 79-4 157 16 224 57 102 58 175 167 180 286 10 19-8 90-20 38-31-96-102-176-192-220-93-51-206-58-308-31-125 38-240 136-270 268-18 45-16-24-16-34zm161 623c56-145 119-287 179-431-115-1-230-2-345-2v-66h256c-16-31-30-64-24-99-5-84 72-163 157-154 46-5 93 7 124 42 55 54 60 143 25 210 95 3 191 1 286 1v66c-124 0-247 1-371 2 57 144 118 286 170 431-37 15-86 6-127 9-108-2-217 4-324-4l-5-2-1-3zm278-513c46-27 61-94 25-135-31-43-98-50-135-13-46 36-41 114 8 145 29 22 71 23 102 3zm-439-110c-3-126 70-247 180-308 67-40 144-60 222-56 79-4 157 16 224 57 102 58 175 167 180 286 10 19-8 90-20 38-31-96-102-176-192-220-93-51-206-58-308-31-125 38-240 136-270 268-18 45-16-24-16-34zm161 623c56-145 119-287 179-431-115-1-230-2-345-2v-66h256c-16-31-30-64-24-99-5-84 72-163 157-154 46-5 93 7 124 42 55 54 60 143 25 210 95 3 191 1 286 1v66c-124 0-247 1-371 2 57 144 118 286 170 431-37 15-86 6-127 9-108-2-217 4-324-4l-5-2-1-3zm278-513c46-27 61-94 25-135-31-43-98-50-135-13-46 36-41 114 8 145 29 22 71 23 102 3zm-439-110c-3-126 70-247 180-308 67-40 144-60 222-56 79-4 157 16 224 57 102 58 175 167 180 286 10 19-8 90-20 38-31-96-102-176-192-220-93-51-206-58-308-31-125 38-240 136-270 268-18 45-16-24-16-34zm161 623c56-145 119-287 179-431-115-1-230-2-345-2v-66h256c-16-31-30-64-24-99-5-84 72-163 157-154 46-5 93 7 124 42 55 54 60 143 25 210 95 3 191 1 286 1v66c-124 0-247 1-371 2 57 144 118 286 170 431-37 15-86 6-127 9-108-2-217 4-324-4l-5-2-1-3zm278-513c46-27 61-94 25-135-31-43-98-50-135-13-46 36-41 114 8 145 29 22 71 23 102 3zm-439-110c-3-126 70-247 180-308 67-40 144-60 222-56 79-4 157 16 224 57 102 58 175 167 180 286 10 19-8 90-20 38-31-96-102-176-192-220-93-51-206-58-308-31-125 38-240 136-270 268-18 45-16-24-16-34zm161 623c56-145 119-287 179-431-115-1-230-2-345-2v-66h256c-16-31-30-64-24-99-5-84 72-163 157-154 46-5 93 7 124 42 55 54 60 143 25 210 95 3 191 1 286 1v66c-124 0-247 1-371 2 57 144 118 286 170 431-37 15-86 6-127 9-108-2-217 4-324-4l-5-2-1-3zm278-513c46-27 61-94 25-135-31-43-98-50-135-13-46 36-41 114 8 145 29 22 71 23 102 3zm-439-110c-3-126 70-247 180-308 67-40 144-60 222-56 79-4 157 16 224 57 102 58 175 167 180 286 10 19-8 90-20 38-31-96-102-176-192-220-93-51-206-58-308-31-125 38-240 136-270 268-18 45-16-24-16-34zm161 623c56-145 119-287 179-431-115-1-230-2-345-2v-66h256c-16-31-30-64-24-99-5-84 72-163 157-154 46-5 93 7 124 42 55 54 60 143 25 210 95 3 191 1 286 1v66c-124 0-247 1-371 2 57 144 118 286 170 431-37 15-86 6-127 9-108-2-217 4-324-4l-5-2-1-3zm278-513c46-27 61-94 25-135-31-43-98-50-135-13-46 36-41 114 8 145 29 22 71 23 102 3zm-439-110c-3-126 70-247 180-308 67-40 144-60 222-56 79-4 157 16 224 57 102 58 175 167 180 286 10 19-8 90-20 38-31-96-102-176-192-220-93-51-206-58-308-31-125 38-240 136-270 268-18 45-16-24-16-34zm161 623c56-145 119-287 179-431-115-1-230-2-345-2v-66h256c-16-31-30-64-24-99-5-84 72-163 157-154 46-5 93 7 124 42 55 54 60 143 25 210 95 3 191 1 286 1v66c-124 0-247 1-371 2 57 144 118 286 170 431-37 15-86 6-127 9-108-2-217 4-324-4l-5-2-1-3zm278-513c46-27 61-94 25-135-31-43-98-50-135-13-46 36-41 114 8 145 29 22 71 23 102 3zm-439-110c-3-126 70-247 180-308 67-40 144-60 222-56 79-4 157 16 224 57 102 58 175 167 180 286 10 19-8 90-20 38-31-96-102-176-192-220-93-51-206-58-308-31-125 38-240 136-270 268-18 45-16-24-16-34zm161 623c56-145 119-287 179-431-115-1-230-2-345-2v-66h256c-16-31-30-64-24-99-5-84 72-163 157-154 46-5 93 7 124 42 55 54 60 143 25 210 95 3 191 1 286 1v66c-124 0-247 1-371 2 57 144 118 286 170 431-37 15-86 6-127 9-108-2-217 4-324-4l-5-2-1-3zm278-513c46-27 61-94 25-135-31-43-98-50-135-13-46 36-41 114 8 145 29 22 71 23 102 3zm-439-110c-3-126 70-247 180-308 67-40 144-60 222-56 79-4 157 16 224 57 102 58 175 167 180 286 10 19-8 90-20 38-31-96-102-176-192-220-93-51-206-58-308-31-125 38-240 136-270 268-18 45-16-24-16-34zm161 623c56-145 119-287 179-431-115-1-230-2-345-2v-66h256c-16-31-30-64-24-99-5-84 72-163 157-154 46-5 93 7 124 42 55 54 60 143 25 210 95 3 191 1 286 1v66c-124 0-247 1-371 2 57 144 118 286 170 431-37 15-86 6-127 9-108-2-217 4-324-4l-5-2-1-3zm278-513c46-27 61-94 25-135-31-43-98-50-135-13-46 36-41 114 8 145 29 22 71 23 102 3zm-439-110c-3-126 70-247 180-308 67-40 144-60 222-56 79-4 157 16 224 57 102 58 175 167 180 286 10 19-8 90-20 38-31-96-102-176-192-220-93-51-206-58-308-31-125 38-240 136-270 268-18 45-16-24-16-34zm161 623c56-145 119-287 179-431-115-1-230-2-345-2v-66h256c-16-31-30-64-24-99-5-84 72-163 157-154 46-5 93 7 124 42 55 54 60 143 25 210 95 3 191 1 286 1v66c-124 0-247 1-371 2 57 144 118 286 170 431-37 15-86 6-127 9-108-2-217 4-324-4l-5-2-1-3zm278-513c46-27 61-94 25-135-31-43-98-50-135-13-46 36-41 114 8 145 29 22 71 23 102 3zm-439-110c-3-126 70-247 180-308 67-40 144-60 222-56 79-4 157 16 224 57 102 58 175 167 180 286 10 19-8 90-20 38-31-96-102-176-192-220-93-51-206-58-308-31-125 38-240 136-270 268-18 45-16-24-16-34zm161 623c56-145 119-287 179-431-115-1-230-2-345-2v-66h256c-16-31-30-64-24-99-5-84 72-163 157-154 46-5 93 7 124 42 55 54 60 143 25 210 95 3 191 1 286 1v66c-124 0-247 1-371 2 57 144 118 286 170 431-37 15-86 6-127 9-108-2-217 4-324-4l-5-2-1-3zm278-513c46-27 61-94 25-135-31-43-98-50-135-13-46 36-41 114 8 145 29 22 71 23 102 3zm-439-110c-3-126 70-247 180-308 67-40 144-60 222-56 79-4 157 16 224 57 102 58 175 167 180 286 10 19-8 90-20 38-31-96-102-176-192-220-93-51-206-58-308-31-125 38-240 136-270 268-18 45-16-24-16-34zm161 623c56-145 119-287 179-431-115-1-230-2-345-2v-66h256c-16-31-30-64-24-99-5-84 72-163 157-154 46-5 93 7 124 42 55 54 60 143 25 210 95 3 191 1 286 1v66c-124 0-247 1-371 2 57 144 118 286 170 431-37 15-86 6-127 9-108-2-217 4-324-4l-5-2-1-3zm278-513c46-27 61-94 25-135-31-43-98-50-135-13-46 36-41 114 8 145 29 22 71 23 102 3zm-439-110c-3-126 70-247 180-308 67-40 144-60 222-56 79-4 157 16 224 57 102 58 175 167 180 286 10 19-8 90-20 38-31-96-102-176-192-220-93-51-206-58-308-31-125 38-240 136-270 268-18 45-16-24-16-34zm161 623c56-145 119-287 179-431-115-1-230-2-345-2v-66h256c-16-31-30-64-24-99-5-84 72-163 157-154 46-5 93 7 124 42 55 54 60 143 25 210 95 3 191 1 286 1v66c-124 0-247 1-371 2 57 144 118 286 170 431-37 15-86 6-127 9-108-2-217 4-324-4l-5-2-1-3zm278-513c46-27 61-94 25-135-31-43-98-50-135-13-46 36-41 114 8 145 29 22 71 23 102 3zm-439-110c-3-126 70-247 180-308 67-40 144-60 222-56 79-4 157 16 224 57 102 58 175 167 180 286 10 19-8 90-20 38-31-96-102-176-192-220-93-51-206-58-308-31-125 38-240 136-270 268-18 45-16-24-16-34zm161 623c56-145 119-287 179-431-115-1-230-2-345-2v-66h256c-16-31-30-64-24-99-5-84 72-163 157-154 46-5 93 7 124 42 55 54 60 143 25 210 95 3 191 1 286 1v66c-124 0-247 1-371 2 57 144 118 286 170 431-37 15-86 6-127 9-108-2-217 4-324-4l-5-2-1-3zm278-513c46-27 61-94 25-135-31-43-98-50-135-13-46 36-41 114 8 145 29 22 71 23 102 3zm-439-110c-3-126 70-247 180-308 67-40 144-60 222-56 79-4 157 16 224 57 102 58 175 167 180 286 10 19-8 90-20 38-31-96-102-176-192-220-93-51-206-58-308-31-125 38-240 136-270 268-18 45-16-24-16-34zm161 623c56-145 119-287 179-431-115-1-230-2-345-2v-66h256c-16-31-30-64-24-99-5-84 72-163 157-154 46-5 93 7 124 42 55 54 60 143 25 210 95 3 191 1 286 1v66c-124 0-247 1-371 2 57 144 118 286 170 431-37 15-86 6-127 9-108-2-217 4-324-4l-5-2-1-3zm278-513c46-27 61-94 25-135-31-43-98-50-135-13-46 36-41 114 8 145 29 22 71 23 102 3zm-439-110c-3-126 70-247 180-308 67-40 144-60 222-56 79-4 157 16 224 57 102 58 175 167 180 286 10 19-8 90-20 38-31-96-102-176-192-220-93-51-206-58-308-31-125 38-240 136-270 268-18 45-16-24-16-34zm161 623c56-145 119-287 179-431-115-1-230-2-345-2v-66h256c-16-31-30-64-24-99-5-84 72-163 157-154 46-5 93 7 124 42 55 54 60 143 25 210 95 3 191 1 286 1v66c-124 0-247 1-371 2 57 144 118 286 170 431-37 15-86 6-127 9-108-2-217 4-324-4l-5-2-1-3zm278-513c46-27 61-94 25-135-31-43-98-50-135-13-46 36-41 114 8 145 29 22 71 23 102 3zm-439-110c-3-126 70-247 180-308 67-40 144-60 222-56 79-4 157 16 224 57 102 58 175 167 180 286 10 19-8 90-20 38-31-96-102-176-192-220-93-51-206-58-308-31-125 38-240 136-270 268-18 45-16-24-16-34zm161 623c56-145 119-287 179-431-115-1-230-2-345-2v-66h256c-16-31-30-64-24-99-5-84 72-163 157-154 46-5 93 7 124 42 55 54 60 143 25 210 95 3 191 1 286 1v66c-124 0-247 1-371 2 57 144 118 286 170 431-37 15-86 6-127 9-108-2-217 4-324-4l-5-2-1-3zm278-513c46-27 61-94 25-135-31-43-98-50-135-13-46 36-41 114 8 145 29 22 71 23 102 3zm-439-110c-3-126 70-247 180-308 67-40 144-60 222-56 79-4 157 16 224 57 102 58 175 167 180 286 10 19-8 90-20 38-31-96-102-176-192-220-93-51-206-58-308-31-125 38-240 136-270 268-18 45-16-24-16-34zm161 623c56-145 119-287 179-431-115-1-230-2-345-2v-66h256c-16-31-30-64-24-99-5-84 72-163 157-154 46-5 93 7 124 42 55 54 60 143 25 210 95 3 191 1 286 1v66c-124 0-247 1-371 2 57 144 118 286 170 431-37 15-86 6-127 9-108-2-217 4-324-4l-5-2-1-3zm278-513c46-27 61-94 25-135-31-43-98-50-135-13-46 36-41 114 8 145 29 22 71 23 102 3zm-439-110c-3-126 70-247 180-308 67-40 144-60 222-56 79-4 157 16 224 57 102 58 175 167 180 286 10 19-8 90-20 38-31-96-102-176-192-220-93-51-206-58-308-31-125 38-240 136-270 268-18 45-16-24-16-34zm161 623c56-145 119-287 179-431-115-1-230-2-345-2v-66h256c-16-31-30-64-24-99-5-84 72-163 157-154 46-5 93 7 124 42 55 54 60 143 25 210 95 3 191 1 286 1v66c-124 0-247 1-371 2 57 144 118 286 170 431-37 15-86 6-127 9-108-2-217 4-324-4l-5-2-1-3zm278-513c46-27 61-94 25-135-31-43-98-50-135-13-46 36-41 114 8 145 29 22 71 23 102 3zm-439-110c-3-126 70-247 180-308 67-40 144-60 222-56 79-4 157 16 224 57 102 58 175 167 180 286 10 19-8 90-20 38-31-96-102-176-192-220-93-51-206-58-308-31-125 38-240 136-270 268-18 45-16-24-16-34zm161 623c56-145 119-287 179-431-115-1-230-2-345-2v-66h256c-16-31-30-64-24-99-5-84 72-163 157-154 46-5 93 7 124 42 55 54 60 143 25 210 95 3 191 1 286 1v66c-124 0-247 1-371 2 57 144 118 286 170 431-37 15-86 6-127 9-108-2-217 4-324-4l-5-2-1-3zm278-513c46-27 61-94 25-135-31-43-98-50-135-13-46 36-41 114 8 145 29 22 71 23 102 3zm-439-110c-3-126 70-247 180-308 67-40 144-60 222-56 79-4 157 16 224 57 102 58 175 167 180 286 10 19-8 90-20 38-31-96-102-176-192-220-93-51-206-58-308-31-125 38-240 136-270 268-18 45-16-24-16-34zm161 623c56-145 119-287 179-431-115-1-230-2-345-2v-66h256c-16-31-30-64-24-99-5-84 72-163 157-154 46-5 93 7 124 42 55 54 60 143 25 210 95 3 191 1 286 1v66c-124 0-247 1-371 2 57 144 118 286 170 431-37 15-86 6-127 9-108-2-217 4-324-4l-5-2-1-3zm278-513c46-27 61-94 25-135-31-43-98-50-135-13-46 36-41 114 8 145 29 22 71 23 102 3zm-439-110c-3-126 70-247 180-308 67-40 144-60 222-56 79-4 157 16 224 57 102 58 175 167 180 286 10 19-8 90-20 38-31-96-102-176-192-220-93-51-206-58-308-31-125 38-240 136-270 268-18 45-16-24-16-34zm161 623c56-145 119-287 179-431-115-1-230-2-345-2v-66h256c-16-31-30-64-24-99-5-84 72-163 157-154 46-5 93 7 124 42 55 54 60 143 25 210 95 3 191 1 286 1v66c-124 0-247 1-371 2 57 144 118 286 170 431-37 15-86 6-127 9-108-2-217 4-324-4l-5-2-1-3zm278-513c46-27 61-94 25-135-31-43-98-50-135-13-46 36-41 114 8 145 29 22 71 23 102 3zm-439-110c-3-126 70-247 180-308 67-40 144-60 222-56 79-4 157 16 224 57 102 58 175 167 180 286 10 19-8 90-20 38-31-96-102-176-192-220-93-51-206-58-308-31-125 38-240 136-270 268-18 45-16-24-16-34zm161 623c56-145 119-287 179-431-115-1-230-2-345-2v-66h256c-16-31-30-64-24-99-5-84 72-163 157-154 46-5 93 7 124 42 55 54 60 143 25 210 95 3 191 1 286 1v66c-124 0-247 1-371 2 57 144 118 286 170 431-37 15-86 6-127 9-108-2-217 4-324-4l-5-2-1-3zm278-513c46-27 61-94 25-135-31-43-98-50-135-13-46 36-41 114 8 145 29 22 71 23 102 3zm-439-110c-3-126 70-247 180-308 67-40 144-60 222-56 79-4 157 16 224 57 102 58 175 167 180 286 10 19-8 90-20 38-31-96-102-176-192-220-93-51-206-58-308-31-125 38-240 136-270 268-18 45-16-24-16-34zm161 623c56-145 119-287 179-431-115-1-230-2-345-2v-66h256c-16-31-30-64-24-99-5-84 72-163 157-154 46-5 93 7 124 42 55 54 60 143 25 210 95 3 191 1 286 1v66c-124 0-247 1-371 2 57 144 118 286 170 431-37 15-86 6-127 9-108-2-217 4-324-4l-5-2-1-3zm278-513c46-27 61-94 25-135-31-43-98-50-135-13-46 36-41 114 8 145 29 22 71 23 102 3zm-439-110c-3-126 70-247 180-308 67-40 144-60 222-56 79-4 157 16 224 57 102 58 175 167 180 286 10 19-8 90-20 38-31-96-102-176-192-220-93-51-206-58-308-31-125 38-240 136-270 268-18 45-16-24-16-34zm161 623c56-145 119-287 179-431-115-1-230-2-345-2v-66h256c-16-31-30-64-24-99-5-84 72-163 157-154 46-5 93 7 124 42 55 54 60 143 25 210 95 3 191 1 286 1v66c-124 0-247 1-371 2 57 144 118 286 170 431-37 15-86 6-127 9-108-2-217 4-324-4l-5-2-1-3zm278-513c46-27 61-94 25-135-31-43-98-50-135-13-46 36-41 114 8 145 29 22 71 23 102 3zm-439-110c-3-126 70-247 180-308 67-40 144-60 222-56 79-4 157 16 224 57 102 58 175 167 180 286 10 19-8 90-20 38-31-96-102-176-192-220-93-51-206-58-308-31-125 38-240 136-270 268-18 45-16-24-16-34zm161 623c56-145 119-287 179-431-115-1-230-2-345-2v-66h256c-16-31-30-64-24-99-5-84 72-163 157-154 46-5 93 7 124 42 55 54 60 143 25 210 95 3 191 1 286 1v66c-124 0-247 1-371 2 57 144 118 286 170 431-37 15-86 6-127 9-108-2-217 4-324-4l-5-2-1-3zm278-513c46-27 61-94 25-135-31-43-98-50-135-13-46 36-41 114 8 145 29 22 71 23 102 3zm-439-110c-3-126 70-247 180-308 67-40 144-60 222-56 79-4 157 16 224 57 102 58 175 167 180 286 10 19-8 90-20 38-31-96-102-176-192-220-93-51-206-58-308-31-125 38-240 136-270 268-18 45-16-24-16-34zm161 623c56-145 119-287 179-431-115-1-230-2-345-2v-66h256c-16-31-30-64-24-99-5-84 72-163 157-154 46-5 93 7 124 42 55 54 60 143 25 210 95 3 191 1 286 1v66c-124 0-247 1-371 2 57 144 118 286 170 431-37 15-86 6-127 9-108-2-217 4-324-4l-5-2-1-3zm278-513c46-27 61-94 25-135-31-43-98-50-135-13-46 36-41 114 8 145 29 22 71 23 102 3zm-439-110c-3-126 70-247 180-308 67-40 144-60 222-56 79-4 157 16 224 57 102 58 175 167 180 286 10 19-8 90-20 38-31-96-102-176-192-220-93-51-206-58-308-31-125 38-240 136-270 268-18 45-16-24-16-34zm161 623c56-145 119-287 179-431-115-1-230-2-345-2v-66h256c-16-31-30-64-24-99-5-84 72-163 157-154 46-5 93 7 124 42 55 54 60 143 25 210 95 3 191 1 286 1v66c-124 0-247 1-371 2 57 144 118 286 170 431-37 15-86 6-127 9-108-2-217 4-324-4l-5-2-1-3zm278-513c46-27 61-94 25-135-31-43-98-50-135-13-46 36-41 114 8 145 29 22 71 23 102 3zm-439-110c-3-126 70-247 180-308 67-40 144-60 222-56 79-4 157 16 224 57 102 58 175 167 180 286 10 19-8 90-20 38-31-96-102-176-192-220-93-51-206-58-308-31-125 38-240 136-270 268-18 45-16-24-16-34zm161 623c56-145 119-287 179-431-115-1-230-2-345-2v-66h256c-16-31-30-64-24-99-5-84 72-163 157-154 46-5 93 7 124 42 55 54 60 143 25 210 95 3 191 1 286 1v66c-124 0-247 1-371 2 57 144 118 286 170 431-37 15-86 6-127 9-108-2-217 4-324-4l-5-2-1-3zm278-513c46-27 61-94 25-135-31-43-98-50-135-13-46 36-41 114 8 145 29 22 71 23 102 3zm-439-110c-3-126 70-247 180-308 67-40 144-60 222-56 79-4 157 16 224 57 102 58 175 167 180 286 10 19-8 90-20 38-31-96-102-176-192-220-93-51-206-58-308-31-125 38-240 136-270 268-18 45-16-24-16-34zm161 623c56-145 119-287 179-431-115-1-230-2-345-2v-66h256c-16-31-30-64-24-99-5-84 72-163 157-154 46-5 93 7 124 42 55 54 60 143 25 210 95 3 191 1 286 1v66c-124 0-247 1-371 2 57 144 118 286 170 431-37 15-86 6-127 9-108-2-217 4-324-4l-5-2-1-3zm278-513c46-27 61-94 25-135-31-43-98-50-135-13-46 36-41 114 8 145 29 22 71 23 102 3zm-439-110c-3-126 70-247 180-308 67-40 144-60 222-56 79-4 157 16 224 57 102 58 175 167 180 286 10 19-8 90-20 38-31-96-102-176-192-220-93-51-206-58-308-31-125 38-240 136-270 268-18 45-16-24-16-34zm161 623c56-145 119-287 179-431-115-1-230-2-345-2v-66h256c-16-31-30-64-24-99-5-84 72-163 157-154 46-5 93 7 124 42 55 54 60 143 25 210 95 3 191 1 286 1v66c-124 0-247 1-371 2 57 144 118 286 170 431-37 15-86 6-127 9-108-2-217 4-324-4l-5-2-1-3zm278-513c46-27 61-94 25-135-31-43-98-50-135-13-46 36-41 114 8 145 29 22 71 23 102 3zm-439-110c-3-126 70-247 180-308 67-40 144-60 222-56 79-4 157 16 224 57 102 58 175 167 180 286 10 19-8 90-20 38-31-96-102-176-192-220-93-51-206-58-308-31-125 38-240 136-270 268-18 45-16-24-16-34zm161 623c56-145 119-287 179-431-115-1-230-2-345-2v-66h256c-16-31-30-64-24-99-5-84 72-163 157-154 46-5 93 7 124 42 55 54 60 143 25 210 95 3 191 1 286 1v66c-124 0-247 1-371 2 57 144 118 286 170 431-37 15-86 6-127 9-108-2-217 4-324-4l-5-2-1-3zm278-513c46-27 61-94 25-135-31-43-98-50-135-13-46 36-41 114 8 145 29 22 71 23 102 3zm-439-110c-3-126 70-247 180-308 67-40 144-60 222-56 79-4 157 16 224 57 102 58 175 167 180 286 10 19-8 90-20 38-31-96-102-176-192-220-93-51-206-58-308-31-125 38-240 136-270 268-18 45-16-24-16-34zm161 623c56-145 119-287 179-431-115-1-230-2-345-2v-66h256c-16-31-30-64-24-99-5-84 72-163 157-154 46-5 93 7 124 42 55 54 60 143 25 210 95 3 191 1 286 1v66c-124 0-247 1-371 2 57 144 118 286 170 431-37 15-86 6-127 9-108-2-217 4-324-4l-5-2-1-3zm278-513c46-27 61-94 25-135-31-43-98-50-135-13-46 36-41 114 8 145 29 22 71 23 102 3zm-439-110c-3-126 70-247 180-308 67-40 144-60 222-56 79-4 157 16 224 57 102 58 175 167 180 286 10 19-8 90-20 38-31-96-102-176-192-220-93-51-206-58-308-31-125 38-240 136-270 268-18 45-16-24-16-34zm161 623c56-145 119-287 179-431-115-1-230-2-345-2v-66h256c-16-31-30-64-24-99-5-84 72-163 157-154 46-5 93 7 124 42 55 54 60 143 25 210 95 3 191 1 286 1v66c-124 0-247 1-371 2 57 144 118 286 170 431-37 15-86 6-127 9-108-2-217 4-324-4l-5-2-1-3zm278-513c46-27 61-94 25-135-31-43-98-50-135-13-46 36-41 114 8 145 29 22 71 23 102 3zm-439-110c-3-126 70-247 180-308 67-40 144-60 222-56 79-4 157 16 224 57 102 58 175 167 180 286 10 19-8 90-20 38-31-96-102-176-192-220-93-51-206-58-308-31-125 38-240 136-270 268-18 45-16-24-16-34zm161 623c56-145 119-287 179-431-115-1-230-2-345-2v-66h256c-16-31-30-64-24-99-5-84 72-163 157-154 46-5 93 7 124 42 55 54 60 143 25 210 95 3 191 1 286 1v66c-124 0-247 1-371 2 57 144 118 286 170 431-37 15-86 6-127 9-108-2-217 4-324-4l-5-2-1-3zm278-513c46-27 61-94 25-135-31-43-98-50-135-13-46 36-41 114 8 145 29 22 71 23 102 3zm-439-110c-3-126 70-247 180-308 67-40 144-60 222-56 79-4 157 16 224 57 102 58 175 167 180 286 10 19-8 90-20 38-31-96-102-176-192-220-93-51-206-58-308-31-125 38-240 136-270 268-18 45-16-24-16-34zm161 623c56-145 119-287 179-431-115-1-230-2-345-2v-66h256c-16-31-30-64-24-99-5-84 72-163 157-154 46-5 93 7 124 42 55 54 60 143 25 210 95 3 191 1 286 1v66c-124 0-247 1-371 2 57 144 118 286 170 431-37 15-86 6-127 9-108-2-217 4-324-4l-5-2-1-3zm278-513c46-27 61-94 25-135-31-43-98-50-135-13-46 36-41 114 8 145 29 22 71 23 102 3zm-439-110c-3-126 70-247 180-308 67-40 144-60 222-56 79-4 157 16 224 57 102 58 175 167 180 286 10 19-8 90-20 38-31-96-102-176-192-220-93-51-206-58-308-31-125 38-240 136-270 268-18 45-16-24-16-34zm161 623c56-145 119-287 179-431-115-1-230-2-345-2v-66h256c-16-31-30-64-24-99-5-84 72-163 157-154 46-5 93 7 124 42 55 54 60 143 25 210 95 3 191 1 286 1v66c-124 0-247 1-371 2 57 144 118 286 170 431-37 15-86 6-127 9-108-2-217 4-324-4l-5-2-1-3zm278-513c46-27 61-94 25-135-31-43-98-50-135-13-46 36-41 114 8 145 29 22 71 23 102 3zm-439-110c-3-126 70-247 180-308 67-40 144-60 222-56 79-4 157 16 224 57 102 58 175 167 180 286 10 19-8 90-20 38-31-96-102-176-192-220-93-51-206-58-308-31-125 38-240 136-270 268-18 45-16-24-16-34zm161 623c56-145 119-287 179-431-115-1-230-2-345-2v-66h256c-16-31-30-64-24-99-5-84 72-163 157-154 46-5 93 7 124 42 55 54 60 143 25 210 95 3 191 1 286 1v66c-124 0-247 1-371 2 57 144 118 286 170 431-37 15-86 6-127 9-108-2-217 4-324-4l-5-2-1-3zm278-513c46-27 61-94 25-135-31-43-98-50-135-13-46 36-41 114 8 145 29 22 71 23 102 3zm-439-110c-3-126 70-247 180-308 67-40 144-60 222-56 79-4 157 16 224 57 102 58 175 167 180 286 10 19-8 90-20 38-31-96-102-176-192-220-93-51-206-58-308-31-125 38-240 136-270 268-18 45-16-24-16-34zm161 623c56-145 119-287 179-431-115-1-230-2-345-2v-66h256c-16-31-30-64-24-99-5-84 72-163 157-154 46-5 93 7 124 42 55 54 60 143 25 210 95 3 191 1 286 1v66c-124 0-247 1-371 2 57 144 118 286 170 431-37 15-86 6-127 9-108-2-217 4-324-4l-5-2-1-3zm278-513c46-27 61-94 25-135-31-43-98-50-135-13-46 36-41 114 8 145 29 22 71 23 102 3zm-439-110c-3-126 70-247 180-308 67-40 144-60 222-56 79-4 157 16 224 57 102 58 175 167 180 286 10 19-8 90-20 38-31-96-102-176-192-220-93-51-206-58-308-31-125 38-240 136-270 268-18 45-16-24-16-34zm161 623c56-145 119-287 179-431-115-1-230-2-345-2v-66h256c-16-31-30-64-24-99-5-84 72-163 157-154 46-5 93 7 124 42 55 54 60 143 25 210 95 3 191 1 286 1v66c-124 0-247 1-371 2 57 144 118 286 170 431-37 15-86 6-127 9-108-2-217 4-324-4l-5-2-1-3zm278-513c46-27 61-94 25-135-31-43-98-50-135-13-46 36-41 114 8 145 29 22 71 23 102 3zm-439-110c-3-126 70-247 180-308 67-40 144-60 222-56 79-4 157 16 224 57 102 58 175 167 180 286 10 19-8 90-20 38-31-96-102-176-192-220-93-51-206-58-308-31-125 38-240 136-270 268-18 45-16-24-16-34zm161 623c56-145 119-287 179-431-115-1-230-2-345-2v-66h256c-16-31-30-64-24-99-5-84 72-163 157-154 46-5 93 7 124 42 55 54 60 143 25 210 95 3 191 1 286 1v66c-124 0-247 1-371 2 57 144 118 286 170 431-37 15-86 6-127 9-108-2-217 4-324-4l-5-2-1-3zm278-513c46-27 61-94 25-135-31-43-98-50-135-13-46 36-41 114 8 145 29 22 71 23 102 3zm-439-110c-3-126 70-247 180-308 67-40 144-60 222-56 79-4 157 16 224 57 102 58 175 167 180 286 10 19-8 90-20 38-31-96-102-176-192-220-93-51-206-58-308-31-125 38-240 136-270 268-18 45-16-24-16-34zm161 623c56-145 119-287 179-431-115-1-230-2-345-2v-66h256c-16-31-30-64-24-99-5-84 72-163 157-154 46-5 93 7 124 42 55 54 60 143 25 210 95 3 191 1 286 1v66c-124 0-247 1-371 2 57 144 118 286 170 431-37 15-86 6-127 9-108-2-217 4-324-4l-5-2-1-3zm278-513c46-27 61-94 25-135-31-43-98-50-135-13-46 36-41 114 8 145 29 22 71 23 102 3zm-439-110c-3-126 70-247 180-308 67-40 144-60 222-56 79-4 157 16 224 57 102 58 175 167 180 286 10 19-8 90-20 38-31-96-102-176-192-220-93-51-206-58-308-31-125 38-240 136-270 268-18 45-16-24-16-34zm161 623c56-145 119-287 179-431-115-1-230-2-345-2v-66h256c-16-31-30-64-24-99-5-84 72-163 157-154 46-5 93 7 124 42 55 54 60 143 25 210 95 3 191 1 286 1v66c-124 0-247 1-371 2 57 144 118 286 170 431-37 15-86 6-127 9-108-2-217 4-324-4l-5-2-1-3zm278-513c46-27 61-94 25-135-31-43-98-50-135-13-46 36-41 114 8 145 29 22 71 23 102 3zm-439-110c-3-126 70-247 180-308 67-40 144-60 222-56 79-4 157 16 224 57 102 58 175 167 180 286 10 19-8 90-20 38-31-96-102-176-192-220-93-51-206-58-308-31-125 38-240 136-270 268-18 45-16-24-16-34zm161 623c56-145 119-287 179-431-115-1-230-2-345-2v-66h256c-16-31-30-64-24-99-5-84 72-163 157-154 46-5 93 7 124 42 55 54 60 143 25 210 95 3 191 1 286 1v66c-124 0-247 1-371 2 57 144 118 286 170 431-37 15-86 6-127 9-108-2-217 4-324-4l-5-2-1-3zm278-513c46-27 61-94 25-135-31-43-98-50-135-13-46 36-41 114 8 145 29 22 71 23 102 3zm-439-110c-3-126 70-247 180-308 67-40 144-60 222-56 79-4 157 16 224 57 102 58 175 167 180 286 10 19-8 90-20 38-31-96-102-176-192-220-93-51-206-58-308-31-125 38-240 136-270 268-18 45-16-24-16-34zm161 623c56-145 119-287 179-431-115-1-230-2-345-2v-66h256c-16-31-30-64-24-99-5-84 72-163 157-154 46-5 93 7 124 42 55 54 60 143 25 210 95 3 191 1 286 1v66c-124 0-247 1-371 2 57 144 118 286 170 431-37 15-86 6-127 9-108-2-217 4-324-4l-5-2-1-3zm278-513c46-27 61-94 25-135-31-43-98-50-135-13-46 36-41 114 8 145 29 22 71 23 102 3zm-439-110c-3-126 70-247 180-308 67-40 144-60 222-56 79-4 157 16 224 57 102 58 175 167 180 286 10 19-8 90-20 38-31-96-102-176-192-220-93-51-206-58-308-31-125 38-240 136-270 268-18 45-16-24-16-34zm161 623c56-145 119-287 179-431-115-1-230-2-345-2v-66h256c-16-31-30-64-24-99-5-84 72-163 157-154 46-5 93 7 124 42 55 54 60 143 25 210 95 3 191 1 286 1v66c-124 0-247 1-371 2 57 144 118 286 170 431-37 15-86 6-127 9-108-2-217 4-324-4l-5-2-1-3zm278-513c46-27 61-94 25-135-31-43-98-50-135-13-46 36-41 114 8 145 29 22 71 23 102 3zm-439-110c-3-126 70-247 180-308 67-40 144-60 222-56 79-4 157 16 224 57 102 58 175 167 180 286 10 19-8 90-20 38-31-96-102-176-192-220-93-51-206-58-308-31-125 38-240 136-270 268-18 45-16-24-16-34zm161 623c56-145 119-287 179-431-115-1-230-2-345-2v-66h256c-16-31-30-64-24-99-5-84 72-163 157-154 46-5 93 7 124 42 55 54 60 143 25 210 95 3 191 1 286 1v66c-124 0-247 1-371 2 57 144 118 286 170 431-37 15-86 6-127 9-108-2-217 4-324-4l-5-2-1-3zm278-513c46-27 61-94 25-135-31-43-98-50-135-13-46 36-41 114 8 145 29 22 71 23 102 3zm-439-110c-3-126 70-247 180-308 67-40 144-60 222-56 79-4 157 16 224 57 102 58 175 167 180 286 10 19-8 90-20 38-31-96-102-176-192-220-93-51-206-58-308-31-125 38-240 136-270 268-18 45-16-24-16-34zm161 623c56-145 119-287 179-431-115-1-230-2-345-2v-66h256c-16-31-30-64-24-99-5-84 72-163 157-154 46-5 93 7 124 42 55 54 60 143 25 210 95 3 191 1 286 1v66c-124 0-247 1-371 2 57 144 118 286 170 431-37 15-86 6-127 9-108-2-217 4-324-4l-5-2-1-3zm278-513c46-27 61-94 25-135-31-43-98-50-135-13-46 36-41 114 8 145 29 22 71 23 102 3zm-439-110c-3-126 70-247 180-308 67-40 144-60 222-56 79-4 157 16 224 57 102 58 175 167 180 286 10 19-8 90-20 38-31-96-102-176-192-220-93-51-206-58-308-31-125 38-240 136-270 268-18 45-16-24-16-34zm161 623c56-145 119-287 179-431-115-1-230-2-345-2v-66h256c-16-31-30-64-24-99-5-84 72-163 157-154 46-5 93 7 124 42 55 54 60 143 25 210 95 3 191 1 286 1v66c-124 0-247 1-371 2 57 144 118 286 170 431-37 15-86 6-127 9-108-2-217 4-324-4l-5-2-1-3zm278-513c46-27 61-94 25-135-31-43-98-50-135-13-46 36-41 114 8 145 29 22 71 23 102 3zm-439-110c-3-126 70-247 180-308 67-40 144-60 222-56 79-4 157 16 224 57 102 58 175 167 180 286 10 19-8 90-20 38-31-96-102-176-192-220-93-51-206-58-308-31-125 38-240 136-270 268-18 45-16-24-16-34zm161 623c56-145 119-287 179-431-115-1-230-2-345-2v-66h256c-16-31-30-64-24-99-5-84 72-163 157-154 46-5 93 7 124 42 55 54 60 143 25 210 95 3 191 1 286 1v66c-124 0-247 1-371 2 57 144 118 286 170 431-37 15-86 6-127 9-108-2-217 4-324-4l-5-2-1-3zm278-513c46-27 61-94 25-135-31-43-98-50-135-13-46 36-41 114 8 145 29 22 71 23 102 3zm-439-110c-3-126 70-247 180-308 67-40 144-60 222-56 79-4 157 16 224 57 102 58 175 167 180 286 10 19-8 90-20 38-31-96-102-176-192-220-93-51-206-58-308-31-125 38-240 136-270 268-18 45-16-24-16-34zm161 623c56-145 119-287 179-431-115-1-230-2-345-2v-66h256c-16-31-30-64-24-99-5-84 72-163 157-154 46-5 93 7 124 42 55 54 60 143 25 210 95 3 191 1 286 1v66c-124 0-247 1-371 2 57 144 118 286 170 431-37 15-86 6-127 9-108-2-217 4-324-4l-5-2-1-3zm278-513c46-27 61-94 25-135-31-43-98-50-135-13-46 36-41 114 8 145 29 22 71 23 102 3zm-439-110c-3-126 70-247 180-308 67-40 144-60 222-56 79-4 157 16 224 57 102 58 175 167 180 286 10 19-8 90-20 38-31-96-102-176-192-220-93-51-206-58-308-31-125 38-240 136-270 268-18 45-16-24-16-34zm161 623c56-145 119-287 179-431-115-1-230-2-345-2v-66h256c-16-31-30-64-24-99-5-84 72-163 157-154 46-5 93 7 124 42 55 54 60 143 25 210 95 3 191 1 286 1v66c-124 0-247 1-371 2 57 144 118 286 170 431-37 15-86 6-127 9-108-2-217 4-324-4l-5-2-1-3zm278-513c46-27 61-94 25-135-31-43-98-50-135-13-46 36-41 114 8 145 29 22 71 23 102 3zm-439-110c-3-126 70-247 180-308 67-40 144-60 222-56 79-4 157 16 224 57 102 58 175 167 180 286 10 19-8 90-20 38-31-96-102-176-192-220-93-51-206-58-308-31-125 38-240 136-270 268-18 45-16-24-16-34zm161 623c56-145 119-287 179-431-115-1-230-2-345-2v-66h256c-16-31-30-64-24-99-5-84 72-163 157-154 46-5 93 7 124 42 55 54 60 143 25 210 95 3 191 1 286 1v66c-124 0-247 1-371 2 57 144 118 286 170 431-37 15-86 6-127 9-108-2-217 4-324-4l-5-2-1-3zm278-513c46-27 61-94 25-135-31-43-98-50-135-13-46 36-41 114 8 145 29 22 71 23 102 3zm-439-110c-3-126 70-247 180-308 67-40 144-60 222-56 79-4 157 16 224 57 102 58 175 167 180 286 10 19-8 90-20 38-31-96-102-176-192-220-93-51-206-58-308-31-125 38-240 136-270 268-18 45-16-24-16-34zm161 623c56-145 119-287 179-431-115-1-230-2-345-2v-66h256c-16-31-30-64-24-99-5-84 72-163 157-154 46-5 93 7 124 42 55 54 60 143 25 210 95 3 191 1 286 1v66c-124 0-247 1-371 2 57 144 118 286 170 431-37 15-86 6-127 9-108-2-217 4-324-4l-5-2-1-3zm278-513c46-27 61-94 25-135-31-43-98-50-135-13-46 36-41 114 8 145 29 22 71 23 102 3zm-439-110c-3-126 70-247 180-308 67-40 144-60 222-56 79-4 157 16 224 57 102 58 175 167 180 286 10 19-8 90-20 38-31-96-102-176-192-220-93-51-206-58-308-31-125 38-240 136-270 268-18 45-16-24-16-34zm161 623c56-145 119-287 179-431-115-1-230-2-345-2v-66h256c-16-31-30-64-24-99-5-84 72-163 157-154 46-5 93 7 124 42 55 54 60 143 25 210 95 3 191 1 286 1v66c-124 0-247 1-371 2 57 144 118 286 170 431-37 15-86 6-127 9-108-2-217 4-324-4l-5-2-1-3zm278-513c46-27 61-94 25-135-31-43-98-50-135-13-46 36-41 114 8 145 29 22 71 23 102 3zm-439-110c-3-126 70-247 180-308 67-40 144-60 222-56 79-4 157 16 224 57 102 58 175 167 180 286 10 19-8 90-20 38-31-96-102-176-192-220-93-51-206-58-308-31-125 38-240 136-270 268-18 45-16-24-16-34zm161 623c56-145 119-287 179-431-115-1-230-2-345-2v-66h256c-16-31-30-64-24-99-5-84 72-163 157-154 46-5 93 7 124 42 55 54 60 143 25 210 95 3 191 1 286 1v66c-124 0-247 1-371 2 57 144 118 286 170 431-37 15-86 6-127 9-108-2-217 4-324-4l-5-2-1-3zm278-513c46-27 61-94 25-135-31-43-98-50-135-13-46 36-41 114 8 145 29 22 71 23 102 3zm-439-110c-3-126 70-247 180-308 67-40 144-60 222-56 79-4 157 16 224 57 102 58 175 167 180 286 10 19-8 90-20 38-31-96-102-176-192-220-93-51-206-58-308-31-125 38-240 136-270 268-18 45-16-24-16-34zm161 623c56-145 119-287 179-431-115-1-230-2-345-2v-66h256c-16-31-30-64-24-99-5-84 72-163 157-154 46-5 93 7 124 42 55 54 60 143 25 210 95 3 191 1 286 1v66c-124 0-247 1-371 2 57 144 118 286 170 431-37 15-86 6-127 9-108-2-217 4-324-4l-5-2-1-3zm278-513c46-27 61-94 25-135-31-43-98-50-135-13-46 36-41 114 8 145 29 22 71 23 102 3zm-439-110c-3-126 70-247 180-308 67-40 144-60 222-56 79-4 157 16 224 57 102 58 175 167 180 286 10 19-8 90-20 38-31-96-102-176-192-220-93-51-206-58-308-31-125 38-240 136-270 268-18 45-16-24-16-34zm161 623c56-145 119-287 179-431-115-1-230-2-345-2v-66h256c-16-31-30-64-24-99-5-84 72-163 157-154 46-5 93 7 124 42 55 54 60 143 25 210 95 3 191 1 286 1v66c-124 0-247 1-371 2 57 144 118 286 170 431-37 15-86 6-127 9-108-2-217 4-324-4l-5-2-1-3zm278-513c46-27 61-94 25-135-31-43-98-50-135-13-46 36-41 114 8 145 29 22 71 23 102 3zm-439-110c-3-126 70-247 180-308 67-40 144-60 222-56 79-4 157 16 224 57 102 58 175 167 180 286 10 19-8 90-20 38-31-96-102-176-192-220-93-51-206-58-308-31-125 38-240 136-270 268-18 45-16-24-16-34zm161 623c56-145 119-287 179-431-115-1-230-2-345-2v-66h256c-16-31-30-64-24-99-5-84 72-163 157-154 46-5 93 7 124 42 55 54 60 143 25 210 95 3 191 1 286 1v66c-124 0-247 1-371 2 57 144 118 286 170 431-37 15-86 6-127 9-108-2-217 4-324-4l-5-2-1-3zm278-513c46-27 61-94 25-135-31-43-98-50-135-13-46 36-41 114 8 145 29 22 71 23 102 3zm-439-110c-3-126 70-247 180-308 67-40 144-60 222-56 79-4 157 16 224 57 102 58 175 167 180 286 10 19-8 90-20 38-31-96-102-176-192-220-93-51-206-58-308-31-125 38-240 136-270 268-18 45-16-24-16-34zm161 623c56-145 119-287 179-431-115-1-230-2-345-2v-66h256c-16-31-30-64-24-99-5-84 72-163 157-154 46-5 93 7 124 42 55 54 60 143 25 210 95 3 191 1 286 1v66c-124 0-247 1-371 2 57 144 118 286 170 431-37 15-86 6-127 9-108-2-217 4-324-4l-5-2-1-3zm278-513c46-27 61-94 25-135-31-43-98-50-135-13-46 36-41 114 8 145 29 22 71 23 102 3zm-439-110c-3-126 70-247 180-308 67-40 144-60 222-56 79-4 157 16 224 57 102 58 175 167 180 286 10 19-8 90-20 38-31-96-102-176-192-220-93-51-206-58-308-31-125 38-240 136-270 268-18 45-16-24-16-34zm161 623c56-145 119-287 179-431-115-1-230-2-345-2v-66h256c-16-31-30-64-24-99-5-84 72-163 157-154 46-5 93 7 124 42 55 54 60 143 25 210 95 3 191 1 286 1v66c-124 0-247 1-371 2 57 144 118 286 170 431-37 15-86 6-127 9-108-2-217 4-324-4l-5-2-1-3zm278-513c46-27 61-94 25-135-31-43-98-50-135-13-46 36-41 114 8 145 29 22 71 23 102 3zm-439-110c-3-126 70-247 180-308 67-40 144-60 222-56 79-4 157 16 224 57 102 58 175 167 180 286 10 19-8 90-20 38-31-96-102-176-192-220-93-51-206-58-308-31-125 38-240 136-270 268-18 45-16-24-16-34zm161 623c56-145 119-287 179-431-115-1-230-2-345-2v-66h256c-16-31-30-64-24-99-5-84 72-163 157-154 46-5 93 7 124 42 55 54 60 143 25 210 95 3 191 1 286 1v66c-124 0-247 1-371 2 57 144 118 286 170 431-37 15-86 6-127 9-108-2-217 4-324-4l-5-2-1-3zm278-513c46-27 61-94 25-135-31-43-98-50-135-13-46 36-41 114 8 145 29 22 71 23 102 3zm-439-110c-3-126 70-247 180-308 67-40 144-60 222-56 79-4 157 16 224 57 102 58 175 167 180 286 10 19-8 90-20 38-31-96-102-176-192-220-93-51-206-58-308-31-125 38-240 136-270 268-18 45-16-24-16-34zm161 623c56-145 119-287 179-431-115-1-230-2-345-2v-66h256c-16-31-30-64-24-99-5-84 72-163 157-154 46-5 93 7 124 42 55 54 60 143 25 210 95 3 191 1 286 1v66c-124 0-247 1-371 2 57 144 118 286 170 431-37 15-86 6-127 9-108-2-217 4-324-4l-5-2-1-3zm278-513c46-27 61-94 25-135-31-43-98-50-135-13-46 36-41 114 8 145 29 22 71 23 102 3zm-439-110c-3-126 70-247 180-308 67-40 144-60 222-56 79-4 157 16 224 57 102 58 175 167 180 286 10 19-8 90-20 38-31-96-102-176-192-220-93-51-206-58-308-31-125 38-240 136-270 268-18 45-16-24-16-34zm161 623c56-145 119-287 179-431-115-1-230-2-345-2v-66h256c-16-31-30-64-24-99-5-84 72-163 157-154 46-5 93 7 124 42 55 54 60 143 25 210 95 3 191 1 286 1v66c-124 0-247 1-371 2 57 144 118 286 170 431-37 15-86 6-127 9-108-2-217 4-324-4l-5-2-1-3zm278-513c46-27 61-94 25-135-31-43-98-50-135-13-46 36-41 114 8 145 29 22 71 23 102 3zm-439-110c-3-126 70-247 180-308 67-40 144-60 222-56 79-4 157 16 224 57 102 58 175 167 180 286 10 19-8 90-20 38-31-96-102-176-192-220-93-51-206-58-308-31-125 38-240 136-270 268-18 45-16-24-16-34zm161 623c56-145 119-287 179-431-115-1-230-2-345-2v-66h256c-16-31-30-64-24-99-5-84 72-163 157-154 46-5 93 7 124 42 55 54 60 143 25 210 95 3 191 1 286 1v66c-124 0-247 1-371 2 57 144 118 286 170 431-37 15-86 6-127 9-108-2-217 4-324-4l-5-2-1-3zm278-513c46-27 61-94 25-135-31-43-98-50-135-13-46 36-41 114 8 145 29 22 71 23 102 3zm-439-110c-3-126 70-247 180-308 67-40 144-60 222-56 79-4 157 16 224 57 102 58 175 167 180 286 10 19-8 90-20 38-31-96-102-176-192-220-93-51-206-58-308-31-125 38-240 136-270 268-18 45-16-24-16-34zm161 623c56-145 119-287 179-431-115-1-230-2-345-2v-66h256c-16-31-30-64-24-99-5-84 72-163 157-154 46-5 93 7 124 42 55 54 60 143 25 210 95 3 191 1 286 1v66c-124 0-247 1-371 2 57 144 118 286 170 431-37 15-86 6-127 9-108-2-217 4-324-4l-5-2-1-3zm278-513c46-27 61-94 25-135-31-43-98-50-135-13-46 36-41 114 8 145 29 22 71 23 102 3zm-439-110c-3-126 70-247 180-308 67-40 144-60 222-56 79-4 157 16 224 57 102 58 175 167 180 286 10 19-8 90-20 38-31-96-102-176-192-220-93-51-206-58-308-31-125 38-240 136-270 268-18 45-16-24-16-34zm161 623c56-145 119-287 179-431-115-1-230-2-345-2v-66h256c-16-31-30-64-24-99-5-84 72-163 157-154 46-5 93 7 124 42 55 54 60 143 25 210 95 3 191 1 286 1v66c-124 0-247 1-371 2 57 144 118 286 170 431-37 15-86 6-127 9-108-2-217 4-324-4l-5-2-1-3zm278-513c46-27 61-94 25-135-31-43-98-50-135-13-46 36-41 114 8 145 29 22 71 23 102 3zm-439-110c-3-126 70-247 180-308 67-40 144-60 222-56 79-4 157 16 224 57 102 58 175 167 180 286 10 19-8 90-20 38-31-96-102-176-192-220-93-51-206-58-308-31-125 38-240 136-270 268-18 45-16-24-16-34zm161 623c56-145 119-287 179-431-115-1-230-2-345-2v-66h256c-16-31-30-64-24-99-5-84 72-163 157-154 46-5 93 7 124 42 55 54 60 143 25 210 95 3 191 1 286 1v66c-124 0-247 1-371 2 57 144 118 286 170 431-37 15-86 6-127 9-108-2-217 4-324-4l-5-2-1-3zm278-513c46-27 61-94 25-135-31-43-98-50-135-13-46 36-41 114 8 145 29 22 71 23 102 3zm-439-110c-3-126 70-247 180-308 67-40 144-60 222-56 79-4 157 16 224 57 102 58 175 167 180 286 10 19-8 90-20 38-31-96-102-176-192-220-93-51-206-58-308-31-125 38-240 136-270 268-18 45-16-24-16-34zm161 623c56-145 119-287 179-431-115-1-230-2-345-2v-66h256c-16-31-30-64-24-99-5-84 72-163 157-154 46-5 93 7 124 42 55 54 60 143 25 210 95 3 191 1 286 1v66c-124 0-247 1-371 2 57 144 118 286 170 431-37 15-86 6-127 9-108-2-217 4-324-4l-5-2-1-3zm278-513c46-27 61-94 25-135-31-43-98-50-135-13-46 36-41 114 8 145 29 22 71 23 102 3zm-439-110c-3-126 70-247 180-308 67-40 144-60 222-56 79-4 157 16 224 57 102 58 175 167 180 286 10 19-8 90-20 38-31-96-102-176-192-220-93-51-206-58-308-31-125 38-240 136-270 268-18 45-16-24-16-34zm161 623c56-145 119-287 179-431-115-1-230-2-345-2v-66h256c-16-31-30-64-24-99-5-84 72-163 157-154 46-5 93 7 124 42 55 54 60 143 25 210 95 3 191 1 286 1v66c-124 0-247 1-371 2 57 144 118 286 170 431-37 15-86 6-127 9-108-2-217 4-324-4l-5-2-1-3zm278-513c46-27 61-94 25-135-31-43-98-50-135-13-46 36-41 114 8 145 29 22 71 23 102 3zm-439-110c-3-126 70-247 180-308 67-40 144-60 222-56 79-4 157 16 224 57 102 58 175 167 180 286 10 19-8 90-20 38-31-96-102-176-192-220-93-51-206-58-308-31-125 38-240 136-270 268-18 45-16-24-16-34zm161 623c56-145 119-287 179-431-115-1-230-2-345-2v-66h256c-16-31-30-64-24-99-5-84 72-163 157-154 46-5 93 7 124 42 55 54 60 143 25 210 95 3 191 1 286 1v66c-124 0-247 1-371 2 57 144 118 286 170 431-37 15-86 6-127 9-108-2-217 4-324-4l-5-2-1-3zm278-513c46-27 61-94 25-135-31-43-98-50-135-13-46 36-41 114 8 145 29 22 71 23 102 3zm-439-110c-3-126 70-247 180-308 67-40 144-60 222-56 79-4 157 16 224 57 102 58 175 167 180 286 10 19-8 90-20 38-31-96-102-176-192-220-93-51-206-58-308-31-125 38-240 136-270 268-18 45-16-24-16-34zm161 623c56-145 119-287 179-431-115-1-230-2-345-2v-66h256c-16-31-30-64-24-99-5-84 72-163 157-154 46-5 93 7 124 42 55 54 60 143 25 210 95 3 191 1 286 1v66c-124 0-247 1-371 2 57 144 118 286 170 431-37 15-86 6-127 9-108-2-217 4-324-4l-5-2-1-3zm278-513c46-27 61-94 25-135-31-43-98-50-135-13-46 36-41 114 8 145 29 22 71 23 102 3zm-439-110c-3-126 70-247 180-308 67-40 144-60 222-56 79-4 157 16 224 57 102 58 175 167 180 286 10 19-8 90-20 38-31-96-102-176-192-220-93-51-206-58-308-31-125 38-240 136-270 268-18 45-16-24-16-34zm161 623c56-145 119-287 179-431-115-1-230-2-345-2v-66h256c-16-31-30-64-24-99-5-84 72-163 157-154 46-5 93 7 124 42 55 54 60 143 25 210 95 3 191 1 286 1v66c-124 0-247 1-371 2 57 144 118 286 170 431-37 15-86 6-127 9-108-2-217 4-324-4l-5-2-1-3zm278-513c46-27 61-94 25-135-31-43-98-50-135-13-46 36-41 114 8 145 29 22 71 23 102 3zm-439-110c-3-126 70-247 180-308 67-40 144-60 222-56 79-4 157 16 224 57 102 58 175 167 180 286 10 19-8 90-20 38-31-96-102-176-192-220-93-51-206-58-308-31-125 38-240 136-270 268-18 45-16-24-16-34zm161 623c56-145 119-287 179-431-115-1-230-2-345-2v-66h256c-16-31-30-64-24-99-5-84 72-163 157-154 46-5 93 7 124 42 55 54 60 143 25 210 95 3 191 1 286 1v66c-124 0-247 1-371 2 57 144 118 286 170 431-37 15-86 6-127 9-108-2-217 4-324-4l-5-2-1-3zm278-513c46-27 61-94 25-135-31-43-98-50-135-13-46 36-41 114 8 145 29 22 71 23 102 3zm-439-110c-3-126 70-247 180-308 67-40 144-60 222-56 79-4 157 16 224 57 102 58 175 167 180 286 10 19-8 90-20 38-31-96-102-176-192-220-93-51-206-58-308-31-125 38-240 136-270 268-18 45-16-24-16-34zm161 623c56-145 119-287 179-431-115-1-230-2-345-2v-66h256c-16-31-30-64-24-99-5-84 72-163 157-154 46-5 93 7 124 42 55 54 60 143 25 210 95 3 191 1 286 1v66c-124 0-247 1-371 2 57 144 118 286 170 431-37 15-86 6-127 9-108-2-217 4-324-4l-5-2-1-3zm278-513c46-27 61-94 25-135-31-43-98-50-135-13-46 36-41 114 8 145 29 22 71 23 102 3zm-439-110c-3-126 70-247 180-308 67-40 144-60 222-56 79-4 157 16 224 57 102 58 175 167 180 286 10 19-8 90-20 38-31-96-102-176-192-220-93-51-206-58-308-31-125 38-240 136-270 268-18 45-16-24-16-34zm161 623c56-145 119-287 179-431-115-1-230-2-345-2v-66h256c-16-31-30-64-24-99-5-84 72-163 157-154 46-5 93 7 124 42 55 54 60 143 25 210 95 3 191 1 286 1v66c-124 0-247 1-371 2 57 144 118 286 170 431-37 15-86 6-127 9-108-2-217 4-324-4l-5-2-1-3zm278-513c46-27 61-94 25-135-31-43-98-50-135-13-46 36-41 114 8 145 29 22 71 23 102 3zm-439-110c-3-126 70-247 180-308 67-40 144-60 222-56 79-4 157 16 224 57 102 58 175 167 180 286 10 19-8 90-20 38-31-96-102-176-192-220-93-51-206-58-308-31-125 38-240 136-270 268-18 45-16-24-16-34zm161 623c56-145 119-287 179-431-115-1-230-2-345-2v-66h256c-16-31-30-64-24-99-5-84 72-163 157-154 46-5 93 7 124 42 55 54 60 143 25 210 95 3 191 1 286 1v66c-124 0-247 1-371 2 57 144 118 286 170 431-37 15-86 6-127 9-108-2-217 4-324-4l-5-2-1-3zm278-513c46-27 61-94 25-135-31-43-98-50-135-13-46 36-41 114 8 145 29 22 71 23 102 3zm-439-110c-3-126 70-247 180-308 67-40 144-60 222-56 79-4 157 16 224 57 102 58 175 167 180 286 10 19-8 90-20 38-31-96-102-176-192-220-93-51-206-58-308-31-125 38-240 136-270 268-18 45-16-24-16-34zm161 623c56-145 119-287 179-431-115-1-230-2-345-2v-66h256c-16-31-30-64-24-99-5-84 72-163 157-154 46-5 93 7 124 42 55 54 60 143 25 210 95 3 191 1 286 1v66c-124 0-247 1-371 2 57 144 118 286 170 431-37 15-86 6-127 9-108-2-217 4-324-4l-5-2-1-3zm278-513c46-27 61-94 25-135-31-43-98-50-135-13-46 36-41 114 8 145 29 22 71 23 102 3zm-439-110c-3-126 70-247 180-308 67-40 144-60 222-56 79-4 157 16 224 57 102 58 175 167 180 286 10 19-8 90-20 38-31-96-102-176-192-220-93-51-206-58-308-31-125 38-240 136-270 268-18 45-16-24-16-34zm161 623c56-145 119-287 179-431-115-1-230-2-345-2v-66h256c-16-31-30-64-24-99-5-84 72-163 157-154 46-5 93 7 124 42 55 54 60 143 25 210 95 3 191 1 286 1v66c-124 0-247 1-371 2 57 144 118 286 170 431-37 15-86 6-127 9-108-2-217 4-324-4l-5-2-1-3zm278-513c46-27 61-94 25-135-31-43-98-50-135-13-46 36-41 114 8 145 29 22 71 23 102 3zm-439-110c-3-126 70-247 180-308 67-40 144-60 222-56 79-4 157 16 224 57 102 58 175 167 180 286 10 19-8 90-20 38-31-96-102-176-192-220-93-51-206-58-308-31-125 38-240 136-270 268-18 45-16-24-16-34zm161 623c56-145 119-287 179-431-115-1-230-2-345-2v-66h256c-16-31-30-64-24-99-5-84 72-163 157-154 46-5 93 7 124 42 55 54 60 143 25 210 95 3 191 1 286 1v66c-124 0-247 1-371 2 57 144 118 286 170 431-37 15-86 6-127 9-108-2-217 4-324-4l-5-2-1-3zm278-513c46-27 61-94 25-135-31-43-98-50-135-13-46 36-41 114 8 145 29 22 71 23 102 3zm-439-110c-3-126 70-247 180-308 67-40 144-60 222-56 79-4 157 16 224 57 102 58 175 167 180 286 10 19-8 90-20 38-31-96-102-176-192-220-93-51-206-58-308-31-125 38-240 136-270 268-18 45-16-24-16-34zm161 623c56-145 119-287 179-431-115-1-230-2-345-2v-66h256c-16-31-30-64-24-99-5-84 72-163 157-154 46-5 93 7 124 42 55 54 60 143 25 210 95 3 191 1 286 1v66c-124 0-247 1-371 2 57 144 118 286 170 431-37 15-86 6-127 9-108-2-217 4-324-4l-5-2-1-3zm278-513c46-27 61-94 25-135-31-43-98-50-135-13-46 36-41 114 8 145 29 22 71 23 102 3zm-439-110c-3-126 70-247 180-308 67-40 144-60 222-56 79-4 157 16 224 57 102 58 175 167 180 286 10 19-8 90-20 38-31-96-102-176-192-220-93-51-206-58-308-31-125 38-240 136-270 268-18 45-16-24-16-34zm161 623c56-145 119-287 179-431-115-1-230-2-345-2v-66h256c-16-31-30-64-24-99-5-84 72-163 157-154 46-5 93 7 124 42 55 54 60 143 25 210 95 3 191 1 286 1v66c-124 0-247 1-371 2 57 144 118 286 170 431-37 15-86 6-127 9-108-2-217 4-324-4l-5-2-1-3zm278-513c46-27 61-94 25-135-31-43-98-50-135-13-46 36-41 114 8 145 29 22 71 23 102 3zm-439-110c-3-126 70-247 180-308 67-40 144-60 222-56 79-4 157 16 224 57 102 58 175 167 180 286 10 19-8 90-20 38-31-96-102-176-192-220-93-51-206-58-308-31-125 38-240 136-270 268-18 45-16-24-16-34zm161 623c56-145 119-287 179-431-115-1-230-2-345-2v-66h256c-16-31-30-64-24-99-5-84 72-163 157-154 46-5 93 7 124 42 55 54 60 143 25 210 95 3 191 1 286 1v66c-124 0-247 1-371 2 57 144 118 286 170 431-37 15-86 6-127 9-108-2-217 4-324-4l-5-2-1-3zm278-513c46-27 61-94 25-135-31-43-98-50-135-13-46 36-41 114 8 145 29 22 71 23 102 3zm-439-110c-3-126 70-247 180-308 67-40 144-60 222-56 79-4 157 16 224 57 102 58 175 167 180 286 10 19-8 90-20 38-31-96-102-176-192-220-93-51-206-58-308-31-125 38-240 136-270 268-18 45-16-24-16-34zm161 623c56-145 119-287 179-431-115-1-230-2-345-2v-66h256c-16-31-30-64-24-99-5-84 72-163 157-154 46-5 93 7 124 42 55 54 60 143 25 210 95 3 191 1 286 1v66c-124 0-247 1-371 2 57 144 118 286 170 431-37 15-86 6-127 9-108-2-217 4-324-4l-5-2-1-3zm278-513c46-27 61-94 25-135-31-43-98-50-135-13-46 36-41 114 8 145 29 22 71 23 102 3zm-439-110c-3-126 70-247 180-308 67-40 144-60 222-56 79-4 157 16 224 57 102 58 175 167 180 286 10 19-8 90-20 38-31-96-102-176-192-220-93-51-206-58-308-31-125 38-240 136-270 268-18 45-16-24-16-34zm161 623c56-145 119-287 179-431-115-1-230-2-345-2v-66h256c-16-31-30-64-24-99-5-84 72-163 157-154 46-5 93 7 124 42 55 54 60 143 25 210 95 3 191 1 286 1v66c-124 0-247 1-371 2 57 144 118 286 170 431-37 15-86 6-127 9-108-2-217 4-324-4l-5-2-1-3zm278-513c46-27 61-94 25-135-31-43-98-50-135-13-46 36-41 114 8 145 29 22 71 23 102 3zm-439-110c-3-126 70-247 180-308 67-40 144-60 222-56 79-4 157 16 224 57 102 58 175 167 180 286 10 19-8 90-20 38-31-96-102-176-192-220-93-51-206-58-308-31-125 38-240 136-270 268-18 45-16-24-16-34zm161 623c56-145 119-287 179-431-115-1-230-2-345-2v-66h256c-16-31-30-64-24-99-5-84 72-163 157-154 46-5 93 7 124 42 55 54 60 143 25 210 95 3 191 1 286 1v66c-124 0-247 1-371 2 57 144 118 286 170 431-37 15-86 6-127 9-108-2-217 4-324-4l-5-2-1-3zm278-513c46-27 61-94 25-135-31-43-98-50-135-13-46 36-41 114 8 145 29 22 71 23 102 3zm-439-110c-3-126 70-247 180-308 67-40 144-60 222-56 79-4 157 16 224 57 102 58 175 167 180 286 10 19-8 90-20 38-31-96-102-176-192-220-93-51-206-58-308-31-125 38-240 136-270 268-18 45-16-24-16-34zm161 623c56-145 119-287 179-431-115-1-230-2-345-2v-66h256c-16-31-30-64-24-99-5-84 72-163 157-154 46-5 93 7 124 42 55 54 60 143 25 210 95 3 191 1 286 1v66c-124 0-247 1-371 2 57 144 118 286 170 431-37 15-86 6-127 9-108-2-217 4-324-4l-5-2-1-3zm278-513c46-27 61-94 25-135-31-43-98-50-135-13-46 36-41 114 8 145 29 22 71 23 102 3zm-439-110c-3-126 70-247 180-308 67-40 144-60 222-56 79-4 157 16 224 57 102 58 175 167 180 286 10 19-8 90-20 38-31-96-102-176-192-220-93-51-206-58-308-31-125 38-240 136-270 268-18 45-16-24-16-34zm161 623c56-145 119-287 179-431-115-1-230-2-345-2v-66h256c-16-31-30-64-24-99-5-84 72-163 157-154 46-5 93 7 124 42 55 54 60 143 25 210 95 3 191 1 286 1v66c-124 0-247 1-371 2 57 144 118 286 170 431-37 15-86 6-127 9-108-2-217 4-324-4l-5-2-1-3zm278-513c46-27 61-94 25-135-31-43-98-50-135-13-46 36-41 114 8 145 29 22 71 23 102 3zm-439-110c-3-126 70-247 180-308 67-40 144-60 222-56 79-4 157 16 224 57 102 58 175 167 180 286 10 19-8 90-20 38-31-96-102-176-192-220-93-51-206-58-308-31-125 38-240 136-270 268-18 45-16-24-16-34zm161 623c56-145 119-287 179-431-115-1-230-2-345-2v-66h256c-16-31-30-64-24-99-5-84 72-163 157-154 46-5 93 7 124 42 55 54 60 143 25 210 95 3 191 1 286 1v66c-124 0-247 1-371 2 57 144 118 286 170 431-37 15-86 6-127 9-108-2-217 4-324-4l-5-2-1-3zm278-513c46-27 61-94 25-135-31-43-98-50-135-13-46 36-41 114 8 145 29 22 71 23 102 3zm-439-110c-3-126 70-247 180-308 67-40 144-60 222-56 79-4 157 16 224 57 102 58 175 167 180 286 10 19-8 90-20 38-31-96-102-176-192-220-93-51-206-58-308-31-125 38-240 136-270 268-18 45-16-24-16-34z"/></svg>