<svg viewBox="0 0 999.9813 1002.5846" xmlns="http://www.w3.org/2000/svg"><path d="M538.392 2.27c-2 0-4 0-6 1-7 0-13 2-17 4-1 1-2 1-3 3h1l-1 1-1 1h1c-1 1-1 2-1 3-2 5-3 11-2 19 3 0 5 1 8 1v1c8 0 15 0 22 1 4 0 9 0 13 1 33 3 66 11 98 21 2 1 3 1 5 2 1 0 3 1 4 1 2 1 4 2 6 2 2 1 3 2 5 2 12 5 23 10 34 15 17 8 33 16 48 26 1 0 1 1 2 1 22 14 42 30 61 47 1 0 1 1 2 2 1 0 2 1 3 2 35 33 65 72 88 114 1 0 1 1 1 1 1 2 2 4 3 5 1 2 1 3 2 4 0 1 1 2 1 3 1 2 2 3 3 5l1 1c1 3 2 5 3 7s2 5 3 7c2 3 3 5 4 8 1 1 1 3 2 5 0 1 1 1 1 2 12 29 22 59 28 89l6 36v3c0 1 1 2 1 3 1 10 2 21 2 32 1 0 1 1 1 1 9 5 25 9 25-6v-1l1-1v-2-3c0-1 0-2 1-2v-3-3c-1-1-1-2-1-3v-3-3c0-1 0-2-1-3v-3c0-1 0-2-1-3 0-2 0-4-1-6 0-2 0-4-1-5v-2c-4-32-12-64-23-95v-1c-1-3-2-6-3-8l-3-9-3-6v-1c0-1-1-1-1-1 0-2-1-3-1-4-1-1-1-3-2-4v-1c-1 0-1-1-1-2l-3-6c0-1 0-1-1-1-1-3-2-5-3-7 0-1-1-2-1-3-1-2-2-3-3-5 0-2-1-3-2-5-1-1-1-2-2-3l-3-6c0-1-1-1-1-2-1-2-3-5-4-7-2-3-3-6-5-8-1-3-3-5-4-8h-1c-1-3-3-5-4-8-2-2-4-5-5-7-2-3-4-5-6-8-1-2-3-5-5-7v-1c-2-2-3-4-5-6 0-1 0-1-1-1-1-2-3-4-4-6l-2-2c-1-1-2-3-4-5 0-1-1-1-1-2-2-2-3-3-4-5l-3-3-3-3c-1-2-2-3-3-4l-3-3c-1-1-2-3-4-4 0-1-1-2-1-2l-6-6c-16-17-33-33-51-47-1 0-1-1-2-1l-2-2c-1-1-2-2-4-3-54-41-115-72-181-88h-1c-8-1-16-3-24-5-12-3-32-8-50-9h-5zm-85 1h-7c-1 0-3 1-4 1h-7c-1 1-2 1-3 1s-2 1-3 1-2 0-3 1c-1 0-3 0-4 1-3 0-6 1-8 1-1 1-3 1-4 1-2 0-4 1-6 1-1 0-3 1-5 1s-4 1-5 1c-2 0-4 1-6 1-1 1-3 1-5 1-2 1-3 1-5 2-2 0-4 0-5 1h-1c-2 0-3 1-5 1-2 1-3 1-5 2h-2c-1 1-2 1-3 1-1 1-3 1-4 1l-1 1c-2 0-3 1-5 1-17 6-34 12-50 19 0 0-1 0-1 1-34 15-66 35-96 58-35 26-66 56-93 90-5 6-9 12-13 18-1 1-1 2-2 3l-1 1c-1 1-1 2-2 3 0 0 0 1-1 1v1l-2 2c0 1 0 1-1 1 0 1 0 1-1 2 0 0 0 1-1 2l-1 1s0 1-1 1c0 1 0 1-1 2 0 0 0 1-1 1 0 1 0 1-1 2v1l-2 2s0 1-1 2-1 2-1 2c-1 1-1 2-2 2v1s-1 1-1 2l-2 2c0 1-1 2-1 3-1 1-2 3-3 4-1 2-2 3-2 5-1 2-2 3-3 5-1 1-2 3-3 4 0 2-1 4-2 5-1 2-2 3-3 5 0 2-1 3-2 5-1 1-2 3-2 5-1 1-2 3-3 4 0 2-1 4-2 5-1 2-1 4-2 5-1 2-1 4-2 5-1 2-2 3-2 5-1 2-2 3-2 5-1 2-2 3-2 5-1 2-1 3-2 5s-1 3-2 5-1 4-2 5c0 2-1 4-1 5-1 2-2 4-2 5-1 2-1 4-2 6 0 1 0 2-1 3-6 19-10 37-13 57v2c-1 2-1 4-1 6-1 1-1 3-1 5s-1 4-1 5v6c-1 1-1 3-1 5v5c-1 2-1 4-1 6v11c-1 1-1 3-1 5v16c1 1 1 1 2 1 8 4 18 6 25 2 2-1 5-3 6-5h1c0-1 1-1 2-2v-2-1-1c1-1 1-2 1-2v-2-8c0-2 0-4 1-7v-10c2-8 3-15 3-22 5-35 15-69 29-102v-2c1-2 2-5 4-7 1-2 2-5 3-7s2-5 3-7 2-5 4-7c2-5 4-9 7-14 1-2 2-4 4-7 1-2 2-4 3-7 2-2 3-4 4-6 2-2 3-5 5-7 1-2 2-4 4-6 27-42 60-79 99-110 1-1 2-2 4-3 1-2 3-3 5-4 2-2 3-3 5-4s4-3 6-4c1-1 3-3 5-4s4-2 5-4l6-3c2-2 4-3 5-4l6-3c2-2 4-3 6-4s4-2 5-3c2-1 4-2 6-4l6-3 6-3 6-3 6-3 6-3c3-2 8-3 12-5l6-3c2-1 4-1 6-2l6-3c2-1 4-1 6-2s4-2 6-2l6-3c3 0 5-1 7-2 2 0 4-1 6-2 2 0 4-1 6-2 2 0 4-1 6-1 8-2 15-4 23-5h2c6-2 13-3 20-4 15-1 30-2 41-6 2 0 4-1 6-1 1 0 1-1 2-1l1-1h4c4-6 7-10 7-13v-1c1 0 1 0 1-1v-1-1-1c0-2-1-4-3-6v-5h-11c-4-1-8-1-12-1-1-1-2-1-4-1h-3zm13 73c-4 0-7 0-11 2h-3c-1 1-1 1-2 1 0 0-1 0-1 1-1 0-2 1-4 1 0 1-1 1-1 1-1 0-1 1-2 1l-1 1c-1 1-1 1-2 1 0 1-1 1-1 2-1 0-1 1-2 1h5l-1 1s-1 1-1 2c3-1 6-1 8-1h3l-1 1c-1 2 2 1 4-1h1c6 8 8 21 5 34 0 1-1 2-1 3s-1 2-1 3c-1 1-1 2-2 3 0 1-1 2-1 2-1 1-1 2-1 2-2 3-4 5-5 8-1 1-2 1-3 2s-1 2-1 3h-1c0 1-1 2-1 2l-2 2h3v1h1v-1h3c1 0 1 0 2-1h1s1 0 1-1h1c4-2 7-5 9-8 3-3 6-6 9-10 4-5 8-9 10-14h1c0-1 0-1 1-2l1-1c1-1 1-1 1-2 1 0 1-1 1-1 1-1 1-1 1-2 1 0 1-1 1-1 0-1 1-1 1-2v-1c1-1 1-1 1-2v-1c0-1 0-1 1-2v-1-2-1-1c0-2 0-3-1-5-1-6-4-10-9-13-4-3-8-5-14-4zm66 0c-2 0-3 0-5 1 0-1 0-1-1-1h-3c0 1-1 1-1 1h-2-1c-1 0-1 1-2 1h-1l-1 1s-1 0-1 1l-1 1-1 1v1s-1 0-1 1v1c0 1 0 1-1 2v5l1 1v3c0 6 3 13 10 20v1c1 1 2 1 3 2v-2h1v-4c3 1 3-4 3-6 0-1 1-1 1-1l15-3h3c1 0 3 0 5 1 8 3 16 9 21 14 0 1 1 1 1 2h1v1h1l3 1v-1h1v-2c2-2 1-5-1-8-3-10-12-18-22-23-1 0-1-1-1-1-1 0-2-1-2-1-1 0-1-1-2-1-7-6-14-9-20-9zm-137 12h-3s0 1-1 1h-1-1s0 1-1 1h-1v1c-2 0-3 1-4 2h-2c-1 1-2 1-3 2-1 0-2 1-2 1-9 3-12 5-11 7-2 1 0 3 4 3 1 1 2 1 3 1h5c1 0 2 1 3 1h6c3 0 5 1 7 1h4c1 0 3 1 4 1h4c1 1 2 1 3 1s3 1 4 1c0 0 1 0 1 1h2c1 0 1 1 2 1h1c1 1 1 1 2 1l1 1c1 0 1 0 1 1 2 1 4 2 5 4h1c1 1 1 2 2 3h5c1 2 1 3 2 5l3-6h2v-1h1v-1c1-2 1-3 0-5 0-1-1-3-2-4-2-8-12-14-23-17-8-4-16-6-22-7h-1zm208 4h-3-1-1-1v1h-1v2c1 0 1 1 1 1h1v1l2 2c1 0 1 1 2 1 1 1 2 1 3 2s3 2 6 4c1 0 2 1 4 2 2 2 5 4 7 6l12 9c6 6 11 11 15 16 1 1 1 2 2 2v6h2v1h2v2c4 0 6-1 8-2 2 0 3-1 3-2l1-1v-2c1 0 1-1 1-1v-3c0-5-4-12-9-18-3-3-6-7-10-10v-1c-1 0-1-1-1-1l-3-3c-1 0-2-1-3-2l-2-2c-1-1-2-2-3-2-1-1-2-2-3-2-1-1-2-2-4-3h-1l-1-1h-1c-1 0-1-1-1-1h-3-1-1-1c-2-1-4-1-6-1h-11zm76 24v1h-1c0 2 2 5 5 9 2 3 5 6 10 10 1 0 1 1 1 1 1 1 2 1 3 2 2 1 3 3 5 4h1c4 4 8 7 12 10 9 8 17 17 22 26v1c1 1 1 1 1 2v3c1 0 1 1 1 1v2h1v-1 1h1v2c1-1 2-2 3-2l2 1c1-3 1-5 1-8 0 0 1-1 1-2 1-3 0-7-2-12v-1c0-1-1-1-1-2v-1c-1 0-1-1-1-1 0-1-1-1-1-2l-1-1c0-1 0-1-1-2l-1-1-1-1c0-1-1-1-1-2l-2-2-3-3-3-3c-1-1-2-2-3-2l-3-3c-1 0-1-1-2-1-8-8-17-14-26-18-3-2-6-3-8-4-1 0-1 0-2 1l-1-1h-2c-1-1-1-1-2-1h-2zm-343 6h-3-2-2-2-2s-1 0-2 1h-4c-1 1-3 1-4 1s-3 1-4 1c-1 1-2 1-4 1-1 0-1 0-2 1 0 0-1 1-2 1s-2 1-4 2h-1c-7 3-15 7-21 12-13 8-24 19-28 30l1 3s1 0 1-1v1c1-1 2-1 3-1s1 0 2-1c1 0 2-1 3-1s1 0 1-1h1c6-3 11-7 17-11 1-2 2-3 3-5 1 0 2-1 4-2h1c1-1 2-1 3-1 1-1 2-1 2-1 1 0 1 0 2-1 1 0 3-1 4-1 10-3 21-6 32-9 9 0 18-1 24-5 8 3 6-1 3-3l1-1c1-1 2-1 4-2 1-1 2-1 3-2h-1-1c-1-1-1-1-2-1s-1-1-2-1-1 0-2-1h-2c-1 0-1 0-2-1h-4c-1 0-1-1-2-1h-10zm59 0c-1 0-2 1-1 2 0 1 0 1-1 1v1c-1 0-2 1-2 1-1 1-2 1-2 2-1 0-2 1-3 2l-2 2c-1 1-2 1-2 2-1 0-1 1-1 1-13 11-26 29-26 41 11 3 17-1 22-8 1-1 1-2 2-3 3-3 5-8 7-12 2-3 4-7 5-9 1-1 1-2 2-3 4-7 6-12 6-14 6 0-2-6-4-6zm223 7c-1 0-3 0-6 2v-1h-5s-1 1-2 1h-2c-1 0-2 0-3 1h-3c0 1-1 1-2 1-1 1-2 1-3 1l-1 1s-1 0-1 1h-1c-1 1-2 1-3 2 0 0-1 0-1 1 0 0-1 0-1 1 0 0-1 0-1 1 0 0-1 0-1 1 0 0-1 0-1 1 0 0-1 0-1 1l-1 1v1c-2 2-3 4-3 7v1h1s0 1 1 1h1c0 1 1 1 1 1h6c0-1 1-1 1-1 1 0 1 0 2-1h1c1 0 1-1 1-1 3-1 6-2 8-4 13-5 19-10 20-13 0-1 0-2-1-2v-1c1-2 2-4 0-4zm-72 1c-2 0-4 0 0 2h-1-1s-1 0-1 1h-1c-2 1-4 2-5 4-1 0-2 1-3 2-2 1-3 2-5 4l-1 1-1 1-1 1-1 1c-6 6-10 12-13 19 0 1 0 1-1 2-2 7-2 14 2 20 0 1 0 1 1 2h1c3 1 6 1 9 0h3c9-1 15-2 19-3 3-1 4-2 5-3 1 0 1 0 2-1v-1h1c0-1-1-1-1-1v-1-1c-1-1-2-2-4-3 0-1-1-1-2-2v-1c-2-3-4-6-7-10v-1-2-1-1-2c1-1 1-2 2-3 0 0 1-1 1-2l2-2c1-1 1-2 1-3 1 0 1-1 2-2 0 0 0-1 1-2v-1c1-1 1-1 1-2l1-1v-2-1-1-1-1c4-1-1-2-5-2zm-70 26c-1 1-1 2-1 3h-1l-9 3-1 1h-1c-2 1-4 1-6 2-1 0-2 0-3 1h-4c-1 1-2 1-3 1h-3s-1 1-2 1c-3 0-6 0-9-1h-2c-1-1-1-1-2-1-3-1-5-3-7-4-2 0-3-1-4-1-1-1-2-1-3-1-1-1-2-1-3-1l-1-1h-2-1l-1-1h-1-2v1h-1v2s0 1 1 1v1l2 2s0 1 1 1c0 1 1 1 2 2l2 2s1 1 2 1c0 1 1 1 2 2l2 2c1 0 2 1 3 1l2 2c1 1 2 1 3 2 1 0 2 1 3 1s2 1 3 1c0 1 1 1 2 1 1 1 2 1 3 1 0 0 1 0 1 1h6c5 2 11 3 16 2 2 0 3 0 5-1h1l1 1c3 0 5 1 8 1h8l1-1c1 0 3-1 4-2l1-1v-1s1-1 2-1c0-1 0-1 1-1 0-3-1-6-1-8v-2c-1-2-1-4-2-5v-1c0-1 0-1-1-1 0-1 0-1-1-2v-1h-1s0-1-1-1h-1c0-1-1-1-1-1h-3c-1-1-2-2-3-2zm-154 0h-2-1l-1 1h-2-1-1c0 1-1 1-1 1h-1c-1-1-3 0-5 3h-1c0 1 0 1-1 1 0 1-1 1-2 2 0 0-1 1-2 1 0 1-1 2-1 2-1 1-2 2-2 3-1 0-1 1-2 2 0 1-1 1-1 2-1 1-1 2-2 3 0 1-1 1-1 2-1 1-1 2-2 3 0 1 0 2-1 3 0 1-1 2-1 2 0 1-1 2-1 3-5 10-9 21-10 28v6s-1 1-1 2h2v3c2-1 3-2 5-3 5 1 9-5 13-14 0-1 1-2 1-3 1-1 2-3 2-5 1-1 1-2 1-2 0-1 1-2 1-3s1-2 1-3c0-2 1-4 2-6 0-2 1-4 1-5s1-2 1-3 1-2 1-2c1-5 3-9 5-11 1-2 2-3 4-4-1 0-1-1-2-1l1-1c0-1 1-1 1-1l3-3c0-1 0-1 1-1 0 0 0-1 1-1l1-1zm350 5c-4 0-7 0-10 1h-1-1c-1 1-2 1-2 1h-2l-1 1h-2c0 1-1 1-1 1-1 0-1 0-2 1h-1c0 1-1 1-1 1l-1 1c-1 0-1 1-1 1-1 0-1 1-1 1l-1 1c0 1-1 1-1 1v2l-1 1c5 5 12 6 18 6h1c1 0 2-1 3-1h6c1 0 3-1 4-1 3 0 5 0 8-1 8 0 13-1 17-1 5-2 7-3 7-4s1-1 1-1v-1-1s-1 0-1-1c0 0-1 0-1-1h-1v-1h-1c-1 0-1 0-1-1-1 0-2 0-3-1h-2c-1-1-2-1-3-1s-2-1-4-1c-1 0-2 0-3-1h-3c-4-1-8-1-12-1zm-102 0c-3 0-5 2-5 5-1 1-1 2-1 4s2 5 5 8c3 4 8 8 13 10 1 0 2 1 3 1 1 1 2 2 4 3 0 0 1 0 1 1h2s0 1 1 1h6c1 0 1 0 1-1h1v-1l1-1v-1c0-1 0-1-1-1v-1-2s-1 0-1-1c0 0 0-1-1-1v-2c-1 0-1-1-1-1 0-1-1-1-1-2 0 0-1 0-1-1l-1-1s0-1-1-1c0-1 0-1-1-1 0-1 0-1-1-1 0-1 0-1-1-1v-1c-4-4-9-6-13-7-3-3-6-4-8-4zm48 0c-2 0-5 2-7 8v7l1 1v2c1 1 1 2 1 3 1 0 1 1 2 2 0 1 0 2 1 3 0 1 1 1 1 2 4 10 11 21 21 25 7 6 16 10 24 7l1-1c3 0 4 0 4-1v-2h-1c1-1 1-2 0-2-1-3-2-5-5-7v-1c-1 0-1-1-2-1 0-1-1-1-2-2l-1-1c-1-1-2-1-3-2 0 0-1-1-2-1-1-1-3-2-4-4-2-1-4-2-5-3-2-1-4-2-5-3s-2-1-2-2h-1l-4-4v-1c-2-2-3-4-5-6l-3-6v-1c0-1-1-1-1-1v-1-1h-1c1-3 0-5-2-6zm-56 3s-1 1-1 2c3 5 3-2 1-2zm208 6v4c-1 0-1 0-1 1-4-3-7 0 2 8 0 0 1 1 1 2 1 1 1 1 1 2 1 1 1 2 2 3 0 1 1 1 1 2 1 1 1 2 2 3 0 1 1 2 2 2l3 6c8 11 18 23 22 36 0 3 0 7 2 13v5c0-1 1-1 1-2v4c0-1 1-2 1-3v1c1-1 1-1 1-2 0 1 0 1 1 2v-1 0c2-1 2-4 1-7v-5-1c1-2 1-3 1-5v-1c-1-9-4-18-9-27 0-1-1-2-2-3v-1c-2-4-5-8-7-12 0-2-2-5-5-5-1-2-3-3-4-5l-2-2v-1h-1v-1c-1 0-1-1-2-1 0-1-1-1-2-2l-2-2c-1-1-2-1-2-2-1-1-2-1-2-2-1 0-2-1-3-1zm-430 15h-1c-3 0-6 1-9 2s-4 2-5 5c0 0-1 1-1 2v2l1 1c1 3 4 5 11 6 5 2 12 3 20 1h1c6 1 13 0 19-1h4s1 0 2-1h3c1 0 2 0 3-1h2c2-1 3-2 4-2 1-1 2-2 3-2 1-1 2-1 2-2 1 0 2-1 2-1 1-1 1-1 2-1v-1c1 0 1 0 1-1l1-1v-1c1-2 0-6-3-1-1 0-2-1-3-1h-6c-1 0-2 1-2 1h-4c-7 0-16 1-24 2h-5c-6-3-11-5-15-5h-1-1-1zm-91 5c-5 0-11 1-17 3-5 1-9 2-14 5-2 1-4 2-7 3l-1 1c-1 0-2 1-4 2-1 0-2 1-3 2-2 0-3 1-4 2s-2 1-2 2h-1c-1 1-2 1-2 2h-1l-3 3c-1 0-1 1-2 1 0 1-1 1-1 2-2 2-4 3-5 5-1 1-2 2-2 3-1 2-2 3-3 5v1c0 1-1 1-1 2v3c-1 1-1 1-1 2h1c2 0 3-1 4-2h1v1c0-1 1-1 1-2h1c2-1 3-2 5-3 0 0 1 0 1-1 10-5 19-12 28-18 10-6 19-11 30-15h1c1 0 2-1 2-1h3c1 0 2-1 3-1v-1h9c-1-1-3-1-4-2 1-2 1-4-1-3h-3c-2-1-5-1-8-1zm436 1c-1 0-2 2-3 6 0 0 0 1 1 1-1 1-1 5-1 10 1 2 1 5 2 8 1 1 1 2 1 2 3 10 7 22 14 31 4 6 8 10 13 12 4 2 7 4 10 5v-1c1 0 1 0 2-1 1 1 2 1 3 0h1c2 1 2 0 1-1v-1-1-1c-1 0-1-1-1-1 0-1 0-1-1-2 0 0 0-1-1-2 0 0 0-1-1-2 0 0-1-1-1-2-3-5-7-10-12-16-3-4-6-7-9-11-1-2-3-5-5-7-2-5-4-9-6-12 0-1-1-3-2-4v-1h-1v-1h-1v-1c0-3-1-7-3-7zm-425 1h-1 1zm473 13h-9-1l-1 1h-2l-1 1h-1c0-1 0-1-2 2 1 2 1 3 1 3 0 2 1 3 2 5h4c4 2 9 4 14 6h1c1 0 2 0 3 1 1 0 2 0 3 1h3c1 1 3 1 4 1h3c1 0 2 1 3 1h7c1 0 2 0 3-1h4c0-1 1-1 1-1h3c1-1 1-1 2-1s1-1 2-1 1 0 1-1h1v-1h1v-1-1h-1c0-1 0-1-1-1v-1c-2-3-13-7-22-9h-3c-1-1-2-1-3-1-2-1-3-1-4-1s-2 0-3-1h-12zm-393 15c-1 0-1 1-2 1l-1 1h-1c0-2-3-3-5 1-1 0-1 1-2 1h-1c-8 2-17 6-27 10-2 0-4 1-6 1-2 1-5 1-7 2s-4 1-7 2c-2 1-4 1-6 2-2 0-3 1-4 1-1 1-2 1-3 1-1 1-2 1-3 1-1 1-2 1-3 2-2 0-3 1-4 1-1 1-3 2-5 2 2-3 3-7-4 1-1 1-3 1-4 1 0 0 0 1 1 1h-1c0 1 1 1 2 1-1 1-2 1-3 2h3c1 0 2 0 3 1h6c9 2 22 1 35-2l12-3h1c0-1 1-1 2-1 2-1 3-1 4-2 1 0 2-1 3-1 1-1 2-1 3-2 1 0 2-1 3-1 1-1 2-1 3-2s2-1 3-2l1-1c1 0 1-1 2-1 0 0 0-1 1-1l1-1c0-1 1-1 1-1l1-1c1-1 1-1 1-2 1 0 1 0 1-1 3-3 6-6 8-9h-2v-2zm164 2c-5 0-10 1-15 2l-12 3c-9 3-16 7-20 13-1 2-3 3-4 4v1c-6 4-10 9-11 14-10 13-13 30-11 46v2c0 2 0 4 1 7 0 1 0 3 1 4v2c1 1 1 2 1 2 1 2 1 3 2 4 0 1 0 2 1 2 0 1 0 2 1 2 1 2 2 4 4 6l3 3c0 1 1 1 1 2 1 0 1 1 2 1l2 2c1 0 1 0 2 1 0 0 1 1 2 1 1 1 1 1 2 1 1 1 1 1 2 1 1 1 2 1 3 1 4 2 7 3 11 4 7 2 14 2 21 2 13 1 24-2 35-9 11-5 20-12 24-23 1-1 1-1 1-2 1 0 1-1 1-1 1-1 1-1 1-2s1-1 1-2v-2c1 0 1-1 1-1v-2c1-1 1-1 1-2v-2-2-2-2-2c-1 0-1-1-1-2 0-4-2-9-4-14-3-5-7-9-11-11-3-3-6-5-9-6s-5-2-8-2c-14-4-24 1-28 10-1 1-2 3-2 4-5 7-6 17 4 27 2 4 5 8 8 11-4 2-8 3-11 3h-2c-1 0-1 0-2-1h-2c-1 0-1 0-2-1h-2c0-1-1-1-1-1h-1c-1-1-2-2-4-3-9-8-14-24-14-39 2-13 7-25 17-33 5-3 11-5 18-6 7-2 12-4 15-5 4-1 6-2 6-3h1l1-1s-1 0-1-1h-1v-1c-1-1-2-2-3-1h-6c-3-1-5-1-9-1zm-277 2c-1 0-1 1-1 4 5 4 2-4 1-4zm0 5h-1c-1 0-3 1-4 5-1 1-2 3-2 5l-2 2c0 1-1 2-1 3-1 2-2 5-2 7-1 1-1 2-1 3-1 1-1 3-1 4-1 2-1 4-2 7v3c-1 4-1 7-1 11v4c0 1 1 2 1 3 0 2 1 3 1 4h1c4 2 8 2 10 0l1-1h1v-1c0-1 1-1 1-1v-2l1-1v-1c0-2 1-3 1-5v-2-3-4c0-1 0-2-1-3v-3-9c1-1 1-1 1-2v-2c2-11 2-16 1-19 0-1 0-1-1-2h-1zm173 2c-1 1-2 1-2 1-14 4-27 10-40 17-85 46-142 142-143 239v10s1 0 1 1v1c0 1 0 1 1 1v1h3s1 0 1-1h1c0-1 1-1 2-2l2-2s1-1 1-2h1c2-3 6-7 9-12 9-9 16-20 26-28h3v-1h1c15-10 31-17 47-20 1 0 1-1 2-1h2c1 0 2-1 3-1h1c1 0 3 0 4-1h4c2 0 3 0 4-1h8c21-1 43 1 66 3 11 3 25 4 35 4h6c16 1 31 1 46-1 12-2 24-4 35-8 4-1 8-3 13-6 1 0 1 0 2-1 3-1 6-3 10-5v-1c1 0 1 0 2-1 20-13 35-33 44-56 0-1 1-2 1-3 1-1 1-2 1-2v-1-1c1 0 1-1 1-1v-1-1l1-1v-1-2c1-1 1-1 1-2v-1c0-1 0-1 1-2v-3c0-1 0-2 1-3v-4-1-2c0-1 1-2 1-3v-3-4-3-3c0-1 0-1-1-1v-2-4-3c-1-1-1-2-1-3s0-2-1-3v-3c0-1-1-1-1-1v-3c-1-1-1-2-1-3-1-2-2-4-2-5v-1h-1c0-2-1-4-2-6-1-1-1-2-2-3 0-1-1-2-1-3-1-1-1-2-2-3 0 0-1 0-1-1 0 0 0-1-1-1 0-1-1-2-2-3v-1c-1 0-1-1-2-2s-1-2-2-2c-1-1-2-2-2-3-1 0-1-1-2-1v-1c-2-1-4-2-6-4h-1c-2-2-4-3-6-5-1-1-2-1-3-2h-2c0-1-1-1-1-1h-1v3s0 1 1 1c0 1 0 1 1 2 0 1 0 2 1 2 0 1 1 2 1 3 1 2 3 4 4 6s3 5 4 7c1 1 1 3 2 4s1 2 2 4c1 1 2 2 2 4 1 1 2 2 2 4 1 1 1 2 2 4 1 1 1 2 2 4v2c1 0 1 1 1 2v1c1 2 2 5 2 8v2c0 1 1 2 1 2v2c-1 1-1 1-1 2v3c0 1 0 1-1 2v1c-1 1-1 1-1 2v3c-1 1-1 2-1 3s0 2-1 3v3c-1 1-1 2-1 3-1 1-1 2-1 3-1 1-1 2-1 3-1 1-1 2-1 2-1 1-1 2-2 3 0 1-1 2-1 3l-2 2c0 1-1 2-1 3l-2 2c0 1-1 2-2 2 0 1-1 2-1 3-1 0-2 1-2 2 0 0-1 0-1 1-8 8-18 15-28 20-6 3-12 5-19 7-14 4-30 5-45 3-4-1-9-2-13-3-12-4-23-9-34-14-1 0-2-1-2-1-2-1-3-2-4-2l-1-1c-6-4-12-10-17-16l-1-1s0-1-1-2c0-1-1-1-1-2l-2-2c0-1 0-2-1-2 0-1-1-2-1-2 0-1-1-2-1-3 0 0-1-1-1-2s-1-2-1-2c0-1-1-2-1-3s-1-3-1-4c-1-1-1-2-1-3s-1-1-1-2v-3c0-1-1-1-1-2v-3c0-1-1-1-1-2v-3-2c0-1-1-2-1-3v-2-1c0-10 1-21 3-31 3-10 6-18 5-24 2-1 3-3 1-3 1-2 2-3 2-5 1-2 2-3 2-5zm157 3c0-1 0 0 1 2 8 7 1-2-1-2zm196 8s0 1-1 1-1 1-1 1h-1v1s0 1-1 1c-1 2-3 4-3 8v2c-1 7 0 15 2 23v1c0 1 1 1 1 2v2c2 6 3 11 6 16v2h1v2c1 0 1 1 1 1 1 3 2 5 4 7 0 1 1 2 2 4 1 1 2 3 3 4 0 1 1 2 2 3l1 1 1 1c3 4 7 6 10 8l2 1v-2-1c6 4 3-5 0-7-1-4-3-8-5-13-2-3-3-7-5-11v-2c-4-10-8-21-12-31-2-5-3-10-4-14 0-1-1-3-1-4v-1-2s0-1-1-1c0-1-1-2-1-3zm84 2c-1 0-1 1-1 2-1-1-1-1-2-1 0 1 1 3 1 4v1c-2 0-3 2 3 9 0 1 1 2 1 3s1 2 1 3c1 0 1 1 1 1 0 1 1 2 1 3 1 1 1 2 2 3s1 2 2 3c1 3 2 5 4 7 1 3 3 5 4 8 1 1 1 2 2 4 1 1 1 2 2 4l1 1 3 6c0 1 1 2 1 4 3 5 5 11 6 16 0 4 0 9 1 12-1 1-1 2-1 2h1v1c0 1-1 2-1 3 0 2-1 4-2 7h1c-1 0-1 1-1 2l1-1h1l-1 1c1 0 2-1 3-2h1c3 1 3 0 3-1 1-1 1-2 2-4 0-1 1-1 1-2l1-1v-1c0-1 1-1 1-2v-1c1-1 1-1 1-2v-1-2c1-1 1-1 1-2v-2-2-1-2-2c0-16-8-35-18-50-2-2-3-4-5-6 0-1-1-2-1-2-1-1-2-3-3-4l-3-3c0-1-1-2-2-3-1 0-1-1-2-1 0-1 0-1-1-2 0 0-1 0-1-1-1 0-1-1-2-1l-1-1-1-1c-1 0-1-1-1-1h-1c-1-1-2-1-2-2h-1zm-192 6h-2c-8-2-5 11 0 25 0 1 0 2 1 3v3c1 2 2 4 2 6 1 2 2 4 2 6 1 2 2 4 2 6 1 2 1 4 2 5 0 1 1 2 1 3v3c1 2 1 3 1 4v5c0 10-1 20-2 29v1c-1 1-1 3-1 4s-1 2-1 3-1 2-1 3v2c-7 22-19 42-32 62-8 12-16 24-24 35-2 2-3 3-4 5-9 11-17 23-24 36-6 10-11 20-14 31-1 3-2 5-3 8-5 11-6 23-5 36v7c0 15 4 30 10 44l3 6c0 1 1 2 1 2 0 1 1 2 1 2v1c7 12 16 23 26 32 0 1 1 1 1 1l1 1s1 0 1 1c1 0 2 1 3 2l1 1 1 1c1 1 2 1 3 2 1 0 2 1 3 2h1c0 1 1 1 2 1 1 1 2 2 3 2 1 1 2 1 3 2 1 0 2 1 3 1 1 1 2 1 3 2h1c2 1 4 1 6 2s4 1 7 2c1 0 2 0 3 1h4l1 1h7c2 1 6 1 11 1 7 0 13-1 20-3 2-1 4-1 6-2l1-1c1 0 2 0 3-1 8-3 15-6 13-8v-1c1-2 0-4-3-1h-39c-6-1-11-1-16-2l-15-6c0-1-1-1-1-2-3-1-6-3-8-5 0 0 0-1-1-1 0-1-1-1-2-2s-2-1-2-2c-1-1-2-1-2-2h-1c0-1-1-1-2-2 0-1-1-2-2-2 0-1-1-2-1-2-1 0-1-1-1-1l-2-2c0-1-1-2-1-2-1-1-1-2-2-3 0 0 0-1-1-1v-1c-10-17-13-36-10-56 1-7 2-15 5-22 1-5 3-10 6-14 0-1 1-2 1-2 1-2 1-3 2-4 4-7 9-14 14-21 21-22 49-36 81-34 11 1 23 5 33 10h2c3 2 5 3 8 5 4 3 8 7 12 10 4 5 8 9 12 13 3 3 6 5 8 6 1 1 2 2 2 3l2 2c0 1 1 1 1 2l1 1c0 1 0 1 1 1 0 1 0 2 1 3v1c1 0 1 1 1 1v-1c1 0 1 0 1 1v-2 1c1-5 2-9 3-13h1c1-9 2-18 2-26 1-8 1-16 0-24v-1c-1-34-9-67-22-97v-1c-1-1-1-2-2-3v-1c-1-1-1-2-1-2v-1c-1-1-1-1-1-2-1-1-2-3-3-4 0-2-1-3-2-5-1-1-2-3-2-4-1-2-2-3-3-5-1-1-1-3-2-4l-3-6c-1-1-2-2-3-4-1-1-2-2-2-3-1 0-1 0-1-1-1-1-2-2-3-4-1-1-1-2-2-4h-1c0-1-1-2-2-3 0-1 0-1-1-1 0-1-1-2-2-3 0-1 0-1-1-1 0-1-1-2-2-3l-1-1c-1-1-1-2-2-3l-1-1c-1-1-1-2-2-2 0-1-1-1-1-2l-2-2-2-2-1-1c-1-1-2-2-2-3-1 0-1 0-1-1-1-1-2-2-3-2 0-1 0-1-1-1 0-1-1-2-2-3h-1c-1-1-2-2-3-4-1-1-2-2-4-3-8-8-17-15-27-22-2-1-3-2-5-4-8-7-14-10-17-10zm-455 2c-1 0-1 1 1 3 9 4 1-3-1-3zm-5 2h-3c-1 0-1 1-1 1h-2-1s-1 0-1 1h-2s-1 0-1 1h-1c-1 1-1 1-2 1 0 0-1 1-2 1 0 0-1 1-2 1v1h-1c-1 1-1 1-2 1v1c-1 0-1 0-1 1h-1c-1 1-1 1-2 1l-3 3-3 3-3 3-3 3-3 3c-1 1-2 3-3 4l-3 3c-1 1-2 3-3 4s-2 2-2 4l-3 3c-1 1-1 3-2 4 0 1-1 1-1 2 0 0-1 1-1 2 0 0 0 1-1 1 0 1 0 2-1 2v2c0 1-1 1-1 2v2c-1 0-1 1-1 1v2c0 1-1 1-1 2v6c1 0 1-1 2-1v4c2-2 3-4 4-6 3 2 4 0 4-3l2-2c1-1 2-1 2-2h1c0-1 1-1 1-2 1-1 2-1 3-2 0-1 1-1 2-2 0-1 1-2 1-2 1-1 2-2 2-3 1 0 2-1 2-2 2-1 3-3 4-4s1-2 2-3l6-6 15-15c5-4 10-8 14-11 1-1 1-1 2-1v-1c1 0 1-1 2-1v-1-1s-1 0-1-1h1c1-1 2-1 2-2h-2c-3-1-5-2-8-2zm3 1h-1 1zm598 18c-1 0-1 0-1 1h-1-1c-1 0-1 1-1 1-1 2 2 4 7 7 2 2 5 3 8 5 0 0 1 0 1 1l6 3c2 1 4 2 7 3 2 2 4 3 6 4 3 1 5 2 7 3l6 3c2 1 4 2 5 2 2 1 3 2 4 2l1 1h9c1-1 2-1 2-1 1-1 1-3 0-4l-1-1c-1-1-1-1-1-2-1 0-1 0-2-1l-1-1c-1-1-2-1-2-2-1 0-2-1-2-1-1-1-2-1-2-2-1 0-2-1-3-1l-2-2c-2-1-4-2-5-3-2-1-3-2-4-2-1-1-2-1-2-2-8-4-14-8-16-8h-1c-2-1-3-1-4-2h-9c-3-1-5-1-6-1h-1c-1 0-1-1-1 0zm-518 1c-1 0-1 0-1 2-1-1-4 0-6 4-5 2-11 6-17 10-3 1-5 2-8 4 0 0-1 1-2 1-1 1-2 1-3 2-1 0-2 1-3 1-1 1-2 2-3 2-1 1-2 1-3 2s-2 1-3 2l-2 2c-1 1-2 1-3 2s-2 1-3 2c0 1-1 1-2 2l-2 2c-2 1-3 2-5 2 0-1-1-1-2 1-1 1-2 1-3 1l1 1h-1 1c1 1 1 1 2 1v3c-1 0-1 0-1 1l-1 1c6-1 11-2 17-4 10 0 20-5 29-11 12-6 22-15 27-28 0-1 1-2 1-3v-1h-2-1v-1c4 3 1-3-1-3zm-94 20s-1 1-1 4c-2 2-3 8-4 15v17c-1 5 0 11 1 17 1 5 2 9 4 12 1 1 2 1 2 0h5v-1c3 0 4-2 5-4v-1s1 0 1-1v-1c0-1 0-1 1-2v-2-1-2-2-2-1c-1-2-1-3-1-4 0-2 0-3-1-4v-4c0-1-1-2-1-3v-2c-1-18-4-24-7-24-1-2-1-3-2-3-1-1-1-1-2-1zm644 23c-3 0-6 0-8 1-2 0-4 2-6 5-1 1-1 3-2 5 0 1-1 1-1 2v1c0 1-1 2-1 3v2c-1 1-1 2-1 3v13c0 13 2 26 6 35 2 5 4 9 7 11l1 1 1 1c0-1 1-1 1-2h1c1 2 2 1 2-1 0-1 1-3 0-4v-7c0-9-2-22-3-34 0-9 1-18 0-25v-1c1-1 2-3 4-4-1-1-2-1-3-2v-1c1 0 1-1 1-1s1 0 1-1h-1 1zm-592 17c-1 3-2 6-4 9-6 3-16 12-27 22-1 1-2 2-4 3 0 0-1 0-1 1-5 3-10 7-14 11-1 0-1 0-1 1-1 0-2 1-2 2h-1c-1-1-2-1-2 2l-1 1-3 3-1 1h1c1 1 2 1 3 1-1 1-1 2-1 2h2v1c2 0 5-1 7-1 15 0 29-12 39-26 1-1 1-2 2-3 0-1 1-1 1-2 1-1 1-2 2-3 0-1 1-1 1-2s1-2 1-3c1 0 1-1 1-2 1-1 1-2 1-3 1 0 1-1 1-2 1-1 1-2 1-3v-1-1s0-1-1 0v-1-7zm-80 3c-2 0-4 0-6 1-8 2-19 10-28 20v1c-8 8-14 18-16 27-3 10-3 20 2 28 1-2 2-5 4-8 3 4 2 0 1-2 1-3 3-6 5-8 2-3 4-6 7-10 7-8 15-16 22-24 2-3 5-5 7-7 0 0 1 0 1-1 0 0 1 0 1-1 1 0 2-1 3-2h1c1-1 2-2 3-2v-1-1-2-1c0-1 0-2-1-3 1-1 0-2-1-2-1-1-3-2-5-2zm754 12v1c-1 2-1 4-1 6-3-4-7-5-1 6-1 2-1 4-1 6-1 6-2 12-4 18 0 2 0 4-1 7 0 2-1 4-1 6-1 2-1 4-2 7v3c-1 4-2 7-3 11-1 1-2 3-3 5s-3 3-5 5h2c0 1-1 2-1 3h2s0 1-1 1h1c2 0 4 0 6-1 3 0 5-1 7-3h2c0-1 1-1 1-1l1-1 1-1c1 0 1-1 2-1 0-1 0-1 1-1 0-1 0-1 1-1 0-1 1-2 1-3 1 0 1-1 1-1l1-1c0-1 0-1 1-2v-1c1-1 1-1 1-2l1-1v-1c0-1 0-1 1-2 4-13 3-29-1-43v-1c-1-1-1-2-1-3-1-1-1-2-1-3-1-1-1-2-2-3 0-1 0-2-1-3 0 0-1-1-1-2-1-1-1-2-2-2 0 0 0-1-1-1zm-60 5c-2 0-4 1-5 2-1-1-3-1-3 0-1 0-1 0 0 3 1 2 2 3 2 3 1 6 7 15 18 18 1 1 1 1 2 1 0 1 1 1 2 2 1 0 1 1 2 1 1 1 2 1 2 2h1c4 2 8 4 12 5 0 0 1 1 2 1 5 2 8 2 9 0h1v-1-1-1s-1 0-1-1c-1-2-4-6-8-9-3-6-9-12-18-16-8-7-14-9-18-9zm-702 29c-1 0-2 2-2 6 0 1 0 1 1 1-1 0-1 1-1 1v5c0 1 0 1 1 2v2c0 1 0 2 1 2v1c2 7 6 13 12 16 1 2 2 4 4 5 0 0 1 0 1 1h1s0 1 1 1h2c2-1 2-3 2-6 0-2 0-4-1-7-2-8-5-14-8-18 0-1 0-1-1-2 0-1-1-2-1-2 0-1-1-1-1-1v-1l-1-1c0-1-1-1-1-1v-1h-1c0-1-1-1-1-1l-1-1h-1-1c-1-1-2-1-2 0-1-1-1-1-2-1zm707 10c-3-1-6 2-8 7l-2 2c-7 8-10 20-11 32-3 12-5 24-3 29 0 1 0 2-1 3 0 1 0 2-1 2v3s-1 1-1 2v4c1 0 1 1 1 1v1h1v1s1 0 1 1h2c2 2 7 1 11 0 1 0 1-1 2-1h1c1 0 1-1 2-1s2-1 2-1c1 0 1 0 2-1 0 0 1 0 1-1 1 0 1 0 2-1 0 0 1 0 1-1h2c2 1 2 0 1-2 1 0 1 0 1-1 0 0 1 0 1-1h-1l-1-1c-1 0-1-1-1-1 1 0-5-8-3-3 0-1-1-3-2-4-2-10-6-22-6-34 0-3 1-6 2-10l1-1c0-1 1-2 1-3 1 0 1-1 2-2 0 0 1-1 1-2v-1-5c0-1 0-1 1-1 1-2 2-4 2-5l1-1v-2l-1 1c-1-2-2-2-3-2zm-658 9c-1 0-1 0-2 2 0 0 0 1-1 1s-1 1-1 1c-1 1-1 1-2 1-4 4-8 11-11 18v3c-1 1-1 2-1 3v1l-1 1v7s0 1 1 1v2c0 1 0 1 1 2v1l1 1 1 1c1 0 1 1 1 1h2c1 0 1 0 1-1h1c3-2 4-5 5-9 1-2 2-4 2-7 1-2 2-3 2-5v-1h1c1-3 2-6 2-9l1-1v-2c0-1 0-1 1-2v-1-1-1-1-1-1-1c-1-2-2-2-3-2 0-1-1-1-1-1zm-65 19c-1 0-1 1-1 1-1 0-2 1-4 3-1 0-3 1-5 2-3 2-7 5-12 9l-1 1-3 3c-1 0-2 1-3 2s-2 2-2 3l-2 2-1 1c0 1-1 1-1 2-1 0-1 1-1 1-1 1-1 1-1 2-1 0-1 1-1 2-1 0-1 1-1 1-1 1-1 1-1 2-1 0-1 1-1 1 0 1-1 1-1 2v2c-2 3-3 7-2 10-1 2-1 4 0 6v2c-3 12 16 9 25 6h2c1 0 2 0 3-1h4l1-1h2c1 0 1 0 1-1h2v-1c8-3 3-6-3-10l-3-3c0-1-1-1-1-2-1 0-1-1-2-1 0-1 0-1-1-2l-1-1c0-1-1-1-1-2 0 0 0-1-1-1 0-4 2-9 7-14 0 0 0-1 1-2 2-2 3-4 4-5 4-6 6-10 6-13v-1c1-1 0-5-1-5zm794 6v10c-2-2-3-3-1 1-3 4-8 12-13 17h-1c-4 2-9 2-14 1-3-2-5-3-8-6l-1-1s-1-1-1-2c-13-9-19-11-21-9v1c-2-1-2 0-1 3 1 0 1 0 1 1 3 6 11 16 20 23 4 4 10 7 14 8 4 2 8 3 12 3h1c1 0 1 0 1 1h2c0 1 1 1 1 1 5 2 10 3 13 2 2-1 3-1 4-2 4-2 6-8 6-14v-7c-1-5-2-9-4-14-2-6-3-9-5-10h-1c0-1-1-2-1-3-1 0-1-1-2-2 0 0-1-1-1-2zm-35 4zm-748 5c-1 0-1 1 2 5h1c-1 1-1 2-1 3-1 0-1 0-1 2v17c0 2 1 3 1 4v3c1 1 1 1 1 2v1c1 1 1 2 1 2 0 1 0 1 1 2v1c1 1 1 2 2 3 0 1 0 1 1 2 0 0 0 1 1 1v1s1 0 1 1l2 2c3 5 8 8 13 9h1v1c1 0 1 0 1 1h2l1 1c4 2 7-1 9-5 1-2 2-5 2-8h1c0-1 0-2 1-3 0-1 1-2 1-3 1-1 1-2 1-3 1 0 1-1 1-2 1 0 1-1 1-1v-1-1c3-6 2-8-1-9 0-2-2-3-4-1h-2-1c-1 0-2 1-3 1h-7-1c-3-1-5-1-8-3-1-1-2-2-2-4-2-3-3-6-4-8v-1l-1-1c0-1 0-2-1-2v-1c-1-1-1-1-1-2 0 0-1 0-1-1l-1-1s-1 0-1-1h-1-1c-1-2-4-3-6-3zm712 28l1 1-1-1zm-496 7h-7c-1 0-3 1-4 1h-6c-2 1-3 1-4 1s-2 0-3 1h-3c-2 1-3 1-4 1-1 1-2 1-3 1-1 1-2 1-3 1-1 1-2 1-4 1 0 1-1 1-1 1h-1c-22 9-42 24-54 45-2 5-5 10-7 15v3c0 1 0 1-1 2v2c0 1-1 2-1 3v4c-1 3-1 7-1 11v6s0-1 1-1l2-2c0 1 1 0 1-2 0 0 0-1 1-1 1-1 2-3 3-4 0-1 1-1 1-2l2-2 3-6c2-2 3-4 4-6s3-4 4-6c1-1 2-2 2-3 1-2 2-3 2-4 2-2 3-4 5-6 1-1 2-2 2-3 5-5 10-9 15-12 1-1 2-1 4-2 1 0 2-1 3-1h3c5-2 10-3 14-4 1 0 2 0 2 1 1-1 2-1 3-1h20c1 0 1 0 2 1h3c12 3 24 8 34 15 7 5 14 11 19 17l1 1c0 1 1 1 2 2 5 7 10 15 14 23 4 9 6 18 10 26 0 3 1 6 1 9-3 11-2 19 1 25-1 9-3 17-6 26-6 13-15 24-26 34-5 4-10 7-15 11-1 0-2 0-2 1-2 1-3 1-5 2-1 1-2 1-3 2-12 3-23 5-32 9h-10v2h-1c0 1 1 2 2 3v1c0 1-1 1-1 2l7 7h1c0 1 0 1 1 2l1 1 2 2 3 3c1 0 1 0 2 1 0 0 1 1 2 1 0 1 1 1 1 2 2 1 3 1 4 2s1 1 2 1c2 2 5 4 7 5 6 4 13 7 20 10 1 1 2 1 3 2h2c1 1 2 1 2 1 1 1 2 1 4 2h1c1 1 3 1 4 2 1 0 2 0 3 1h1c0 1 1 1 1 1h2c21 8 43 14 59 15 2 0 4 1 6 1h10c3 0 7 1 10 1h18l1-1h16c1 0 1 0 1-1h1c5 0 9 0 13-1h3l18-3c0-1 1-1 1-1 2 0 3 0 5-1 5-1 10-2 15-4 2 0 3-1 5-1 2-1 3-1 5-2 3-1 6-2 10-3 4-2 7-3 11-5 1 0 1-1 1-1h1s1 0 1-1c7-2 12-4 16-6 2-1 4-3 6-4 3-2 5-3 6-5 0-2 0-3-2-4 1-1 1-2-1-1h-1c0-1 0-1-1-1l-1-1c-1 0-2-1-2-1-1 0-2-1-3-1s-1 0-2-1h-3c-1-1-2-1-3-1s-2-1-4-1c-9-2-19-4-28-6-1-1-1-1-2-1-3-1-7-3-10-4-1 0-1 0-1-1-18-8-32-20-44-33-19-24-32-52-45-80-1-1-1-2-1-2-6-14-12-27-19-40-7-14-16-28-27-41-5-6-12-13-19-18l-3-3c-4-4-9-8-17-11-6-4-12-7-19-9-1 0-2-1-2-1-1 0-2 0-3-1h-1c-1 0-2 0-3-1h-3c-1-1-2-1-3-1s-3-1-4-1h-3c-1 0-2 0-3-1h-10zm553 27h-3-3c0 1-1 1-1 1h-2c0 1-1 1-1 1-1 0-1 1-2 1 0 0-1 1-2 1 0 0-1 0-1 1-1 0-1 1-2 1 0 0-1 1-2 1 0 1-1 1-1 2-1 0-2 1-2 1l-2 2c7 0 12 2 15 4 2 6 2 14 1 22-4 12-13 24-18 32h1-1v1h1c4 2 9 1 13-1 7-2 13-7 18-14 3-4 6-8 7-13 1 0 1-1 1-1s0-1 1-1v-2c1 0 1-1 1-1 0-1 0-1 1-2v-1c0-1 0-1 1-2v-1-2l1-1v-2-1-2-1-2-4c1-9-1-15-9-16-2 0-3-1-6-1h-3-1zm-74 0c-2 0-4 1-6 2-1 0-1 0-2 1h-1c0 1-1 1-1 1 0 1-1 1-1 1 0 1 0 1-1 2v1c-1 1-1 1-1 2 0 0-1 1-1 2v3c-1 1-1 1-1 2-1 5-1 9-1 12-1 5 0 8 2 9 1 3 3 3 6 2 3 2 4 1 3-2 2 0 3-1 4-2 6-1 12-2 17-2h1c1 0 1 1 2 1 2 1 4 2 5 3 2 2 3 4 4 7 2 2 4 3 5 4v1l1 1v2h1c1 0 2 0 3-1 3 1 5 0 5-3 0-1-1-2-1-3v-2-1-1-2c-1 0-1-1-1-1v-2c-1 0-1-1-1-1 0-1-1-1-1-2s-1-1-1-2l-1-1c0-1-1-1-1-2s-1-1-1-2c-1 0-1-1-1-1-1-1-1-2-2-2v-1c-3-3-5-6-8-8-5-6-11-11-17-13-3-2-5-2-7-2zm-810 12c-2 0-4 1-5 1-2 1-3 2-4 3h-6v11s0 1-1 2v3c-2 7-3 15-2 23v3c1 1 1 3 1 4s0 2 1 3v3c1 1 1 2 1 3 2 8 3 16 5 23 4 23 10 44 17 65 0 1 0 2 1 2v2c5 15 11 29 17 44 31 69 79 130 137 179h1v1c1 0 2 1 3 2 1 0 1 1 1 1h1l3 3s1 0 1 1h1l3 3c1 0 2 1 3 2l1 1c2 1 3 2 5 3 0 1 1 1 2 2 0 0 1 0 1 1 2 1 4 2 5 4 1 0 1 0 2 1h1c2 2 4 3 6 5h1c0 1 1 1 1 1 2 1 4 3 7 4 0 1 0 1 1 1 2 2 4 3 7 4v1h1c2 2 4 3 6 4 1 1 2 1 4 2 1 1 2 1 3 2 2 1 4 3 7 4 41 23 85 40 131 51 11 2 22 4 34 6 4 0 8 1 13 2h2c1 1 2 1 3 1s2 1 3 1 2 0 2 1h3c8 4 15 4 21 2 1 0 1-1 1-1h3c0-1 1-2 2-3 7-3 10-8 10-13v-1-2-1-1-1-1c-1 0-1-1-1-1v-1l-1-1c0-1 0-1-1-1v-1l-1-1-1-1-1-1h-1c-3-4-7-7-14-7-8-4-17-5-26-2-3 0-5 0-8 1-3-1-5-1-8-1l-12-3c-3 0-5-1-7-1h-2c-2-1-4-1-6-2h-3c-1-1-3-1-4-1-2-1-3-1-5-2h-2c-2-1-4-1-6-2h-2c-2-1-4-2-6-2-1 0-1 0-1-1-2 0-5-1-7-2-3-1-5-1-8-2-2-1-4-2-7-3-2-1-5-2-7-3-3-1-5-1-7-2-3-1-5-2-8-3-2-1-4-2-7-3-2-2-4-3-7-4-2-1-5-2-7-3s-5-2-7-3c-2-2-4-3-7-4-2-1-4-2-7-4l-6-3c-3-2-5-3-7-4-2-2-5-3-7-4-2-2-4-3-6-5-3-1-5-2-7-4-2-1-4-3-6-4-2-2-5-3-7-5-2-1-4-3-6-4-2-2-4-3-6-5-2-1-4-3-6-4-2-2-5-4-7-5-1-2-3-3-5-5h-1c-1-2-3-3-5-5l-1-1c-1-1-3-2-4-4-1 0-1-1-2-1l-4-4s-1-1-2-1c-1-1-2-3-3-4-1 0-2-1-2-2-2-1-3-2-4-3s-1-2-2-2l-3-3-3-3c-1-1-1-2-2-2-1-2-2-3-3-4s-2-1-2-2c-1-1-3-2-4-4l-1-1c-2-2-3-3-4-5-1 0-1-1-1-1-1-1-2-3-4-4-6-7-11-14-17-22l-9-12c-21-29-38-60-51-94 0-1-1-2-1-3-11-26-19-54-24-82-1-18-1-37-7-53v-16c-5-4-10-6-13-8h-2l-1-1h-1-1c-1-1-2-1-3-1zm962 3h-2-1-1v1h-1l-1 1s-1 0-1 1l-1 1v1c-4 2-7 7-6 16 0 1 0 2-1 2-1 43-10 85-25 125-1 3-2 5-2 7-1 3-3 6-4 8-1 3-2 5-3 8s-2 5-3 8c-2 3-3 5-4 8-1 2-3 5-4 8-1 2-2 5-4 7-1 3-3 5-4 8-1 2-3 5-4 7-2 3-3 5-4 8-2 2-3 5-5 7-1 3-3 5-5 7-1 3-3 5-4 8-2 2-4 4-5 7-2 2-4 4-5 7-2 2-4 4-5 7l-6 6c-1 3-3 5-5 7s-4 5-6 7c-1 2-3 4-5 6-2 3-4 5-6 7l-6 6-6 6c-2 3-4 5-6 7-2 1-3 3-5 5 0 0-1 0-1 1l-3 3c-1 1-3 2-4 3-46 42-100 76-159 96h-2c0 1-1 1-1 1-3 1-5 1-7 2h-1c-1 1-3 2-5 2-2 1-4 1-6 2-1 0-2 1-2 1-5 2-9 3-13 4-3 2-6 3-9 4-1 0-3 0-5 1h-11c-14 1-28 0-40 2-6 0-11 1-16 2-7 1-14 4-19 8-2 1-4 3-6 5-1 2-3 5-4 7v12c-1 1-1 3-1 4h8c26 1 52-2 78-8h2c2 0 3-1 5-1s3-1 5-1 3-1 5-1c1-1 3-1 5-1 1-1 3-1 5-1 1-1 3-1 4-2 2 0 4-1 5-1 2 0 3-1 5-1 1-1 3-1 5-2 1 0 3-1 4-1 2-1 4-1 5-2 2 0 3-1 5-1 1-1 3-1 4-2 2 0 4-1 5-1 2-1 3-1 5-2 1-1 3-1 4-2 2 0 4-1 5-1 2-1 3-2 5-2 1-1 3-1 4-2 2-1 3-1 5-2 1-1 3-1 4-2 2-1 3-1 5-2 0 0 1 0 1-1h2c0-1 1-1 1-1 2-1 3-1 5-2 1-1 2-1 2-1l6-3c1-1 2-1 3-2l6-3c1 0 2-1 2-1l6-3c1-1 2-1 3-2 2-1 4-2 5-3 1 0 2-1 3-2l6-3c1 0 2-1 3-1 2-2 4-3 5-4s2-1 3-1c2-2 4-3 5-4s2-1 3-2c2-1 4-2 6-4 0 0 1-1 2-1 2-2 4-3 6-4 0-1 1-1 2-2 2-1 3-3 5-4 1 0 2-1 2-2 2-1 4-2 6-4 1 0 1-1 2-1 2-2 4-3 6-5 0 0 1-1 2-1 1-2 3-3 5-5 1 0 1-1 2-2 2-1 3-2 5-4 1-1 2-1 2-2 2-1 4-3 5-4s2-2 3-2c1-2 3-3 4-4l3-3 4-4 3-3 4-4 3-3 3-3c1-2 2-3 3-4l3-3c2-1 3-3 4-4l3-3c1-1 2-3 4-4 0-1 1-2 2-3 1-2 3-3 4-5 1 0 1-1 2-2 1-2 3-3 4-5 1-1 1-1 1-2 2-2 4-4 5-6 1 0 1 0 1-1s1-1 2-2c0-1 1-1 1-2 1-1 2-2 2-3 1-1 2-1 2-2 1-1 1-2 2-3s2-3 3-4 2-3 3-4 1-2 2-3c1-2 2-4 4-5 0-1 1-2 1-3 1-2 3-4 4-6l1-1c1-2 3-5 4-7l1-1c1-2 3-5 4-7 0-1 1-1 1-1 1-3 3-5 4-8l1-1c1-2 2-5 4-7 0-1 0-1 1-2l3-6c1-1 1-2 1-3 1 0 1-1 1-1 0-1 1-1 1-2 1-1 1-2 1-3 1-1 1-2 2-3 0-1 1-2 1-3 0 0 1 0 1-1v-1c1-1 1-2 2-3 0-1 1-2 1-3 1-1 1-2 1-3 1-1 1-2 2-3 0-1 1-2 1-4 1 0 1-1 1-2 1-1 1-2 1-2 1-2 2-3 2-5 1-1 1-3 2-4 1-2 1-3 2-5 0-1 1-3 2-4 0-2 1-4 1-5 1-2 1-3 2-5 0-1 1-3 1-4 1-2 1-4 2-5 0-2 1-3 1-5 1-1 1-3 2-5 0-1 1-3 1-4 1-2 1-3 2-5 0-2 1-3 1-5 0-1 1-3 1-5 1-1 1-3 1-4 1-2 1-4 2-5 0-2 0-3 1-5 0-2 0-3 1-5 0-1 0-3 1-5 0-1 0-3 1-5 0-1 0-3 1-4v-5c1-2 1-4 1-5 0-2 1-3 1-5s0-3 1-5v-3c3-5 5-11 5-17v-1-1-1c1-1 1-1 1-2v-1-1c4-11 0-20-7-25 0-1 0-2-2-1 0 0-1 0-1-1-1-1-2-1-3-2l-1-1h-1l-1-1h-1-1zm-806 3c-2 0-5 0-7 2h-1-1c-1 1-2 1-2 1-1 1-2 1-2 1-1 1-2 1-3 1 0 1-1 1-2 2-1 0-2 1-2 1v1c0 1 0 1 1 1 0 1-1 1-1 1h1c-1 1-3 3-5 4 3 1 6 2 8 4 1 1 1 2 1 2 1 12 4 26 4 40v1c0 1-1 1-1 1v2c-2 6-3 11-4 16-3-2-4-1-1 3v2c0 1-1 1-1 1 0 1-1 2-1 3 1 1 2 1 3 0l2 1c1-1 2-3 3-5l2-2s0-1 1-1c3-5 6-11 8-17 1-2 1-3 2-5 0-1 1-3 1-5 3-8 5-18 6-26 2-17 0-31-9-30zm-95 2s-1 3-2 8c-7 4-9 11-3 25 1 6 5 12 10 18v-1l1 1h1s1 0 1 1h3c0-1-1-2-1-3v-2-2s0-1-1-2v-2-1-2-1c1-1 1-2 1-3 5-6 14-8 23-7h1c1 1 2 1 3 2 1 0 2 0 3 1 1 0 1 0 2 1 2 1 4 2 6 2 2 2 5 3 7 4 2 2 5 4 7 6 0 0 1 0 1-1 0 1 1 1 1 2 0-1 1-1 1-1s1 0 1 1c1-1 1-1 1-2l1 1c0-1 0-1 1-2v-2c1-4-1-8-5-12-5-7-13-12-23-16-12-10-24-11-33-6-3 0-5 0-7 1 0-3 0-6-1-6zm599 7h-1c-1 0-2 1-3 1-11 0-22 3-31 11-1 1-2 1-3 2 0 0-1 1-2 1-1 1-1 2-2 2-1 1-1 2-2 2-1 1-1 2-2 2-1 1-1 2-2 2 0 1-1 2-1 3h-1c0 1-1 1-1 2v1h-1v1c-1 0-1 0-1 1-9 10-12 23-11 36 0 8 2 16 6 23 2 21 13 30 26 31 6 1 12 1 18-1 3 0 5-1 8-2 1-1 2-1 4-2h1c1-1 2-1 3-2 1 0 2-1 3-1 1-1 2-1 2-2 3-3 6-5 8-8 1-1 1-2 2-3v-1c2-3 2-5 3-7v-3c2-8 0-12-4-15-3-4-6-5-11-5 0 0 0-1-1-1h-1s-1 0-1-1h-1-1c-1 0-1-1-1-1h-4-1-1c-1 0-1-1-2-1v1h-1-1-1-1-3-1-1-1c0 1-1 1-1 1h-2s-1 0-1 1h-6c1-6 9-17 21-23 1-1 3-2 4-2s1 0 2-1h6c1 0 1 0 2 1h4c1 1 1 1 2 1h2c0 1 0 1 1 1h1c0 1 1 1 1 1h1l1 1h1l1 1c1 0 2 1 2 1 1 0 2 1 2 1 1 1 2 1 2 2 1 0 2 1 2 1s0 1 1 1l3 3c1 0 1 1 2 2l3 3c1 1 1 2 2 2 1 1 1 2 2 2 0 1 0 1 1 2v1s1 1 1 2l2 2c0 1 0 2 1 2v1c0 1 1 1 1 2 2 9 3 18 2 27-1 8-4 16-8 22l-1 1v1h-1 3c0 1-1 1-1 1 1 0 1 0 2-1v1s0-1 1-1c2-1 5-4 7-7l2-2c3-4 5-10 7-15 1-4 2-7 3-11v-3c0-1 1-2 1-3v-5-1-10c0-8-1-16-4-23-3-10-9-18-15-25-10-15-24-22-38-23-3 0-5-1-8-1zm-354 9h-1-1-1c-8 0-17 3-25 10-1 1-3 2-4 4l-1 1s-1 1-1 2c-4 4-5 8-6 13 0 0 0 1-1 2v3c-5 15 1 25 11 30 3 2 7 5 10 6 2 1 4 2 6 2 8 1 15-2 20-12 1-1 3-2 4-4 2-4 4-8 4-13 31 19-2 54-37 58-7 0-13-1-20-3-3-2-6-4-9-7-1 0-1 0-1-1l-4-4c-1-1-1-1-1-2l-8-8v-1h-1l-1-1c-1-1-2-1-3-2h-1v3c0 2 3 8 7 14 5 8 12 17 20 23v1c2 1 3 2 4 2 7 6 14 10 21 10 3 1 6 0 8-1 15 4 30 2 43-3 3-1 5-2 7-3 1 0 1-1 1-1 1 0 2-1 3-1 3-2 6-3 8-5s4-3 5-5l1-1 1-1c1-1 3-3 4-5 10-15 10-33 3-49-2-9-7-17-14-24-1-3-3-5-5-7-4-5-10-9-16-12-3-2-7-4-11-5s-8-2-13-3h-5zm512 15v1h-3s-1 1-2 1c0 0-1 0-1 1-1 0-2 0-3 1 0 0-1 0-2 1 0 0-1 1-2 1 0 1-1 1-2 2-1 0-1 1-2 1l-2 2c-1 1-2 1-2 2l-2 2-2 2c0 1-1 2-1 2-1 1-1 1-1 2 0 0-1 0-1 1v1c-1 0-1 1-1 1v1l-1 1v3c-1 0-1 1-1 1v5c1 0 1 0 1 1l1 1h1c1 1 2 1 3 1h1c1 0 2 0 3-1h1v-1c1 0 1 0 2-1l3-3c0-1 1-1 1-2 1-1 2-3 3-4v-1c5-5 9-9 11-12 4-5 5-8 3-10v-1s-1 0-1-1h-1s0-1-1-1zm15 18c-1 0-1 1-1 2h-1c-1 1-3 3-3 7 0 0-1 1-1 2 0 7 3 17 11 22l2 2v1c1 0 1 1 1 2 1 0 1 1 2 1 0 1 0 1 1 2 0 0 0 1 1 1s1 1 1 1h1c2 1 3 1 4 1 2-1 3-5 2-10 0-3 0-5-1-7v-1c-1-1-1-2-1-3-1 0-1-1-1-1l-1-1c-2-7-5-11-8-14l-1-1c0-1-1-1-1-1v-1h-1v-1h-1v-1h-1-1c0-1 0-1-1-1h-1v-1zm-738 1h-1-1l-1 1h-1-1c0 1 0 1-1 1v1c-4 2-7 6-10 11-1 2-2 3-2 5-6 12-9 28-6 41v2c0 1 0 1 1 2v2s0 1 1 1v2c0 1 1 1 1 2l1 1c0 1 0 1 1 2 0 0 0 1 1 1 0 1 0 1 1 2l1 1c0 1 1 1 1 1 1 1 1 1 2 1 0 1 1 1 1 2h2v-1-1-2c1-1 2-4 2-7 3-11 2-24 4-37 0-1 0-2 1-3v-3c0-1 1-1 1-2 1-3 2-6 4-9 0-2 1-3 2-4 1-3 3-5 5-7h-1v-1h1c-1-1-1-1-2-1-2-3-4-4-7-4zm794 13l-1 1c-1 1-1 2-2 3-2 1-4 4-6 6 0 1-1 1-1 1-8 7-17 18-26 31-1 1-2 2-2 3l-3 3c-1 2-3 4-4 6-1 1-1 2-2 3-2-1-4 0-7 11v1c-2 3-3 5-3 8 0-1 1-1 1-1 4 0 8-1 12-2 9-4 18-9 25-16 1-1 1-2 2-3s2-1 2-2c1-1 2-2 2-3 1-1 2-2 2-3 1-1 1-2 2-3 1 0 1-1 2-2 0-1 1-2 1-3 1-1 1-2 2-3 0-1 0-3 1-4 0-1 1-2 1-3 1-2 1-4 2-6 0-2 0-5 1-7v-3-3-4-1-1c1-1 1-1 0 0v-1l-1-1v-1c2-2 2-1 0 0v-1zm-718 18c-1 1-1 2-1 3-1 0-1 1-1 1h-1c-1 0-2 1-2 5-1 6 0 14 2 24l3 21c0 4 1 9 1 13v7c-1 2-1 5-1 8-1 0-1 1-1 1v3s0 1-1 1c1 0 1-1 1-1h1s0 1-1 1c1 0 1-1 2-1v2c0-1 1-2 2-3s2-3 3-4c5-6 8-14 8-22 2-16-2-33-7-47-1-2-2-4-2-6h-1c0-1 0-2-1-3h-1c-1-1-1-2-2-3zm637 1h-3-1-1c-1 0-1 0-1 1h-2-1l-1 1h-2c0 1 0 1-1 1-1 1-2 1-3 2 0 0-1 1-2 1-1 1-2 1-3 2s-2 1-3 2-1 2-2 2l-3 3-2 2c0 1-1 1-1 1-12 10-21 23-15 34v1c1 1 2 3 3 4 1-1 3-2 4-3 5-1 9-6 12-11 1-1 2-2 2-3 1-1 2-2 3-4l6-9c1-1 2-3 3-4l2-2c1-1 1-2 2-2 0-1 1-1 1-2 3-2 7-4 10-6h2c1 0 1-1 1-1 1-1 2-1 4-1h2c1 0 1 0 2 1-1-1-1-1-1-2 0 0 0-1-1-1v-1c0-1-1-1-1-1 0-1 0-1-1-1v-1h-1v-1h-1c0-1-1-1-1-1h-1c0-1-1-1-1-1h-1-2zm-698 6c-1 0-2 0-2 1h-1-1v1h-1v2c-3-2-5-2 2 4 0 1 0 1 1 2 0 1 1 1 1 2s1 1 1 2c1 0 1 1 1 1 1 0 1 1 1 1 0 1 1 1 1 2h1c0 1 1 2 2 2 0 1 0 1 1 1 0 1 0 1 1 1 0 1 1 2 2 2 0 1 1 2 2 2 0 1 1 1 1 1l3 3c1 0 1 0 1 1 1 0 3 1 4 2s2 1 2 1v1c7 5 14 8 20 8 0 0 1-1 1-2h3v-1c1 0 1 0 1-1v-1-1l-1-1c0-3-2-6-5-8-3-3-7-5-10-7-1 0-1-1-1-1-1-1-3-2-4-3-1 0-1-1-2-2-1 0-1 0-2-1-1 0-1-1-2-2h-1c-1-1-2-2-3-2l-1-1h-1c-8-6-13-9-15-9zm698 29s-1 2-1 5c-4 7-7 29-4 45 1 5 2 10 4 13h1c1 1 2 1 3 1 6 2 9-2 9-8 2-7 0-19-2-27v-2-2-1l-1-1c0-5-1-9-2-12v-2l-1-1c-2-6-4-7-5-5-1-2-1-3-1-3zm-693 13l-2 2c-1-2-4-3-5 3 1 0 1 1 1 1s-1 0-1 1c0 0-1 1-1 2l-1 1v1c0 1 0 1-1 2v1c-1 6-1 15 1 24v2c1 2 1 3 1 5 0 1 1 2 1 4v1c1 1 1 2 1 3 1 2 1 3 2 4 0 1 0 2 1 3v3c1 1 1 2 2 3 0 1 1 3 1 4 1 1 1 2 2 4 0 0 1 1 1 2l1 1c0 1 1 2 1 2 0 1 1 1 1 2 1 0 1 1 1 2 1 0 1 1 1 1l2 2 1 1c4 5 8 9 13 11l3 3c1 1 2 2 4 3 0 1 1 1 1 1l2 2v-1c2 2 5 3 7 1-1-1-2-3-3-4h1l-2-2c0-2-1-4-2-4 0-3-2-5-3-8-2-4-4-8-7-12-2-4-4-7-6-11l-2-2c0-1 0-2-1-2 0-1 0-1-1-2-1-2-2-4-4-7 0 0-1-1-1-2l-3-6c-3-9-6-19-7-28v-6l1-1v-1s0-1 1-1c-1 0-1 0-1-1-1-1-1-1-2-1 1-1 0-1 0-2s0-3 1-4zm88 17c-1 1-1 3-1 5-2 5 2 13 7 22 2 3 4 8 6 12 5 12 10 25 14 37l-3 6c2 2 3 4 4 5 0 1-1 2-1 3h1c0 1 0 2-1 3h2v1c-1 0-1 1-1 1 1 0 1 0 1-1v1c1-1 2-3 3-4 3 1 4-6 4-16 0-3 0-5 1-8 0-2-1-4-1-6v-1c0-2 0-4-1-6v-1l-3-12v-1l-1-1c0-2-1-4-2-6-1-1-1-2-1-3-1-2-2-4-4-6-5-12-11-22-19-23h-1c-1 0-1-1-2-1h-1zm662 0c-3 1-7 5-12 10l-5 5c0 1-1 1-2 2 0 1-1 2-2 3-3 3-6 7-10 11-1 2-3 4-5 6-1 2-3 3-5 5s-3 4-5 6l-3 3c-1 1-1 2-2 2l-3 3-3 3s-1 0-1 1l-1 1c-1 1-2 1-3 2 0-1-2-3-4 1 0 1 1 1 2 1h-1c0 1-1 1-2 2-2 1-4 2-5 3 1 1 2 1 2 1l-1 1h2c-1 0-2 1-2 2l12-3h3c1-1 2-1 2-1h2c1-1 1-1 2-1 0 0 1 0 1-1h2l1-1c1 0 1 0 2-1h1c1-1 1-1 2-1l1-1c1-1 2-1 3-2l1-1c2-2 5-4 7-6 1 0 2-1 2-2l1-1c2-2 3-3 4-5 1-1 3-3 4-5 1-1 1-1 1-2 5-6 9-13 11-20v-1c1-1 1-2 1-3l3-6c0-2 1-4 1-6 1-1 1-2 1-4zm-91 6h-2-1-3s-1 0-1 1c-8 1-16 5-24 11l-1 1-3 3c-1 0-1 0-1 1-1 0-2 1-2 1-9 7-16 14-18 23v1s0 1-1 1v1c0 1 0 1-1 2v3h3s1 0 1-1c1 0 2-1 3-2 1 0 2-1 4-2 1-1 3-2 5-3 0 0 1 0 1-1 9-5 17-11 25-17 3-1 5-3 8-4 4-2 7-4 9-6 1 0 3-1 4-1 3-1 7-2 10-3h-1c1 0 1-1 1-1h1c-3-5-8-7-14-8h-1-1zm-633 17s-1 0-1 1h-1c-2 0-2 2 0 5 0 0 0 1 1 2-1 2-2 3 2 3h1v1c1 0 1 1 1 1 2 2 5 4 8 6 1 1 2 2 4 3l3 3c1 0 1 1 2 2h1c1 1 2 2 3 2 1 1 2 2 3 2 1 1 3 2 4 2 1 1 2 1 2 2h3c0 1 1 1 1 1 1 0 1 1 2 1 2 0 4 1 6 1h5c3 1 6 1 8 1h2c11 2 13 0 9-3 0 0-1 0-1-1 0 0-1 0-1-1h-1l-1-1c-1-1-1-1-2-1 0-1-1-1-1-1-4-5-14-8-25-12l-12-6c-1 0-2-1-3-1-2-1-3-2-4-3-2-1-3-2-5-3-1-1-2-1-4-2l-1-1h-1l-1-1h-1c-1 0-1-1-2-1h-1-1v-1h-1zm630 17c-1 0-2 1-2 4 0 1-1 1-1 2s-1 1-1 2-1 2-1 3c0 0 0 1-1 2 0 1 0 2-1 3v3c-1 1-1 2-1 3 0 2-1 3-1 4s0 2-1 3v3c0 2-1 3-1 4v6c0 1-1 2-1 3v19h3c1 0 1 1 1 1v1h1l1 1c0-1 0-1 1-1h1v-1c1-1 2-2 3-4 5-4 6-13 6-22 2-5 2-9 2-10v-4-5-1c0-6-1-11-1-14 0-1-1-1-1-1v-1-1l-1-1v-1h-1-1-1l-1 1v-1zm-505 28c-2 1-3 1-4 2-1 0-1 1-1 1l-1 1c-1-1-2-1-2 1 0 1 1 1 1 2 0 0 0 1 1 2v1s0 1 1 1v1c0 1 1 1 1 2s1 1 1 2c1 1 1 2 2 2 1 1 1 2 2 3 0 1 1 1 2 2 1 2 3 4 4 6 1 0 1 1 2 2l2 2v1c2 1 3 3 4 5 5 7 9 14 12 21 1 2 2 5 2 7 1 1 1 2 2 2v4c2-1 3-1 4-2 6 2 6-2 5-10 1-6-2-13-5-20-3-6-7-13-12-19-3-5-6-9-7-11l-6-3c-3-3-5-5-8-7-1 0-1 0-2-1zm457 3h-2-5c-1 1-3 1-4 1s-3 0-4 1c-1 0-3 0-4 1-1 0-3 0-4 1-1 0-3 1-4 1-2 1-3 1-4 2-2 0-3 1-4 1-2 1-3 1-5 2-1 1-2 1-3 2-2 1-3 1-4 2s-2 1-2 1l-1 1h-1l-2 2s-1 0-2 1c-2 2-5 4-7 7-1 0-1 0-2 1 0 0 0 1-1 1 0 1-1 1-1 2l-1 1c-3 4-4 7-5 11v1c1-1 2-1 3-1 0-1 1-1 2-1 0 3 7-3 3-2 1 0 2-1 3-1 2-1 3-2 5-2 5-3 11-6 16-8 3-2 6-3 9-5 12-4 25-7 36-11h11c1-1 1-2 1-3 4 4 4-1 2-5 1-1 1-2-1-1-1-2-2-3-3 1h-1v-1h-1l-1-1h-1l-1-1h-2-1c0-1 0-1-1-1h-1-1-4zm-549 6l-2 2c4 5 4-2 2-2zm5 6h-2c-3 1-4 6-3 13v2c1 1 1 2 1 3s0 2 1 3v3c1 2 1 3 1 4 1 1 1 2 1 3 1 1 1 2 2 4 0 1 1 2 1 3s1 3 1 4c1 1 2 2 2 3s1 2 1 3c0 0 1 0 1 1 1 2 2 4 4 6 0 1 1 3 2 4 0 1 1 2 2 3 1 2 2 3 4 5 0 1 1 1 1 1 1 1 1 1 1 2 1 0 1 0 1 1 1 0 1 0 2 1s2 2 4 3c3 2 6 3 9 4v-1c1 1 2 1 3 1-1-1-1-2-2-2v-3-1-1l-1-1v-1c0-1-1-2-1-3-1-1-2-3-3-4-1-2-2-3-3-5 0 0 0-1-1-1-1-2-2-3-3-4-1-2-2-4-4-6-1-2-3-4-4-6s-3-4-4-6c0 0-1 0-1-1 0 0-1-1-1-2-1 0-1-1-1-2-1 0-1 0-1-1l-1-1c0-1-1-1-1-2-1-1-1-2-2-3-2-5-3-10-5-16v-4-1c0-1 0-1-1-1v-1zm635 7s-2 1-3 1v1c1-2 2-2-1-1-1-1-2 0-4 3 0 0-1 0-1 1-1 0-2 0-3 1-12 7-31 18-49 28-4 3-9 5-13 8-3 0-6 1-8 2-1 1-1 1-1 2-2 0-4 0-6 1h5c-2 0-3 1-4 2 1 0 3-1 4-1h6c3 0 6-1 9-1 2-1 3-1 4-1 3-1 6-1 10-2 1-1 2-1 3-1 2-1 4-1 5-2 16-6 31-14 40-27 1-2 2-3 3-5 1-1 1-2 2-3l3-6h-1v0zm-103 16c-2 0-4 1-5 3-3 2-5 5-7 9-7 11-14 25-14 35-7 11-9 17-9 20-1 1-1 2-2 3h2s0 1-1 1c1 0 2-1 3-1h1c1 0 2-1 4-2 8-4 14-11 18-20 5-8 9-15 10-21 0-1 1-1 1-2v-5c3-10 3-16 2-18v-1h-1-1c0-1 0-1-1-1zm-494 0h-1-1-1s0 1-1 1h-1c-2 1-3 2-4 3-1-2-2-2-2 2v1c4 6 5 4 4 1l1 1s0 1 1 1c0 1 0 1 1 1 0 1 0 1 1 2l2 2c1 0 1 1 2 1 0 1 1 1 2 1v1h2c0 1 1 1 1 1 1 0 3 1 4 1h1c5 2 10 3 15 2 4 1 9 1 13 1 2-1 3-1 5-1 6 0 9-1 11-3 6-2 5-5 1-8-1-2-6-4-11-5h-1c0-1-1-1-2-1-1-1-2-1-3-1 0-1-1-1-2-1s-2-1-2-1h-4c-1-1-2-1-2-1h-2-3-1-3-1l-1 1h-2c-4 0-7-1-10-1h-2c-1 0-1-1-2-1h-2zm105 7c-1 0-1 0-2 2 1 2 2 2 3 2 1 2 5 5 9 9 1 0 1 1 2 1 1 2 3 4 5 6 2 1 3 3 5 5l3 3 3 3c0 1 1 1 2 2l3 3c0 1 1 2 2 3s1 2 2 3v4l4 4c0 1 1 2 1 2v6c1-1 3-1 4-1h3c4 2 5 0 5-4 3-3 3-8 0-14-1-2-3-5-4-7-1-1-2-1-2-2-1-1-1-2-2-2-1-2-2-3-4-5-6-11-14-19-20-19-3 0-4-1-6-1-9-3-13-4-15-3h-1zm315 13c-4 0-10 0-15 1-18 1-36 6-39 19 1 1 2 1 2 1h1c12 0 24-1 36-3h2c10 0 20-1 30-1h1c5 0 10 1 15 2-1-1-1-3-2-4 6 0 0-5-3-5v-1-1h-1s-1 0-1-1h-1c-6-5-15-7-25-7zm-246 13c-2 0-3 1-4 3-1 1-2 2-1 4v2c0 1 1 2 3 4 2 7 8 15 17 16 1 1 3 2 4 3h1l1 1h1c0 1 0 1 1 1h1c0 1 0 1 1 1h1c1 0 2 0 3-1 3 0 4-2 0-8-3-12-12-19-20-21-4-4-7-5-9-5zm-148 7c-6 3-5 12 1 23v1c1 0 1 1 2 2s1 2 2 3c0 1 1 2 2 3 0 1 1 2 2 3s1 2 2 3l3 3c0 1 1 2 2 3l3 3 3 3c1 1 2 1 2 2l3 3c1 1 2 1 3 2s2 1 3 2 2 1 3 2c1 0 1 1 2 1l1 1c1 0 1 0 2 1h2c4 3 9 4 13 4 1 0 2 0 3 1l3 1v-1h3v-1h1v-1c0-1 0-1-1-1v-1l-1-1-2-2-2-2s-1 0-1-1c-2-1-4-4-7-6h-1l-1-1c-13-11-31-26-42-38 0-2-1-4-2-6v-3h-1v-2h-2c-1-1-2-2-3-2v-1zm287 3h-5c-8 0-15 1-18 5-1 2-2 4-2 7 0 4 2 10 9 17l2 2 2 2 1 1c0-1 0-1 1-2v-2c1 0 1-1 1-1 1 0 1-1 1-1 0-1 1-1 1-2 5-2 11-6 17-9h5s1 1 2 1h2c1 0 2 1 3 1s1 0 2 1h3c2 1 3 1 5 2 2 0 3 1 5 1 1 1 2 1 3 1s2 0 3 1h2c1 0 2 0 3 1h8c2 0 3 1 4 1 11 1 2-10-4-12-4-2-9-4-14-6-6-3-13-5-20-6-8-2-15-3-22-3zm-228 1h-4-2c0 1-1 1-1 1h-4c-1 0-1 1-2 1s-2 0-3 1h-1c-1 1-1 1-2 1 0 0 0 1-1 1l-1 1-1 1c-1 0-1 1-1 1-1 0-1 1-1 1 0 1-1 1-1 1v2c-1 0-1 1-1 1v2l-1 1h1c0 1 1 1 1 2h1c4 2 8 2 13 2h3c3 0 7-1 10-1 2-1 5-1 7-1 9-1 16-1 20-2h1c0-1 1-1 1-1h2s0-1 1-1 1-1 1-1h1v-1-1-1h-1v-1h-1v-1h-1c-2-2-7-4-14-5 0-1-1-1-2-1s-2-1-4-1h-3c-2 0-3-1-4-1h-6zm147 1c-4 0-8 1-13 3h-1l-6 3h1c0 1-1 1-1 1 2 0 3 1 4 1v1c2 1 4 1 6 2v1c4 4 4 9 1 14-2 5-6 10-11 15-2 3-5 5-7 7 0 1 0 1-1 2s-2 1-3 2c0 1-1 2-2 3h1v1c1 0 1 0 2 1h2s0 1 1 1h6c0-1 0-1 1-1h2l1-1h2c8-2 15-5 21-10 1-1 1-1 2-1 0-1 1-1 1-1l1-1c1-1 1-1 2-1 0-1 0-1 1-1v-1c1 0 1 0 1-1 1-1 2-2 3-4 3-4 5-9 5-13 3-6 1-9-2-11-1-2-3-5-6-6l-2-2h-1c-1 0-1-1-1-1h-1-1l-1-1h-3c-1-1-3-1-4-1zm184 5s-1 0-2 2c5 6 4-2 2-2zm-414 0c-1 0-1 1-1 4 4 6 2-4 1-4zm520 1h-2-1-1-1-1c-1 1-1 1-2 1 0 0-1 0-1 1-1 0-2 0-2 1-1 0-2 1-2 1-1 0-2 1-2 1-1 1-2 2-3 2v1c-4 2-8 5-10 8-1 4-5 8-9 10 0 0-1 0-1 1-16 4-33 5-45 9-4 1-7 1-9 2-4 1-6 2-7 3-1-1-2 0-3 3 2 4 3 3 3 2 1 0 1 1 1 1 0 1 0 1-1 2h2c-1 1-1 1-1 2 3 1 5 1 8 2h6c9 0 17-2 26-5 11-1 27-11 39-21l1-1c1-1 2-1 2-1 1-1 2-2 3-2 0-1 1-1 2-2l1-1c5-4 9-8 10-11 4-6 4-9 0-9zm-109 3c-1 0-3 1-6 3l-2 2c-1 0-2 1-2 1-1 1-2 2-3 2 0 1-1 2-2 3-1 0-2 1-2 2l-3 3c-1 0-1 1-2 2s-2 2-2 3l-3 3c0 1-1 2-2 3v1c-6 8-10 17-8 24h6c4 0 7-2 9-5 4-4 6-9 9-14 0-1 1-2 1-3l2-2c0-1 1-2 1-2 1-2 2-4 3-5 1-2 2-3 3-5 0-1 1-2 2-3v-2c1-1 1-1 1-2l1-1v-1c2-5 1-7-1-7zm-229 18c-1 0-1 1-2 3h-5-1c-10 0-24 5-28 16-1 1-1 3-1 4-1 1-1 1-1 2h1c1 2 3 2 5 2h1c0 1 1 0 2 0h3l1-1c1 0 1 0 2-1 3-1 5-2 7-4 1 0 2 0 3-1 0 0 1 0 2-1 1 0 1 0 2-1 1 0 1 0 2-1h2c0-1 1-1 1-1 1-1 1-1 2-1l1-1c1 0 1-1 1-1 1 0 1 0 1-1h1l1-1s0-1 1-1v-1l1-1v-1-1h-1v-1c1-1 3-6-1-1h-1-1v-1c0-1-1-3-1-3zm148 6c-4-1-8 0-12 4-1 0-1 1-1 1h-1c0 1-1 1-1 2-8 7-14 19-18 31-1 4-3 8-4 12s-2 9-2 13 0 8 1 12h2s0 1 1 1c3 3 9 3 15 1h1c9 0 18-5 25-10l1-1c2-1 3-3 4-4h-2 1-10c0-1-1-1-2-1h-2c-4-5-8-12-10-20v-2-3-2c3-10 9-21 15-29l4-4c-1-1-3-1-5-1zm-224 1s-1 0-1 1c-1 0-1 1-2 2v5c0 3 1 6 3 10s4 9 7 14l1 1v1h1c0 1 1 2 1 2 0 1 1 1 1 2 1 0 1 1 1 1l2 2c0 1 0 1 1 2 0 0 1 0 1 1 1 0 1 1 2 1 0 1 1 1 1 2h1v1c5 4 9 6 14 7 5 2 9 2 13 0 5 1 9 1 12 1h2c1 1 2 1 2 1h5c0-1 0-1 1-1h2c0-1 0-1 1-1v-1h-1v-1c0-1-1-1-1-1h-1l-1-1-2-2c-1 0-2-1-2-1-1-1-2-1-3-2l-6-3c-2-1-4-2-7-3-1-1-2-2-4-3-6-4-12-8-17-11-7-9-12-15-17-18-2-3-4-5-6-6-1-1-2-2-3-2h-1zm239 24c-1 0-3 1-4 1 0 1-1 2-1 3l-1 1v2l-1 1v6l1 1v1c0 1 1 1 1 1v1l1 1v1s1 0 1 1h1v1l1 1c1 0 1 1 1 1h1c4 5 11 9 20 7 2 1 4 1 5 1h2c3 1 5 0 8 0 1 0 3 0 4-1 4 0 7-1 11-1 45-14 10-15-15-15h-7l-4-4c-1 0-1-1-2-1 0-1-1-1-1-1l-2-2c-2-2-5-3-8-4-1-1-2-1-4-1h-1v-1h-3c-1-1-3-1-4-1zm-253 2l-1 2c1 8 3-2 1-2zm94 2s0 1 2 4c1 1 2 2 3 2 0 1 0 2 1 3 0 1 1 1 1 2s1 2 1 3c1 0 1 1 2 2s1 2 2 3l2 2c0 1 1 1 1 2h1v1c3 3 6 7 9 9 1 0 1 1 1 1 1 0 1 1 2 2h1v1h2v1c1 0 1 0 2 1h1c6 5 13 7 18 6 1 1 2 1 3 2 5 1 9 1 11 0 0-1 1-1 1-1s1 0 1-1l1-1v-1s1 0 1-1v-1-1c0-1 1-1 1-2v-1c0-6-1-12-4-18-2-9-3-14-5-15-2-6-5 0-10 7-2 3-5 6-8 9-2 0-3 0-4 1-3 0-7-1-11-4-1-1-1-2-2-2-2-2-5-4-7-6l-1-1c-6-5-10-7-12-7h-1-1v1h-1v3c-1-2-3-5-4-5z"/></svg>