<svg viewBox="0 0 1000 1002.5846" xmlns="http://www.w3.org/2000/svg"><path d="M458 37.27c-41 0-76 5-121 20l-24 12c0 1 0 3 1 4 1 7 5 16 10 24-10 9-19 17-28 26-7-11-13-23-16-34-28 17-54 38-78 61 0 4 2 9 4 14 5 10 14 22 25 33-7 10-14 20-20 31-16-14-30-31-38-48v-1c-27 30-50 64-70 100 2 6 6 12 11 19 11 13 28 27 47 37-3 12-7 24-10 36-25-13-49-30-65-50-1-1-1-2-2-2-17 39-29 79-35 120 4 8 10 15 20 22 17 13 42 23 69 28 0 13 1 25 2 38-34-6-68-18-93-37-1-1-3-2-4-3-4 43-1 87 6 129 7 7 16 13 28 17 23 10 55 13 87 10 4 12 8 24 12 35-1 0-2 1-3 1-38 4-78 1-110-12-1 0-2-1-2-1 13 46 32 91 57 132 8 4 18 7 30 8 26 3 59-2 90-13 7 10 15 20 23 30-1 0-2 1-2 1-37 14-75 22-111 19 25 32 52 61 84 87 9 2 20 2 32 0 23-3 50-13 75-28 32 26 68 48 105 64l15-33c-31-14-61-32-89-54 26-21 47-47 59-71 9-19 12-36 9-51-21-11-41-25-58-40-5 15-14 29-24 41-16 19-37 35-61 49-8-10-15-20-23-30 23-12 43-27 56-43 14-16 22-32 21-49-18-20-33-42-45-66-7 9-16 17-26 23-18 13-41 23-65 29-5-11-9-23-13-34 22-6 42-14 58-25 14-10 24-21 28-33-8-23-14-46-18-71-8 5-16 9-24 12-21 7-44 10-67 10-1-12-2-25-2-37 21 1 41-2 56-8 15-5 25-11 31-20-1-24-1-50 2-75-5 1-11 2-16 2-20 2-42-2-63-8 3-12 6-24 10-36 18 6 36 9 51 8 10-1 18-3 24-6 6-27 13-53 24-80-2 0-4 0-6-1-16-3-33-10-48-20 6-10 13-20 20-30 12 7 25 12 36 15 5 1 9 1 13 1 12-23 24-44 39-64-11-5-20-12-29-20 9-9 18-17 28-25 6 6 13 10 18 13l6 3c9-11 18-21 27-30 23-23 47-47 68-75h-8zm75 0c21 28 45 52 68 75 9 9 19 19 27 30l6-3c5-3 12-7 18-13 10 8 19 16 28 25-9 8-18 15-29 20 15 20 28 41 39 64 4 0 8 0 13-1 11-3 24-8 36-15 7 10 14 20 20 30-15 10-32 17-48 20-2 1-4 1-6 1 11 27 18 53 24 80 6 3 14 5 24 6 15 1 33-2 51-8 4 12 7 24 10 36-21 6-43 10-63 8-5 0-11-1-16-2 3 25 3 51 2 75 6 9 16 15 31 20 15 6 35 9 56 8 0 12-1 25-2 37-23 0-46-3-67-10-8-3-16-7-23-12-5 25-11 48-19 71 4 12 14 23 28 33 16 11 36 19 58 25-4 11-8 23-13 34-24-6-47-16-65-29-10-6-19-14-26-23-12 24-27 46-45 67-1 16 7 32 21 48 13 16 33 31 56 43-8 10-15 20-23 30-24-14-45-30-61-49-10-12-19-26-24-41-17 15-37 29-58 40-3 15 0 32 9 51 12 24 33 50 59 71-28 22-57 40-89 54l15 33c37-16 73-38 105-65 25 16 52 26 75 29 12 2 23 2 32 0 32-26 60-55 84-87-36 3-74-5-111-19 0 0-1-1-2-1 8-10 16-20 23-30 31 11 64 16 90 13 12-1 22-4 30-8 25-41 44-86 57-132 0 1-1 1-2 1-32 13-72 16-110 12-1 0-2-1-3-1 4-11 8-23 12-35 32 3 64 0 87-10 12-4 21-10 28-17 7-42 10-86 6-129-1 1-3 2-4 3-25 19-59 31-93 37 1-13 2-25 2-38 27-5 52-15 69-28 10-7 16-14 20-22-6-41-18-81-35-120-1 0-1 1-2 2-16 20-40 37-65 50-3-12-7-24-10-36 19-10 36-24 47-37 5-7 9-13 11-19-20-36-43-70-70-99-8 17-22 34-38 48-6-11-13-21-20-31 11-11 20-23 25-33 2-5 4-10 4-14-24-23-50-44-78-61-3 11-9 23-16 34-9-9-18-17-28-25 5-9 9-18 10-25 1-1 1-3 1-4l-24-12c-48-16-84-20-129-20z"/></svg>