<svg viewBox="0 0 1000 1002.5846" xmlns="http://www.w3.org/2000/svg"><path d="M229 35.27l-13 13-161 161-11 14c8 9 16 17 24 25v-1c33 29 70 47 105 54 30 6 60 4 85-9 57 57 114 114 170 172l43-44-171-171c12-24 15-54 9-83-8-41-31-83-67-118l-13-13zm245 18c-18 0-36 2-54 6 229 137 400 321 534 534 6-115-41-235-115-331-30 10-66 1-91-24s-35-61-24-91c-77-58-165-94-250-94zm-223 65c11 18 18 37 22 55 6 32 0 59-17 76s-44 23-76 17c-17-4-36-11-55-23l126-125zm538 21h-3c-8 1-15 4-20 10-14 13-13 42 8 63s49 22 63 8 13-42-8-63c-12-13-27-18-40-18zm-133 149l-612 612c8 22 21 40 48 48l612-612c-15-17-31-33-48-48zm-85 232l-45 45c64 67 127 134 190 201-30 28-62 53-91 70 110 110 244 153 317 107 44-73 2-209-107-317-18 29-42 60-69 89l-195-195z"/></svg>