<svg viewBox="0 0 1371.1289 1002.5846" xmlns="http://www.w3.org/2000/svg"><path d="M1111.13 999.27c-48-31-16-116-30-169 3-58-25-110-18-168-1-30 12-104-36-57-156 125-328 230-512 308-121 54-265 79-391 26-75-27-134-104-121-187 1-63 71-116 131-86 58 23 62 122-4 138-72 31-89-112-13-77 21 27-20 43-18 11-57 37 55 78 56 12 15-69-90-91-116-32-34 64 0 147 66 175 118 59 259 34 373-23 155-73 307-160 427-283 23-45-80-24-105-41-91-17-176-57-262-90-68-3-137 8-206 7-106 2-212 11-317 23-16-50 7-80 59-64 118-4 236-12 353-21 69-8 134-34 191-73 142-65 306-105 462-70 62 12 118 47 151 102 39 59 89 109 138 160 12 57-92 14-125 27-84-9-66 94-53 145 50 58-22 118-23 180-22 34-1 131-57 127zm-40-485c69-4 138-6 205-20-36-43-70-88-108-128-25-23-79-62-54-1 14 58-42 126-65 150h9l13-1zm-226-10c-52-43-72-119-49-183-65 15-139 30-186 80 15 51 88 71 138 87 29 7 78 19 97 16zm-816-256c-59 5-14-73 29-48 118-2 238-19 345-70 86-32 168-76 257-102 145-32 298-37 445-13 84 23 174 43 244 98 17 68-66 36-97 17-129-50-268-71-406-61-102 2-201 26-294 69-104 45-211 89-325 100-66 8-132 12-198 10zm1082 751c-47-30-17-113-29-165 3-59-26-113-19-172-1-30 12-105-36-57-155 125-328 229-511 308-120 53-261 78-387 28-76-27-139-102-126-186-2-71 85-126 144-81 49 32 41 122-21 132-81 25-71-128-4-73 6 32-24 29-23 5-57 36 52 78 55 14 19-88-125-89-126-5-14 62 24 123 80 147 122 59 266 30 382-29 150-72 298-158 415-278 23-45-80-24-105-41-89-18-173-53-255-89-67-6-134 8-201 6-110 2-220 10-329 23-20-58 15-77 67-64 118-5 236-11 354-23 61-8 120-30 172-66 140-68 301-107 457-78 57 13 118 33 151 86 45 64 97 122 152 178 15 58-90 16-124 28-84-9-66 94-53 145 49 56-20 116-22 176-23 39 0 128-58 131zm-40-485c68-4 138-6 204-20-35-44-71-90-110-131-25-22-75-58-51 2 14 58-42 126-65 150h9l13-1zm-225-9c-53-43-73-120-50-184-65 15-138 30-186 80 11 47 80 68 124 84 34 9 89 22 112 20zm-817-257c-59 5-13-73 30-48 116-3 233-18 339-68 89-33 174-79 266-105 147-31 300-36 448-11 82 23 169 44 237 97 16 72-72 32-104 15-131-51-272-69-411-59-92 4-182 24-265 62-110 47-222 96-343 107-65 8-131 12-197 10zm1085 751c-53-22-17-109-32-157 3-66-26-125-19-191 1-32 8-92-36-45-156 124-328 228-511 306-127 57-279 82-409 19-76-33-124-122-99-203 14-68 112-96 154-39 38 42 9 122-51 117-82 5-32-138 12-65-15 49-18-30-40 9 6 87 120-6 56-51-57-50-130 27-112 90 8 85 102 124 176 134 148 23 285-55 411-122 106-61 213-128 295-220-4-40-98-19-132-40-83-18-160-55-239-85-70-3-141 9-211 8-105 1-209 10-312 22-10-41-2-82 50-64 122-3 245-12 367-22 66-8 128-34 184-71 144-67 311-107 468-69 64 11 117 50 151 106 38 56 86 104 133 153 15 58-90 15-124 28-84-10-66 94-53 145 49 54-18 111-20 168-22 43-6 114-49 140l-8-1zm-24-486c62-4 124-6 185-19-34-44-71-89-109-130-25-23-76-59-52 1 11 58-35 122-68 150 15 0 29-1 44-2zm-244-8c-53-43-73-120-50-184-65 16-138 30-186 80 15 53 93 73 144 89 28 6 74 17 92 15zm-817-257c-59 4-13-73 30-48 117-3 236-18 342-70 88-32 171-76 260-102 147-32 302-38 450-12 82 23 170 44 238 97 14 78-82 22-119 9-171-64-360-69-539-34-150 41-286 131-443 147-73 10-146 15-219 13zm1085 751c-53-22-17-109-32-157 4-62-25-117-19-179-2-30 14-109-36-57-160 126-335 234-523 311-130 57-289 77-416 3-77-42-113-150-64-225 37-59 144-44 154 29 15 52-50 107-95 71-65-36 42-119 37-42-24 24-12-41-37-3 17 99 128-34 40-63-62-24-110 49-96 105 11 85 104 121 178 131 147 22 282-54 407-121 107-61 214-129 298-221 3-38-90-19-119-37-88-17-170-56-253-88-70-3-141 9-211 8-105 1-209 10-312 22-11-42-1-82 51-64 121-3 243-12 365-22 66-8 128-33 184-70 141-67 303-105 459-73 62 12 121 43 154 100 41 59 90 110 139 161 23 58-84 18-114 29-82-16-73 68-70 121 32 49 28 100-1 149-18 58-26 117-43 174-5 9-16 10-25 8zm-17-486c60-4 120-7 178-19-35-44-71-90-110-131-25-22-74-56-51 0 6 59-23 119-72 152 19 0 37-1 55-2zm-254-11c-51-43-70-118-47-181-65 15-137 30-186 79 6 45 75 66 115 82 34 9 105 28 118 20zm-807-253c-61 16-32-74 16-49 120-2 243-18 352-71 87-32 169-76 257-101 148-32 302-38 450-12 82 23 170 44 238 97 14 79-85 20-122 8-117-43-243-60-368-53-100 2-200 21-291 63-110 47-220 96-340 107-64 8-128 12-192 11zm1075 750c-48-26-15-109-29-158 4-61-25-117-19-178-2-31 14-109-37-57-156 125-329 230-513 308-129 58-286 81-416 12-79-38-121-142-79-221 30-64 138-62 158 10 26 57-55 124-100 74-56-49 66-103 40-33-20 12-9-42-33-6-1 73 102 20 69-33-22-56-110-37-121 18-23 68 21 141 87 164 124 55 265 21 381-39 147-71 291-155 406-273 30-43-74-24-96-39-92-17-178-53-263-91-67-7-134 8-201 6-111 2-221 10-330 23-19-57 15-77 67-64 119-5 237-11 355-23 66-8 127-36 183-72 143-65 307-104 463-68 60 12 113 45 145 98 41 59 90 110 139 161 18 58-87 18-121 29-83-11-66 89-58 142 46 43 3 93-9 139-17 54-23 111-41 163-5 10-18 10-27 8zm-14-486c60-4 120-6 178-19-33-42-68-85-104-125-23-22-82-67-57-6 6 59-23 118-71 151 18 1 36-1 54-1zm-250-8c-54-43-74-120-51-184-65 15-137 30-186 79 12 55 98 75 149 91 27 7 69 15 88 14zm-811-256c-62 16-32-74 16-49 120-2 241-17 349-70 86-32 168-74 256-101 149-33 305-39 455-13 82 23 169 44 237 97 13 80-85 18-123 8-116-42-239-59-361-53-101 2-201 19-293 61-111 48-224 98-345 109-64 8-127 12-191 11zm1075 750c-48-26-15-109-29-158 4-61-25-117-19-178-2-31 14-109-37-57-155 124-327 228-510 306-129 59-288 84-418 14-82-39-124-148-77-227 36-64 149-49 157 27 17 60-73 113-108 55-45-59 85-81 42-23-14 1-5-40-28-9-2 77 106 17 66-36-33-63-129-17-123 47-12 74 53 131 118 149 121 41 251 5 360-51 145-71 287-155 400-271 29-43-78-24-101-40-91-18-176-54-260-90-67-6-133 8-200 6-110 2-220 10-329 23-9-39-4-82 47-64 122-2 244-12 365-21 67-8 131-33 186-71 142-66 305-106 461-73 62 12 120 43 153 99 41 59 90 111 140 162 20 59-88 17-120 29-83-11-67 85-60 138 52 51-5 107-12 162-28 45-3 142-64 152zm-39-485c68-4 137-7 203-20-32-42-68-84-104-125-23-22-82-67-57-6 6 59-23 119-72 151 10 1 20 0 30 0zm-225-9c-54-43-74-120-51-184-65 15-137 30-186 79 12 55 98 75 149 91 27 7 69 15 88 14zm-817-257c-55 12-23-72 20-48 116-2 235-15 342-65 87-34 171-76 260-105 147-34 302-39 451-16 85 23 175 44 246 99 12 81-85 18-124 7-114-41-235-58-356-52-104 1-207 20-302 63-107 46-216 94-333 106-68 8-136 13-204 11zm1081 751c-49-26-15-109-29-158 4-61-25-117-19-178-1-32 13-108-37-57-155 124-326 228-509 306-124 56-272 81-401 24-75-30-128-111-112-193 5-65 84-108 139-72 57 32 43 136-28 135-68 11-61-117 3-78 18 29-22 41-18 10-60 34 54 81 55 12 15-79-108-88-123-17-23 65 15 136 77 162 125 60 271 27 389-34 147-71 292-156 407-274 30-43-78-24-100-40-93-16-180-57-267-91-70-3-140 8-210 7-105 2-209 11-313 23-10-41-3-82 49-64 119-3 238-12 356-20 68-8 133-30 188-69 141-68 303-107 459-78 59 13 120 36 152 90 44 63 95 119 148 173 21 59-87 18-120 29-83-12-66 83-61 136 52 52-2 108-11 164-28 45-3 142-64 152zm-39-485c68-4 137-7 203-20-33-43-69-86-105-126-21-21-81-66-56-6 16 59-44 129-65 153h10l13-1zm-225-9c-54-43-74-120-51-184-64 14-132 30-181 74-11 51 81 75 122 90 33 9 84 21 110 20zm-818-257c-59 5-14-74 30-48 115-3 231-17 336-67 87-33 171-75 260-104 148-33 303-38 453-14 83 23 170 44 240 97 19 76-77 27-112 12-134-50-278-66-420-54-100 4-196 36-287 77-101 46-208 83-319 93-60 6-121 11-181 8zm1082 751c-50-29-14-118-30-169 3-58-24-110-18-168-1-31 12-106-37-56-155 124-326 228-509 306-124 56-272 81-400 24-72-29-126-104-114-183 1-64 70-116 130-88 60 24 63 126-5 140-74 27-83-116-10-77 15 33-19 38-18 10-59 35 54 80 55 12 15-75-100-90-120-24-26 62 5 137 66 164 118 62 260 38 375-19 156-73 310-161 431-286 20-41-77-22-101-38-91-17-177-54-262-90-67-6-134 8-202 6-109 2-219 10-327 23-20-58 16-76 68-64 116-5 232-12 348-22 68-7 130-35 187-72 142-65 304-104 459-70 56 12 112 37 143 88 43 62 94 118 147 172 21 59-87 18-120 29-80-12-66 77-63 129 49 54 6 111-9 170-27 46-4 141-64 153zm-39-485c68-4 137-7 203-20-34-44-71-89-110-131-19-16-76-61-52-7 17 61-37 132-64 159 7 0 15-1 23-1zm-225-9c-54-43-74-120-51-184-64 15-134 29-183 76-2 54 93 77 139 92 29 7 74 17 95 16zm-810-256c-63 17-32-74 16-49 119-2 240-17 349-70 88-32 171-77 262-103 145-31 297-36 444-12 83 23 172 44 241 98 12 81-87 17-127 6-166-60-347-64-519-34-155 39-292 133-452 149-71 10-143 16-214 15zm1074 750c-49-26-15-110-29-159 4-61-25-117-19-178-1-32 12-106-37-56-156 125-329 230-513 307-126 57-278 81-407 18-77-34-125-126-97-208 18-70 127-90 161-23 35 53-28 135-86 97-63-32 33-123 37-47-24 32-9-39-37-2 1 87 115 4 59-45-41-49-120-1-116 57-12 73 52 131 117 149 120 41 249 6 358-50 145-70 285-154 400-268 38-47-70-29-95-44-92-17-178-53-263-90-67-6-134 8-202 6-109 2-219 10-327 23-20-58 14-77 67-64 117-5 234-12 351-22 67-8 128-35 184-72 141-65 303-103 457-71 65 12 124 47 158 104 39 58 87 107 135 157 20 58-85 18-118 29-78-13-69 68-66 120 28 49 34 99 0 148-17 57-27 116-43 174-4 12-19 11-29 10zm-38-485c67-4 136-7 202-20-32-43-69-85-105-126-26-25-83-67-55 0 11 57-42 122-67 147 8 0 16-1 25-1zm-226-9c-54-43-74-120-51-184-64 15-133 29-182 75-7 52 84 75 127 90 33 9 81 20 106 19zm-817-257c-60 9-16-74 28-48 116-2 234-18 340-68 86-33 169-74 256-102 149-34 305-39 455-15 82 22 167 44 236 94 32 52-46 57-74 28-124-49-257-77-390-69-106 0-213 17-309 61-112 48-224 98-346 109-65 8-130 12-196 10zm1081 751c-49-26-15-110-29-159 4-61-25-117-19-178-1-32 12-106-37-56-156 125-329 230-513 307-129 59-287 82-417 12-83-40-126-157-69-234 40-55 140-38 150 31 28 78-111 123-113 32-4-58 96-24 43 5-10-60-47 45 14 27 65-16 28-123-34-102-71 15-76 114-38 162 66 78 181 89 276 75 122-23 231-88 338-148 88-55 176-114 246-191 3-39-87-20-119-38-88-18-169-56-252-88-71-3-142 9-213 8-104 1-207 10-310 22-11-42-3-83 50-64 120-3 240-12 360-21 67-7 131-32 186-69 139-68 299-105 453-77 57 13 117 32 150 83 46 63 95 123 151 177 25 65-95 18-131 32-78 2-56 114-35 159 30 59-33 113-33 174-20 35 0 119-55 119zm-20-486c62-4 124-6 184-19-41-49-78-105-129-146-25-19-50-31-32 11 12 60-31 126-68 156 15 0 30-1 45-2zm-244-8c-54-43-74-120-51-184-66 16-143 30-188 84 26 49 91 69 144 84 28 7 75 18 95 16zm-816-257c-60 11-20-76 25-48 118-2 238-18 346-70 88-32 171-76 261-103 148-31 302-37 451-10 80 22 163 43 231 92 31 52-45 56-73 29-126-50-261-78-396-70-104 1-209 17-304 61-109 46-219 97-338 108-67 8-135 13-203 11zm1081 751c-50-25-16-110-30-159 4-62-25-118-19-179 0-33 10-104-38-54-156 124-328 229-512 306-128 58-285 82-414 14-78-38-122-138-84-218 28-68 141-68 160 5 33 69-84 135-110 55-23-54 86-63 49-11-17 4-6-43-31-8 6 89 123-9 54-54-56-43-124 26-111 86 3 86 96 128 170 140 148 26 285-50 411-117 109-62 217-130 302-223 5-40-86-20-116-38-86-18-168-52-247-87-67-7-134 8-200 6-111 2-222 10-331 23-7-37-7-83 44-64 120-2 239-12 359-20 68-7 135-30 191-70 143-68 307-107 464-75 54 13 110 33 141 82 46 63 95 122 151 176 29 61-81 22-112 32-86-16-73 76-68 131 49 53 5 110-10 167-27 46-4 141-63 154zm-38-485c67-4 135-7 201-20-36-45-72-91-113-133-24-21-72-55-48 1 15 59-42 128-65 153 8 0 16-1 25-1zm-227-9c-54-43-74-120-51-184-64 14-134 30-183 76-2 52 85 75 131 90 31 8 80 19 103 18zm-816-257c-61 10-18-76 27-48 116-2 234-18 340-68 88-33 172-77 262-104 148-31 303-38 453-12 81 23 168 44 236 97 16 78-84 21-120 9-170-63-356-68-532-36-155 41-293 135-455 150-70 9-140 14-211 12zm1081 751c-51-28-15-117-30-169 1-62-27-119-19-182 3-34 4-85-37-42-156 125-329 230-513 307-129 58-286 82-416 13-81-39-124-149-75-228 35-61 144-49 155 24 27 74-103 124-113 37-9-69 102-22 39-2-6-57-42 48 16 30 78-21 16-140-49-98-58 31-56 121-15 165 78 79 203 84 306 60 140-43 269-117 390-198 58-44 122-84 164-145-55-23-122-19-179-41-68-18-132-50-197-74-68-3-137 8-205 7-107 2-213 10-319 23-12-45 1-81 52-64 117-2 234-12 351-20 71-7 138-32 196-72 143-67 308-107 465-72 57 12 112 39 143 90 42 61 91 115 143 167 29 61-81 22-112 32-84-16-74 73-69 127 49 56 7 113-9 172-28 46-3 142-63 153zm-38-485c67-4 135-7 201-20-39-47-75-98-120-140-27-21-62-41-41 8 15 59-42 128-65 153 8 0 17-1 25-1zm-228-10c-53-42-73-119-50-183-64 14-133 30-182 75-6 52 83 75 128 91 32 8 82 19 104 17zm-815-256c-59 11-20-74 24-48 117-2 235-17 342-68 89-32 173-77 264-104 148-31 303-38 452-12 81 23 168 44 236 97 15 76-77 24-114 11-120-45-248-63-376-56-101 2-201 21-293 64-108 46-216 94-334 105-66 9-134 13-201 11zm1081 751c-50-25-16-110-30-159 4-62-25-118-19-179-1-32 11-104-36-55-155 123-325 226-507 305-123 55-270 83-399 27-77-30-135-111-117-195 5-66 88-110 143-69 49 32 40 122-22 131-77 24-73-126-4-72 4 35-20 25-22 5-60 50 73 71 57-1 0-63-92-71-117-20-33 62-3 145 61 173 121 63 267 37 383-22 153-72 302-159 421-280 29-45-77-25-100-41-89-18-173-51-255-89-66-9-133 7-200 5-111 2-223 9-334 23-12-44-1-82 51-64 117-2 235-12 352-20 70-7 137-32 195-72 141-66 303-105 459-74 60 13 119 40 151 94 42 60 90 114 142 165 29 61-81 22-112 32-81-15-76 72-69 127 49 56 7 113-9 173-28 45-3 141-63 152zm-38-485c67-4 135-7 201-20-40-47-75-100-122-141-24-18-62-43-39 7 16 60-42 130-65 155 8 0 17-1 25-1zm-228-10c-59-40-66-129-55-183-61 15-128 30-176 74-10 52 82 76 126 92 33 8 82 19 105 17zm-815-256c-60 11-20-74 24-48 117-2 235-17 342-68 89-33 174-78 266-105 146-30 300-37 448-11 82 23 170 43 239 98 9 81-88 15-128 5-117-42-241-57-365-51-98 3-195 20-285 61-112 49-226 99-349 109-63 7-128 12-192 10zm1081 751c-50-25-16-109-30-158 3-66-26-127-19-194 3-33 4-84-37-41-153 122-322 224-501 303-113 50-242 79-364 43-82-20-163-88-159-179-10-69 61-138 129-108 70 23 61 145-18 141-64 7-60-112 3-80 21 30-17 43-17 12-57 33 50 79 55 16 19-62-68-96-105-50-46 56-21 150 44 182 120 68 270 42 388-17 153-72 303-159 423-280 31-45-76-26-100-42-88-18-173-51-255-89-65-9-131 7-197 5-113 2-226 9-337 23-9-39-5-83 47-64 118-2 237-12 355-20 70-7 138-31 196-72 143-67 308-106 465-72 62 12 118 45 151 100 40 57 87 108 136 157 27 62-86 20-119 32-83-11-65 83-60 135 54 56-6 114-14 175-25 40-3 137-60 142zm-13-486c59-4 119-7 177-19-43-49-79-105-129-146-21-14-53-36-34 6 10 61-19 126-71 160 19 1 38 0 57-1zm-253-9c-53-43-73-119-50-183-65 15-138 30-186 80 15 54 98 75 150 91 26 5 69 15 86 12zm-815-256c-60 11-20-74 24-48 116-2 234-16 340-67 85-32 167-73 254-102 151-35 310-41 462-15 82 23 168 44 237 96 20 73-72 31-106 15-120-46-248-66-375-59-104 1-208 21-303 65-109 47-219 94-338 105-65 7-130 12-195 10zm1081 751c-49-23-16-106-30-153 5-62-23-118-19-179-2-30 14-112-36-61-154 123-325 226-506 304-120 54-260 82-386 33-80-26-146-104-132-191 2-60 63-110 122-90 68 17 74 133-1 144-77 22-71-127-3-73 3 36-21 25-23 5-56 43 65 75 58 6 7-72-102-80-121-18-25 60 2 133 61 162 121 66 269 40 387-20 152-72 302-159 421-279 28-46-77-27-104-43-91-17-176-57-261-90-69-3-138 9-207 7-106 2-212 10-317 23-11-44-1-82 52-64 121-3 243-12 364-22 66-8 129-33 184-71 143-66 307-105 463-71 58 12 114 40 145 93 42 60 92 114 143 167 24 56-78 19-109 28-83-17-79 68-73 125 31 47 30 98-2 146-17 57-26 115-42 172-4 11-18 11-28 10zm-37-485c67-4 135-7 200-20-41-49-78-104-128-145-20-14-54-37-34 5 16 61-31 131-68 161 10 0 20-1 30-1zm-229-10c-53-43-73-119-50-183-65 15-138 30-186 80 14 54 97 75 149 90 27 6 69 16 87 13zm-813-256c-60 12-24-72 21-48 118-2 237-17 344-68 88-33 171-76 261-104 146-31 300-37 448-13 83 23 171 44 241 97 18 78-78 25-115 11-117-44-243-61-368-55-103 2-205 20-299 64-109 47-220 95-340 106-64 7-129 12-193 10zm1079 751c-50-25-16-110-30-160 4-61-25-117-19-179 0-33 10-103-38-53-157 125-331 231-516 308-130 58-290 80-419 7-80-42-118-156-63-231 41-56 143-37 151 35 20 65-85 115-111 47-33-61 93-64 43-14-1-34-44-13-20 18 75 50 90-109 6-94-68 4-83 90-61 141 46 85 154 105 242 102 129-6 243-76 354-134 100-59 200-124 278-210 3-40-91-20-122-39-87-18-167-56-249-87-69-3-139 8-209 7-105 2-210 11-314 22-7-36-7-82 44-63 122-2 244-12 365-21 66-8 129-29 183-67 140-69 302-107 457-79 59 13 120 34 154 88 44 63 94 120 148 174 22 60-87 18-120 30-85-11-65 90-58 142 52 53-11 110-16 167-25 40-3 138-60 143zm-37-485c67-4 135-6 200-20-41-49-78-104-128-145-20-14-54-37-34 5 20 61-40 135-63 161 8 0 17-1 25-1zm-229-10c-53-43-74-120-49-184-64 16-132 30-182 75-10 52 81 75 125 91 32 9 83 21 106 18zm-813-256c-60 12-24-72 21-48 119-2 239-17 347-69 90-33 174-79 266-105 147-30 300-36 448-9 80 23 165 43 233 95 18 80-81 23-118 10-117-43-242-61-366-54-103 2-205 21-298 64-109 46-218 95-337 105-65 8-131 13-196 11zm1079 751c-48-24-18-104-30-152 6-60-22-114-19-174-2-33 15-121-39-65-155 123-327 228-510 305-128 58-284 82-414 14-79-37-124-139-84-220 29-64 137-66 159 5 24 53-38 120-90 85-66-33 37-123 35-45-21 22-20-44-37 5 19 80 118-22 53-61-61-45-127 34-109 96 12 87 107 122 183 132 148 19 282-58 408-125 103-59 206-126 288-213 17-44-84-24-114-42-88-17-171-56-254-88-69-3-138 9-207 7-106 2-211 11-316 22-7-36-7-82 44-63 120-2 241-12 361-20 70-8 136-32 194-72 143-67 308-107 465-72 58 12 113 40 144 92 42 61 92 115 143 167 23 58-80 21-113 29-86-15-73 77-68 132 53 57-2 117-13 178-25 40-3 138-60 143zm-37-485c67-4 135-6 200-20-36-45-72-93-114-134-26-23-71-53-47 4 17 59-46 127-64 151 8 0 16-1 25-1zm-229-10c-53-43-73-120-50-184-65 17-138 30-186 81 14 54 98 75 150 91 26 5 69 15 86 12zm-813-256c-60 13-24-72 21-48 117-2 236-17 342-67 89-33 173-78 264-105 146-32 299-37 447-13 83 23 171 44 241 97 17 80-81 23-118 10-140-53-292-65-440-49-185 9-337 135-519 158-79 13-158 19-238 17zm1079 751c-48-24-17-104-30-152 5-60-22-115-19-174-3-32 16-120-38-66-153 122-322 224-501 302-116 52-249 81-373 40-82-23-158-95-149-185-4-62 57-123 120-102 71 14 78 133 1 144-76 22-71-124-3-75 9 34-21 29-22 7-56 40 59 77 57 10 13-87-124-81-126-2-14 59 19 120 73 145 121 62 266 35 382-24 151-71 299-157 417-276 37-48-74-29-103-46-90-17-175-56-260-89-71-3-142 8-213 7-104 2-207 11-310 22-9-38-6-82 46-63 120-2 240-12 360-20 70-8 136-33 194-73 143-66 307-105 464-71 59 13 114 42 146 95 41 60 91 113 141 164 23 58-80 21-113 29-89-15-74 86-65 142 55 60-20 124-22 190-20 34-1 122-54 121zm-12-486c58-4 118-7 175-18-30-42-66-80-98-121-21-21-90-78-63-11 6 59-23 119-72 152 19-1 38-1 58-2zm-254-9c-54-43-72-120-50-184-65 17-138 30-186 81 14 54 98 75 150 90 26 6 69 16 86 13zm-813-256c-61 12-24-73 22-48 119-2 240-18 349-70 86-32 168-76 257-102 145-31 298-37 445-13 82 22 168 44 239 94 32 51-43 57-71 29-127-51-264-78-402-70-105 0-210 19-306 64-109 47-221 95-341 106-63 7-128 12-192 10zm1079 751c-48-24-17-104-30-153 5-59-22-114-19-173-3-32 16-120-38-66-153 123-324 225-504 304-123 55-269 82-397 28-75-28-134-104-121-186 1-63 68-114 127-88 60 20 68 119 3 138-76 37-90-120-13-72 9 34-21 29-22 7-55 39 58 76 57 11 14-68-88-90-115-32-33 60-6 141 56 171 122 67 270 39 389-21 151-71 298-157 416-276 39-47-71-29-95-44-93-17-179-56-265-91-69-4-139 9-208 7-107 2-213 11-318 22-7-35-8-82 43-63 121-2 241-12 362-20 70-8 137-32 194-72 143-67 308-106 465-72 58 13 113 40 145 93 42 60 91 114 142 167 23 57-80 19-113 28-84-15-73 75-69 130 47 53 8 109-8 165-25 48-8 128-54 159l-10-1zm-12-486c58-4 118-7 175-19-33-43-69-86-106-127-22-21-81-66-55-4 6 59-23 119-72 152 19-1 38-1 58-2zm-254-9c-53-43-74-120-49-184-64 16-135 30-184 77 2 56 93 77 142 93 27 6 72 17 91 14zm-812-256c-65 11-21-74 25-48 118-2 236-19 343-70 89-32 173-79 265-104 145-30 296-35 442-11 81 23 166 44 236 94 31 56-47 53-77 27-127-50-264-76-402-68-99 2-199 18-290 59-111 48-223 98-344 110-66 8-132 13-198 11zm1078 751c-50-25-16-111-30-160 4-60-25-114-19-173-1-32 13-111-38-59-156 124-329 229-513 307-130 58-288 81-418 10-79-39-119-147-73-225 35-61 141-51 156 20 18 52-43 111-92 78-56-26 13-118 38-55-28 34-9-2-25-4-58 51 78 70 58-5-6-70-112-62-125 1-19 60 9 127 66 154 119 65 264 40 380-18 155-71 306-160 427-281 30-45-75-26-99-42-93-17-179-57-266-91-69-3-137 8-207 7-106 2-212 11-317 22-15-48 6-79 57-63 120-4 240-12 359-22 66-8 129-33 183-70 142-66 303-105 458-73 55 13 111 33 142 82 46 64 97 123 152 179 22 57-80 19-112 28-79-14-77 65-71 119 23 48 37 97 1 145-17 57-28 116-42 174-4 14-17 18-30 15zm-37-485c67-4 135-7 200-20-39-47-75-99-121-140-27-22-61-41-40 9 6 59-23 119-72 152 11 0 22 0 33-1zm-229-10c-53-43-74-120-49-184-65 16-138 31-187 80 11 52 88 73 137 88 30 7 78 19 99 16zm-806-255c-72 12-30-76 22-49 113-3 227-17 330-66 89-33 174-76 264-105 148-33 303-38 452-14 82 23 168 44 238 95 28 57-49 50-78 26-125-50-260-76-394-68-102 1-204 17-298 59-113 49-228 101-353 111-60 7-121 11-183 11zm1073 750c-52-24-16-111-31-160 4-62-26-118-19-180-1-31 12-103-37-53-156 125-329 230-513 307-128 58-284 82-413 14-80-37-123-139-84-220 29-66 141-65 160 8 20 51-37 113-88 84-65-25 16-124 35-54-18 41-24-40-41 11 28 88 122-40 43-68-56-25-109 37-98 91-2 82 84 127 155 140 126 28 251-23 362-80 130-67 257-145 360-250 31-46-75-26-99-42-93-17-179-57-266-91-67-4-135 8-203 7-107 2-214 10-321 22-7-36-8-82 43-63 122-1 243-12 365-21 68-7 133-31 189-70 143-67 308-107 465-73 57 12 113 39 145 91 43 61 92 116 144 169 22 60-88 16-122 29-84-9-64 96-53 147 49 57-22 116-23 178-22 37-1 123-55 127zm-37-485c67-4 134-6 199-20-38-46-73-96-117-137-21-16-67-50-45 0 9 61-21 124-72 158 12 0 23 0 35-1zm-230-10c-53-43-74-120-49-184-66 17-139 30-187 81 13 51 88 72 137 87 30 7 80 20 99 16zm-804-255c-57 22-50-68 2-48 122-2 245-17 356-70 90-33 175-78 266-104 140-30 286-34 428-15 88 22 182 45 255 102 12 80-84 17-122 7-119-44-246-60-372-53-96 3-192 20-280 60-109 46-218 97-337 108-65 8-131 14-196 13zm1071 750c-49-21-18-100-30-145 4-59-19-112-19-169-8-31 21-135-38-79-155 125-328 229-511 307-125 56-275 80-403 21-77-32-127-119-106-201 11-66 102-101 150-51 63 50-15 170-80 107-51-41 52-107 44-37-20 22-20-44-38 4 17 76 114-9 61-54-51-54-133 15-116 78 0 88 95 131 170 142 152 26 292-54 420-123 105-60 210-127 291-216 10-40-85-21-113-38-89-18-172-56-256-89-68-4-136 8-204 7-107 2-214 11-320 22-7-36-8-82 43-63 124-2 247-12 371-21 66-9 129-32 183-70 143-68 309-107 466-73 56 13 111 37 142 89 43 61 94 117 146 171 22 60-88 16-122 29-84-9-64 96-53 147 48 51-15 104-18 159-25 41-4 138-60 146zm-37-485c67-4 134-6 199-20-36-44-71-91-111-132-26-23-73-55-50 4 5 58-24 117-73 149 12 0 23 0 35-1zm-230-10c-53-43-73-120-49-184-66 17-139 30-187 81 13 51 88 71 137 87 29 7 80 20 99 16zm-804-255c-68 17-39-72 13-49 118-2 237-17 344-68 86-32 168-75 256-103 144-33 294-36 440-16 88 22 181 44 254 101 12 79-83 19-120 8-117-44-242-61-367-54-98 2-197 19-286 60-109 45-218 96-336 108-66 9-132 14-198 13zm1071 750c-49-21-18-100-30-146 5-63-23-119-20-181-4-31 17-119-37-66-157 125-331 231-517 309-127 57-283 79-411 11-77-37-119-134-84-214 24-65 131-74 158-6 29 50-26 122-81 95-65-21 8-127 32-57-16 43-26-39-41 13 26 85 123-37 45-68-64-30-117 47-100 106 13 84 108 119 183 129 150 20 287-61 414-128 102-60 204-126 284-213 10-40-87-21-114-39-89-17-172-56-255-88-71-3-142 8-213 7-104 2-208 11-311 22-15-49 7-79 59-63 119-4 238-12 356-21 68-9 131-35 187-73 142-65 305-104 460-70 57 12 112 38 143 89 44 62 94 118 147 171 18 57-84 19-120 28-81-12-65 78-63 130 51 57 2 116-11 177-26 43-3 134-60 146zm-12-486c58-4 117-7 174-19-33-42-68-85-104-125-25-24-83-68-57-3 11 58-35 122-70 149 19 0 38-1 57-2zm-255-9c-53-43-73-120-49-184-66 16-139 30-187 81 13 52 90 72 140 88 30 7 77 18 96 15zm-804-255c-66 19-41-74 13-49 116-2 235-16 341-67 87-33 170-75 258-103 143-33 292-37 437-18 89 21 182 45 256 100 23 66-61 38-92 19-122-47-254-70-385-63-101 1-203 18-296 60-112 48-225 99-347 110-61 7-123 12-185 11zm1072 750c-51-20-19-100-31-146 4-58-19-112-19-168-7-32 20-134-39-79-155 125-327 229-510 307-127 57-282 81-411 16-69-32-115-109-100-186 5-67 91-111 145-68 49 34 35 127-29 131-69 16-71-116-2-78 16 30-21 38-19 10-57 34 53 81 56 14 18-83-112-91-124-16-18 58 10 124 65 151 116 65 260 43 375-14 157-72 311-161 433-285 24-45-77-26-107-43-91-17-175-57-261-90-75 0-151 9-228 9-98 1-195 11-293 21-13-46 3-80 55-63 118-3 236-12 354-21 68-8 133-32 189-71 141-66 303-105 459-74 63 13 122 43 156 100 40 60 91 112 140 164 16 55-84 16-116 26-83-14-72 76-68 130 52 59-1 120-13 183-24 42-2 128-57 140zm-13-486c58-4 117-7 174-19-35-44-70-90-110-131-26-24-75-57-51 3 11 58-35 122-70 149 19 0 38-1 57-2zm-255-9c-53-43-74-120-49-184-66 16-139 31-187 81 10 45 76 66 118 82 36 10 91 24 118 21zm-810-256c-62 16-30-73 17-48 116-2 234-16 340-66 90-34 177-79 269-106 143-31 292-36 437-14 86 22 177 44 249 99 16 78-79 22-116 10-118-44-244-62-370-55-100 2-200 20-291 62-112 48-226 98-349 108-62 7-124 12-186 10zm1078 751c-52-22-18-107-32-155 5-64-25-121-19-185 0-33 10-101-37-53-156 125-328 229-511 307-126 56-277 80-405 19-81-33-131-130-99-214 21-70 133-82 161-12 39 63-62 143-103 73-39-54 79-83 46-22-17 5-9-39-31-8-3 82 116 8 60-45-49-58-134 11-117 76 0 85 90 128 162 141 133 26 261-33 376-93 123-65 243-140 340-241 20-44-77-25-106-41-91-17-176-57-261-90-72-3-143 8-215 7-103 2-206 12-308 22-15-48 4-79 55-63 117-3 234-12 351-20 70-8 138-34 196-74 142-65 305-104 460-70 57 12 113 38 144 90 43 62 95 118 147 172 16 55-84 16-116 26-83-14-72 76-68 130 53 59-1 120-13 183-24 43-3 128-57 140zm-37-485c66-4 133-7 198-20-37-46-73-95-116-136-22-17-69-52-45 1 23 59-53 137-64 156 9 0 18-1 27-1zm-231-10c-53-43-73-120-49-184-65 16-138 30-186 80 12 54 94 75 146 91 27 6 73 17 89 13zm-810-256c-63 16-29-74 20-48 119-2 239-18 348-70 111-40 215-105 335-117 124-16 253-19 377 4 81 24 167 44 234 98 4 83-92 9-134 2-115-41-237-56-358-49-99 2-197 20-287 62-108 45-216 95-334 106-66 9-134 14-201 12zm1078 751c-53-23-17-110-32-159 5-58-23-111-19-168-4-30 17-117-35-67-156 124-329 229-513 308-129 58-287 82-417 13-82-38-125-151-75-230 36-58 140-47 154 24 23 61-71 122-107 60-40-50 73-88 46-24-19 9-12-42-34-3 13 84 122-14 55-57-58-45-128 30-110 92 7 86 101 124 175 135 147 23 283-53 408-119 106-60 210-129 295-217 25-44-78-25-105-41-89-18-173-53-255-89-66-7-133 8-200 6-111 1-220 10-330 22-13-45 3-80 54-63 117-2 234-12 351-20 71-8 138-34 197-74 145-66 313-106 471-67 56 11 107 42 137 92 42 61 92 114 143 167 15 57-92 14-125 27-82-9-62 91-55 141 49 48-3 101-12 152-19 51-18 109-43 156l-8 3h-11zm-37-485c66-4 134-6 199-20-39-46-74-95-118-137-28-24-65-45-44 9 5 58-24 117-73 149 12 0 24 0 36-1zm-231-10c-53-43-73-120-49-184-65 16-138 30-186 80 12 54 94 75 146 91 27 6 73 17 89 13zm-811-256c-62 13-27-73 21-48 118-2 238-18 345-69 88-33 171-77 261-103 144-31 294-36 439-14 85 22 174 44 246 97 21 75-73 30-108 14-173-66-364-72-544-38-154 41-293 135-455 149-68 9-137 14-205 12zm1079 751c-52-21-18-104-32-152 6-60-22-115-19-175-3-31 16-119-37-66-156 124-328 229-511 307-126 56-277 81-406 19-74-32-122-114-104-194 8-64 88-104 141-64 51 32 41 124-23 132-78 22-67-126-2-73 7 31-24 29-21 5-59 33 51 82 55 14 18-83-111-91-124-17-18 59 10 125 65 153 119 65 265 40 382-18 154-71 304-159 425-280 33-48-76-28-103-44-90-17-175-56-260-90-68-4-137 8-206 7-107 2-213 11-319 22-10-40-3-81 48-63 121-2 242-12 362-21 70-7 135-34 193-73 142-65 305-104 461-70 57 12 112 40 143 91 43 62 94 117 146 171 15 56-83 16-116 27-84-16-72 77-67 131 54 59-5 119-14 182-22 43-6 113-48 139h-9zm-13-486c58-4 118-7 175-19-37-45-72-91-113-133-25-21-74-56-49 3 6 59-24 118-73 151 20 0 40-1 60-2zm-255-9c-53-43-73-120-49-184-65 16-136 30-185 78 4 54 89 76 139 91 30 7 75 18 95 15zm-811-256c-69 7-18-73 30-48 114-2 229-19 332-68 88-32 171-76 260-103 146-32 298-37 446-15 85 24 176 44 247 100 6 82-89 13-129 5-121-44-250-58-377-50-103 1-204 28-297 71-106 46-215 89-331 99-60 6-120 11-181 9zm1079 751c-52-22-19-107-32-156 5-59-23-112-19-171-3-32 16-119-38-65-156 124-329 229-513 307-128 57-284 80-413 13-79-37-122-139-83-219 27-63 130-68 156-2 36 60-53 140-100 78-46-49 70-94 45-28-19 9-14-42-35-3 13 84 120-13 56-56-52-43-124 19-112 78-3 88 90 134 165 146 146 28 283-45 407-111 111-61 219-131 307-223 22-44-77-25-105-41-88-18-173-53-255-89-65-7-130 8-196 6-112 1-224 10-334 22-9-40-4-82 48-63 120-2 239-12 357-20 71-8 139-34 198-74 142-65 305-104 461-70 66 12 122 52 157 109 38 56 86 104 132 153 14 58-91 13-125 27-82-9-61 91-55 141 55 59-19 122-21 186-20 36-2 122-53 125zm-13-486c58-4 118-7 175-19-37-45-73-92-114-133-21-18-73-57-48-1 7 60-23 122-73 155 20 0 40-1 60-2zm-255-9c-63-38-59-137-58-182-61 16-129 30-176 76 4 54 90 76 140 92 29 6 75 18 94 14zm-811-256c-56 17-34-70 13-47 119-2 240-17 349-69 88-32 171-76 261-103 145-32 296-37 443-15 86 23 177 44 248 100 10 80-85 16-124 6-126-46-261-60-394-51-104 2-205 34-300 77-100 45-204 83-315 93-60 6-120 11-181 9zm1080 751c-53-21-19-105-33-153 6-60-22-114-19-174-4-30 17-118-36-67-158 126-332 232-518 310-130 58-291 80-420 6-79-42-116-156-62-230 41-56 144-36 151 36 22 74-107 115-114 31-7-69 100-18 39-2-5-54-43 41 10 31 84-9 26-143-43-97-60 32-56 129-8 171 89 78 222 78 329 44 183-69 356-169 500-302 64-54-53-44-87-56-91-18-177-55-261-91-69-4-137 9-206 7-107 2-215 10-322 23-14-48 3-81 55-64 117-3 234-12 350-20 70-8 137-32 194-72 144-67 310-107 467-71 57 12 111 40 142 91 42 62 93 116 145 170 14 57-90 14-123 27-82-11-62 80-61 131 54 58-2 118-12 180-25 40-4 132-57 141zm-20-486c60-4 122-6 181-19-34-43-69-85-106-126-24-24-83-67-56-3 5 59-24 118-73 150 18 0 36-1 54-2zm-249-9c-53-43-73-120-49-184-65 15-136 31-185 78 5 55 92 76 143 92 27 6 74 18 91 14zm-810-256c-63 14-29-74 20-48 117-2 236-17 343-68 88-33 172-77 261-104 144-31 293-35 439-15 85 22 173 45 246 96 31 57-51 51-80 26-122-48-253-74-384-68-108 1-216 19-315 64-107 47-216 95-333 106-66 8-132 13-197 11zm1079 751c-54-20-18-107-33-154 6-60-23-114-19-173-4-30 17-118-36-67-158 126-332 232-518 310-131 58-292 80-420 6-78-42-116-154-63-229 39-55 140-40 151 30 32 84-125 120-111 24 9-60 93 3 37 10-4-54-43 40 10 31 84-8 26-143-43-97-62 33-55 132-5 175 101 82 249 74 364 26 171-72 335-166 469-295 45-53-73-34-102-51-88-18-171-55-254-89-71-4-142 9-213 7-105 1-211 12-314 21-14-47 4-78 55-62 120-3 241-12 361-22 69-7 132-36 190-74 143-64 308-104 464-66 59 12 112 45 143 97 41 60 91 111 140 163 14 57-90 14-123 27-84-11-64 91-57 142 52 53-12 111-16 169-25 40-4 131-57 141zm-37-485c66-4 133-6 198-20-38-45-73-94-115-134-20-17-71-55-47-3 8 61-22 124-73 158 12 0 25 0 37-1zm-233-10c-53-43-72-120-48-184-65 16-138 31-186 80 9 52 89 72 137 88 27 7 82 21 97 16zm-810-256c-63 13-27-74 22-48 118-2 237-18 344-69 85-32 167-74 254-101 144-33 295-37 441-17 86 21 176 44 249 97 30 57-51 49-80 25-122-48-253-74-384-68-108 1-216 19-315 64-108 48-219 95-339 106-63 8-128 13-192 11zm1080 751c-53-21-19-105-33-153 6-60-23-115-19-174-4-31 17-118-36-67-156 125-329 230-513 308-125 56-274 80-401 21-81-33-133-128-103-212 17-67 119-88 156-27 35 45-4 124-63 110-76-7-16-134 20-63-17 48-21-35-41 11 9 76 108 6 66-43-30-53-115-21-119 35-16 62 22 125 79 149 123 60 267 30 384-30 150-72 299-158 415-279 17-42-79-22-105-39-91-17-176-55-260-90-71-4-142 8-213 7-105 1-211 12-314 21-6-34-8-81 43-62 121-2 243-12 364-20 69-8 135-33 193-72 141-66 302-105 457-73 61 12 119 40 152 95 42 61 93 115 144 168 14 57-90 14-123 27-84-11-64 91-57 142 52 53-12 111-16 169-25 40-4 131-57 141zm-13-486c58-4 117-6 174-19-40-47-75-99-121-140-22-17-63-45-41 3 8 61-22 124-73 158 20 0 41-1 61-2zm-257-9c-53-43-72-120-48-184-63 15-130 30-180 73-18 51 79 77 120 93 31 7 90 23 108 18zm-810-256c-64 10-24-73 24-48 119-2 239-19 347-71 87-32 169-77 258-102 141-30 287-34 430-15 87 22 177 45 251 97 31 58-51 51-80 26-123-48-254-75-386-68-108 1-215 19-313 64-110 48-222 96-343 107-62 7-125 12-188 10zm1070 750c-37-38-12-112-23-163 4-59-25-112-19-170-2-31 14-110-36-59-157 124-329 229-514 307-124 56-273 80-401 20-81-32-132-127-102-211 18-69 126-89 159-22 36 52-25 135-83 97-57-26 14-118 37-55-16 48-21-35-41 11 10 78 110 3 65-46-53-67-143 17-120 85 11 87 110 124 186 132 151 19 287-63 415-130 100-59 200-124 279-210 12-42-85-22-114-40-87-18-170-54-251-88-70-4-140 8-210 7-106 1-213 12-317 21-9-39-5-81 47-62 119-2 237-12 356-20 71-7 138-32 197-72 141-66 302-105 457-73 55 13 112 33 144 84 44 61 91 119 146 171 37 67-95 21-130 35-75 1-49 102-40 148 47 52-19 107-20 163-26 42-3 133-61 141l-6-1zm-4-485c58-4 118-6 174-19-39-47-74-99-121-140-20-16-64-46-41 3 9 61-21 124-72 158 20 0 40-1 60-2zm-256-9c-52-43-72-120-48-184-63 15-130 30-180 73-17 55 88 80 132 96 29 6 79 19 96 15zm-829-256c-41-9 5-70 40-47 117-3 235-18 342-69 86-32 169-75 257-103 144-32 293-36 439-16 87 21 177 44 251 96 33 52-50 55-78 27-122-49-254-75-386-69-105 1-211 17-308 62-111 47-223 98-345 108-70 9-141 13-212 11zm1091 750c-40-40-14-119-26-175 0-61-26-117-18-178 4-34 3-81-36-39-156 124-328 228-511 306-127 58-282 83-411 18-82-36-129-140-89-223 29-66 142-65 160 9 32 69-85 131-110 53-25-52 81-66 49-12-17 5-13-42-33-4 12 79 112-1 63-48-46-57-132 5-119 69-4 82 80 130 150 144 129 31 256-21 369-80 131-68 260-146 362-254 14-41-80-22-107-38-89-18-174-55-258-90-72-4-145 8-218 7-103 2-206 11-309 23-9-39-5-81 45-64 123-2 246-12 368-21 68-8 131-33 187-71 144-67 311-108 469-70 59 12 112 43 143 96 41 60 92 112 142 165 10 55-91 13-124 26-84-10-64 91-56 142 50 50-8 104-14 157-25 47-8 128-55 153l-13-1zm-44-484c71-3 144-5 213-20-42-48-77-102-126-143-26-21-58-38-36 11 9 59-29 122-71 153h7l13-1zm-218-10c-52-43-72-120-48-184-63 15-130 30-180 73-18 51 79 77 120 93 31 8 88 22 108 18zm-828-256c-43-9 5-69 40-48 118-2 237-18 345-70 88-32 172-77 263-103 143-30 293-35 438-13 83 22 170 44 242 95 33 52-50 56-78 27-123-49-254-75-386-69-105 1-211 17-307 61-111 48-224 99-346 109-70 9-141 13-211 11zm1090 750c-39-32-14-105-25-154 5-62-24-118-19-179-2-31 13-110-36-59-155 123-325 226-506 304-125 57-274 83-404 26-71-29-126-103-114-182-1-66 74-119 134-86 54 25 58 117-3 135-80 38-89-122-13-71 8 32-24 31-21 6-59 32 51 81 55 14 18-79-107-92-123-20-21 60 8 128 65 156 118 65 263 41 379-17 155-71 305-159 426-280 34-48-76-29-102-45-90-18-174-55-258-90-70-4-140 8-211 7-105 2-211 10-316 23-8-39-6-84 46-64 122-2 243-12 364-21 69-8 134-33 190-72 143-66 307-105 463-71 53 13 107 34 137 82 46 64 97 123 152 179 20 58-90 15-122 28-84-10-64 91-56 142 51 53-12 109-17 166-26 43-1 142-65 143zm-43-484c71-3 143-5 212-20-39-45-73-95-116-136-28-24-68-48-46 7 5 58-24 117-73 150 8 1 15-2 23-1zm-219-10c-52-43-72-120-48-184-65 16-136 30-185 78 3 55 94 77 143 92 27 7 75 18 90 14zm-828-256c-39-4-2-69 31-47 119-2 239-16 348-68 90-33 176-79 268-106 142-30 291-35 435-13 85 21 173 44 246 95 33 44-43 62-69 30-126-50-262-79-398-72-104 1-208 18-303 61-113 48-227 100-351 110-69 9-138 12-207 10zm1090 750c-40-35-14-110-25-161 4-62-26-118-19-180 1-32 10-99-37-51-155 124-327 228-510 306-126 57-277 82-406 21-72-32-122-111-106-190 4-79 119-118 162-48 43 52-23 144-83 100-65-37 45-118 36-42-21 19-16-42-37 0 24 95 126-38 41-66-67-26-112 56-95 113 18 83 111 115 185 124 150 19 286-62 414-130 100-57 197-123 278-206 25-46-79-26-107-43-88-18-171-52-253-88-65-7-131 8-197 6-111 2-222 9-333 23-10-41-4-84 50-64 119-2 238-12 356-20 69-8 135-32 192-71 144-68 312-109 471-71 58 11 111 43 143 95 41 60 91 113 141 165 10 57-94 13-131 27-79-5-53 94-48 142 50 50-8 103-14 157-29 45-2 149-68 152zm-42-484c70-3 142-6 211-20-41-48-77-103-127-144-23-17-55-37-36 7 9 61-21 125-72 158 8 0 16-1 24-1zm-220-10c-52-43-72-120-48-184-65 16-136 30-185 78 5 55 91 76 141 92 28 6 76 18 92 14zm-828-256c-43-9 5-69 40-48 117-2 235-17 342-68 89-33 173-78 264-105 145-30 296-35 442-12 84 23 173 44 244 98 13 80-83 19-121 8-119-44-247-61-373-53-102 2-203 23-295 66-107 46-215 93-332 103-70 9-141 13-211 11zm1090 750c-39-35-14-110-25-161 4-62-26-118-19-180 2-34 8-100-39-50-158 126-332 232-519 309-129 58-289 79-416 5-79-42-116-156-61-231 41-54 143-36 150 36 23 74-107 117-114 32-6-68 100-17 39-3-3-51-45 38 8 32 94-10 19-153-50-93-55 43-43 138 11 177 110 80 262 65 379 11 164-73 324-164 452-292 29-47-75-28-104-45-88-17-172-52-254-88-68-7-137 8-205 6-109 2-217 10-325 23-10-41-4-84 50-64 119-2 237-12 355-20 69-8 136-31 192-71 143-67 306-107 463-74 61 12 118 43 152 98 41 60 90 113 141 164 13 59-95 15-133 28-77-2-53 100-44 147 48 52-18 108-19 164-26 39-2 146-65 140zm-42-484c70-3 142-6 211-20-38-45-73-94-116-135-27-24-69-50-46 7 5 58-25 117-73 149 8 0 16-1 24-1zm-220-10c-53-43-72-120-48-184-66 17-142 30-189 83 24 54 97 74 153 89 25 5 70 16 84 12zm-828-256c-43-10 6-70 42-48 116-2 233-18 339-68 89-33 173-77 263-104 144-31 294-36 440-14 86 23 178 44 249 100 4 84-94 9-136 2-162-57-338-61-505-32-156 36-294 133-456 150-78 11-157 16-236 14zm1090 750c-40-38-13-118-25-173 0-62-27-119-19-181 9-45-5-76-44-33-152 122-320 222-498 299-116 52-249 79-372 38-79-22-154-93-147-181-9-76 83-142 147-92 47 33 37 123-26 131-75 21-70-125-2-73 7 31-24 28-22 5-57 34 52 80 55 15 18-64-76-96-109-44-40 57-16 143 45 175 118 70 267 46 385-12 155-72 306-160 428-282 32-46-72-28-98-43-90-18-176-53-259-90-68-7-136 8-203 6-110 2-219 10-328 23-9-41-5-84 49-64 118-2 237-12 355-20 70-8 137-31 194-72 144-67 310-107 467-71 60 11 114 43 147 96 41 60 90 113 141 165 16 55-87 16-122 26-84-11-66 91-58 143 52 53-12 110-16 167-26 39-2 147-65 142zm-42-484c70-3 142-6 211-20-44-50-80-108-133-148-23-17-48-30-30 9 24 61-52 142-62 160l14-1zm-220-10c-52-44-72-120-48-184-66 16-139 30-187 81 16 55 98 76 152 91 25 5 69 17 83 12zm-828-256c-43-11 6-69 42-48 116-2 234-17 340-68 86-32 168-75 256-102 145-34 298-38 445-16 86 22 176 44 248 98 13 83-86 17-127 7-116-42-241-58-364-51-100 2-198 21-289 63-109 46-220 96-340 106-70 9-141 13-211 11zm1090 750c-39-35-14-110-25-161 3-62-26-118-19-180 1-32 9-99-37-51-156 124-329 230-514 307-127 58-282 81-411 15-78-37-123-134-87-215 24-67 133-75 159-5 30 54-38 127-90 87-59-32 30-117 39-48-23 38-17-42-40 7 11 76 110 2 65-46-33-52-117-16-119 41-14 63 27 124 85 147 120 57 260 28 375-30 151-72 299-158 417-278 29-45-76-25-99-41-93-17-180-56-266-91-71-4-143 9-214 7-104 2-208 10-311 22-21-58 17-75 68-63 114-4 228-12 342-21 68-7 132-32 188-70 144-68 310-108 469-72 59 12 113 44 145 96 41 60 90 113 141 165 15 55-87 16-122 26-84-11-66 91-58 143 51 52-10 107-15 164-27 40-2 150-66 145zm-29-484c66-4 133-6 198-20-42-49-79-105-130-146-22-16-53-35-33 7 20 62-43 137-64 160 10 0 19-1 29-1zm-233-10c-52-44-72-120-48-184-64 16-135 30-184 77 4 59 99 81 154 96 22 4 67 17 78 11zm-826-256c-45-8 1-69 37-47 116-3 234-17 339-68 87-32 170-75 259-103 145-33 298-38 445-16 87 22 177 44 249 98 17 77-76 25-112 12-132-50-274-66-414-54-97 3-192 31-280 72-102 44-206 86-318 96-68 8-137 12-205 10zm1088 750c-41-41-12-125-26-182-3-62-26-121-18-185 17-90-67 3-98 22-140 104-292 193-453 260-127 58-283 81-412 14-83-38-128-151-77-231 37-58 140-47 154 24 21 57-59 118-102 68-51-44 59-103 44-34-22 18-14-43-37-2 12 85 119-9 58-53-67-55-137 40-111 105 22 84 118 114 196 122 148 13 281-68 407-134 98-58 194-122 273-204 29-46-78-25-101-42-92-17-178-55-264-90-70-4-141 8-212 7-104 2-209 10-313 22-14-45 3-80 55-63 119-3 238-12 357-21 66-8 129-32 184-70 142-67 304-105 459-75 57 14 116 35 148 88 44 63 95 121 150 176 15 55-87 16-122 26-84-11-66 91-58 143 52 52-10 108-15 164-27 43-1 144-66 145zm-40-484c70-3 140-6 208-20-38-47-74-98-119-139-25-21-68-48-42 9 13 59-39 125-68 151h9l12-1zm-222-10c-52-44-72-120-48-184-66 16-138 30-187 80 10 52 90 73 138 89 29 6 79 19 97 15zm-826-256c-45-8 1-69 37-47 117-3 235-18 342-69 88-32 172-77 261-104 145-31 297-36 443-14 85 23 174 44 246 98 16 80-81 22-119 10-169-63-355-69-532-36-153 40-290 133-451 149-75 11-151 15-227 13zm1088 750c-41-40-12-121-26-177 2-56-25-108-18-165 1-33 9-98-38-49-155 123-326 227-509 305-126 57-279 82-408 19-82-34-130-134-95-217 24-69 135-76 160-5 29 53-38 126-90 86-60-32 31-118 39-47-23 35-16-42-40 5 12 81 115-4 61-50-47-54-131 9-117 72-3 86 86 132 160 145 139 29 273-36 392-99 118-63 233-137 327-233 28-45-77-25-101-42-91-17-177-54-261-90-74-4-147 9-221 7-102 2-205 11-307 22-9-39-4-83 48-63 120-2 240-12 360-20 68-8 134-32 190-72 142-66 304-105 459-73 58 12 116 37 148 90 43 61 92 117 145 169 28 59-77 22-110 30-81-16-77 67-72 122 30 48 30 98 0 147-18 57-27 117-44 174-5 13-21 10-32 9zm-40-484c70-4 142-5 209-21-36-43-71-87-108-128-24-22-82-64-54-1 12 59-39 126-68 151h9l12-1zm-222-10c-52-44-72-120-48-184-66 17-140 30-188 82 15 50 87 69 134 85 30 7 83 22 102 17zm-826-256c-45-10 1-67 37-47 116-3 233-17 338-67 87-33 171-76 260-104 145-33 297-38 445-16 85 21 174 44 247 96 29 53-47 52-75 27-130-52-270-78-411-69-98 2-197 19-287 61-109 46-219 96-338 107-72 10-144 14-216 12zm1088 750c-41-39-13-120-26-176-1-65-27-125-18-191 8-38-7-58-38-24-154 123-325 226-507 304-125 57-277 83-406 22-78-32-130-123-104-206 14-70 119-95 158-32 35 44-3 123-62 110-74-5-23-133 19-64-9 32-21 9-25-3-56 41 56 75 57 12 15-69-88-92-116-33-33 62-2 145 62 174 121 63 267 35 384-24 152-72 301-158 420-279 27-46-78-25-105-42-89-18-174-54-257-90-73-3-146 8-219 7-104 2-207 11-309 22-12-43 1-81 53-63 121-3 242-12 363-21 69-8 132-37 189-74 142-65 305-103 460-68 53 12 106 34 136 83 45 62 94 120 149 174 29 53-57 27-84 30-64-14-120 23-98 92-5 58 54 108 5 161-21 62-31 128-49 190-5 14-21 10-32 9zm-40-484c70-4 141-5 209-20-38-46-73-95-116-136-27-23-69-49-46 6 12 59-39 126-68 151h9l12-1zm-222-10c-52-44-72-120-48-184-66 16-140 30-188 82 14 46 77 66 121 82 35 9 92 24 115 20zm-826-256c-45-7 1-69 36-47 117-3 236-17 343-69 86-32 169-74 257-102 145-33 298-38 445-16 85 21 173 44 245 96 30 55-50 52-78 25-132-52-273-77-415-67-96 2-192 21-280 61-113 49-229 99-353 109-67 9-133 11-200 10zm1088 750c-40-39-13-120-26-176-1-65-27-125-18-191 8-38-7-58-38-24-154 123-325 226-506 304-121 54-264 81-391 29-80-27-142-111-123-197 4-68 91-111 144-67 47 33 37 120-24 129-65 22-86-104-11-80 26 25-18 48-14 12-62 39 60 79 56 9 10-74-103-84-122-19-26 65 9 141 73 167 123 60 268 30 385-30 149-72 296-157 413-276 22-45-76-26-104-42-90-18-175-54-258-90-68-5-136 8-204 7-108 2-217 10-324 22-12-43 1-81 52-63 120-3 239-12 358-21 68-7 132-32 188-70 142-67 307-107 463-73 57 12 114 38 145 90 43 62 94 117 146 171 20 50-60 22-86 27-64-14-120 23-98 92-6 57 54 107 5 161-20 61-31 125-48 188-5 15-21 13-33 11zm-39-484c69-4 141-5 208-20-35-43-70-87-108-128-17-16-81-67-55-9 9 61-21 124-72 158 9 1 18-1 27-1zm-223-10c-52-44-72-120-48-184-66 16-140 30-188 82 15 49 86 70 134 85 30 8 83 21 102 17zm-825-256c-48-9 3-70 39-47 114-3 230-18 335-67 85-33 168-73 255-103 145-34 299-39 447-18 85 21 173 44 247 95 36 48-41 60-69 30-127-51-263-78-400-71-102 2-204 17-298 60-110 47-220 98-341 109-71 10-143 14-215 12zm1087 750c-39-36-14-110-25-163 3-61-26-117-19-179 2-34 9-98-38-49-154 122-324 225-504 303-118 53-255 81-380 36-78-25-147-96-139-182-3-59 51-118 112-104 67 7 91 113 26 141-54 34-112-63-45-80 50 8 11 58 0 17-49 51 70 69 61 4 5-57-74-79-107-38-47 57-20 150 44 182 119 68 267 43 384-15 155-73 307-160 428-283 24-45-75-26-103-42-90-17-175-54-259-90-66-5-132 8-198 7-110 2-220 9-330 23 5-18-19-73 18-65 129 2 258-11 386-19 70-7 137-31 195-72 141-66 303-105 459-73 54 13 110 33 141 82 46 64 98 124 153 180 21 50-59 22-86 27-63-14-120 23-98 92-5 57 54 108 5 161-19 61-32 123-46 184-3 17-22 18-35 15zm-28-484c65-4 133-6 197-20-37-44-71-90-111-131-27-25-75-56-51 3 5 58-25 117-73 149 13 1 25-1 38-1zm-234-10c-52-44-72-120-48-184-65 16-138 30-187 80 9 51 88 72 134 88 30 6 83 21 101 16zm-826-256c-46-8 1-69 36-47 116-3 234-17 340-68 88-32 172-76 262-104 145-32 298-37 446-15 83 22 168 44 240 94 37 46-40 62-68 30-129-51-267-78-406-71-103 3-205 19-299 63-106 45-214 94-330 106-73 10-147 13-221 12zm1088 750c-39-36-14-110-25-162 3-62-26-118-19-180 2-36 8-98-39-49-153 123-323 225-503 303-112 50-240 78-360 42-86-20-168-95-159-190-3-61 57-120 119-100 63 12 81 113 19 139-49 31-109-51-53-78 43-26 37 58 18 27-19-43-38 57 14 37 58-11 42-104-13-104-70-6-94 79-74 133 35 84 137 108 219 111 141 2 266-75 387-139 96-57 190-119 267-200 25-44-73-26-98-41-92-17-179-55-264-91-66-5-132 8-198 7-110 2-220 9-330 23-20-56 11-78 62-64 118-4 235-12 353-21 66-8 129-33 184-71 141-66 302-105 458-73 61 12 120 41 153 97 42 60 92 113 142 165 17 56-82 18-115 27-78-13-74 66-69 119 21 47 40 96 2 143-18 59-29 120-45 179-5 14-21 13-33 11zm-37-484c69-4 139-5 206-20-40-46-74-97-119-138-27-23-65-45-43 9 5 59-24 118-73 150 10 1 19-1 29-1zm-225-10c-52-44-72-120-48-184-66 16-141 31-188 82 22 56 100 75 155 91 22 4 70 16 81 11zm-826-256c-44-3-3-72 33-47 115-4 232-15 337-65 87-33 171-75 260-105 144-34 296-38 444-19 87 22 178 45 253 98 29 57-53 50-81 25-134-54-280-77-424-67-98 3-194 26-284 67-103 45-209 90-323 101-71 10-143 13-215 12zm1088 750c-39-36-14-111-25-164 3-61-26-117-19-178 2-35 8-98-38-49-154 123-324 225-504 303-123 55-269 83-397 29-80-29-139-114-119-200 7-71 106-110 154-54 43 42 12 130-52 121-70 1-40-124 14-73 6 32-24 29-21 4-59 31 48 84 54 17 22-83-108-95-123-20-20 61 12 130 70 157 124 65 273 34 392-28 150-71 297-157 413-276 22-43-74-24-99-40-92-17-179-55-264-91-70-4-140 8-210 7-106 2-212 10-318 23-10-40-5-84 47-64 120-2 240-12 360-20 69-8 135-32 192-72 143-67 309-107 466-71 58 12 113 40 144 92 42 61 92 115 143 168 17 56-82 17-115 27-78-14-74 66-69 119 21 47 40 95 2 142-20 61-27 126-49 186-6 10-20 5-29 5zm-37-484c69-4 139-5 206-20-37-44-71-90-111-131-22-19-76-60-52-3 8 60-22 122-72 155 10 1 19-1 29-1zm-225-10c-67-37-52-147-59-182-61 17-131 30-176 78 14 57 100 77 154 93 21 3 73 18 81 11zm-826-256c-44-4-3-69 32-47 118-3 237-17 345-68 89-33 174-78 265-105 145-31 296-36 442-14 84 23 171 44 243 96 28 59-52 48-81 25-137-55-285-78-432-66-97 3-192 28-280 68-105 45-211 90-325 100-69 9-139 13-209 11zm1090 750c-43-34-15-112-27-164 2-65-27-125-19-191 5-37 1-78-38-36-153 122-322 224-502 302-114 51-245 80-368 41-82-22-161-93-153-185-4-62 56-123 119-103 69 13 80 126 8 143-67 26-91-106-14-79 24 25-19 47-15 11-59 31 48 84 54 17 22-83-108-95-123-20-20 61 12 130 70 157 122 63 269 35 386-25 152-72 301-158 419-279 22-44-76-24-102-41-91-17-177-54-262-90-75-3-150 9-225 7-101 3-202 11-302 23-11-42-3-84 50-64 121-2 241-12 361-21 68-8 132-32 188-71 143-67 307-106 464-72 54 13 109 35 139 85 45 63 95 121 150 176 19 56-82 18-115 27-73-13-76 59-69 111 14 51 44 100 2 150-18 59-29 120-45 180-5 14-20 13-31 11zm-38-484c68-4 138-5 205-20-38-45-73-95-116-136-21-17-70-52-47 0 8 61-21 123-72 157 10 1 20-1 30-1zm-225-10c-53-43-73-120-49-184-65 16-138 30-186 80 12 56 99 77 152 92 23 5 75 17 83 12zm-826-256c-45-3-4-69 31-47 119-3 240-17 349-69 88-33 172-78 263-104 143-31 293-36 438-14 84 22 173 44 245 96 28 55-48 53-77 26-129-51-268-77-407-69-101 3-202 21-293 63-109 47-219 96-338 107-70 9-141 13-211 11zm1089 750c-42-33-16-110-27-163 2-66-27-126-19-193 5-35 1-77-38-36-156 125-328 230-512 307-128 58-283 81-412 14-81-36-126-142-83-223 31-64 143-60 158 15 27 64-77 126-108 55-33-55 87-71 43-16-9-6-12-38-29-5 13 85 119-11 57-55-51-46-125 17-113 77-3 86 86 132 159 145 137 29 270-34 388-96 120-65 238-139 333-237 22-43-75-25-99-40-92-17-179-55-264-91-74-4-147 9-220 7-103 2-206 10-308 23-18-53 8-79 59-64 119-3 238-11 356-21 67-8 129-34 185-71 141-67 304-105 459-73 56 13 114 36 145 88 44 62 94 119 148 173 19 57-82 19-115 28-80-14-73 71-69 125 32 47 30 97-1 145-17 56-27 115-42 172-5 13-20 12-31 10zm-38-484c68-4 139-5 205-21-39-44-73-94-116-135-25-21-70-50-46 6 16 59-46 129-65 151h10l12-1zm-223-8c-64-39-63-138-58-185-63 17-134 30-180 79 10 51 88 72 135 88 31 7 80 19 103 18zm-828-258c-46-5-1-70 35-47 117-3 236-17 343-69 86-32 168-74 256-102 145-33 296-38 443-17 88 23 181 45 253 101 5 83-92 10-134 3-166-60-347-62-519-31-153 40-290 133-449 148-76 12-152 16-228 14zm1088 750c-43-33-13-114-26-166 4-56-25-108-19-164 2-40 11-115-43-57-151 120-319 220-495 298-116 51-249 80-372 40-80-22-157-91-151-180-6-64 54-128 119-107 65 13 81 118 14 141-70 38-100-105-20-77 24 25-19 46-15 11-59 34 49 83 54 17 20-70-86-98-115-37-33 61-3 143 60 173 117 62 260 39 374-18 156-72 308-160 430-282 32-47-72-28-98-43-91-17-177-55-263-91-73-3-146 8-219 7-103 2-206 10-308 23-7-36-9-83 42-64 122-1 242-12 363-20 69-7 134-31 191-70 139-67 301-105 455-77 58 14 119 34 151 88 45 62 94 121 149 174 22 60-90 18-122 30-83-9-65 92-55 144 50 49-10 103-15 156-27 41-2 152-66 151zm-37-484c68-4 139-5 205-21-39-44-73-94-116-135-21-17-70-51-47 0 18 61-44 134-64 157h10l11-1h1zm-226-11c-53-43-71-119-48-183-65 16-139 30-187 80 10 52 89 73 138 89 29 7 86 20 97 14zm-825-255c-46-6-1-70 35-47 117-3 235-17 342-68 89-33 173-77 263-105 146-31 299-36 446-13 83 23 170 44 240 96 27 58-54 46-83 23-129-52-268-75-407-66-98 3-195 20-284 61-110 47-221 97-342 108-69 9-140 13-210 11zm1088 750c-42-34-13-114-26-166 4-57-25-108-19-165 2-39 11-114-43-57-151 121-319 221-496 299-113 50-243 80-365 42-84-21-165-93-157-187-3-62 56-122 119-102 65 13 81 118 15 140-64 36-105-92-26-79 32 19-13 55-10 14-62 45 65 76 56 5 4-82-123-72-127 2-18 66 26 131 87 154 122 55 262 24 377-34 149-71 293-157 410-274 33-47-71-28-98-43-91-18-177-55-262-91-72-4-144 8-216 7-104 2-208 10-312 23-10-40-5-84 49-64 119-2 237-12 356-20 68-7 133-30 189-69 137-67 295-104 448-80 59 14 123 32 157 86 46 63 96 123 152 178 26 57-80 20-111 29-87-17-78 79-70 136 56 56-8 116-14 177-25 39-2 142-63 139zm-36-484c67-3 135-7 202-19-30-44-73-95-114-137-19-15-71-54-47-2 20 61-44 136-64 159h11l12-1zm-227-11c-53-43-71-119-48-183-65 16-139 30-187 80 12 54 94 75 145 91 24 4 86 21 90 12zm-825-255c-45-4-3-70 33-47 119-3 239-18 347-70 89-32 173-77 263-104 143-30 292-35 436-13 85 21 173 44 245 95 34 51-47 56-74 27-133-53-278-78-421-68-99 2-196 23-286 65-106 45-213 93-330 103-70 9-142 14-213 12zm1089 750c-43-36-15-117-27-172 3-55-25-104-19-159 1-39 11-114-43-57-151 121-318 221-494 298-116 52-250 82-374 41-81-23-158-94-150-185-3-62 56-122 119-102 65 12 81 118 15 140-64 36-105-92-26-79 33 19-13 55-10 14-60 35 51 81 55 15 18-78-106-94-122-21-23 61 8 133 68 160 119 62 262 37 378-21 154-72 305-159 425-281 30-45-70-27-95-42-90-17-177-51-260-90-64-8-128 8-193 5-114 2-228 9-341 24-16-51 6-79 58-64 116-2 231-12 347-20 68-8 133-30 189-69 137-67 295-104 448-80 59 14 123 32 157 86 46 64 96 123 152 178 26 56-79 21-109 29-75-16-84 57-74 113 17 50 43 99 2 148-17 58-30 117-43 176-3 17-20 18-33 15zm-37-484c68-4 138-5 204-21-42-47-76-101-125-142-27-21-57-36-37 11 17 59-47 132-64 153h10l12-1zm-227-11c-53-43-71-119-48-183-66 16-140 30-188 81 15 52 89 72 140 88 28 7 85 20 96 14zm-824-255c-49-8 1-69 38-47 116-3 233-18 339-69 85-32 167-73 254-102 146-33 299-38 447-16 85 21 173 44 245 95 34 52-48 56-75 27-134-54-278-78-422-68-98 2-194 24-283 64-110 48-222 96-343 106-66 8-133 12-200 10zm1087 750c-42-34-13-114-26-166 4-57-25-108-19-165-1-34 14-114-38-60-157 124-329 229-514 307-127 57-282 80-410 14-80-37-125-140-84-221 28-62 132-66 156 1 31 56-44 131-94 83-57-39 50-111 40-38-24 22-10-43-36-2 1 78 111 10 65-42-38-59-129-9-122 54-11 81 66 136 137 152 125 35 253-10 364-68 138-69 273-150 380-262 13-43-83-23-112-41-89-17-172-55-256-88-69-3-138 8-208 7-105 2-211 10-316 23-7-38-8-83 45-64 121-1 241-12 362-20 70-7 137-34 195-73 142-65 304-105 460-71 57 13 114 39 145 91 43 61 91 116 144 168 26 56-79 21-109 29-77-16-83 60-74 117 21 48 38 97 2 146-18 57-30 116-43 174-3 17-20 18-34 15zm-36-484c68-4 138-5 204-21-42-47-77-101-125-142-19-13-59-42-38 3 22 62-46 139-63 161h11l11-1zm-227-11c-53-43-71-119-48-183-66 16-140 30-188 81 19 58 104 77 159 93 18 2 79 19 77 9zm-824-255c-49-7 1-68 37-47 115-3 232-17 337-67 87-33 171-76 259-104 146-33 298-38 445-16 85 21 173 44 245 95 33 52-46 54-75 27-128-51-267-77-405-69-99 3-198 19-289 61-111 47-223 98-345 109-69 9-139 12-209 11zm1086 750c-40-35-13-113-25-165 4-57-25-109-19-167 2-39 10-113-43-56-152 122-321 223-499 300-125 56-275 84-404 26-78-31-133-117-111-201 10-67 101-103 150-53 56 46 2 155-68 116-62-23 13-122 35-54-20 45-20-39-41 10 9 75 110 3 66-46-33-52-116-17-120 39-17 67 31 132 94 154 119 50 254 21 366-35 152-72 301-159 418-280 16-43-77-25-108-41-90-17-174-55-258-89-70-4-140 8-210 7-105 2-210 10-315 23-11-43 0-82 51-64 120-2 239-12 358-21 69-7 135-33 192-72 143-66 309-106 466-69 59 12 113 42 144 95 41 59 90 111 140 162 22 61-93 17-126 30-78-7-57 82-56 131 49 51 7 106-8 160-20 52-16 114-46 160l-10 1-13-1zm-35-484c68-4 138-5 204-20-41-47-76-100-123-141-29-24-59-37-39 13 17 58-49 128-64 149h10l12-1zm-227-11c-53-43-71-119-48-183-66 16-141 30-188 82 18 51 89 71 139 87 24 5 92 23 97 14zm-824-255c-48-4-2-70 35-47 117-3 236-18 343-69 89-33 173-77 263-104 145-31 295-36 441-13 85 22 175 44 246 98 11 84-92 12-132 4-168-60-352-63-527-30-148 42-282 130-438 147-76 11-154 16-231 14zm1086 750c-40-39-14-118-25-174 2-58-27-111-19-170 2-34 8-95-37-48-157 125-330 230-515 308-131 59-294 82-423 6-78-43-115-154-61-229 41-55 144-36 151 36 21 72-102 115-114 34-10-69 100-23 39-6-4-52-44 40 9 32 70-2 48-117-17-105-74 8-85 106-52 157 61 81 174 95 268 85 124-19 234-85 342-145 90-54 178-114 251-190 28-46-75-27-101-43-90-17-176-53-259-90-74-4-147 9-221 7-103 2-206 10-308 23-11-42 0-82 51-64 118-2 236-12 354-20 70-7 138-33 196-73 141-66 304-104 459-71 58 12 116 38 147 92 43 61 93 116 145 169 17 56-85 17-118 27-79-12-70 72-66 125 47 57 10 115-8 175-25 47-8 126-55 153l-13-1zm-35-484c68-4 138-5 204-20-44-51-81-110-136-150-61-49-6 57-35 88 8 35-106 100-33 82zm-227-11c-53-43-71-119-48-183-65 15-136 30-185 77 1 56 96 78 145 94 21 4 87 22 88 12zm-824-255c-45 0-7-70 29-47 120-2 242-18 351-70 88-32 172-77 262-103 145-31 297-36 443-13 84 23 173 44 243 98 12 82-86 17-125 7-166-61-348-66-521-35-155 38-292 133-453 149-76 11-152 16-229 14zm1086 750c-39-38-14-115-25-169 2-61-26-116-19-176 2-34 7-94-37-47-156 124-328 229-512 307-128 57-285 82-414 14-81-38-125-143-81-224 33-67 151-55 159 24 22 75-110 115-113 28-3-65 98-14 38 0 0-51-47 37 7 32 81-1 41-134-30-102-68 24-69 124-24 170 77 78 200 83 301 60 128-37 245-103 357-174 70-48 144-97 198-164-24-34-104-20-149-40-78-18-150-53-224-81-72-3-144 8-216 7-103 2-205 10-308 23-12-44 0-83 53-64 120-3 240-11 359-21 68-8 132-33 188-71 141-66 303-105 458-73 62 12 121 42 154 98 41 60 90 112 140 164 20 55-80 18-111 27-76-15-82 60-73 116 19 49 40 98 2 146-17 58-30 117-43 176-4 16-22 17-35 14zm-35-484c68-4 138-5 204-20-43-50-79-107-131-147-30-23-46-23-31 17 16 59-48 130-64 151h10l12-1zm-227-11c-53-43-71-119-48-183-65 16-138 30-186 80 5 49 85 71 130 87 29 7 92 22 104 16zm-824-255c-48-4-2-70 35-47 119-3 239-19 347-71 88-32 172-77 263-103 143-30 293-35 438-12 84 22 174 44 245 98 12 82-88 15-128 6-170-62-358-66-534-31-149 43-283 130-439 146-75 11-151 16-227 14zm1086 750c-41-44-13-129-26-190-6-60-25-117-18-179 16-86-65 2-94 20-141 106-295 196-458 265-131 58-292 82-422 7-81-43-119-164-56-236 44-49 139-26 145 43 16 58-72 110-107 54-45-56 81-85 41-24-12-3-12-40-30-5 13 83 116-8 59-53-53-51-131 19-115 82 3 89 99 131 176 141 147 23 283-53 408-119 106-60 210-128 295-217 21-45-79-25-108-42-88-18-171-53-253-89-75-4-149 8-224 7-102 2-204 10-305 23-8-38-5-83 46-64 121-2 242-12 363-20 68-8 133-33 189-71 144-68 311-108 468-72 60 12 115 44 147 98 40 59 89 111 139 162 18 57-86 16-119 27-86-12-71 92-59 145 52 57-20 117-21 179-22 36-1 137-61 128zm-43-483c70-4 143-6 212-21-41-48-77-102-125-143-21-15-60-41-38 5 22 61-49 139-63 159h14zm-219-12c-58-40-64-130-53-182-64 16-134 30-182 79 9 53 94 75 143 90 23 5 88 22 92 13zm-823-255c-49-5-3-70 34-47 118-3 236-18 343-69 89-33 173-77 263-104 143-31 293-35 437-14 86 23 178 44 250 99 11 83-91 13-131 5-169-61-354-64-528-30-150 42-285 130-442 146-75 11-151 16-226 14zm1085 750c-41-44-13-129-26-189-6-61-25-118-18-180 16-85-64 1-93 20-140 105-294 195-456 264-127 57-280 81-409 17-83-36-131-144-87-226 32-65 144-59 159 16 20 57-59 118-102 67-49-44 59-101 43-33-21 16-13-43-36-1 12 84 121-12 56-56-57-47-126 25-112 86 4 87 97 129 171 139 153 27 293-54 422-123 103-59 204-126 286-212 18-46-83-26-115-44-87-17-168-54-249-87-72-3-144 8-216 7-104 2-207 10-310 23-9-39-5-83 46-64 120-1 239-12 358-20 70-7 138-32 196-72 142-67 306-106 462-72 57 13 113 38 144 91 43 59 90 115 143 165 31 62-86 22-120 32-83-9-66 93-55 145 53 60-24 125-24 191-20 34 0 125-58 116zm-43-483c70-4 143-6 212-21-41-48-77-102-125-143-21-16-60-41-38 6 8 61-21 124-72 158 7 1 15-1 23 0zm-219-12c-63-38-57-138-57-182-63 18-138 30-181 85 28 47 88 67 140 82 24 5 93 25 98 15zm-823-255c-48-2-5-69 32-47 116-3 235-17 341-67 87-33 171-75 260-104 144-33 295-37 442-17 87 22 179 45 252 100 12 81-85 18-123 7-169-62-354-66-529-34-151 40-286 131-444 148-76 11-154 16-231 14zm1089 751c-47-23-15-102-28-147 5-59-21-114-19-172-4-34 17-131-41-72-154 123-325 226-506 304-127 57-280 82-409 19-79-34-128-128-98-210 19-70 130-87 161-18 29 48-20 121-76 99-57-13-22-116 26-69 5 33-21 24-24 5-55 40 60 78 58 10 11-98-141-73-129 14-11 80 64 136 133 152 122 35 248-5 356-61 141-70 280-152 390-266 22-44-78-25-105-41-90-18-174-55-258-90-73-4-145 8-218 7-103 2-206 10-309 23-11-43-1-82 51-64 118-2 237-12 355-20 69-8 136-32 193-72 142-66 305-105 462-72 61 12 119 43 151 98 41 61 93 113 142 166 6 55-96 11-133 25-76-3-55 93-48 142 54 57-17 118-20 181-22 36-2 129-57 129zm-47-484c70-4 142-6 211-20-30-43-68-85-103-126-27-26-84-67-58-1 5 58-26 114-73 148 8-1 16-1 23-1zm-219-12c-53-44-71-120-48-183-66 16-138 30-187 80 0 45 76 66 116 82 32 10 107 29 119 21zm-823-255c-47-1-6-70 31-47 116-3 234-16 340-67 89-33 173-76 263-105 148-32 303-37 452-13 83 22 169 44 238 95 25 64-58 41-88 21-130-52-271-74-411-64-97 3-194 23-283 64-108 47-218 95-336 105-69 9-138 13-206 11zm1089 751c-49-31-14-120-29-174 3-53-24-101-18-154-4-30 15-115-36-67-159 127-334 234-522 312-130 58-290 79-418 4-81-43-118-165-54-237 44-46 137-24 144 44 14 53-57 105-99 64-57-40 51-109 40-38-22 21-11-43-36-2 4 81 115 5 62-46-45-57-131 4-119 68-5 85 83 134 157 147 136 30 268-32 385-94 122-64 241-139 337-239 22-44-76-25-103-41-91-17-176-55-260-90-70-4-140 8-210 7-106 2-212 9-317 23-11-43-1-82 51-64 120-2 240-12 359-21 66-7 129-30 183-67 139-68 300-106 454-79 56 13 117 30 150 81 46 63 95 124 151 178 33 62-85 22-119 32-79-9-63 81-60 133 54 56-2 116-12 177-25 40-3 139-61 143zm-47-484c70-4 141-7 210-20-31-45-73-94-113-136-23-19-72-54-48 3 8 60-23 119-72 154 8-1 15-1 23-1zm-219-12c-53-43-71-120-48-183-65 15-137 31-186 79-3 43 71 65 107 81 35 10 112 32 127 23zm-823-255c-50-5-1-69 36-47 117-3 236-19 343-70 85-32 167-74 254-101 145-33 297-38 444-16 87 23 178 44 250 99 14 78-83 20-119 9-170-64-356-69-533-36-153 40-290 133-450 148-74 11-150 16-225 14zm1089 751c-47-28-16-110-29-160 5-58-23-111-18-169-4-30 16-117-37-65-156 125-329 230-514 308-128 58-284 82-414 14-85-39-129-159-71-237 41-54 143-35 150 37 14 53-57 105-99 64-51-34 36-110 43-43-20 33-20-42-40 7 31 93 124-44 40-69-75-25-114 70-91 128 34 85 136 110 219 113 141 3 267-74 388-139 96-56 190-120 267-201 21-44-75-26-105-41-89-18-174-54-257-90-71-4-141 8-212 7-105 2-211 9-316 23-8-38-6-83 46-64 119-1 239-12 358-20 68-7 134-29 190-69 140-67 302-107 458-77 57 13 118 34 150 87 44 61 92 119 146 171 33 62-86 22-120 32-78-8-62 82-59 133 47 50 9 105-8 159-20 51-15 115-46 160l-10 1h-9zm-47-484c70-4 142-6 211-20-33-45-71-90-109-131-24-22-77-61-53-2 7 60-23 119-72 154 8-1 15-1 23-1zm-219-12c-53-44-71-120-48-183-65 16-138 30-187 80 2 48 85 70 126 86 30 7 101 26 109 17zm-822-255c-48 0-8-69 29-47 118-2 237-17 344-68 87-32 170-75 258-103 147-33 301-38 450-15 83 22 170 44 241 95 31 55-51 50-80 25-134-54-278-77-422-67-98 3-195 25-284 66-107 46-215 93-331 103-68 8-137 13-205 11zm1088 751c-48-28-16-110-29-161 5-58-24-111-18-170-4-30 15-114-37-63-156 125-329 229-513 308-129 58-287 82-416 13-82-39-124-148-76-227 38-69 160-44 156 39 10 63-93 98-112 31-25-50 78-67 51-13-21 12-8-41-33-8-3 83 115 11 62-43-39-51-121-7-119 51-14 70 43 129 105 149 120 46 252 14 363-42 149-72 296-157 412-277 14-44-84-24-114-42-87-17-169-54-250-88-75-3-151 8-227 7-100 3-201 10-301 23-19-57 13-76 65-64 116-3 231-12 346-21 69-7 134-34 191-72 142-65 305-105 460-71 55 13 111 36 142 88 43 61 93 117 145 170 28 57-77 22-109 30-84-16-78 76-71 133 52 56-1 115-12 176-26 43-2 135-61 144zm-47-484c71-4 142-6 211-20-33-45-71-90-109-132-24-21-77-60-52-1 15 60-45 130-66 153h16zm-219-12c-54-43-69-123-50-183-64 16-137 30-184 80-2 44 73 65 111 81 35 12 107 28 123 22zm-822-255c-50-3-4-69 33-47 117-3 236-18 343-69 88-32 172-77 262-104 143-31 292-36 436-14 86 21 175 44 248 96 31 55-51 50-80 25-136-55-283-78-428-66-101 2-198 28-289 70-103 45-209 88-322 98-68 8-136 13-203 11z"/></svg>