<svg viewBox="0 0 1000 1002.5846" xmlns="http://www.w3.org/2000/svg"><path d="M315 46.27c-66 0-120 7-174 17-33-13-65-22-80 3s-1 49 24 73c-52 206-39 494-12 682-20 20-33 41-20 61 17 26 48 21 83 8 93 16 196 19 301 15 25-93 72-186 116-255 32-44 62-87 98-121-24-149-58-290-110-404 15-19 22-38 10-58-13-22-40-17-69-7-57-10-113-14-167-14zm-32 138c32 36 52 72 59 102l-27 59-49-46c-4-30 1-70 17-115zm116 79c5 33 5 62 2 87l-54 74-12-57 36-78c8-9 18-17 28-26zm-164 48l74 65 12 56-78-46c-13-23-40-70-39-85 30 9 26 8 31 10zm205 62c2 44-4 80-16 105l-58 43-12-61 49-66c11-7 23-14 37-21zm-219 45c9 0 19 1 27 3l80 47 12 59-61-15c-22-18-42-49-58-94zm242 79c-13 76-44 118-76 127l-15-73 59-44a405 405 0 0 1 32-10zm198 71c7-2 16-4 25-4 20 0 37 7 37 16 0 8-17 15-37 15-19 0-35-6-37-14-22 25-45 55-66 88-9 13-17 26-25 40 18 1 32 7 32 15s-17 15-37 15a85 85 0 0 1-12 0c-30 55-53 110-64 152 31 8 62 14 94 18v1c0 8 17 15 37 15 7 0 15-1 21-3a7 7 0 0 0-1 2c0 9 17 16 37 16 21 0 37-7 37-16 0-1 0-3-1-4a1158 1158 0 0 0 77-1 7 7 0 0 0 0 3c0 8 16 15 37 15 20 0 37-7 37-15 0-3-2-6-5-8a1142 1142 0 0 0 44-6c7 5 19 8 32 8 21 0 37-7 37-15 0-3-2-6-5-8 0-22-6-53-19-87-14-35-33-73-55-110a83 83 0 0 1-13 1c-20 0-37-7-37-16 0-7 14-14 32-15-26-41-55-78-79-104-14-14-26-25-36-32-9-7-17-8-32-3s-38 24-55 41zm-386-29l71 17 14 72c-31 1-73-26-113-84 10-2 19-4 28-5zm119 109c5 35 12 70 21 103l-26 7c-9-34-17-69-22-105zm256 141c20 0 37 7 37 16 0 8-17 15-37 15a87 87 0 0 1-6 0c2 2 3 4 3 7 0 8-16 15-37 15-20 0-37-7-37-15s17-16 37-16c3 0 5 0 7 1-2-3-4-5-4-7 0-9 17-16 37-16zm183 30c20 0 36 7 36 16s-16 16-36 16c-21 0-37-7-37-16s16-16 37-16zm-408 107c-21 0-37 7-37 16 0 8 16 15 37 15a86 86 0 0 0 8 0c3 7 18 13 36 13 21 0 37-7 37-16 0-8-16-15-37-15h-8c-3-7-18-13-36-13z"/></svg>