<svg viewBox="0 0 1000 1002.5846" xmlns="http://www.w3.org/2000/svg"><path d="M266 49.27c-32 0-61 7-81 16-19 10-27 21-27 29 0 7 8 18 27 28 20 10 49 17 81 17s61-7 80-17c20-10 27-21 27-28 0-8-7-19-27-29-19-9-48-16-80-16zm312 62c-32 0-61 7-80 17-20 9-27 20-27 28s7 19 27 29c19 9 48 16 80 16 9 0 18 0 26-1 8-11 21-20 34-27 14-7 30-12 48-15v-2c0-8-8-19-27-28-20-10-49-17-81-17zm-420 36v9c0 5 3 11 11 18s22 14 39 19c35 11 80 11 115 0 18-5 31-12 39-19 9-7 11-13 11-18v-9c-3 3-7 5-11 7-26 13-59 20-96 20s-71-7-97-20c-3-2-7-4-11-7zm576 41c-32 0-61 7-80 17-20 9-27 20-27 28s7 19 27 28c19 10 48 17 80 17 33 0 62-7 81-17 19-9 27-20 27-28s-8-19-27-28c-19-10-48-17-81-17zm-263 22v4c5 2 11 5 16 7 18 9 33 21 41 37 19 5 42 6 64 5v-27h-14c-37 0-70-7-96-20-4-2-8-4-11-6zm-313 0v9c0 5 3 11 11 18s22 14 39 19c13 4 28 6 43 7 4-10 11-19 20-27-25 1-50-2-73-9-15-4-28-10-40-17zm233 26c-32 0-61 7-81 17-19 9-27 20-27 28s8 19 27 29c20 9 49 16 81 16s61-7 80-16c20-10 27-21 27-29s-7-19-27-28c-19-10-48-17-80-17zm-233 36v9c0 5 3 11 11 18s22 14 39 19c12 4 26 6 40 7v-27c-17-1-34-4-50-8-15-5-28-10-40-18zm469 15v9c0 4 3 10 11 17 8 8 21 15 39 20 35 10 80 10 115 0 18-5 31-12 39-20 8-7 11-13 11-17v-9c-4 2-7 4-11 6-26 13-60 20-97 20s-70-7-96-20c-4-2-7-4-11-6zm-94 8v27c19 3 39 5 59 4v-28c-20 2-40 0-59-3zm-250 40v9c0 5 3 11 11 18s22 14 39 19c35 10 80 10 115 0 18-5 31-12 39-19 9-7 11-13 11-18v-9c-3 2-7 4-11 6-26 13-59 20-96 20s-71-7-97-20c-3-2-7-4-11-6zm-125 0v9c0 5 3 11 11 18s22 14 39 19c12 4 26 6 40 7v-27c-17-1-34-4-50-9-15-4-28-10-40-17zm469 14v9c0 5 3 11 11 18s21 14 39 19c35 10 80 10 115 0 18-5 31-12 39-19s11-13 11-18v-9c-12 7-25 13-40 18-43 12-93 12-135 0-15-5-29-11-40-18zm-94 8v27c19 4 39 5 59 4v-27c-20 1-40 0-59-4zm-375 40v9c0 5 3 11 11 18s22 14 39 19c12 4 26 6 40 7v-27c-17-1-34-4-50-8-15-5-28-10-40-18zm125 0v9c0 5 3 11 11 18s22 14 39 19c35 11 80 11 115 0 18-5 31-12 39-19 9-7 11-13 11-18v-9c-11 8-25 13-40 18-42 12-92 12-135 0-15-5-28-10-40-18zm344 15v9c0 4 3 10 11 17 8 8 21 15 39 20 35 10 80 10 115 0 18-5 31-12 39-20 8-7 11-13 11-17v-9c-12 7-25 13-40 17-43 12-93 12-135 0-15-4-29-10-40-17zm-94 8v27c19 3 39 5 59 4v-28c-20 2-40 0-59-3zm-250 40v4c6 2 11 5 16 7 18 9 33 21 41 37 34 8 76 7 108-2 18-5 31-12 39-19 9-7 11-13 11-18v-9c-11 7-25 13-40 17-42 12-92 12-135 0-15-4-28-10-40-17zm344 14v9c0 5 3 11 11 18s21 14 39 19c35 10 80 10 115 0 18-5 31-12 39-19s11-13 11-18v-9c-12 7-25 13-40 18-43 12-93 12-135 0-15-5-29-11-40-18zm-94 8v27c19 4 39 5 59 4v-27c-20 1-40 0-59-4zm-330 4c-32 0-61 7-80 17-20 9-27 20-27 28s7 19 27 29c19 9 48 16 80 16s61-7 81-16c19-10 27-21 27-29s-8-19-27-28c-20-10-49-17-81-17zm295 36c-11 8-25 13-40 18-35 10-75 12-112 5v27c33 6 71 5 102-4 18-5 31-12 39-19 9-7 11-13 11-18v-9zm129 15v9c0 4 3 10 11 17s20 14 37 19c7-6 16-12 26-17 2-1 4-2 7-3-14-2-28-4-41-8-15-4-29-10-40-17zm215 0l-18 9c6 1 12 2 17 3 1-1 1-2 1-3v-9zm-309 8v27c14 2 29 4 45 4h14v-28c-20 2-40 0-59-3zm264 35c-32 0-61 7-81 16-19 10-26 21-26 29s7 19 26 28c20 10 49 17 81 17s61-7 80-17c20-9 27-20 27-28s-7-19-27-29c-19-9-48-16-80-16zm-701 5v9c0 5 2 11 10 18 9 7 22 14 40 19 35 10 80 10 115 0 17-5 31-12 39-19s11-13 11-18v-9l-12 6c-25 13-59 20-96 20s-70-7-96-20c-4-2-8-4-11-6zm402 0c-11 7-25 13-40 17-35 10-75 12-112 5v27c33 7 71 6 102-3 18-5 31-12 39-19 9-7 11-13 11-18v-9zm129 14v9c0 8 7 19 27 28v1-25c-10-3-19-8-27-13zm-531 48v9c0 5 2 11 10 18 9 7 22 14 40 19 35 11 80 11 115 0 17-5 31-12 39-19s11-13 11-18v-9c-12 8-25 13-40 18-43 12-93 12-135 0-15-5-29-10-40-18zm250 23v27c9 2 20 3 30 4 4-11 11-20 20-27-17 0-34-1-50-4zm170 4c-32 0-61 7-81 16-19 10-27 21-27 29 0 7 8 18 27 28 20 10 49 17 81 17s61-7 80-17c20-10 27-21 27-28 0-8-7-19-27-29-19-9-48-16-80-16zm174 5v8c0 5 2 11 10 18s22 15 39 20c35 10 81 10 116 0 17-5 30-13 39-20 8-7 10-13 10-18v-8c-3 2-7 4-11 6-26 13-59 20-96 20s-71-7-96-20c-4-2-8-4-11-6zm-594 31v9c0 5 2 11 10 18 9 7 22 14 40 19 35 10 80 10 115 0 17-5 31-12 39-19s11-13 11-18v-9c-12 7-25 13-40 17-43 12-93 12-135 0-15-4-29-10-40-17zm594 31v9c0 5 2 11 10 18s22 14 39 19c35 10 81 10 116 0 17-5 30-12 39-19 8-7 10-13 10-18v-9c-11 7-24 13-40 17-42 13-92 13-134 0-16-4-29-10-40-17zm-282 31v9c0 5 3 11 11 18s22 14 39 19c35 11 80 11 115 0 18-5 31-12 39-19 9-7 11-13 11-18v-9c-3 3-7 5-11 7-26 13-59 20-96 20s-71-7-97-20c-3-2-7-4-11-7zm-312 0v9c0 5 2 11 10 18 9 7 22 14 40 19 35 11 80 11 115 0 17-5 31-12 39-19s11-13 11-18v-9c-12 8-25 13-40 18-43 12-93 12-135 0-15-5-29-10-40-18zm594 32v8c0 5 2 11 10 18s22 15 39 20c35 10 81 10 116 0 17-5 30-13 39-20 8-7 10-13 10-18v-8c-11 7-24 13-40 17-42 12-92 12-134 0-16-4-29-10-40-17zm-594 31v9c0 5 2 11 10 18 9 7 22 14 40 19 35 10 80 10 115 0 17-5 31-12 39-19s11-13 11-18v-9c-12 7-25 13-40 17-43 13-93 13-135 0-15-4-29-10-40-17zm312 0v9c0 8 8 19 27 28 20 10 49 17 81 17s61-7 80-17c20-9 27-20 27-28v-9c-11 7-25 13-40 17-42 13-92 13-135 0-15-4-28-10-40-17zm282 31v9c0 8 7 19 26 29 20 9 49 16 81 16s61-7 80-16c20-10 27-21 27-29v-9c-11 7-24 13-40 18-42 12-92 12-134 0-16-5-29-11-40-18zm-594 31v9c0 8 7 19 27 29 19 9 48 16 80 16s61-7 81-16c19-10 27-21 27-29v-9c-12 8-25 13-40 18-43 12-93 12-135 0-15-5-29-10-40-18z"/></svg>