<svg viewBox="0 0 775 1002.5846" xmlns="http://www.w3.org/2000/svg"><path d="M657 995.27c-27-9-43-17-81-40-8-5-23-14-33-20-17-10-72-46-105-69-22-16-62-42-71-47-15-9-15-8-10-21 9-24 11-46 7-66-6-25-17-51-23-53-1 0-4 4-6 10-27 60-46 87-76 107-16 11-28 15-44 15s-40-8-40-13c0-2 6-9 14-17 14-14 23-26 28-36 6-10 10-30 11-44 0-13-1-17-5-17-1 0-3-3-4-7-5-19-21-67-28-80-4-9-7-16-6-17 0 0 3-1 6-1 4 0 7-1 7-2 1-1-1-8-2-14-2-6-4-15-5-19-2-15-2-16-5-14-2 2-7 2-17 2-9-1-17-1-18 0-3 2-10 9-25 26-26 28-51 75-57 102-1 8-3 16-4 16-3 3-8-4-20-27-16-33-24-53-27-74l-2-12 12-11c6-7 12-13 12-14s-3-1-7 0c-4 0-10 1-13 2-3 0-6 0-6-1-2-3-8-33-9-44 0-4-2-17-3-27-1-11-2-32-2-48 0-33 0-31 19-41 13-7 15-10 6-10-2-1-8-1-12-2-7-1-8-2-8-7-1-9 17-81 23-87 1-1 2-4 3-6 3-12 24-51 34-65 3-5 9-13 12-17 21-30 64-75 94-98 19-15 23-18 39-27 8-4 16-9 18-10 3-2 8-1 8 3 0 1 2 7 4 11 4 9 10 23 13 31 1 3 2 4 3 3s1-11-1-29c-1-15-2-28-1-29 4-6 49-21 88-28 29-6 41-8 54-8 7-1 19-2 26-3 9-1 19-1 28-1 8 1 19 2 24 2 21 2 32 3 44 5l13 2v6c0 3-3 14-7 25-3 11-5 20-5 20 1 1 3-1 4-3 2-2 5-6 8-8 2-3 5-7 8-11 2-3 5-7 6-8 2-1 5-5 8-9l5-6 19 3c65 13 138 45 181 80 15 12 17 15 17 17s-10 8-29 17c-33 16-57 30-81 47-9 7-19 14-22 16-7 4-33 25-40 32-3 3-9 8-14 12-10 9-7 9-39-2-9-3-22-7-28-9-5-1-12-3-16-4-10-3-22-5-36-7-18-2-73-2-91 0-19 2-39 8-40 11 0 1 1 2 3 1s12-3 24-6c20-4 24-4 58-4 37 0 42 0 75 8 12 2 34 9 42 13 2 1 7 2 11 4 11 4 22 11 22 14 0 2-8 22-14 36-3 5-7 17-11 26-8 20-9 20-26 13-7-2-20-6-31-9-17-4-27-6-57-10-14-2-65 1-79 4-38 9-69 25-97 49-11 10-29 31-28 32s4-2 7-6c14-17 45-38 73-51 15-6 43-15 59-18 15-2 62-2 79 1 46 8 83 25 116 55 10 8 18 15 19 15 2 0 19-16 19-18 0-3 10-14 13-14 1 0 2 1 2 3 0 5 8 93 9 99 1 3 2 17 3 32 4 32 6 57 11 101 4 30 5 43 6 56 1 7 3 23 4 36 4 40 6 83 4 85-2 1-18-13-23-20-5-8-5-7-3-69l1-47-6-5c-9-7-30-18-55-27-21-7-52-16-58-16s-21 39-18 47c2 3 17 10 47 21 42 16 67 28 72 36 1 2 3 14 4 40 6 101 10 148 15 165 5 18 23 54 36 74 6 9 12 20 12 24 0 3-6 3-22-3zm-305-323c-2-4-5-8-7-9s-12 0-38 6c-20 4-37 7-37 8-2 2 59-5 67-7 2-1 6 1 11 5 4 3 7 5 8 5l-4-8zm-80-101c33-8 79-25 119-43 23-10 49-24 50-27 2-2 3-3-26 12-13 6-30 14-36 16-7 3-16 7-21 9-12 6-92 32-103 34-6 1-12 3-15 4-11 4 12 0 32-5zm191-81c7-5 13-9 13-9 0-1-20 10-25 14-9 6-1 3 12-5zm39-25c9-7 14-11 9-8-6 3-25 16-25 17s7-3 16-9zm29-21c2-2 4-3 3-3s-4 2-7 4c-5 6-4 5 4-1zm-216-205c11-5 21-10 20-11s-14 4-24 9c-9 5-7 6 4 2zm380 736c-25-6-24-6-31-19-4-7-9-18-12-26-15-35-14-33-21-101-4-50-5-62-4-63 0-1 5 2 11 6 8 6 11 9 12 14s9 54 11 75c2 19 15 49 37 90 7 13 13 24 13 24 0 2-8 2-16 0zm-91-302c-9-5-34-15-55-23-9-3-23-9-31-12l-15-5v-6c1-8 7-21 11-24 3-2 3-2 27 3 3 0 4 2 5 8v8l14 7c8 4 22 11 32 14 25 10 23 9 23 20 0 14-1 15-11 10z"/></svg>