<svg viewBox="0 0 1000 1002.5846" xmlns="http://www.w3.org/2000/svg"><path d="M106 200.27c-31 146 40 241 125 294-65-16-127-38-192-72 50 151 159 187 254 177-53 28-108 49-164 64 137 85 236 31 291-44-59-34-103-105-123-192-74-68-140-146-191-227zm787 0c-52 81-117 159-191 227-20 87-64 158-123 192 54 75 154 129 291 44-56-15-112-36-164-64 95 10 204-26 253-177-64 34-127 56-191 72 85-53 155-148 125-294zm-394 51c-46 0-87 7-119 19-16 6-30 13-40 23-11 10-19 22-19 37 0 2 0 4 1 6 5 126 62 229 131 260l13 6-3 14c-17 79-40 124-80 151-21 14-27 25-28 29 0 4 2 8 14 16 23 14 78 25 130 25 53 0 104-11 127-26 11-7 13-12 13-17-1-4-6-15-26-29-38-27-61-71-78-149l-3-14 14-6c68-31 126-134 131-260v-6c0-15-8-27-18-37-11-10-24-17-40-23-32-12-74-19-120-19zm0 36c42 0 81 7 107 17 13 5 23 11 28 16 6 5 7 8 7 10s-1 6-7 11c-5 5-15 11-28 16-26 10-65 17-107 17s-80-7-106-17c-13-5-23-11-29-16-5-5-6-9-6-11s1-5 6-10c6-5 16-11 29-16 26-10 64-17 106-17z"/></svg>