<svg viewBox="0 0 635 1002.5846" xmlns="http://www.w3.org/2000/svg"><path d="M115 13.27c-8 20-17 46-17 48 0 1 3 9 5 16 5 14 5 14 5 47 0 35 0 36-8 40s-10 9-10 25c0 17 2 22 8 27 2 2 4 5 4 6s0 2 1 1 2 0 3 2c2 2 2 114 2 362v359h17v-311l1-310 6 17c11 27 10 26 17 10 7-14 9-16 3-4l-3 8 4 8c4 9 10 13 18 12 7-2 12-7 15-14 2-7 14-30 15-30 0 0-2 5-6 12-8 16-15 37-19 56-5 24-5 68 0 92 15 67 55 121 113 150 10 4 22 10 27 11l11 3 4 23c2 13 4 25 5 28 1 4-1 3-16-12-18-17-34-29-48-35-11-4-13-4-13 2 0 11 3 52 6 83 5 47 3 94-6 123-3 9-5 12-11 18-4 3-11 8-16 10-4 2-8 5-8 6 0 4 19 0 44-10 9-4 20-8 25-9 9-4 7 2 24-63 9-39 16-72 20-98 1-5 2-6 4-6 3 0 3-1 3-15v-14l8 1c18 2 48 19 72 41 8 7 17 15 21 18 8 7 30 14 40 13 6-1 7-1 6 2v7c2 6 10 5 17-1 21-17 41-91 55-200 5-40 5-44 4-44s-3 3-5 7c-4 9-3 8 3-12 9-23 12-42 12-72 0-40-6-67-22-100-29-61-83-102-147-115-8-1-10-2-4-1 8 0 10-2 3-3l-4-1 4-3c2-2 4-5 4-6 0-4-10-14-22-21-4-3-8-5-8-6 0 0 2-5 5-10 2-6 5-14 6-19 2-6 2-8 5-8 1 1 9 3 17 5 13 3 15 3 16 1 3-4 2-38-1-47-10-41-52-66-113-68-13-1-24 0-24 0 0 1 3 10 7 21l8 20h12c30 0 53 11 64 31 3 5 1 4-6-4-19-20-46-27-70-17l-6 2-4-9c-2-5-5-10-6-10s-31 104-31 110c0 1 3-3 6-9 9-16 18-28 26-33 7-4 8-4 24-4h17l-6 3c-4 2-7 5-7 6-4 10-12 16-25 18l-7 1-6 30c-3 16-5 30-5 31 1 0 39-20 50-27l10-6c1 0 8 4 15 8l12 8h-17c-19 0-30 3-45 10-12 6-19 13-26 24-4 7-9 13-14 17-4 3-13 10-20 16s-11 9-10 7c3-3 3-3 0-3-4 0-24 12-42 24-8 6-14 10-15 10-2-2-4-17-3-20 2-6 0-15-7-35-6-17-7-19-10-18-4 1-28-8-29-10-1-1 3-1 8 2 5 2 12 4 15 5 6 1 7 0 7-3 1-3 0-6-1-9-2-4-3-12-4-20-1-17-5-25-17-37l-8-8v-38l-1-38 5-14c3-7 5-15 5-16 0-3-16-49-18-51 0 0-2 1-2 3zm287 251c34 6 62 21 89 47 28 27 47 63 54 102 2 15 2 51 0 66-5 25-17 54-31 76-10 13-31 35-45 45-59 40-130 40-189 0-16-11-39-36-49-53-28-44-36-98-23-150 23-89 108-148 194-133zm119 334c-15 18-43 40-66 51-21 9-39 13-67 14h-24l20-1c51-3 95-23 130-59 7-7 12-13 13-13l-6 8zm-177-324c-83 16-141 99-133 189 7 76 57 136 127 154 10 2 17 3 38 3 24-1 28-1 41-5 58-17 99-61 117-125 3-10 3-16 3-43 0-30 0-33-4-48-19-67-67-113-129-125-15-3-46-3-60 0zm55 58c29 7 49 27 58 58 4 15 4 48 0 62-5 17-13 31-25 42l-10 9h16c20 0 22 1 22 10 0 13 2 12-33 12-31 0-32 0-34-3-3-4-3-12-1-18 1-2 6-7 11-11 12-9 22-23 26-37 4-13 5-45 1-59-7-31-27-46-59-44-27 1-45 17-53 45-3 12-3 43 0 55 5 19 7 21 33 46 6 5 6 6 6 13 0 13 0 13-35 13-22 0-31 0-33-2-1-1-2-5-2-9 0-10 2-11 23-11h17l-8-6c-21-17-30-40-30-74 0-20 2-31 10-48 10-22 32-39 56-43 12-2 32-2 44 0zm-124-163c-6 9-8 14-15 41-4 16-8 31-7 32 0 2 4-2 8-8l9-10 6-31c4-16 6-31 6-33 0-1-3 3-7 9zm82 523c0 3 23 122 27 144 7 31 6 36-4 47-4 4-11 11-15 14-6 4-7 6-5 6 3 0 47-11 57-14l6-2 3-16c6-40 8-59 8-93v-33l-7-8c-16-17-45-37-60-43-9-4-10-4-10-2zm-90 210c-27 7-34 8-53 9-13 0-23 1-25 3-6 2-9 8-10 18-1 7-1 8 4 10 4 3 9 3 27 3 11 0 30-1 41-3 11-1 25-2 30-2 7 0 13-1 15-2 5-3 8-12 8-26 0-13-2-18-4-18s-16 4-33 8zm125 0c-23 7-29 8-46 9-24 1-27 3-31 15-1 4-2 9-2 11 0 9 20 11 58 6 13-2 28-4 33-4 17 1 21-6 21-30 0-15 0-15-3-15-2 0-15 4-30 8z"/></svg>