<svg viewBox="0 0 1000 1002.5846" xmlns="http://www.w3.org/2000/svg"><path d="M707 47.27c-4-1-42 53-62 74-36-16-105-52-108-48-1 1 36 61 65 131l-100 24-149-89-85 99c-53-65-110-117-113-116-4 2 3 68 1 97-37 11-113 29-113 33 0 3 81 28 154 68l-100 116 44 358 287-76 61 51c-75 24-142 35-143 38 0 5 81 36 122 54-3 33-20 105-16 108 3 1 74-47 143-111l127 107h55l-157-132c32-33 61-68 79-103 8 6 21 34 27 33 7-1 44-161 38-166-9-7-161 55-160 59 0 3 32 17 47 28-29 30-76 53-124 71l-91-76-265 71-37-303 94-109c28 17 52 37 68 58-14 8-44 17-44 20-1 3 125 75 133 70 6-3-7-149-13-151-5-1-20 22-28 26-11-31-31-64-54-95l70-82 137 82 118-29c13 38 23 77 20 110-15-3-44-16-46-14-3 1 46 138 55 140 7 2 92-118 88-123-2-4-29 4-37 2 15-39 21-91 22-140l104-26 144 104v-43l-137-99-110 27c-1-69-9-127-11-128z"/></svg>