<svg viewBox="0 0 1000 1002.5846" xmlns="http://www.w3.org/2000/svg"><path d="M113 84.27v474l156 59v-47c-44-6-88-17-122-52l26-25c24 24 57 33 94 39l-51-425c-34-6-69-13-103-23zm775 0c-127 34-270 0-373 138v408c38-57 88-80 138-91 66-15 129-14 179-54l22 29c-61 49-133 47-193 61-57 13-106 34-141 123l368-140v-474zm-636 12l53 446v425l39-77 40 74v-384l-55-468-77-16zm118 48l50 425c8 4 16 10 24 16 12 10 24 22 34 37v-408c-30-34-67-56-108-70zm-330 1v469l12 4 217 80v-39l-192-71v-443H40zm884 0v443l-424 156-79-29v74c45 16 113 14 168-5v-34l360-132 12-4v-469h-37zm-503 468v62l54 21c-14-41-33-66-54-83z"/></svg>