<svg viewBox="0 0 1000 1002.5846" xmlns="http://www.w3.org/2000/svg"><path d="M435 126.27a31 31 0 0 1 8 2c17 4 28 21 29 42l-50 12 42 27c-9 21-26 34-43 34a31 31 0 0 1-9-1c-22-6-34-37-25-68 7-28 28-48 48-48zm-39-18a76 76 0 0 1 17-9c-10-8-23-17-31-19-54-13-55 67-95 30 32 60 69-24 109-2zm105 226c-13-28-45-40-73-28l45 101c28-13 41-45 28-73zm-136 68l-42-13-119 61 14 27zm59-128h-3c-6 0-11 0-17-2a64 64 0 0 1-28-16l-38 105 93 29-20-46-28-6 19-13-16-34s35-16 38-17zm-260 280c-126-91 83-190-91-207 115 52-97 87-20 191 14 19 67 48 97 63a153 153 0 0 1 15-47zm260-124l4-9-20-6-97 50 134 52-95 78 80 52-13-47 89-96zm27-160c9 0 19 1 28 5l81-42a361 361 0 0 0-69-7c-11 22-28 37-47 44h7zm355 243h-8c-10 0-22-1-35-1l25 35 49-15s-2-8-5-22a162 162 0 0 1-26 3zm-271-91c27-44 91-130 187-130 33 0 70 10 110 35l-22 39 1 42c-1 7 6 41 13 72-13 3-45 2-84-2l-11-15c-32-19-56-31-56-31s2 15 2 37c-45-8-91-20-127-39a160 160 0 0 1-13-8zm234-36c0 9 11 14 18 8 6-7 2-18-7-18a10 10 0 0 0-11 10zm-259-92a86 86 0 0 1 19 25l436-241v-18zm149 301c11-29 15-64 16-94a637 637 0 0 1-96-24 296 296 0 0 1-59-27l27 189-252 33-20-170c-8 4-16 7-24 11-115 56-58 188-58 188l-49 96 59 107v36h66l-30-44-29-103 96-91c54 3 200-22 262-33l163 9 44 57-33 25 58 27 18-36-37-96zm-100-256l-22 11a86 86 0 0 1 0 14c6-8 14-17 22-25zm62 453l-10-89-41-2c-12 2-25 4-40 6l42 94 35 106-1 33h61l-18-34zm-274 38l72-106c-42 6-101 10-101 10l6 15-38 82 92 86v23h56l-22-25z"/></svg>