<svg viewBox="0 0 1000 1002.5846" xmlns="http://www.w3.org/2000/svg"><path d="M486 45.27l-125 63 120 30v32h38v-125h-33zm-200 160c27 41 39 93 39 144 0 52-13 105-40 148h457c33-37 52-90 52-145 1-54-17-109-52-147H286zm527 98l48 148h121v-27h-76v-35h76v-3l-62-31v-30l-107-22zm-726 13c-13 0-27 5-37 15-18 18-18 42-14 58s12 27 12 27l29-20s-5-7-7-16c-2-8-3-16 5-24 4-4 8-5 15-5 6 1 14 4 20 9s9 10 10 15c0 5-1 11-8 19v1c-38 43-50 79-50 153 1 75 1 136 80 190l-111 95 23 27 120-103c4 3 9 5 14 8 15 1 29 3 43 4l-75 64 23 27 100-86c23 2 45 4 64 6l-62 53 23 27 89-76c24 1 45 3 66 3l-53 46 23 27 84-72c23 0 47-1 74-3l-56 48 23 27 92-79c25-3 54-5 85-8l-73 60 23 27 113-93c6-1 12-2 19-2 97-98 119-196 123-279h-73c-26 45-45 84-96 113 7 12 12 26 12 41 0 44-37 80-81 80-25 0-47-12-62-30-15 18-37 30-63 30-25 0-47-12-62-30-15 18-37 30-63 30-28 0-53-15-68-38-14 23-39 38-67 38-44 0-81-36-81-80v-1c-58-7-96-42-126-83-11-16-9-35-9-51 0-23 8-48 41-87 13-15 19-32 16-48-2-15-11-28-22-38-11-9-25-15-39-16h-6zm394 216v35c12 5 22 13 30 23 2-3 5-6 8-9v-49h-38zm-168 63c-25 0-45 20-45 45s20 45 45 45 44-20 44-45-19-45-44-45zm135 0c-25 0-44 20-44 45s19 45 44 45 45-20 45-45-20-45-45-45zm125 0c-25 0-44 20-44 45s19 45 44 45 45-20 45-45-20-45-45-45zm125 0c-25 0-44 20-44 45s19 45 44 45 45-20 45-45-20-45-45-45z"/></svg>