<svg viewBox="0 0 1413 1002.5846" xmlns="http://www.w3.org/2000/svg"><path d="M812 509.27c49 62 76 95 132 166-87 63-151-87-156-163zm54 0c48 62 75 95 131 166-86 63-150-87-155-163zm199 153c-89 94-192-109-180-160 75 68 105 94 180 160zm54 0c-88 94-191-109-179-160 74 68 104 94 179 160zm71-11c-73 110-205-69-201-121 83 51 117 71 201 121zm58-7c-73 110-205-69-201-122 83 52 117 72 201 122zm77-31c-56 123-215-20-219-72 90 34 129 39 219 72zm48-56c-36 133-214 28-225-23 93 16 132 9 225 23zm37-67c-16 137-251 59-247 12 94-3 153-8 247-12zm-594 14c40 49 62 74 108 129-71 49-124-67-128-126zm44 0c40 49 62 74 108 129-71 49-124-67-128-126zm164 119c-73 73-158-84-148-124 61 53 86 73 148 124zm45 0c-73 73-158-84-148-124 61 53 86 73 148 124zm59-8c-61 85-170-54-166-94 68 40 96 55 166 94zm48-6c-61 85-170-54-166-94 69 40 96 55 166 94zm61-18c-46 95-176-21-179-61 74 26 104 36 179 61zm45-45c-30 103-179 17-189-22 77 12 111 11 189 22zm28-53c0 111-207 43-205 7 78-3 127-4 205-7zm-477 9c33 37 51 56 89 98-59 38-102-51-106-96zm36 0c33 37 51 56 90 98-59 38-103-51-106-96zm136 90c-61 56-131-64-123-94 51 40 72 55 123 94zm37 0c-61 56-131-64-122-94 50 40 71 55 122 94zm48-6c-50 65-140-41-137-72 57 31 80 42 137 72zm39-4c-50 65-139-41-136-72 56 30 79 42 136 72zm51-14c-38 73-145-16-147-47 61 20 85 28 147 47zm34-30c-24 78-145 9-153-21 64 9 89 12 153 21zm26-46c-7 88-171 34-169 6 65-2 104-3 169-6zm-448 1h320c-13 39-50 49-106 52H798zm-436 347c0 12-10 21-22 21-8 0-15-5-19-11-5 1-8 3-9 7-3 14 18 25 34 24 31-1 67-29 86-50 27-31 48-63 78-97 29-34 73-64 132-68v24c-51 3-85 29-112 60-26 31-51 68-79 101-27 32-69 59-108 61-19 1-35-4-48-15-7-5-15-18-17-27-4-28 12-48 32-54 24-7 50 3 52 24zm702 0c-1 12 9 21 21 21 9 0 16-5 19-11 6 1 9 3 10 7 3 14-19 25-35 24-31-1-67-29-86-50-27-31-48-63-77-97s-74-64-132-68l-1 24c51 3 86 29 112 60 27 31 51 68 80 101 26 32 68 59 107 61 19 1 35-4 49-15 7-5 15-18 16-27 4-28-11-48-32-54-24-7-50 3-51 24zm-352 0l3 135c8 33 61 26 58-8l-31-133zm21-5l-13 1c4 20 8 82 24 121 2-46-9-103-11-122zm14-2l26 131c13 31 64 13 55-20l-53-123zm19-10l-12 4c7 19 21 82 43 117-6-46-25-102-31-121zm14-2l48 123c19 28 65-1 51-31l-74-110zm17-14l-12 7c10 17 35 74 63 103-14-43-42-93-51-110zm-84 33l-3 135c-8 33-60 26-57-8l31-133zm-21-5l14 1c-4 20-9 82-25 121-1-46 9-103 11-122zm-13-2l-26 131c-14 31-64 13-55-20l53-123zm-20-10l13 4c-7 19-21 82-44 117 7-46 26-102 31-121zm-13-2l-49 123c-19 28-65-1-50-31l74-110zm-18-14l12 7c-10 17-35 74-63 103 15-43 43-93 51-110zm85-38l2 111c7 28 50 22 47-6l-25-110zm17-5l-11 1c3 17 7 68 20 100 1-38-8-84-9-101zm11-1l21 108c12 26 53 11 46-16l-44-102zm16-8l-11 3c6 16 18 68 37 96-6-37-21-84-26-99zm11-2l40 102c16 22 54-1 42-26l-61-91zm14-11l-9 5c8 14 29 62 52 86-12-36-35-77-43-92zm-69 27l-2 111c-7 28-50 22-48-6l26-110zm-17-5l11 1c-3 17-7 68-20 100-2-38 7-84 9-101zm-11-1l-22 108c-11 26-53 11-45-16l44-102zm-17-8l11 3c-6 16-18 68-36 96 5-37 21-84 25-99zm-11-2l-40 102c-16 22-54-1-41-26l61-91zm-14-11l10 5c-9 14-29 62-52 86 12-36 35-77 42-92zm71-34l2 92c5 23 41 18 39-5l-21-91zm14-3l-9 1c2 13 6 56 17 82 1-31-7-70-8-83zm9-2l18 90c9 21 44 9 37-13l-36-85zm14-6l-9 2c5 13 14 56 30 80-5-31-18-70-21-82zm9-2l33 84c13 19 44-1 34-21l-50-75zm12-9l-9 4c7 12 24 51 44 71-10-29-30-63-35-75zm-58 22l-2 92c-5 23-41 18-39-5l21-91zm-14-3l9 1c-2 13-6 56-17 82-1-31 7-70 8-83zm-9-2l-18 90c-9 21-44 9-38-13l37-85zm-14-6l9 2c-5 13-14 56-30 80 5-31 18-70 21-82zm-9-2l-33 84c-13 19-44-1-34-21l50-75zm-12-9l9 4c-7 12-24 51-44 71 10-29 29-63 35-75zm-49-177c-48 62-75 95-131 166 86 63 150-87 155-163zm-53 0c-49 62-75 95-132 166 87 63 151-87 156-163zm-199 153c89 94 191-109 179-160-74 68-104 94-179 160zm-55 0c89 94 192-109 180-160-74 68-105 94-180 160zm-70-11c73 110 205-69 200-121-83 51-117 71-200 121zm-58-7c73 110 205-69 200-122-83 52-117 72-200 122zm-77-31c55 123 215-20 219-72-90 34-129 39-219 72zm-49-56c36 133 214 28 226-23-94 16-132 9-226 23zm-36-67c15 137 251 59 247 12-94-3-153-8-247-12zm594 14c-40 49-62 74-109 129 72 49 125-67 129-126zm-44 0c-40 49-62 74-109 129 72 49 125-67 129-126zm-165 119c74 73 159-84 149-124-62 53-87 73-149 124zm-45 0c74 73 158-84 149-124-62 53-87 73-149 124zm-58-8c60 85 169-54 166-94-69 40-97 55-166 94zm-48-6c60 85 169-54 166-94-69 40-97 55-166 94zm-61-18c46 95 175-21 178-61-74 26-104 36-178 61zm-45-45c30 103 179 17 189-22-78 12-112 11-189 22zm-28-53c-1 111 207 43 204 7-78-3-126-4-204-7zm477 9c-33 37-51 56-90 98 59 38 103-51 106-96zm-36 0c-34 37-52 56-90 98 59 38 102-51 106-96zm-136 90c60 56 130-64 122-94-50 40-71 55-122 94zm-37 0c60 56 130-64 122-94-50 40-71 55-122 94zm-48-6c50 65 139-41 136-72-56 31-79 42-136 72zm-40-4c50 65 140-41 137-72-57 30-80 42-137 72zm-50-14c38 73 144-16 147-47-61 20-86 28-147 47zm-35-30c25 78 145 9 153-21-63 9-89 12-153 21zm-25-46c6 88 171 34 168 6-64-2-104-3-168-6zm447 1H302c12 39 50 49 105 52h209zm37 17c12 12 32 46 24 55-9 9-43-12-55-23-12-12-15-29-6-37 9-9 25-7 37 5zm129 129c-12-12-46-32-55-24-9 9 12 43 23 55 12 12 29 14 37 6 9-9 7-25-5-37zm-162-94c16 5 51 24 47 36-3 12-43 11-59 7s-26-17-23-29 19-18 35-14zm175 47c-16-4-56-4-59 7-3 12 32 32 48 36s32-2 35-13c3-12-8-25-24-30zm-173 47c12-12 46-32 55-24 8 9-12 43-24 55s-28 14-37 6c-9-9-6-25 6-37zm128-129c-11 12-32 46-23 55s43-12 55-23c12-12 14-29 5-37-8-9-25-7-37 5zm-93 162c4-16 24-51 36-48 11 4 11 44 7 60-5 16-18 26-30 23-11-3-17-19-13-35zm47-175c-4 16-5 56 7 59s31-32 36-48c4-16-2-32-14-35s-25 8-29 24zm-4 0c4 16 4 56-7 59-12 3-32-32-36-48s2-32 13-35c12-3 25 8 30 24zm47 175c-5-16-24-51-36-48-12 4-11 44-7 60s17 26 29 23 18-19 14-35zm-139-80c16-4 56-4 59 7 4 12-31 32-47 36s-32-2-35-13c-3-12 7-25 23-30zm176-47c-16 5-51 24-48 36s43 11 59 7 27-17 24-29-19-18-35-14zm-82-98c-79 0-143 64-143 143s64 143 143 143 142-64 142-143-63-143-142-143zm0 33c61 0 110 49 110 110 0 60-49 110-110 110s-110-50-110-110c0-61 49-110 110-110zm-263-204c-47 0-86 39-86 87 0 47 39 86 86 86 48 0 87-39 87-86 0-48-39-87-87-87zm0 27c33 0 60 27 60 60s-27 59-60 59-59-26-59-59 26-60 59-60zm162 140l-46-44s-5 2-16 2c-12 1-15-22-35-20-11 1-20 17-20 17l-2-14c-8-35 6-55 42-44 0 0-2-8-1-12s9-9 9-9l10 21 26 29 38 33zm-83-107c3 10 10 10 19 12 6 4 18 12 22 16v-9c-14-11-35-18-41-19zm-18 13c-9 0-20 3-25 15l9 3c-1-17 25-14 40-13-4-2-14-5-24-5zm5 15c-9 0-19 3-21 5-6 3-3-2-5 7l6 16c-4-12 3-18 6-20s18-7 31-4c-5-3-11-5-17-4zm109-58l-22-29s1-12 0-17c-6-18-28-48-28-48l-8 14-26-35c-34-6-24 25-15 44 0 0 31 41 47 54 5 4 16 10 16 10l16 33c11-12 22-11 20-26zm-95-116l-6 4c9 12 27 39 38 44l-32-48zm-10 4l-6 4c7 14 26 37 37 44l-31-48zm48 23c-3 7-4 17 2 26l11 20c-2-16-14-36-7-44l-6-2zm130 192c-24-35-59-105-81-123-26 20-25 75 9 123zm-10 189s16 39 33 47c5 3 11 3 14 0 35-23 77-96 70-130-4-17-19-48-19-48zm79-403c36 32 53 152 49 253-1 17-3 37-8 51-5 13-21 20-28 34-23 49-54 103-77 103-71-14-144-233-96-268 15 0 35 9 49 26 7-35 15-68 22-96l32-106zm-5 55c-2 1-4 1-6 2-16 6-29 22-41 42-21 37-34 86-38 120l-24-30-8 6 12 14c-23 94 36 184 66 220l8-6c-29-34-83-118-66-204l12 14 7 9 1-12c2-30 17-88 39-126 11-20 24-34 35-38 6-2 12-2 18 1 7 3 14 9 21 19l8-5c-8-11-16-19-25-23-6-3-13-4-19-3zm5 31c-11 2-19 13-26 25-7 13-13 31-18 50-9 36-13 76-12 101-8-2-21-2-24 3 24 4 54 35 76 52-7-23-25-39-43-51-1-22 3-66 13-103 4-18 10-35 17-48 7-11 14-18 21-18 9 0 12 4 20 13 1-7-1-13-5-17-7-6-13-8-19-7zm-137 94c-20 53-7 114 14 163 10 25 23 47 34 64 12 18 22 30 29 35l6-7c-5-5-16-16-27-33s-23-38-33-62c-21-49-32-107-14-157l-9-3zm38-181c5 1 7 1 11 3l1 35s23 5 35 3c14-3 23-5 38-19 7-7 15-18 19-27 11-28 8-60-13-75-20-13-46-12-62 2-11 9-18 24-17 45-8 13-21 29-12 33zm11 9l30 2c20 2 40-29 44-43l14 50s-33 31-47 48c-16 21-45 88-45 88s-13 6-19 4-11-15-11-15zm-1-5c12-5 30 13 51 0-10 35-38 19-51 20-5-5-3-14 0-20zm4-66s25 4 41 13c4 2 19 12 20 16 7 35 15 64 33 77 16 11 64-15 48-34-19-25-27-55-32-77-26-28-76-32-104-20-14 7-14 14-6 25zm20 23c-5 0-10 2-13 6 3-1 6-1 9 0-2 1-3 2-3 4 0 3 3 5 5 5 3 0 5-2 5-5v-2c4 2 7 5 10 8 1-8-4-14-9-15-2-1-3-1-4-1zm-18 29c4 4 1 11-10 8l4 8c4 0 7-1 9-2 7-8 0-16-3-14zm110-73c11-24 15-42 48-56-12-17-35-41-83-49-47-8-77 7-95 19 28 23 25 42 27 68l52 9zm-37-92c-11 16-13 57-17 80l6 1c6-24 11-62 11-81zm-17 1c-11 16-10 57-13 80l7 1c4-24 7-63 6-81zm-18 2c-10 15-8 54-10 77h7c3-23 5-61 3-77zm-18 2c-8 16-3 55-3 77l7 1c2-20-2-67-4-78zm69 2c-8 16-17 54-22 78l7 2c5-23 19-62 15-80zm17 7c-8 15-19 51-24 74l7 2c6-22 21-58 17-76zm15 8c-6 10-25 53-29 72l7 2c7-21 24-56 22-74zm-118 34c42-1 81 7 117 20l-9 32c-32-9-62-19-108-19z"/></svg>