<svg viewBox="0 0 1000 1002.5846" xmlns="http://www.w3.org/2000/svg"><path d="M386 59.27l-19 61-79 35-56 55 60 69 93-9 70 17 60-66-8-111-121-51zm-335 201c-27 51-13 132 59 189 72 58 154 52 197 14l-256-203zm701 135l-67 22 15 43-445 289c24 8 46 23 61 43l407-263 70 212c33 1 63 14 86 34l-127-380zm-417 91c-18 17-42 30-68 36l124 96 63-41-119-91zm237 183l-63 40 111 86h63c6-9 14-16 22-23l-133-103zm-361 107c-54 0-98 44-98 99s44 99 98 99 99-44 99-99-44-99-99-99zm579 0c-55 0-99 44-99 99s44 99 99 99 99-44 99-99-44-99-99-99zm-741 54v90h36c-5-14-7-29-7-45s2-31 7-45H49zm288 0c5 14 8 29 8 45s-3 31-8 45h327c-5-14-8-29-8-45s3-31 8-45H337zm579 0c5 14 8 29 8 45s-3 31-8 45h35v-90h-35zm-705 6a39 39 0 0 1 39 39 39 39 0 0 1-39 39 39 39 0 0 1-38-39 39 39 0 0 1 38-39zm579 0a39 39 0 0 1 39 39 39 39 0 0 1-39 39 39 39 0 0 1-39-39 39 39 0 0 1 39-39z"/></svg>