<svg viewBox="0 0 1046.4444 1002.5846" xmlns="http://www.w3.org/2000/svg"><path d="M612 7.27v1c-2 2 30 42 41 51 6 5 17 11 24 14 7 2 17 4 22 4 10 8 24 17 41 29-13-3-28-5-40-4-18 2-60 15-64 19-2 2 8 4 21 5s32 3 41 5c19 2 60 1 68-2 2-1 3-1 4-2 14 10 27 21 39 33-18-8-39-12-65-12-30 0-38 3-22 9 6 2 23 10 38 17s35 15 44 17c10 2 25 4 33 4h5l9 12c9 11 17 22 24 34-10-8-21-15-34-21-21-9-57-18-60-15 0 0 9 8 20 18 11 9 28 22 36 30 16 13 47 32 57 34 3 1 5 2 7 2 9 19 17 38 23 58-4-5-8-10-13-16-15-15-25-23-47-35-16-9-29-15-29-13 0 1 4 7 9 12 11 12 25 33 34 50 6 12 30 37 47 49 6 3 10 6 12 6 5 28 8 56 8 84-2-11-5-22-8-32-7-18-11-24-30-42l-29-29-7-8 2 8c21 73 34 101 57 130 9 10 11 13 13 11-1 8-1 17-3 25-2 17-5 34-9 51 0-16-2-32-7-45-5-15-40-74-42-72s5 98 7 111c4 15 15 40 22 48l5 5c-10 24-21 48-34 70 4-20 5-45 2-68-8-43-21-72-21-46 0 4-4 24-8 43-14 55-14 75-3 105l3 7c-12 16-26 31-40 45l1-1c7-16 11-54 9-83l-2-25-13 24c-7 13-16 28-19 33-15 22-20 38-22 70l-1 23c-5 4-9 7-14 11-12 8-25 16-38 23 17-20 30-50 35-83l2-15-17 17c-55 52-70 72-73 98 0 3-1 5-1 7-19 7-38 12-58 16 2-1 5-2 7-3 18-11 46-47 50-65l2-8-14 7c-8 4-23 10-33 13-10 4-23 10-29 14-13 9-34 35-34 43 0 5 1 6 13 5-29 3-59 3-88 0h21l-5-11c-10-25-27-39-63-52-11-3-26-10-33-13l-12-7 2 7c6 22 39 61 58 71-10-2-20-4-30-7-10-2-20-6-30-9v-9c-3-23-11-35-51-75l-38-39 1 12c1 7 5 24 9 37 7 21 17 39 29 52-19-10-38-22-56-35l1-7c6-23-5-63-25-93-5-7-13-21-18-32l-11-21-1 38c0 22 1 45 3 54 1 9 6 19 12 28-18-17-35-36-50-56 2 1 3 1 3 1 5-3 12-32 11-51 0-13-3-35-10-61-5-23-10-45-10-50 0-9 0-9-6 3-6 15-17 65-17 81 0 6 3 22 5 34 1 5 2 9 4 13-12-19-23-38-32-59-37-84-46-181-28-272 0 9 0 9 15-1 18-13 37-35 56-64 10-14 21-31 26-37s9-11 8-11c-6 0-56 29-66 38-14 13-25 27-32 42 7-25 16-49 27-72h2c14 0 61-29 85-52 5-5 17-15 25-21 17-13 15-14-14-7-31 7-58 22-77 40 11-19 24-37 38-54h8c24 0 50-7 75-20 13-6 30-14 37-17 19-7 13-10-19-10-31 0-52 4-71 15 14-13 29-26 44-37v1c1 1 7 2 13 4 17 3 37 3 71-2 17-2 36-4 42-4s11-1 11-3c0-1-11-6-25-11-32-10-66-12-89-3 18-13 31-23 41-31 2 1 3 0 6 0 22 0 39-8 60-30 22-23 36-43 25-39-2 2-14 5-25 8-45 12-60 23-66 52-17 11-39 25-52 35 0-1 1-2 1-2 17-17 25-33 32-62l5-20-6 3c-3 2-14 9-23 15-36 25-55 57-49 83 1 4 3 8 3 8 1 0 3-1 5-2-50 40-90 91-119 149 4-12 7-27 7-42 0-18-2-29-10-53l-9-30-8 25c-22 66-23 87-5 120l6 10 7-8c1-2 3-4 5-7-12 26-21 52-28 80 0-6-1-11-2-16-4-18-15-46-21-53-3-2-9-12-14-21-10-16-10-16-10-7 0 5-1 24-2 42-4 52 5 84 28 98 7 4 10 6 12 5-3 21-5 43-5 66v7c-7-19-36-63-47-72-4-2-12-8-18-13-8-7-10-8-8-4 1 4 4 18 6 33 9 52 24 82 50 100 8 6 17 10 19 10 1 0 2 0 2-1 3 25 8 50 15 73-9-15-20-28-31-34-5-4-17-12-27-19-9-6-22-15-30-19l-14-8 18 35c9 19 21 42 27 51 12 19 33 35 53 43 18 6 22 8 23 2 11 27 25 53 42 77-7-7-13-13-19-17-18-14-50-29-69-32-9-2-21-6-27-8-15-6-15-5-6 5 5 6 15 18 22 27 13 18 42 44 59 53 6 3 18 7 28 9 9 3 20 4 23 3 3 0 8-1 11-1 4 0 5-1 2-7 68 84 164 141 273 156-10 2-22 5-30 8-15 6-99 48-99 50s55-1 73-4c25-4 58-15 72-25 5-3 14-12 20-18l6-8c5 0 9 1 14 1s11 0 16-1l15 15c16 15 21 18 43 25 35 11 38 12 75 14 19 1 36 2 38 2 2 1 4 0 4 0 0-2-26-15-35-18-3-1-11-6-17-9-19-14-54-26-82-32 158-22 289-132 346-282-3 8-5 15-5 16 0 6 4 6 22 0 20-8 40-22 51-39 10-13 48-88 45-88-2 0-39 23-61 38-24 16-37 33-47 58 10-30 18-63 22-96 1 9 6 6 22-4 27-16 43-48 51-97 2-14 5-29 7-33 1-4 1-8 0-8-4 0-47 46-57 60-11 16-17 31-20 49v-23c0-148-68-279-172-362 5 3 10 5 12 4 4-1 5-22 2-34-5-16-30-44-53-59-12-8-21-13-22-13-2 2 8 37 13 50 5 11 20 29 33 41-8-6-16-11-24-16-7-4-22-12-37-20v-3c0-21-21-43-49-51-10-3-25-8-32-10s-13-4-15-4zm216 60l1 38c1 35 2 41 9 56 5 10 14 23 22 30 7 7 14 13 15 13 5 0 9-26 7-43-2-27-11-43-43-81l-11-13zm-609 1l-18 23c-10 13-22 30-26 38-8 17-11 42-6 63 1 6 4 12 5 12 2 0 10-7 18-15 24-24 34-59 29-101l-2-20zm705 88c-1 0-5 8-10 20-8 21-9 27-9 56 0 30 1 34 8 49 5 9 10 18 12 20 2 3 4 3 8-3 7-9 16-37 16-49 0-14-12-59-24-92l-1-1zm68 110l-13 20c-7 11-17 28-22 39-8 18-9 21-9 50 0 19 1 33 4 37 2 4 4 7 5 7 6 0 21-13 26-23 12-23 16-51 11-101l-2-29zm-815 111c-2 0-13 10-26 23-28 28-37 42-45 75-3 12-4 23-3 34 1 9 3 16 4 16 3 0 29-36 37-50 6-10 14-35 28-82 3-8 5-16 5-16s0-1 0 0zm84 3c-17 1-32 5-42 14-10 10-15 22-16 37 0 9 2 19 7 28 5 10 15 20 29 32l12 9c11 9 18 17 23 24 4 6 6 13 6 21s-3 15-9 22c-5 6-14 10-26 10-9 0-16-2-23-6-6-3-11-9-13-18v-5-4c0-2-1-3-1-4-1-1-1-2-2-2h-2c-2 0-4 1-5 3 0 1-1 2-1 4v10c-1 5-1 11-1 18 0 4 0 6 1 8s3 4 5 5c6 3 11 4 18 6 6 1 12 1 18 1 8 0 15-1 22-2 7-2 14-5 20-9v-1c9-7 16-15 19-23 3-9 5-16 5-23 0-11-3-21-8-31-6-10-17-21-32-33l-7-6c-13-9-21-17-25-23-5-6-6-12-6-18 0-10 3-16 8-21 6-5 12-7 21-7 12 0 19 2 23 5 2 2 4 3 5 5l2 2c1 2 1 3 2 6s1 5 1 6c0 2 1 3 1 4 1 1 3 3 4 3 2 0 3-1 4-2 0 0 1-1 1-2v-6c0-9 1-15 1-20v-7c1-2 0-3-1-4-2-2-3-2-4-2h-3c-2 0-3 0-6-1s-7-1-11-2c-4 0-9-1-14-1zm296 0c-24 1-45 7-60 18-16 12-28 25-35 42-8 16-12 31-11 47-1 16 3 33 10 49 8 16 19 30 35 40 16 11 36 17 61 17 7 0 15-1 23-2 7-2 13-4 18-6l43 23c21 12 41 21 59 27s35 9 51 9c20 0 37-2 51-7 15-4 26-7 34-11 1-1 2-1 2-3h1c0-1 1-2 1-3s-1-2-2-3c0-1-2-2-3-2s-2 1-3 1c0 0-1 0-2 1-9 3-18 6-27 7-9 2-17 3-24 3-6 0-19-1-38-5-18-3-42-12-71-26l-50-26c9-6 18-15 27-29 11-15 16-35 17-59 0-31-11-56-30-74-20-18-46-27-76-28h-1zm-236 4c-2 0-4 0-5 1s-3 3-3 4v1c0 1 1 3 2 3 1 1 2 1 3 1h5c2 0 3 1 4 1 4 1 6 2 7 3 1 2 1 5 2 9v137c0 10 0 17-1 23 0 4-1 7-2 9s-2 2-3 3h-4c-1 1-2 1-4 1-1 0-2 0-3 1s-2 2-2 3c0 2 1 4 3 5 1 0 3 1 5 1 4 0 9-1 15-1h21c6 0 14 1 21 1 2 0 3-1 5-1 1-1 2-3 3-5-1-1-1-3-2-3-1-1-2-1-4-1-1 0-3-1-5-1h-6c-3-1-5-2-6-4s-1-4-2-8c0-6-1-13-1-23v-142-2c1-1 3-1 4-1 2-1 4-1 6-1h1c2 0 7 0 14 2 6 1 12 4 19 11s10 14 12 20c2 8 2 14 2 18 0 11-4 21-12 28-8 8-18 11-30 12h-7c-1 1-2 1-3 2 0 1-1 2-1 3 0 2 2 4 3 4 1 1 2 1 3 1h3c1 1 2 0 3 0 20 0 36-6 48-18 13-12 20-28 20-47 0-8-2-15-5-21-3-5-6-9-9-13-3-3-8-6-15-9-8-4-20-7-36-7-7 0-13 0-20 1h-25c-6-1-12-1-18-1zm341 0c-1 0-3 0-4 1-2 1-3 3-3 4v1c0 1 1 3 2 3 1 1 2 1 3 1h5c1 0 2 1 3 1h1c3 1 5 2 6 3 1 2 2 5 2 9 0 3 1 9 1 16v121c-1 10-1 17-1 23-1 4-2 7-2 9-1 2-2 2-4 3h-3c-2 1-3 1-4 1s-3 0-4 1c0 1-1 2-1 3 0 2 1 4 3 5 1 0 2 1 4 1 5 0 10-1 16-1h20c7 0 14 1 21 1 2 0 4-1 5-1 1-1 3-3 3-5 0-1-1-3-2-3-1-1-2-1-3-1h-1c-1 0-2-1-5-1h-6c-3-1-5-2-5-4-2-2-2-4-2-8h-1c0-6 0-13-1-23v-39h32v1c3 4 7 9 12 16 6 8 11 15 17 23 7 10 14 18 19 24 6 7 11 12 17 15 4 2 8 4 12 4 5 1 11 2 18 2h19c2 0 4-1 6-1 1 0 2-1 2-2 1-1 1-2 1-3s-1-3-2-3c-1-1-2-1-3-1s-2 0-4-1h-6c-3-1-7-2-12-4s-11-7-18-14c-8-8-16-18-25-29s-18-23-28-36c10-11 18-21 23-30 5-11 8-21 8-31-1-10-3-18-7-25-5-6-9-11-13-14-7-5-16-8-24-10-9-1-17-2-26-2-5 0-11 0-18 1h-24c-6-1-12-1-19-1zm-110 12h4c20 0 38 8 53 24 15 15 23 39 24 70-1 25-5 43-14 55-8 13-17 22-28 26s-20 6-28 6c-23 0-42-9-57-26-16-18-23-41-24-72 0-28 8-49 21-63 13-13 29-19 49-20zm164 3h6c13 0 23 4 31 13 7 8 11 20 11 36 0 10-1 18-4 25-3 6-6 11-10 13-3 2-6 3-9 4s-6 1-9 1h-1c-5 0-11-1-16-1-5-1-8-2-10-3v-87c1 0 3 0 6-1h5zm-549 85c-4 0-36 54-42 72-7 26-7 52 0 73 6 17 7 17 12 12 7-7 16-24 21-42 4-11 10-80 10-114 0-1 0-1-1-1zm840 201c-2 0-6 1-12 3-7 2-20 6-28 7-23 5-62 26-81 44-14 13-31 37-31 43 0 1 3 2 8 3 14 2 48-6 61-15 35-24 45-33 61-59 6-8 14-17 18-20 6-4 8-6 4-6zm-895 129c-2 0-3 1-4 1 0 0 14 11 31 23 32 23 41 27 74 38 20 6 49 5 66-2l11-5-12-10c-6-5-19-14-29-19-11-5-21-11-24-12-8-4-94-14-113-14zm821 2c-8-1-25 1-56 3-39 4-66 12-89 28-22 14-27 20-21 25 2 2 9 5 16 6 26 5 48 2 80-11 14-6 73-44 76-50 1-1-1-1-6-1zm-211 89c-19 0-56 8-68 14-5 3 14 16 34 24 12 4 24 6 43 6 24 0 32-2 68-13 37-11 40-12 32-14-44-10-91-17-109-17zm-397 0c-15 0-31 2-47 5-15 3-37 8-49 10l-21 3 12 4c7 2 26 7 42 12 49 16 103 11 127-10l9-9-7-3c-17-8-40-12-66-12zm-64-528c-18 0-33 5-44 15-11 9-17 23-17 39-1 10 2 20 7 30 6 10 15 21 29 32l12 10c11 9 19 17 23 22 3 6 5 13 5 20 0 8-2 14-7 20-5 5-13 8-24 9-8 0-15-2-21-6-6-3-9-8-11-16-1-1-1-3-1-4v-4c0-2 0-4-1-6-1-1-2-3-4-3-1-1-3-1-3-1-3 0-7 2-8 5-1 2-1 4-1 5 0 3-1 6-1 11s-1 11-1 18c0 4 0 6 1 9 2 4 5 6 7 7 6 3 12 5 19 6 6 1 13 2 19 2 8 0 16-1 23-3 8-2 15-5 21-10 10-7 17-16 20-25 4-9 5-17 5-24 1-11-2-22-8-33s-17-22-33-34l-7-6c-12-9-21-17-24-22-4-6-6-11-6-16 0-9 3-14 7-18 5-4 11-6 19-7 11 1 18 3 21 5 2 2 4 3 5 4s1 2 0 1a7 7 0 0 0 1 1c0 1 1 3 2 5 0 2 0 4 1 5a7 7 0 0 0 0 1c0 1 0 3 1 4 1 3 5 5 7 5s5-1 6-2c1-2 2-3 2-4 1-3 1-4 1-7v-19c1-5 1-8 1-8 0-2-1-5-3-7-3-2-5-2-6-2h-3c-1-1-3-1-5-1-3-1-7-2-12-2-4-1-9-1-14-1zm296 0c-25 0-46 6-63 18-16 12-28 26-36 43-7 17-11 33-11 49 0 17 4 34 11 50 8 17 20 31 36 42 16 12 37 17 63 18 7 0 15-1 23-3 7-1 12-3 17-6l42 23c22 12 41 21 60 27 18 6 35 9 52 9 20 0 37-2 52-6s26-8 34-12c1-1 3-1 4-4 2-1 2-4 2-5 0-2-1-4-2-5-1-2-4-3-6-3h-4c-1 1-1 1-2 1-9 4-18 6-27 8-9 1-16 2-23 2-5 1-19-1-37-4s-42-12-70-26h10c5-1 8-1 9-1s5 0 11 1h21c2 0 4 0 7-1 2-1 4-5 4-8 0-2-1-5-2-6-2-2-5-2-6-2a7 7 0 0 0-1 0h-4c-3 0-5-1-6-1-3 0-3-1-3-1-1-2-2-4-2-7a7 7 0 0 0 0-1c-1-5-1-12-1-22v-36l26 1c3 3 6 8 11 15 6 8 11 15 17 23 7 10 14 18 19 24 6 7 12 13 19 16 4 2 8 4 13 5s11 1 18 1h19c3 0 5 0 7-1 1 0 3-1 4-3 1-1 2-3 2-5s-2-5-4-6c-2-2-3-2-5-2h-4c-1 0-3 0-6-1-2 0-6-1-11-3-4-2-10-7-17-14-7-8-15-17-24-29-8-10-17-21-27-33 10-10 18-19 22-29 6-11 8-22 8-32a7 7 0 0 0 0-1c0-10-3-19-8-26-4-7-8-11-13-15-8-5-16-9-26-10-8-2-17-3-26-2h-61c-2 0-4 0-6 1s-5 5-5 7a7 7 0 0 0 0 1c0 2 2 5 4 6 1 1 3 2 5 2h8c3 1 4 2 4 2 1 1 2 3 2 7v137c0 10 0 17-1 22 0 4-1 7-2 8 0 1 0 1-1 1 0 0-2 1-3 1h-3c-2 0-4 0-6 2-1 1-3 4-3 6v1l-29-16c8-6 16-14 24-26 11-16 17-36 18-60a7 7 0 0 0 0-1c-1-32-12-58-32-77-20-18-47-28-78-28a7 7 0 0 0-1 0zm-236 4c-6-1-11 14-11 8 3 8-2 2 3 7 2 1 4 2 5 2h8c3 1 4 2 5 2 0 1 1 3 1 7s1 9 1 16v87c0 13 0 24-1 34 0 10 0 17-1 22 0 4-1 6-1 8l-1 1c-1 0-2 1-4 1h-3c-1 0-4 0-6 2-1 1-2 4-2 6 0 3 2 7 5 8 2 1 3 1 6 1h15c6-1 9-1 10-1s4 0 11 1h21c2 0 4 0 6-1 3-1 5-5 5-8 0-2-2-5-2-6-2-2-5-2-7-2h-5c-2 0-4-1-5-1-3 0-3-1-3-1-1-2-2-4-2-7a7 7 0 0 0 0-1c-1-5-1-12-1-22s-1-21 0-34v-11c0 1 2 2 3 3 1 0 2 1 4 1h6c20 0 38-7 51-19 13-13 20-30 20-50a7 7 0 0 0 0-1c0-7-1-15-5-21-3-6-6-11-10-14-3-4-8-7-15-11-9-4-22-6-38-6h-63zm235 18c20 0 36 8 50 23 15 15 22 37 23 68 0 24-5 42-12 53-9 13-17 21-27 24-11 5-20 7-27 6-22 0-40-8-55-25-14-16-22-39-23-69 1-28 8-47 20-60 13-13 30-20 51-20zm-181 3c2 0 7 0 13 1 5 1 11 4 18 10 6 7 9 13 10 19 2 7 3 13 2 16a7 7 0 0 0 0 1c0 11-3 19-11 26-7 6-16 10-28 10h1c-3 0-5 0-8 1-1 0-3 1-4 3v-87h6a7 7 0 0 0 1 0zm347 0c12 1 21 4 28 12s10 19 11 34c0 10-2 17-4 23-3 6-6 10-10 12-2 2-4 3-7 3-3 1-6 1-8 1a7 7 0 0 0-1 0c-5 0-10 0-15-1-4-1-6-1-7-2v-81h3c2-1 6-1 10-1zM612 .27c-19 6 16 44 10 35 9 12 19 24 26 30 7 5 18 12 26 15 7 2 15 4 22 4 4 3 10 8 15 11h-12c-10 1-25 5-38 9-7 2-13 4-19 6l-6 3c-2 1-4 1-6 3-1 1-2 4-2 6 0 3 1 4 2 5 2 2 3 2 4 2 2 1 3 2 5 2 5 1 11 2 17 2 13 2 32 4 41 5 10 1 25 2 39 1 7 0 14 0 20-1 5 0 9-1 13-2 3 2 6 5 9 7-11-1-22-2-34-2h-19c-5 1-9 1-12 2-2 1-4 2-6 6-1 1-1 4 0 6 0 1 1 2 2 3 3 4 6 4 10 6 5 2 23 10 38 17s35 15 46 17c10 3 25 4 34 4h1c3 4 5 7 7 10a8 8 0 0 0 1 0c0 1 1 2 2 4-1-1-2-2-4-2-11-5-25-10-38-13-6-2-11-3-16-4h-9c-1 0-3 0-5 2s-2 5-2 6v3l2 2s1 1 1 2c1 1 3 2 5 4 3 3 9 8 14 12 12 10 28 23 37 30 8 7 20 16 31 22 11 7 20 13 28 15h4c3 7 6 13 8 20-10-9-20-17-37-26-8-4-15-8-21-10-3-2-5-2-7-3-1 0-2-1-3-1h-3c-1 1-3 1-4 3-1 1-2 3-2 5 0 4 1 4 2 5s1 3 2 4c2 3 5 5 8 8 9 11 24 32 32 48 4 8 12 17 21 27 9 9 20 18 29 25 4 2 6 3 9 5 1 8 2 15 3 23-4-7-11-14-20-24l-29-29-7-7a8 8 0 0 0-13 7l2 8c21 73 34 103 58 132 5 6 7 9 10 12h1c-1 7-1 13-2 19 0 2-1 4-1 7-1-1-1-2-1-3-3-9-13-27-23-43-5-8-9-16-13-22-2-2-4-5-5-7-1 0-1-1-3-2 0-1-1-1-2-2-2 0-6 0-9 2-2 3-1 4-2 5v17c1 10 2 22 2 35 1 13 2 26 3 37s2 19 3 23c2 9 6 19 10 29 5 10 9 18 14 23 0 1 0 1 1 1-4 11-9 22-14 32 0-11 0-21-2-32-4-22-9-40-14-51-1-2-2-5-3-7-1-1-2-1-3-2s-4-3-7-2c-3 0-5 2-6 4-1 1-1 3-1 4-1 3-1 5-1 9 0 0-1 7-3 14-1 8-3 18-6 27-6 28-10 47-11 64 0 16 3 30 9 46l1 2c-5 7-11 14-16 21 0-4 1-7 1-11 2-15 2-33 1-48l-2-25a8 8 0 0 0-14-3l-13 25c-7 13-15 28-18 32-16 23-22 41-23 73l-1 20c-4 3-8 6-11 8-4 3-7 5-10 7 8-18 15-38 18-59l3-15a8 8 0 0 0-13-6l-17 16c-28 27-45 45-57 60-11 16-17 29-18 43-1 1 0 1-1 2-6 3-13 5-20 7 4-4 8-9 12-13 10-14 18-27 21-39l2-7a8 8 0 0 0-10-9l-15 7c-7 4-22 10-31 13-11 4-24 10-31 15-8 5-17 14-24 23-3 5-7 9-9 13s-4 7-4 12c-14 1-28 1-42 0l-3-7c-11-28-31-44-68-57-10-3-25-10-31-13l-13-6a8 8 0 0 0-10 9l2 6c4 13 14 29 26 43 3 4 7 8 11 12-9-2-17-5-25-8v-4c-1-12-4-22-12-34s-20-25-40-45l-39-40a8 8 0 0 0-13 7l2 12c1 9 5 25 9 38 3 10 7 19 11 27-8-5-15-10-23-16l1-1c6-27-6-68-27-100-4-5-12-20-18-31l-10-20a8 8 0 0 0-14 3l-1 38c-1 20 0 38 2 50-7-7-12-14-18-22 1-1 1-3 2-5 1-4 3-9 4-14 2-11 4-23 4-33 0-14-4-37-10-63-3-11-6-22-7-31-2-9-3-17-3-17 0-2 0-4-1-6 0-1 0-1-1-3 0-2-2-3-4-4-3-1-5 0-7 1s-2 2-3 3c0 1-1 1-1 2-1 2-2 4-3 7-8 18-18 65-18 84v4c-3-6-6-13-9-19l-6-15c1-1 2-1 2-2 10-9 18-26 24-45 1-4 2-10 3-19 1-8 2-19 3-31 2-23 3-48 3-66 1-1 1-2-1-4-1-3-5-5-7-4-3 0-4 1-5 2s-2 1-3 2c-2 2-4 5-6 7-3 6-8 13-13 21-9 16-19 34-22 45-1 3-1 6-2 9-2-11-3-21-4-31 0-1 1-1 1-2 1 0 1-1 2-1 1-2 2-3 4-5 3-4 7-9 11-14 8-11 16-24 21-32 6-11 14-36 28-82 2-5 3-9 4-12 0-1 0-3 1-4v-1-2c0-3-2-7-4-7-2-1-3-1-4-1s-1 0-2 1c-2 1-2 1-3 1l-2 2c-2 1-3 3-6 5l-17 17c-17 16-27 29-34 43 1-10 2-20 4-31 2 0 4-1 5-2l9-6c20-14 39-36 58-66 10-14 22-31 26-37 3-3 5-6 7-8 0-1 1-2 2-3 0-1 0-1 1-3 0-1 0-2-1-5-2-2-5-4-7-4-4 0-5 1-7 2s-5 2-8 4c-6 3-13 7-20 11-15 9-30 18-36 24-2 1-3 2-4 4 3-7 6-15 9-22 5 0 10-2 16-5 7-3 15-8 23-13 17-10 35-23 48-35 5-5 16-15 24-21 5-4 8-6 10-9 2-1 3-2 4-4 0-2 1-4 0-6s-3-4-4-5c-3-1-5-1-7-1-1 0-3 0-5 1-5 0-10 2-17 3-17 4-33 10-47 18 5-6 9-11 13-16h4c25 0 53-8 79-21 12-6 29-14 36-17 5-1 8-3 11-5 2-2 4-3 4-8 0-2-1-4-2-5-1-2-2-2-3-3-4-2-7-2-12-3h-19c-15 0-27 1-39 3 4-3 8-6 11-9 1 0 2 0 2 1 3 1 6 1 10 2 18 4 39 3 73-2 17-2 37-4 41-4s7 0 10-1c1 0 2 0 4-1l2-2c1-1 3-3 3-6s-1-4-2-5c-1 0-1-1-2-1l-2-2-6-3c-5-2-11-4-18-7-21-7-43-10-63-8 5-4 11-8 14-11h4c24 0 43-10 65-33 12-12 21-22 26-31 3-4 5-6 5-11 0-1 0-3-1-5 0-2-3-4-5-4-3-2-6 0-7 0-1 1-5 2-9 3-5 2-10 3-16 5-23 6-39 12-50 21-11 8-17 20-20 34-6 3-11 7-17 11 4-10 8-21 12-34l5-20a8 8 0 0 0-11-9l-6 4c-5 2-15 9-24 15-38 26-59 60-52 91 1 2 1 4 2 6-7 6-14 12-20 18 5-18 6-38 4-59l-2-19a8 8 0 0 0-13-4l-19 23c-10 13-22 29-27 39-9 19-11 45-7 67 1 4 2 8 4 10 0 2 1 3 2 5 1 0 1 1 3 2-6 8-11 16-16 24v-1c0-18-3-31-10-55l-10-30a8 8 0 0 0-14 0l-9 25c-11 33-16 55-17 74s4 35 14 52l6 10a8 8 0 0 0 2 2c-4 9-8 19-11 29-2-7-3-13-6-20-4-10-8-18-13-24 0 0-2-3-5-7-2-4-5-8-8-13-2-4-4-7-5-9-2-2-2-4-5-6-1-1-2-1-4-2-2 0-4 1-6 2-3 2-3 4-3 5-1 3 0 4-1 7 0 4-1 23-2 41-2 27 0 49 5 66 5 18 14 31 27 40 3 1 5 3 8 4-2 12-3 25-3 38-3-5-6-10-10-15-4-7-10-14-14-20-5-6-9-11-13-14-3-2-11-8-17-13-4-3-6-5-10-7-1 0-2-1-5 0-3 0-6 4-6 6-1 4 0 5 1 6 0 0 1 5 2 11 1 5 3 13 4 20 9 53 24 86 53 105 4 3 9 6 13 8 1 1 3 2 5 3h1c1 11 3 23 6 34-4-4-8-7-12-10-5-3-17-11-26-18-10-6-23-15-31-20l-14-8a8 8 0 0 0-10 10l17 35c10 20 21 42 28 52 13 20 34 38 57 46 9 3 14 5 19 6h3c5 11 10 22 16 33-18-11-41-20-57-24-9-1-21-5-26-7-4-1-7-3-9-3-1-1-3-1-4-1s-4-1-7 2c-2 1-3 4-3 5 0 2 1 3 1 4 1 2 1 3 2 4 1 2 3 4 6 6 4 5 14 17 21 27 14 19 43 45 62 55 7 4 19 7 29 10 5 1 11 2 15 2 5 1 8 1 12 0 2 0 7-1 9-1h4c8 10 17 19 26 28h-1c-4-1-8-2-13-2-9-2-22-4-34-5-25-3-51-5-62-5h-4c-1 0-2 0-4 2l-2 3-1 1v2c0 1 0 2 1 3 0 1 0 1 1 2l1 1c0 1 1 1 2 2 2 1 4 3 7 5 5 4 13 10 22 16 32 23 42 28 75 39 22 7 53 6 72-3l11-4c13 8 26 15 39 22h-7c-16 0-32 2-49 5-15 3-37 7-48 9l-21 4a8 8 0 0 0-1 14l12 4c7 2 26 8 41 12 52 17 107 13 135-12l9-8c10 3 21 6 31 8-9 4-33 16-56 27-11 6-22 11-30 16-5 2-8 4-10 5s-3 1-3 2c-1 0-1 0-2 1l-1 1s-2 1-2 5c0 2 2 5 3 5 1 1 1 2 2 2h2c1 1 2 1 3 1h7c5 0 13-1 21-1 16-1 35-2 44-4 27-4 59-14 75-25 7-5 16-13 22-21l3-4h24l13 12c16 16 24 20 45 27 35 11 40 12 78 14 9 1 18 2 25 2s13 1 12 1h6c1-1 2-1 3-2 2-1 3-4 3-7 0-4-1-4-2-5l-2-2c-1 0-2-1-3-2-3-2-7-4-11-6-7-4-16-8-21-9-2-1-11-5-16-8-13-10-33-18-53-25 12-2 23-5 35-9 0 1 0 2 1 2 2 3 5 6 8 8 8 5 18 11 29 15 12 4 25 6 45 6 24 0 34-2 70-13 19-5 29-8 34-11 2 0 3-1 4-2l3-3c0-2 1-5 0-7-2-4-4-4-6-5-1 0-2 0-3-1-45-9-91-17-111-17-2 0-4 1-6 1 14-8 29-16 42-25 1 2 3 3 4 5 3 2 5 3 9 4 3 1 7 2 11 3 27 6 51 2 84-11 9-4 26-15 43-26 8-6 17-11 23-16 3-2 6-4 8-6 2-1 3-2 5-5 1-2 2-6 0-9s-4-3-5-3c-2-1-4-1-7-1-9 0-25 1-57 4-21 2-39 5-55 11 11-11 21-22 31-34 1 1 2 1 3 1 2 1 4 2 6 2 10 2 22 0 35-3 12-3 24-7 32-13 36-24 46-34 64-60 2-4 5-8 8-12 3-3 6-6 7-6 4-3 6-4 8-8 1-1 1-2 1-4s-1-5-2-7c-4-2-6-2-7-2-4 1-8 2-14 4-7 2-19 5-28 7-18 4-42 16-62 29 7-12 13-25 19-38h3c6 0 11-2 20-5 22-9 43-24 55-41 6-9 18-30 28-51 5-10 10-20 13-27 2-4 3-7 4-10 1-1 1-2 1-3s1-1 0-3c0-1 0-2-1-4-2-2-4-3-6-3s-3 0-3 1h-1c-1 0-1 1-2 1-1 1-3 2-5 3-4 3-10 6-16 10-12 8-27 17-38 25-9 6-16 12-22 19l6-39h2c6-1 11-5 19-10 29-17 46-51 54-102 1-7 3-14 4-20s2-11 3-11c1-3 1-5 1-8 1-1 1-2 0-5 0-1-1-2-2-3-2-1-4-2-6-2-3 0-4 1-5 1-1 1-2 2-3 2l-6 6-18 18c-13 13-26 28-32 36-2 4-4 9-6 13-1-14-1-28-3-41 3-1 5-2 7-3 3-2 5-4 8-6 6-5 11-11 15-17 13-25 16-55 12-106l-3-29a8 8 0 0 0-14-3l-12 20c-7 11-17 29-22 40-5 9-7 15-9 23-3-12-7-24-12-35 5-2 6-4 9-7 5-6 9-16 12-26s6-20 6-28c0-9-3-23-8-41-5-17-11-37-17-54-1 0-1-2-2-3s-3-2-5-2c-3 0-5 1-6 2l-2 2c-1 2-2 3-3 5-2 4-4 9-7 16-8 21-9 29-9 58v12c-6-12-14-22-21-33 3-1 5-2 6-4 1-1 2-3 3-5 1-3 2-7 3-12 1-9 2-20 1-30-1-14-5-26-11-39-7-13-18-27-34-46l-11-13a8 8 0 0 0-13 5l1 39c0 17 1 27 2 35 1 4 1 6 2 9-7-7-15-14-23-20 0-1 1-1 1-1 1-2 1-3 2-5 0-3 1-6 1-10 0-8 0-16-2-24-3-10-11-21-21-32-10-12-23-23-35-31-6-4-11-7-15-10l-6-3s-1 0-2-1h-1c-1 0-4-1-7 2s-2 5-3 6c0 1 0 1 1 2v5c1 4 2 9 4 15 3 11 7 23 10 30 1 2 2 5 4 7-6-3-11-6-19-10 0-25-24-48-54-56-10-3-24-8-32-10-3-1-7-2-10-3-2-1-4-1-7-1z"/></svg>