<svg viewBox="0 0 1000 1002.5846" xmlns="http://www.w3.org/2000/svg"><path d="M949 398.27H606l-106-326-106 326H51l278 202-107 328 278-203 278 203-107-328zm-168 54l-127 93-30-93h157zm-281-203l48 149h-96zm-281 203h158l-31 93zm107 332l49-150 79 57zm67-205l41-127h132l41 127-107 78zm281 205l-128-93 79-57zm-75-516l-20-63a358 358 0 0 1 223 158h-67a303 303 0 0 0-136-95zm-347 457l-20 63a356 356 0 0 1-86-279l52 38v6a300 300 0 0 0 54 172zm346 114l52 38a356 356 0 0 1-300 0l52-38a302 302 0 0 0 196 0zm-333-476h-67a358 358 0 0 1 223-158l-20 63a303 303 0 0 0-136 95zm592 190a355 355 0 0 1-89 235l-20-63a300 300 0 0 0 54-172v-6l52-38a359 359 0 0 1 3 44z"/></svg>