<svg viewBox="0 0 1000 1002.5846" xmlns="http://www.w3.org/2000/svg"><path d="M496 38.27c-110 57-207 210-239 330 63 4 114 25 153 60l19-20c-26-25-60-46-104-68 25-61 63-154 111-160 18-2 39 9 60 41 69-114 134 37 172 119-43 24-77 45-103 71l17 19c38-35 89-57 153-62-35-119-127-270-239-330zm-67 244c-17 0-31 8-31 18 0 9 14 17 31 17s31-8 31-17c0-10-14-18-31-18zm135 0c-18 0-32 8-32 18 0 9 14 17 32 17 17 0 31-8 31-17 0-10-14-18-31-18zm-233 139c-4 7-8 14-12 22-50 96-85 242-86 437 64 37 126 61 187 72-69-48-118-158-118-287 0-89 24-170 62-227-10-7-21-12-33-17zm330 0c-11 5-22 11-31 18 37 56 61 137 61 226 0 129-49 239-118 287 60-11 122-35 187-72-2-195-36-340-86-436-4-8-8-15-13-23zm-190 47c13 44 17 88 2 132h-82v36c20-7 40-11 60-13 0 98 3 189 39 284l8 22 9-22c38-93 35-186 35-283 20 3 40 7 59 12v-36h-80c-14-44-12-88 1-132h-51z"/></svg>