<svg viewBox="0 0 1000 1002.5846" xmlns="http://www.w3.org/2000/svg"><path d="M592 38.27l-316 182 183 317 316-183-9-16-10-16-8-15-156-269zm-40 65l-98 176c-38-15-74-34-110-56l208-120zm39 5l123 214c-79 4-154-6-226-30l103-184zm-492 50l-54 170 145 100 55-170-12-7-134-93zm20 58l63 44-86 29 23-73zm754 44l-90 34 17 32 40-15 6 85-78 30-2-25-35 20 4 56 149-56-11-161zm-529 6c63 36 128 63 196 78l-77 127-119-205zm-149 28l-25 76-65-45 90-31zm383 57c38 6 76 9 114 8l-182 106 68-114zm-537 88l4 28 43 310 326 96-4-28-46-25-208-61 117-51 67-107 13 99 32-39-17-125-327-97zm44 51l238 70-75 119-129 56-34-245zm612 10l-174 47-4 4-174 218 385 201 232-366-265-104zm-27 45l61 108-168 44 5-125 102-27zm42 0l173 68-117 30-56-98zm-181 51l-5 111-107 28 112-139zm360 53l-144 227 27-196 117-31zm-155 41l-27 197-132-156 159-41zm-198 52l132 156-243-127 111-29z"/></svg>