<svg viewBox="0 0 1000 1002.5846" xmlns="http://www.w3.org/2000/svg"><path d="M691 95.27c-21-1-40 6-57 25v1l-99 98 1 1c7 7 6 19-1 25-7 7-19 6-25-1l-12-14c-1 3-3 5-5 7-10 11-23 18-36 21l11 40c5 17-17 30-30 17l-80 80c2-1 5-1 8-1 79 0 144 66 144 146v5l277-300c16-21 19-41 13-63-5-21-19-43-39-59-6-5-12-10-19-13l-237 247c-7 7-18 7-25 1-7-7-7-18 0-25l226-237c-4-1-7-1-11-1h-4zm-237 72c-8 0-18 4-25 12-12 13-11 31-2 40 10 9 28 8 40-6 13-14 12-31 2-40-4-3-8-5-14-6h-1zm-55 125c-14 0-26 4-38 17v1l-195 193c21 1 41 8 57 20 3-23 11-45 23-64l1-1 13-16c3-4 7-8 11-12l139-137c-3 0-5-1-8-1h-3zm378 28c-5 0-9 1-13 1l-284 308c-6 7-12 14-19 21l-12 12c20 4 38 12 54 23v-2c0-24 9-46 23-63v-1l3-2 6-6 209-208c17-18 39-26 60-24 22 1 42 10 58 24 16 13 28 31 33 52 2 6 3 12 3 19 9-19 9-37 4-57-7-25-25-50-48-68-22-17-48-28-73-29h-4zm23 94c-11-1-21 3-30 13l-1 1-160 159c44 5 78 39 84 83l161-174c9-11 10-22 7-33-3-12-11-24-22-33-11-10-25-16-37-16h-2zm-434 15c-10 0-19 2-28 4 4 0 8-1 12-1 48 0 88 39 88 87s-40 87-88 87-88-39-88-87c0-5 0-11 1-16-4 12-6 24-6 37 0 62 49 111 109 111s109-49 109-111c0-61-49-111-109-111zm-16 38c-30 0-53 24-53 52 0 29 23 52 53 52 29 0 53-23 53-52 0-28-24-52-53-52zm-7 15c17 0 32 14 32 31s-15 31-32 31-31-14-31-31 14-31 31-31zm-183 56c-41 0-75 34-75 76 0 43 34 77 75 77 42 0 76-34 76-77 0-6-1-11-2-17-3-5-5-11-6-17-13-25-38-42-68-42zm0 21c30 0 53 28 53 59 0 30-23 58-53 58-31 0-53-28-53-58 0-31 22-59 53-59zm727 1c-13 0-25 4-36 17h-1l-188 186c54 4 96 47 101 100l189-205c10-13 12-25 8-39 0-2-1-4-1-6l-124 130c-7 7-18 7-25 0-7-6-7-18-1-25l128-133 2-2c-2-1-3-3-5-4-13-11-29-18-44-19h-3zm-728 29c-15 0-27 13-27 30s12 31 27 31 27-14 27-31-12-30-27-30zm440 32c-34 0-61 27-61 62s27 62 61 62 60-27 60-62-27-62-60-62zm-5 22c22 0 38 20 38 41s-16 41-38 41-38-20-38-41 16-41 38-41zm-319 10l-27 30c-5 5-9 10-15 15l-7 8c18 12 34 27 47 46 13-29 34-53 60-70-21-5-41-15-58-29zm141 40c-68 0-123 56-123 126 0 69 55 125 123 125s123-56 123-125c0-70-55-126-123-126zm-282 30c-51 9-90 54-90 109 0 27 10 52 26 72-10-15-16-33-16-53 0-51 41-93 92-93s93 42 93 93c0 41-26 76-63 89 44-10 78-47 84-94-1-9-2-18-2-27v-12c-9-41-40-73-79-83-6 2-12 2-19 2-9 0-17-1-26-3zm275 1c53 0 96 44 96 98s-43 98-96 98c-54 0-97-44-97-98s43-98 97-98zm0 35c-34 0-61 28-61 63s27 63 61 63c33 0 61-28 61-63s-28-63-61-63zm159 16c3 9 5 18 6 27 7-8 15-16 25-22-11 0-21-2-31-5zm-422 18c-31 0-57 26-57 58 0 33 26 59 57 59 32 0 58-26 57-59 1-32-25-58-57-58zm261 0c18 0 30 16 30 31 0 16-12 32-30 32-17 0-29-16-29-32 0-15 12-31 29-31zm249 5c-40 0-72 33-72 74s32 74 72 74 72-33 72-74-32-74-72-74zm-516 27c18 0 30 15 30 31s-12 31-30 31c-17 0-29-15-29-31s12-31 29-31zm524 3c28 0 52 24 52 53 0 28-24 52-52 52-29 0-52-24-52-52 0-29 23-53 52-53zm0 35c-10 0-17 7-17 18s7 17 17 17c9 0 17-7 17-17 0-11-8-18-17-18z"/></svg>